solid ascii
 facet normal -0.00880763 0.926416 0.376398
  outer loop
   vertex 0.006126 -0.136933 -0.026989
   vertex 0.009136 -0.13515 -0.031307
   vertex 0.003247 -0.135065 -0.031654
  endloop
 endfacet
 facet normal 0.0129323 0.999594 0.0253694
  outer loop
   vertex 0.007607 -0.135025 -0.035453
   vertex 0.003247 -0.135065 -0.031654
   vertex 0.009136 -0.13515 -0.031307
  endloop
 endfacet
 facet normal 0.839839 -0.166658 0.51662
  outer loop
   vertex 0.009136 -0.13515 -0.031307
   vertex 0.006126 -0.136933 -0.026989
   vertex 0.008733 -0.13821 -0.031639
  endloop
 endfacet
 facet normal 0.793428 -0.302814 0.527992
  outer loop
   vertex 0.005795 -0.139312 -0.027856
   vertex 0.008733 -0.13821 -0.031639
   vertex 0.006126 -0.136933 -0.026989
  endloop
 endfacet
 facet normal -0.859912 -0.0591644 0.507003
  outer loop
   vertex 0.003247 -0.135065 -0.031654
   vertex 0.003076 -0.138304 -0.032322
   vertex 0.006126 -0.136933 -0.026989
  endloop
 endfacet
 facet normal -0.858822 -0.0656615 0.508049
  outer loop
   vertex 0.005795 -0.139312 -0.027856
   vertex 0.006126 -0.136933 -0.026989
   vertex 0.003076 -0.138304 -0.032322
  endloop
 endfacet
 facet normal 0.916121 -0.130182 -0.379177
  outer loop
   vertex 0.007145 -0.138483 -0.035382
   vertex 0.007607 -0.135025 -0.035453
   vertex 0.008733 -0.13821 -0.031639
  endloop
 endfacet
 facet normal 0.933969 -0.0853538 -0.347011
  outer loop
   vertex 0.009136 -0.13515 -0.031307
   vertex 0.008733 -0.13821 -0.031639
   vertex 0.007607 -0.135025 -0.035453
  endloop
 endfacet
 facet normal -0.6556 0.072157 -0.751653
  outer loop
   vertex 0.007607 -0.135025 -0.035453
   vertex 0.007145 -0.138483 -0.035382
   vertex 0.003247 -0.135065 -0.031654
  endloop
 endfacet
 facet normal -0.58424 0.193401 -0.7882
  outer loop
   vertex 0.003076 -0.138304 -0.032322
   vertex 0.003247 -0.135065 -0.031654
   vertex 0.007145 -0.138483 -0.035382
  endloop
 endfacet
 facet normal 0.796271 -0.277338 0.537621
  outer loop
   vertex 0.008733 -0.13821 -0.031639
   vertex 0.005795 -0.139312 -0.027856
   vertex 0.007519 -0.141019 -0.03129
  endloop
 endfacet
 facet normal 0.785702 -0.297533 0.542353
  outer loop
   vertex 0.007519 -0.141019 -0.03129
   vertex 0.005795 -0.139312 -0.027856
   vertex 0.005165 -0.141785 -0.0283
  endloop
 endfacet
 facet normal -0.858453 -0.0575753 0.50965
  outer loop
   vertex 0.003076 -0.138304 -0.032322
   vertex 0.00352 -0.141463 -0.031931
   vertex 0.005795 -0.139312 -0.027856
  endloop
 endfacet
 facet normal -0.895025 0.152776 0.419033
  outer loop
   vertex 0.005165 -0.141785 -0.0283
   vertex 0.005795 -0.139312 -0.027856
   vertex 0.00352 -0.141463 -0.031931
  endloop
 endfacet
 facet normal 0.802016 -0.514917 -0.302705
  outer loop
   vertex 0.007145 -0.138483 -0.035382
   vertex 0.008733 -0.13821 -0.031639
   vertex 0.005884 -0.141363 -0.033824
  endloop
 endfacet
 facet normal 0.793903 -0.400007 -0.457944
  outer loop
   vertex 0.007519 -0.141019 -0.03129
   vertex 0.005884 -0.141363 -0.033824
   vertex 0.008733 -0.13821 -0.031639
  endloop
 endfacet
 facet normal -0.597564 -0.163057 -0.785066
  outer loop
   vertex 0.007145 -0.138483 -0.035382
   vertex 0.005884 -0.141363 -0.033824
   vertex 0.003076 -0.138304 -0.032322
  endloop
 endfacet
 facet normal -0.610026 -0.181216 -0.771381
  outer loop
   vertex 0.00352 -0.141463 -0.031931
   vertex 0.003076 -0.138304 -0.032322
   vertex 0.005884 -0.141363 -0.033824
  endloop
 endfacet
 facet normal 0.794082 -0.100304 0.599477
  outer loop
   vertex 0.007519 -0.141019 -0.03129
   vertex 0.005165 -0.141785 -0.0283
   vertex 0.007022 -0.144093 -0.031146
  endloop
 endfacet
 facet normal 0.710579 -0.242669 0.660446
  outer loop
   vertex 0.004928 -0.144082 -0.028889
   vertex 0.007022 -0.144093 -0.031146
   vertex 0.005165 -0.141785 -0.0283
  endloop
 endfacet
 facet normal -0.848894 0.136679 0.510586
  outer loop
   vertex 0.003254 -0.144699 -0.031507
   vertex 0.004928 -0.144082 -0.028889
   vertex 0.00352 -0.141463 -0.031931
  endloop
 endfacet
 facet normal -0.911206 -0.011575 0.411789
  outer loop
   vertex 0.005165 -0.141785 -0.0283
   vertex 0.00352 -0.141463 -0.031931
   vertex 0.004928 -0.144082 -0.028889
  endloop
 endfacet
 facet normal 0.839198 -0.160027 -0.519747
  outer loop
   vertex 0.007519 -0.141019 -0.03129
   vertex 0.007022 -0.144093 -0.031146
   vertex 0.005884 -0.141363 -0.033824
  endloop
 endfacet
 facet normal 0.76853 -0.255184 -0.586722
  outer loop
   vertex 0.005258 -0.144706 -0.03319
   vertex 0.005884 -0.141363 -0.033824
   vertex 0.007022 -0.144093 -0.031146
  endloop
 endfacet
 facet normal -0.623946 -0.0312484 -0.780842
  outer loop
   vertex 0.005884 -0.141363 -0.033824
   vertex 0.005258 -0.144706 -0.03319
   vertex 0.00352 -0.141463 -0.031931
  endloop
 endfacet
 facet normal -0.642486 -0.0474003 -0.76483
  outer loop
   vertex 0.003254 -0.144699 -0.031507
   vertex 0.00352 -0.141463 -0.031931
   vertex 0.005258 -0.144706 -0.03319
  endloop
 endfacet
 facet normal 0.731951 0.0589435 0.678803
  outer loop
   vertex 0.007022 -0.144093 -0.031146
   vertex 0.004928 -0.144082 -0.028889
   vertex 0.006632 -0.147058 -0.030468
  endloop
 endfacet
 facet normal 0.884118 0.331513 0.329294
  outer loop
   vertex 0.005637 -0.146543 -0.028315
   vertex 0.006632 -0.147058 -0.030468
   vertex 0.004928 -0.144082 -0.028889
  endloop
 endfacet
 facet normal -0.765119 0.109568 0.634499
  outer loop
   vertex 0.003106 -0.147962 -0.031122
   vertex 0.005637 -0.146543 -0.028315
   vertex 0.003254 -0.144699 -0.031507
  endloop
 endfacet
 facet normal -0.825666 -0.108754 0.553578
  outer loop
   vertex 0.004928 -0.144082 -0.028889
   vertex 0.003254 -0.144699 -0.031507
   vertex 0.005637 -0.146543 -0.028315
  endloop
 endfacet
 facet normal 0.882991 -0.0265335 -0.468639
  outer loop
   vertex 0.005293 -0.148522 -0.032908
   vertex 0.005258 -0.144706 -0.03319
   vertex 0.006632 -0.147058 -0.030468
  endloop
 endfacet
 facet normal 0.769522 -0.236838 -0.59308
  outer loop
   vertex 0.005258 -0.144706 -0.03319
   vertex 0.007022 -0.144093 -0.031146
   vertex 0.006632 -0.147058 -0.030468
  endloop
 endfacet
 facet normal -0.64083 -0.0624211 -0.765141
  outer loop
   vertex 0.005293 -0.148522 -0.032908
   vertex 0.003106 -0.147962 -0.031122
   vertex 0.005258 -0.144706 -0.03319
  endloop
 endfacet
 facet normal -0.642037 -0.0610513 -0.764239
  outer loop
   vertex 0.003254 -0.144699 -0.031507
   vertex 0.005258 -0.144706 -0.03319
   vertex 0.003106 -0.147962 -0.031122
  endloop
 endfacet
 facet normal 0.929307 0.16961 0.328055
  outer loop
   vertex 0.007026 -0.150062 -0.030031
   vertex 0.006632 -0.147058 -0.030468
   vertex 0.006103 -0.148995 -0.027968
  endloop
 endfacet
 facet normal 0.904063 0.223382 0.364376
  outer loop
   vertex 0.005637 -0.146543 -0.028315
   vertex 0.006103 -0.148995 -0.027968
   vertex 0.006632 -0.147058 -0.030468
  endloop
 endfacet
 facet normal -0.726144 -0.00762791 0.6875
  outer loop
   vertex 0.003919 -0.150909 -0.030296
   vertex 0.006103 -0.148995 -0.027968
   vertex 0.003106 -0.147962 -0.031122
  endloop
 endfacet
 facet normal -0.731193 -0.0426122 0.680839
  outer loop
   vertex 0.005637 -0.146543 -0.028315
   vertex 0.003106 -0.147962 -0.031122
   vertex 0.006103 -0.148995 -0.027968
  endloop
 endfacet
 facet normal 0.833938 -0.0812789 -0.54584
  outer loop
   vertex 0.005594 -0.151921 -0.031942
   vertex 0.005293 -0.148522 -0.032908
   vertex 0.007026 -0.150062 -0.030031
  endloop
 endfacet
 facet normal 0.865398 0.0408526 -0.499417
  outer loop
   vertex 0.006632 -0.147058 -0.030468
   vertex 0.007026 -0.150062 -0.030031
   vertex 0.005293 -0.148522 -0.032908
  endloop
 endfacet
 facet normal -0.64307 -0.365956 -0.672709
  outer loop
   vertex 0.003106 -0.147962 -0.031122
   vertex 0.005293 -0.148522 -0.032908
   vertex 0.003919 -0.150909 -0.030296
  endloop
 endfacet
 facet normal -0.750447 -0.241325 -0.615298
  outer loop
   vertex 0.003919 -0.150909 -0.030296
   vertex 0.005293 -0.148522 -0.032908
   vertex 0.005594 -0.151921 -0.031942
  endloop
 endfacet
 facet normal 0.929287 0.163715 0.331095
  outer loop
   vertex 0.006103 -0.148995 -0.027968
   vertex 0.006445 -0.151454 -0.027712
   vertex 0.007026 -0.150062 -0.030031
  endloop
 endfacet
 facet normal 0.916174 -0.400632 -0.0109469
  outer loop
   vertex 0.005824 -0.152828 -0.0294
   vertex 0.007026 -0.150062 -0.030031
   vertex 0.006445 -0.151454 -0.027712
  endloop
 endfacet
 facet normal -0.727517 -0.00432899 0.686076
  outer loop
   vertex 0.003919 -0.150909 -0.030296
   vertex 0.005333 -0.153193 -0.028811
   vertex 0.006103 -0.148995 -0.027968
  endloop
 endfacet
 facet normal -0.686883 -0.0198987 0.726495
  outer loop
   vertex 0.006445 -0.151454 -0.027712
   vertex 0.006103 -0.148995 -0.027968
   vertex 0.005333 -0.153193 -0.028811
  endloop
 endfacet
 facet normal 0.871378 -0.431802 -0.23291
  outer loop
   vertex 0.005594 -0.151921 -0.031942
   vertex 0.007026 -0.150062 -0.030031
   vertex 0.005824 -0.152828 -0.0294
  endloop
 endfacet
 facet normal -0.645392 -0.736044 -0.204227
  outer loop
   vertex 0.005594 -0.151921 -0.031942
   vertex 0.005824 -0.152828 -0.0294
   vertex 0.003919 -0.150909 -0.030296
  endloop
 endfacet
 facet normal -0.334493 -0.650455 -0.681926
  outer loop
   vertex 0.005333 -0.153193 -0.028811
   vertex 0.003919 -0.150909 -0.030296
   vertex 0.005824 -0.152828 -0.0294
  endloop
 endfacet
 facet normal 0.745126 -0.624461 0.234171
  outer loop
   vertex 0.005824 -0.152828 -0.0294
   vertex 0.006445 -0.151454 -0.027712
   vertex 0.005333 -0.153193 -0.028811
  endloop
 endfacet
endsolid
