solid ascii
 facet normal -0.128036 0.928141 0.349517
  outer loop
   vertex 0.001718 -0.166486 0.004528
   vertex 0.00471 -0.163984 -0.00102
   vertex -0.002421 -0.164976 -0.000998
  endloop
 endfacet
 facet normal -0.137795 0.990453 -0.00387857
  outer loop
   vertex 0.002556 -0.164303 -0.005957
   vertex -0.002421 -0.164976 -0.000998
   vertex 0.00471 -0.163984 -0.00102
  endloop
 endfacet
 facet normal 0.883568 -0.0190414 0.467915
  outer loop
   vertex 0.00471 -0.163984 -0.00102
   vertex 0.001718 -0.166486 0.004528
   vertex 0.00477 -0.167761 -0.001287
  endloop
 endfacet
 facet normal 0.859079 -0.160406 0.486058
  outer loop
   vertex 0.0017 -0.169455 0.00358
   vertex 0.00477 -0.167761 -0.001287
   vertex 0.001718 -0.166486 0.004528
  endloop
 endfacet
 facet normal -0.810481 -0.168359 0.561049
  outer loop
   vertex -0.002421 -0.164976 -0.000998
   vertex -0.002073 -0.168944 -0.001686
   vertex 0.001718 -0.166486 0.004528
  endloop
 endfacet
 facet normal -0.808343 -0.174615 0.56222
  outer loop
   vertex 0.0017 -0.169455 0.00358
   vertex 0.001718 -0.166486 0.004528
   vertex -0.002073 -0.168944 -0.001686
  endloop
 endfacet
 facet normal 0.902071 -0.00525841 -0.431556
  outer loop
   vertex 0.002647 -0.168553 -0.005715
   vertex 0.002556 -0.164303 -0.005957
   vertex 0.00477 -0.167761 -0.001287
  endloop
 endfacet
 facet normal 0.914696 0.042938 -0.401854
  outer loop
   vertex 0.00471 -0.163984 -0.00102
   vertex 0.00477 -0.167761 -0.001287
   vertex 0.002556 -0.164303 -0.005957
  endloop
 endfacet
 facet normal -0.700961 -0.0554962 -0.711037
  outer loop
   vertex 0.002556 -0.164303 -0.005957
   vertex 0.002647 -0.168553 -0.005715
   vertex -0.002421 -0.164976 -0.000998
  endloop
 endfacet
 facet normal -0.650997 0.0738962 -0.755475
  outer loop
   vertex -0.002073 -0.168944 -0.001686
   vertex -0.002421 -0.164976 -0.000998
   vertex 0.002647 -0.168553 -0.005715
  endloop
 endfacet
 facet normal 0.858557 -0.134285 0.49482
  outer loop
   vertex 0.00477 -0.167761 -0.001287
   vertex 0.0017 -0.169455 0.00358
   vertex 0.003854 -0.171355 -0.000673
  endloop
 endfacet
 facet normal 0.851525 -0.155485 0.50073
  outer loop
   vertex 0.00137 -0.172573 0.003173
   vertex 0.003854 -0.171355 -0.000673
   vertex 0.0017 -0.169455 0.00358
  endloop
 endfacet
 facet normal -0.809093 -0.16678 0.563518
  outer loop
   vertex -0.002073 -0.168944 -0.001686
   vertex -0.000924 -0.172653 -0.001134
   vertex 0.0017 -0.169455 0.00358
  endloop
 endfacet
 facet normal -0.882406 0.0321205 0.469391
  outer loop
   vertex 0.00137 -0.172573 0.003173
   vertex 0.0017 -0.169455 0.00358
   vertex -0.000924 -0.172653 -0.001134
  endloop
 endfacet
 facet normal 0.852419 -0.399579 -0.337222
  outer loop
   vertex 0.002647 -0.168553 -0.005715
   vertex 0.00477 -0.167761 -0.001287
   vertex 0.001772 -0.172186 -0.003622
  endloop
 endfacet
 facet normal 0.818019 -0.293045 -0.494945
  outer loop
   vertex 0.00477 -0.167761 -0.001287
   vertex 0.003854 -0.171355 -0.000673
   vertex 0.001772 -0.172186 -0.003622
  endloop
 endfacet
 facet normal -0.609671 -0.280309 -0.741437
  outer loop
   vertex 0.002647 -0.168553 -0.005715
   vertex 0.001772 -0.172186 -0.003622
   vertex -0.002073 -0.168944 -0.001686
  endloop
 endfacet
 facet normal -0.618461 -0.299702 -0.726419
  outer loop
   vertex -0.000924 -0.172653 -0.001134
   vertex -0.002073 -0.168944 -0.001686
   vertex 0.001772 -0.172186 -0.003622
  endloop
 endfacet
 facet normal 0.833019 0.0428352 0.551584
  outer loop
   vertex 0.003854 -0.171355 -0.000673
   vertex 0.00137 -0.172573 0.003173
   vertex 0.003837 -0.175145 -0.000353
  endloop
 endfacet
 facet normal 0.775761 -0.108185 0.621683
  outer loop
   vertex 0.00147 -0.175413 0.002554
   vertex 0.003837 -0.175145 -0.000353
   vertex 0.00137 -0.172573 0.003173
  endloop
 endfacet
 facet normal -0.829291 0.0265462 0.558186
  outer loop
   vertex -0.000613 -0.176584 -0.000485
   vertex 0.00147 -0.175413 0.002554
   vertex -0.000924 -0.172653 -0.001134
  endloop
 endfacet
 facet normal -0.873778 -0.13274 0.467859
  outer loop
   vertex 0.00147 -0.175413 0.002554
   vertex 0.00137 -0.172573 0.003173
   vertex -0.000924 -0.172653 -0.001134
  endloop
 endfacet
 facet normal 0.822618 -0.0515004 -0.566257
  outer loop
   vertex 0.003854 -0.171355 -0.000673
   vertex 0.003837 -0.175145 -0.000353
   vertex 0.001772 -0.172186 -0.003622
  endloop
 endfacet
 facet normal 0.763448 -0.158833 -0.626035
  outer loop
   vertex 0.001683 -0.176303 -0.002686
   vertex 0.001772 -0.172186 -0.003622
   vertex 0.003837 -0.175145 -0.000353
  endloop
 endfacet
 facet normal -0.65558 -0.153902 -0.739276
  outer loop
   vertex 0.001772 -0.172186 -0.003622
   vertex 0.001683 -0.176303 -0.002686
   vertex -0.000924 -0.172653 -0.001134
  endloop
 endfacet
 facet normal -0.670617 -0.172181 -0.721545
  outer loop
   vertex -0.000613 -0.176584 -0.000485
   vertex -0.000924 -0.172653 -0.001134
   vertex 0.001683 -0.176303 -0.002686
  endloop
 endfacet
 facet normal 0.751941 0.193732 0.630122
  outer loop
   vertex 0.003837 -0.175145 -0.000353
   vertex 0.00147 -0.175413 0.002554
   vertex 0.003965 -0.178761 0.000606
  endloop
 endfacet
 facet normal 0.840654 0.472945 0.263864
  outer loop
   vertex 0.002822 -0.178224 0.003285
   vertex 0.003965 -0.178761 0.000606
   vertex 0.00147 -0.175413 0.002554
  endloop
 endfacet
 facet normal -0.735293 0.017405 0.677526
  outer loop
   vertex -0.000159 -0.180527 0.000109
   vertex 0.002822 -0.178224 0.003285
   vertex -0.000613 -0.176584 -0.000485
  endloop
 endfacet
 facet normal -0.766493 -0.210902 0.606638
  outer loop
   vertex 0.00147 -0.175413 0.002554
   vertex -0.000613 -0.176584 -0.000485
   vertex 0.002822 -0.178224 0.003285
  endloop
 endfacet
 facet normal 0.848422 0.0887995 -0.521819
  outer loop
   vertex 0.002454 -0.180884 -0.002212
   vertex 0.001683 -0.176303 -0.002686
   vertex 0.003965 -0.178761 0.000606
  endloop
 endfacet
 facet normal 0.761279 -0.140911 -0.632928
  outer loop
   vertex 0.003837 -0.175145 -0.000353
   vertex 0.003965 -0.178761 0.000606
   vertex 0.001683 -0.176303 -0.002686
  endloop
 endfacet
 facet normal -0.666548 -0.186854 -0.721664
  outer loop
   vertex 0.002454 -0.180884 -0.002212
   vertex -0.000159 -0.180527 0.000109
   vertex 0.001683 -0.176303 -0.002686
  endloop
 endfacet
 facet normal -0.668083 -0.18548 -0.720599
  outer loop
   vertex -0.000613 -0.176584 -0.000485
   vertex 0.001683 -0.176303 -0.002686
   vertex -0.000159 -0.180527 0.000109
  endloop
 endfacet
 facet normal 0.909835 0.319513 0.264787
  outer loop
   vertex 0.005028 -0.182291 0.001213
   vertex 0.003965 -0.178761 0.000606
   vertex 0.003862 -0.181079 0.003757
  endloop
 endfacet
 facet normal 0.878992 0.369934 0.30087
  outer loop
   vertex 0.002822 -0.178224 0.003285
   vertex 0.003862 -0.181079 0.003757
   vertex 0.003965 -0.178761 0.000606
  endloop
 endfacet
 facet normal -0.675954 -0.0908055 0.731328
  outer loop
   vertex 0.001425 -0.183894 0.001155
   vertex 0.003862 -0.181079 0.003757
   vertex -0.000159 -0.180527 0.000109
  endloop
 endfacet
 facet normal -0.675996 -0.126219 0.726016
  outer loop
   vertex 0.002822 -0.178224 0.003285
   vertex -0.000159 -0.180527 0.000109
   vertex 0.003862 -0.181079 0.003757
  endloop
 endfacet
 facet normal 0.803973 0.0244651 -0.594162
  outer loop
   vertex 0.003515 -0.184883 -0.000941
   vertex 0.002454 -0.180884 -0.002212
   vertex 0.005028 -0.182291 0.001213
  endloop
 endfacet
 facet normal 0.819073 0.151504 -0.553322
  outer loop
   vertex 0.003965 -0.178761 0.000606
   vertex 0.005028 -0.182291 0.001213
   vertex 0.002454 -0.180884 -0.002212
  endloop
 endfacet
 facet normal -0.617378 -0.483278 -0.620714
  outer loop
   vertex -0.000159 -0.180527 0.000109
   vertex 0.002454 -0.180884 -0.002212
   vertex 0.001425 -0.183894 0.001155
  endloop
 endfacet
 facet normal -0.738966 -0.374143 -0.56031
  outer loop
   vertex 0.001425 -0.183894 0.001155
   vertex 0.002454 -0.180884 -0.002212
   vertex 0.003515 -0.184883 -0.000941
  endloop
 endfacet
 facet normal 0.910893 0.313755 0.268015
  outer loop
   vertex 0.003862 -0.181079 0.003757
   vertex 0.004748 -0.183969 0.004129
   vertex 0.005028 -0.182291 0.001213
  endloop
 endfacet
 facet normal 0.964336 -0.25864 -0.0562361
  outer loop
   vertex 0.004748 -0.183969 0.004129
   vertex 0.004138 -0.185817 0.002168
   vertex 0.005028 -0.182291 0.001213
  endloop
 endfacet
 facet normal -0.677973 -0.0876807 0.729839
  outer loop
   vertex 0.001425 -0.183894 0.001155
   vertex 0.003656 -0.18632 0.002936
   vertex 0.003862 -0.181079 0.003757
  endloop
 endfacet
 facet normal -0.633506 -0.0953808 0.767836
  outer loop
   vertex 0.004748 -0.183969 0.004129
   vertex 0.003862 -0.181079 0.003757
   vertex 0.003656 -0.18632 0.002936
  endloop
 endfacet
 facet normal 0.912163 -0.304524 -0.27427
  outer loop
   vertex 0.003515 -0.184883 -0.000941
   vertex 0.005028 -0.182291 0.001213
   vertex 0.004138 -0.185817 0.002168
  endloop
 endfacet
 facet normal -0.536444 -0.831835 -0.142404
  outer loop
   vertex 0.003515 -0.184883 -0.000941
   vertex 0.004138 -0.185817 0.002168
   vertex 0.001425 -0.183894 0.001155
  endloop
 endfacet
 facet normal -0.270363 -0.718818 -0.640472
  outer loop
   vertex 0.003656 -0.18632 0.002936
   vertex 0.001425 -0.183894 0.001155
   vertex 0.004138 -0.185817 0.002168
  endloop
 endfacet
 facet normal 0.843875 -0.495904 0.204826
  outer loop
   vertex 0.004138 -0.185817 0.002168
   vertex 0.004748 -0.183969 0.004129
   vertex 0.003656 -0.18632 0.002936
  endloop
 endfacet
endsolid
