solid OBJECT
  facet normal -0.07840314016782228 -0.051379066585525893 0.99559687581300926
    outer loop
      vertex -5.9000001783715561e-05 -0.035555997371673649 -0.0031699999235570431
      vertex 0.0044320002198219299 -0.0031309961080551773 -0.001142999972216785
      vertex -0.0060399998910725117 -0.0038350014686585098 -0.0020039998926222324
    endloop
  endfacet
  facet normal -0.063539833090716494 0.9970756716617577 -0.042459328669430405
    outer loop
      vertex 0.0044320002198219299 -0.0031309961080551773 -0.001142999972216785
      vertex 0.0035399999469518661 -0.0034559904336929946 -0.0074399998411536217
      vertex -0.0060399998910725117 -0.0038350014686585098 -0.0020039998926222324
    endloop
  endfacet
  facet normal -0.068272603133000473 0.99637001642816692 -0.050849208689797365
    outer loop
      vertex 0.0035399999469518661 -0.0034559904336929946 -0.0074399998411536217
      vertex -0.0017269999952986836 -0.004048997044563356 -0.011988000012934208
      vertex -0.0060399998910725117 -0.0038350014686585098 -0.0020039998926222324
    endloop
  endfacet
  facet normal -0.027085052021185205 0.99908448816415785 -0.033114731869249715
    outer loop
      vertex -0.0064599998295307159 -0.0040159909725189834 -0.0071209999732673168
      vertex -0.0060399998910725117 -0.0038350014686585098 -0.0020039998926222324
      vertex -0.0017269999952986836 -0.004048997044563356 -0.011988000012934208
    endloop
  endfacet
  facet normal 0.95984430582652192 -0.25215383108049372 -0.12295264960069884
    outer loop
      vertex 0.0035399999469518661 -0.0034559904336929946 -0.0074399998411536217
      vertex 0.0044320002198219299 -0.0031309961080551773 -0.001142999972216785
      vertex 0.0023219999857246876 -0.0086989938020706793 -0.0061960001476109028
    endloop
  endfacet
  facet normal 0.93476320586470496 -0.35526952625978186 0.0011457192890316013
    outer loop
      vertex 0.0023469999432563782 -0.0086159943342209479 -0.00085599999874830246
      vertex 0.0023219999857246876 -0.0086989938020706793 -0.0061960001476109028
      vertex 0.0044320002198219299 -0.0031309961080551773 -0.001142999972216785
    endloop
  endfacet
  facet normal 0.46786309384043678 -0.13212295949257793 0.873869354650326
    outer loop
      vertex 0.0044320002198219299 -0.0031309961080551773 -0.001142999972216785
      vertex -0.00029200001154094934 -0.0030000000000000625 0.0014059999957680702
      vertex 0.0023469999432563782 -0.0086159943342209479 -0.00085599999874830246
    endloop
  endfacet
  facet normal 0.55403478607306156 -0.073650133984404828 0.82922922861236392
    outer loop
      vertex -0.00036800000816583633 -0.0079739927053452155 0.00101500004529953
      vertex 0.0023469999432563782 -0.0086159943342209479 -0.00085599999874830246
      vertex -0.00029200001154094934 -0.0030000000000000625 0.0014059999957680702
    endloop
  endfacet
  facet normal 0.65573002478140563 -0.043255013420517123 -0.75375535713795627
    outer loop
      vertex -0.0017269999952986836 -0.004048997044563356 -0.011988000012934208
      vertex 0.0035399999469518661 -0.0034559904336929946 -0.0074399998411536217
      vertex -0.00072599999839439988 -0.0094889937639237067 -0.010804999619722366
    endloop
  endfacet
  facet normal 0.81743985800085894 -0.30572933901055793 -0.48818198432521331
    outer loop
      vertex 0.0023219999857246876 -0.0086989938020706793 -0.0061960001476109028
      vertex -0.00072599999839439988 -0.0094889937639237067 -0.010804999619722366
      vertex 0.0035399999469518661 -0.0034559904336929946 -0.0074399998411536217
    endloop
  endfacet
  facet normal -0.64278359887823622 -0.27385566713326215 -0.71542457225911571
    outer loop
      vertex -0.00072599999839439988 -0.0094889937639237067 -0.010804999619722366
      vertex -0.0055430000647902489 -0.009308987736702027 -0.0065460000187158585
      vertex -0.0017269999952986836 -0.004048997044563356 -0.011988000012934208
    endloop
  endfacet
  facet normal -0.70365212340236671 -0.19609770051800504 -0.68294903256604089
    outer loop
      vertex -0.0064599998295307159 -0.0040159909725189834 -0.0071209999732673168
      vertex -0.0017269999952986836 -0.004048997044563356 -0.011988000012934208
      vertex -0.0055430000647902489 -0.009308987736702027 -0.0065460000187158585
    endloop
  endfacet
  facet normal -0.98317465135304805 -0.16094777613353869 0.086391077632360092
    outer loop
      vertex -0.0064599998295307159 -0.0040159909725189834 -0.0071209999732673168
      vertex -0.0055430000647902489 -0.009308987736702027 -0.0065460000187158585
      vertex -0.0060399998910725117 -0.0038350014686585098 -0.0020039998926222324
    endloop
  endfacet
  facet normal -0.97961407136111978 -0.17327819602749489 0.10164122181845285
    outer loop
      vertex -0.0051589999347925186 -0.0089499889612198492 -0.0022330000065267086
      vertex -0.0060399998910725117 -0.0038350014686585098 -0.0020039998926222324
      vertex -0.0055430000647902489 -0.009308987736702027 -0.0065460000187158585
    endloop
  endfacet
  facet normal -0.50282598203811779 -0.060101174690065089 0.86229570368190767
    outer loop
      vertex -0.00029200001154094934 -0.0030000000000000625 0.0014059999957680702
      vertex -0.0060399998910725117 -0.0038350014686585098 -0.0020039998926222324
      vertex -0.00036800000816583633 -0.0079739927053452155 0.00101500004529953
    endloop
  endfacet
  facet normal -0.53810744570460567 -0.12996766108246283 0.83279576364797803
    outer loop
      vertex -0.0051589999347925186 -0.0089499889612198492 -0.0022330000065267086
      vertex -0.00036800000816583633 -0.0079739927053452155 0.00101500004529953
      vertex -0.0060399998910725117 -0.0038350014686585098 -0.0020039998926222324
    endloop
  endfacet
  facet normal -0.10208027640986743 -0.8970986368876287 0.42987632275160659
    outer loop
      vertex 0.0032309999223798513 -0.034499996781349247 -0.00018499999714549631
      vertex 0.00084900000365450978 -0.033801996588707035 0.00070600002072751522
      vertex -5.9000001783715561e-05 -0.035555997371673649 -0.0031699999235570431
    endloop
  endfacet
  facet normal -0.49342374053751725 -0.74318119424438667 0.45190123345201477
    outer loop
      vertex 0.00084900000365450978 -0.033801996588707035 0.00070600002072751522
      vertex -0.00045500000123865902 -0.035210990786552494 -0.0030350000597536564
      vertex -5.9000001783715561e-05 -0.035555997371673649 -0.0031699999235570431
    endloop
  endfacet
  facet normal -0.63816519493953083 -0.37760338118080744 -0.67094028831827679
    outer loop
      vertex 0.0016629999736323953 -0.032225990176200932 -0.0066820001229643822
      vertex -5.9000001783715561e-05 -0.035555997371673649 -0.0031699999235570431
      vertex -0.0029140000697225332 -0.030618989348411622 -0.0032329999376088381
    endloop
  endfacet
  facet normal -0.54699305944223642 -0.32615652801395567 -0.77098671334589397
    outer loop
      vertex -0.00045500000123865902 -0.035210990786552494 -0.0030350000597536564
      vertex -0.0029140000697225332 -0.030618989348411622 -0.0032329999376088381
      vertex -5.9000001783715561e-05 -0.035555997371673649 -0.0031699999235570431
    endloop
  endfacet
  facet normal 0.80578013487138023 -0.5732948054466247 -0.14849727369408836
    outer loop
      vertex 0.0016629999736323953 -0.032225990176200932 -0.0066820001229643822
      vertex 0.0040859999135136604 -0.030013987302780213 -0.002073999959975481
      vertex -5.9000001783715561e-05 -0.035555997371673649 -0.0031699999235570431
    endloop
  endfacet
  facet normal 0.68426372327645546 -0.38990741750074775 -0.61624294136788293
    outer loop
      vertex 0.0032309999223798513 -0.034499996781349247 -0.00018499999714549631
      vertex -5.9000001783715561e-05 -0.035555997371673649 -0.0031699999235570431
      vertex 0.0040859999135136604 -0.030013987302780213 -0.002073999959975481
    endloop
  endfacet
  facet normal 0.97893973092144626 -0.20414459346147062 -0.0014100297504715832
    outer loop
      vertex 0.0023219999857246876 -0.0086989938020706793 -0.0061960001476109028
      vertex 0.0023469999432563782 -0.0086159943342209479 -0.00085599999874830246
      vertex 0.0012280000373721123 -0.0139549909830094 -0.0047610001638531685
    endloop
  endfacet
  facet normal 0.98391028380619194 -0.096015866607155095 -0.15067019207559235
    outer loop
      vertex 0.0012280000373721123 -0.0139549909830094 -0.0047610001638531685
      vertex 0.0023469999432563782 -0.0086159943342209479 -0.00085599999874830246
      vertex 0.0018459999701008201 -0.014307001113891663 -0.00050099997315555811
    endloop
  endfacet
  facet normal 0.56263596182004139 -0.02848809223336048 0.82621377564631571
    outer loop
      vertex -0.00036800000816583633 -0.0079739927053452155 0.00101500004529953
      vertex -0.00028199999360367656 -0.013177999734878602 0.00077699997927993536
      vertex 0.0023469999432563782 -0.0086159943342209479 -0.00085599999874830246
    endloop
  endfacet
  facet normal 0.51786263207537109 0.0077715546478824673 0.85542848750688893
    outer loop
      vertex 0.0018459999701008201 -0.014307001113891663 -0.00050099997315555811
      vertex 0.0023469999432563782 -0.0086159943342209479 -0.00085599999874830246
      vertex -0.00028199999360367656 -0.013177999734878602 0.00077699997927993536
    endloop
  endfacet
  facet normal 0.83247032379215857 -0.20215330655573266 -0.51587517933504279
    outer loop
      vertex -0.00072599999839439988 -0.0094889937639237067 -0.010804999619722366
      vertex 0.0023219999857246876 -0.0086989938020706793 -0.0061960001476109028
      vertex -0.00077199999941512942 -0.015016996741294922 -0.0087130004540085793
    endloop
  endfacet
  facet normal 0.8838942393777709 -0.28518002333524045 -0.37067954878210302
    outer loop
      vertex 0.0012280000373721123 -0.0139549909830094 -0.0047610001638531685
      vertex -0.00077199999941512942 -0.015016996741294922 -0.0087130004540085793
      vertex 0.0023219999857246876 -0.0086989938020706793 -0.0061960001476109028
    endloop
  endfacet
  facet normal -0.55391648867695198 -0.047169575192276124 0.83123495760703925
    outer loop
      vertex -0.00036800000816583633 -0.0079739927053452155 0.00101500004529953
      vertex -0.0051589999347925186 -0.0089499889612198492 -0.0022330000065267086
      vertex -0.00028199999360367656 -0.013177999734878602 0.00077699997927993536
    endloop
  endfacet
  facet normal -0.4449667344270602 0.1186667361445834 0.88765016249990614
    outer loop
      vertex -0.0039110002107918262 -0.013844990611076417 -0.00095299998065456748
      vertex -0.00028199999360367656 -0.013177999734878602 0.00077699997927993536
      vertex -0.0051589999347925186 -0.0089499889612198492 -0.0022330000065267086
    endloop
  endfacet
  facet normal -0.64406927886577869 -0.26605844314226201 -0.71720824650448034
    outer loop
      vertex -0.00072599999839439988 -0.0094889937639237067 -0.010804999619722366
      vertex -0.00077199999941512942 -0.015016996741294922 -0.0087130004540085793
      vertex -0.0055430000647902489 -0.009308987736702027 -0.0065460000187158585
    endloop
  endfacet
  facet normal -0.57118963481837259 -0.17279064882833084 -0.80242494524630703
    outer loop
      vertex -0.0045750001445412636 -0.014593997478485169 -0.0060970000922679901
      vertex -0.0055430000647902489 -0.009308987736702027 -0.0065460000187158585
      vertex -0.00077199999941512942 -0.015016996741294922 -0.0087130004540085793
    endloop
  endfacet
  facet normal -0.96626657416365958 -0.2058985174764825 0.15470846180804651
    outer loop
      vertex -0.0039110002107918262 -0.013844990611076417 -0.00095299998065456748
      vertex -0.0051589999347925186 -0.0089499889612198492 -0.0022330000065267086
      vertex -0.0045750001445412636 -0.014593997478485169 -0.0060970000922679901
    endloop
  endfacet
  facet normal -0.98005113803742283 -0.17088417363579519 0.10148086535088401
    outer loop
      vertex -0.0055430000647902489 -0.009308987736702027 -0.0065460000187158585
      vertex -0.0045750001445412636 -0.014593997478485169 -0.0060970000922679901
      vertex -0.0051589999347925186 -0.0089499889612198492 -0.0022330000065267086
    endloop
  endfacet
  facet normal 0.74227491401262358 -0.37524807778241609 -0.55517279485593862
    outer loop
      vertex 0.0040859999135136604 -0.030013987302780213 -0.002073999959975481
      vertex 0.0069140000268816948 -0.030220994234085145 0.0018469999777153134
      vertex 0.0032309999223798513 -0.034499996781349247 -0.00018499999714549631
    endloop
  endfacet
  facet normal 0.67909072548167526 -0.69570290656358758 0.23416501097249359
    outer loop
      vertex 0.0031469999812543392 -0.03351298856735236 0.0029909999575465918
      vertex 0.0032309999223798513 -0.034499996781349247 -0.00018499999714549631
      vertex 0.0069140000268816948 -0.030220994234085145 0.0018469999777153134
    endloop
  endfacet
  facet normal -0.16829963552622348 -0.94258012973385641 0.28847518387661469
    outer loop
      vertex 0.0032309999223798513 -0.034499996781349247 -0.00018499999714549631
      vertex 0.0031469999812543392 -0.03351298856735236 0.0029909999575465918
      vertex 0.00084900000365450978 -0.033801996588707035 0.00070600002072751522
    endloop
  endfacet
  facet normal 0.026311460641692298 -0.99470465909734795 0.099349626113686987
    outer loop
      vertex 0.0016370000084862113 -0.033583992600441044 0.0026799999177455902
      vertex 0.00084900000365450978 -0.033801996588707035 0.00070600002072751522
      vertex 0.0031469999812543392 -0.03351298856735236 0.0029909999575465918
    endloop
  endfacet
  facet normal -0.63338280058914798 -0.17228218541871482 0.75441704415077959
    outer loop
      vertex -0.0014019999653100967 -0.029265993714332642 -0.00014800000644754618
      vertex 0.00084900000365450978 -0.033801996588707035 0.00070600002072751522
      vertex 0.0012720000231638551 -0.028433987379074158 0.0022869999520480633
    endloop
  endfacet
  facet normal -0.92667658836688949 -0.037135268170615139 0.37402068449565601
    outer loop
      vertex 0.0016370000084862113 -0.033583992600441044 0.0026799999177455902
      vertex 0.0012720000231638551 -0.028433987379074158 0.0022869999520480633
      vertex 0.00084900000365450978 -0.033801996588707035 0.00070600002072751522
    endloop
  endfacet
  facet normal -0.80180326310164296 -0.41064298308122427 0.43414728805522984
    outer loop
      vertex -0.00045500000123865902 -0.035210990786552494 -0.0030350000597536564
      vertex 0.00084900000365450978 -0.033801996588707035 0.00070600002072751522
      vertex -0.0029140000697225332 -0.030618989348411622 -0.0032329999376088381
    endloop
  endfacet
  facet normal -0.79893417779314146 -0.29813427295922557 0.52232186900518629
    outer loop
      vertex -0.0029140000697225332 -0.030618989348411622 -0.0032329999376088381
      vertex 0.00084900000365450978 -0.033801996588707035 0.00070600002072751522
      vertex -0.0014019999653100967 -0.029265993714332642 -0.00014800000644754618
    endloop
  endfacet
  facet normal -0.91830546242385402 -0.20559958219102348 0.3382955652759701
    outer loop
      vertex -0.0024870000779628754 -0.02417799222469336 -9.9999999747524271e-07
      vertex -0.0037380000576376915 -0.025255986928939881 -0.0040520001202821732
      vertex -0.0014019999653100967 -0.029265993714332642 -0.00014800000644754618
    endloop
  endfacet
  facet normal -0.88441442148959504 -0.065316010152844661 0.46210924020077554
    outer loop
      vertex -0.0029140000697225332 -0.030618989348411622 -0.0032329999376088381
      vertex -0.0014019999653100967 -0.029265993714332642 -0.00014800000644754618
      vertex -0.0037380000576376915 -0.025255986928939881 -0.0040520001202821732
    endloop
  endfacet
  facet normal -0.60241244802747351 -0.0026865533288040269 -0.79818044632323448
    outer loop
      vertex 0.0016629999736323953 -0.032225990176200932 -0.0066820001229643822
      vertex -0.0029140000697225332 -0.030618989348411622 -0.0032329999376088381
      vertex 0.00054300000192597508 -0.026491993546485963 -0.0058559998869895935
    endloop
  endfacet
  facet normal -0.42902308985975118 -0.20042359368447279 -0.88077782184941111
    outer loop
      vertex -0.0037380000576376915 -0.025255986928939881 -0.0040520001202821732
      vertex 0.00054300000192597508 -0.026491993546485963 -0.0058559998869895935
      vertex -0.0029140000697225332 -0.030618989348411622 -0.0032329999376088381
    endloop
  endfacet
  facet normal 0.8090212714365248 0.23559531879741724 -0.53849737986732327
    outer loop
      vertex 0.0016629999736323953 -0.032225990176200932 -0.0066820001229643822
      vertex 0.00054300000192597508 -0.026491993546485963 -0.0058559998869895935
      vertex 0.0040859999135136604 -0.030013987302780213 -0.002073999959975481
    endloop
  endfacet
  facet normal 0.78019071901784876 0.12714408371141353 -0.61248414178295019
    outer loop
      vertex 0.0024939998984336853 -0.024700993180275025 -0.0029990000184625387
      vertex 0.0040859999135136604 -0.030013987302780213 -0.002073999959975481
      vertex 0.00054300000192597508 -0.026491993546485963 -0.0058559998869895935
    endloop
  endfacet
  facet normal 0.94139192298818697 0.24098993578117778 -0.23601927502809453
    outer loop
      vertex 0.0024939998984336853 -0.024700993180275025 -0.0029990000184625387
      vertex 0.0039110002107918262 -0.025739991545677247 0.0015920000150799751
      vertex 0.0040859999135136604 -0.030013987302780213 -0.002073999959975481
    endloop
  endfacet
  facet normal 0.7309934215024162 0.46126742783443214 -0.50287272518918524
    outer loop
      vertex 0.0069140000268816948 -0.030220994234085145 0.0018469999777153134
      vertex 0.0040859999135136604 -0.030013987302780213 -0.002073999959975481
      vertex 0.0039110002107918262 -0.025739991545677247 0.0015920000150799751
    endloop
  endfacet
  facet normal 0.98107419141271868 0.031121843570549725 -0.19111478696493042
    outer loop
      vertex 0.0022730000782757998 -0.020416998744010987 0.00069600000279024243
      vertex 0.0013409999664872885 -0.019419991850853028 -0.0039260000921785831
      vertex 0.0018459999701008201 -0.014307001113891663 -0.00050099997315555811
    endloop
  endfacet
  facet normal 0.98962189839931036 -0.0014917431573673045 -0.14368810984523903
    outer loop
      vertex 0.0012280000373721123 -0.0139549909830094 -0.0047610001638531685
      vertex 0.0018459999701008201 -0.014307001113891663 -0.00050099997315555811
      vertex 0.0013409999664872885 -0.019419991850853028 -0.0039260000921785831
    endloop
  endfacet
  facet normal 0.52389434422859171 0.023638094399625588 0.85145519939597991
    outer loop
      vertex -0.00028199999360367656 -0.013177999734878602 0.00077699997927993536
      vertex -0.00042100000428035855 -0.018309989452362122 0.0010049999691545963
      vertex 0.0018459999701008201 -0.014307001113891663 -0.00050099997315555811
    endloop
  endfacet
  facet normal 0.26698372460753544 0.20321038308948053 0.94203249996978022
    outer loop
      vertex 0.0022730000782757998 -0.020416998744010987 0.00069600000279024243
      vertex 0.0018459999701008201 -0.014307001113891663 -0.00050099997315555811
      vertex -0.00042100000428035855 -0.018309989452362122 0.0010049999691545963
    endloop
  endfacet
  facet normal 0.89640696831663214 -0.048775295535574192 -0.44054002962137467
    outer loop
      vertex 0.0012280000373721123 -0.0139549909830094 -0.0047610001638531685
      vertex 0.0013409999664872885 -0.019419991850853028 -0.0039260000921785831
      vertex -0.00077199999941512942 -0.015016996741294922 -0.0087130004540085793
    endloop
  endfacet
  facet normal 0.88889313081159371 -0.066252481873221053 -0.45329858883698426
    outer loop
      vertex -0.0005680000176653266 -0.020852991819381776 -0.0074599999934434891
      vertex -0.00077199999941512942 -0.015016996741294922 -0.0087130004540085793
      vertex 0.0013409999664872885 -0.019419991850853028 -0.0039260000921785831
    endloop
  endfacet
  facet normal -0.43747521340941881 0.051733156178739401 0.89774111981359617
    outer loop
      vertex -0.00028199999360367656 -0.013177999734878602 0.00077699997927993536
      vertex -0.0039110002107918262 -0.013844990611076417 -0.00095299998065456748
      vertex -0.00042100000428035855 -0.018309989452362122 0.0010049999691545963
    endloop
  endfacet
  facet normal -0.39029559848853346 0.096452201383476904 0.9156234589877863
    outer loop
      vertex -0.00042100000428035855 -0.018309989452362122 0.0010049999691545963
      vertex -0.0039110002107918262 -0.013844990611076417 -0.00095299998065456748
      vertex -0.0030670000705868006 -0.01892598855495459 -5.8000001445179805e-05
    endloop
  endfacet
  facet normal -0.60670495387684253 -0.18708611130315278 -0.77259813997883953
    outer loop
      vertex -0.0005680000176653266 -0.020852991819381776 -0.0074599999934434891
      vertex -0.004083000123500824 -0.019897991299629273 -0.0049310000613331795
      vertex -0.00077199999941512942 -0.015016996741294922 -0.0087130004540085793
    endloop
  endfacet
  facet normal -0.56898361341558457 -0.22656321602476875 -0.79052309062358084
    outer loop
      vertex -0.0045750001445412636 -0.014593997478485169 -0.0060970000922679901
      vertex -0.00077199999941512942 -0.015016996741294922 -0.0087130004540085793
      vertex -0.004083000123500824 -0.019897991299629273 -0.0049310000613331795
    endloop
  endfacet
  facet normal -0.98870332911743164 -0.06168181474656563 0.13660556621777217
    outer loop
      vertex -0.0045750001445412636 -0.014593997478485169 -0.0060970000922679901
      vertex -0.004083000123500824 -0.019897991299629273 -0.0049310000613331795
      vertex -0.0039110002107918262 -0.013844990611076417 -0.00095299998065456748
    endloop
  endfacet
  facet normal -0.96668620040264563 -0.12082774093564477 0.22565116213191785
    outer loop
      vertex -0.0030670000705868006 -0.01892598855495459 -5.8000001445179805e-05
      vertex -0.0039110002107918262 -0.013844990611076417 -0.00095299998065456748
      vertex -0.004083000123500824 -0.019897991299629273 -0.0049310000613331795
    endloop
  endfacet
  facet normal 0.13438290329193808 0.1845591047363532 0.97359086487176194
    outer loop
      vertex 0.0069140000268816948 -0.030220994234085145 0.0018469999777153134
      vertex 0.0012720000231638551 -0.028433987379074158 0.0022869999520480633
      vertex 0.0031469999812543392 -0.03351298856735236 0.0029909999575465918
    endloop
  endfacet
  facet normal -0.20407180149696955 0.060100468534631538 0.97710932526288963
    outer loop
      vertex 0.0012720000231638551 -0.028433987379074158 0.0022869999520480633
      vertex 0.0016370000084862113 -0.033583992600441044 0.0026799999177455902
      vertex 0.0031469999812543392 -0.03351298856735236 0.0029909999575465918
    endloop
  endfacet
  facet normal 0.12024164303224959 0.13591087065960739 0.98339726586840404
    outer loop
      vertex 0.0004780000017490238 -0.023353987812995972 0.0016820000018924475
      vertex 0.0012720000231638551 -0.028433987379074158 0.0022869999520480633
      vertex 0.0039110002107918262 -0.025739991545677247 0.0015920000150799751
    endloop
  endfacet
  facet normal 0.11985754833603549 0.13628583332424835 0.98339226137995916
    outer loop
      vertex 0.0012720000231638551 -0.028433987379074158 0.0022869999520480633
      vertex 0.0069140000268816948 -0.030220994234085145 0.0018469999777153134
      vertex 0.0039110002107918262 -0.025739991545677247 0.0015920000150799751
    endloop
  endfacet
  facet normal -0.63758027347494284 -0.15774789864448344 0.75406033932893402
    outer loop
      vertex -0.0014019999653100967 -0.029265993714332642 -0.00014800000644754618
      vertex 0.0012720000231638551 -0.028433987379074158 0.0022869999520480633
      vertex -0.0024870000779628754 -0.02417799222469336 -9.9999999747524271e-07
    endloop
  endfacet
  facet normal -0.49877640630870479 0.025220769886368635 0.86636367033487316
    outer loop
      vertex 0.0004780000017490238 -0.023353987812995972 0.0016820000018924475
      vertex -0.0024870000779628754 -0.02417799222469336 -9.9999999747524271e-07
      vertex 0.0012720000231638551 -0.028433987379074158 0.0022869999520480633
    endloop
  endfacet
  facet normal -0.48389810591412674 -0.043953084954117871 0.87401987930237435
    outer loop
      vertex -0.0024870000779628754 -0.02417799222469336 -9.9999999747524271e-07
      vertex 0.0004780000017490238 -0.023353987812995972 0.0016820000018924475
      vertex -0.0030670000705868006 -0.01892598855495459 -5.8000001445179805e-05
    endloop
  endfacet
  facet normal -0.38329208037360762 0.055430034222351744 0.92196241378321986
    outer loop
      vertex -0.00042100000428035855 -0.018309989452362122 0.0010049999691545963
      vertex -0.0030670000705868006 -0.01892598855495459 -5.8000001445179805e-05
      vertex 0.0004780000017490238 -0.023353987812995972 0.0016820000018924475
    endloop
  endfacet
  facet normal -0.9692023138076995 -0.10461334420508059 0.22294152400131959
    outer loop
      vertex -0.0030670000705868006 -0.01892598855495459 -5.8000001445179805e-05
      vertex -0.004083000123500824 -0.019897991299629273 -0.0049310000613331795
      vertex -0.0024870000779628754 -0.02417799222469336 -9.9999999747524271e-07
    endloop
  endfacet
  facet normal -0.95445558634098848 -0.012554550311200221 0.2980887736379273
    outer loop
      vertex -0.0037380000576376915 -0.025255986928939881 -0.0040520001202821732
      vertex -0.0024870000779628754 -0.02417799222469336 -9.9999999747524271e-07
      vertex -0.004083000123500824 -0.019897991299629273 -0.0049310000613331795
    endloop
  endfacet
  facet normal -0.44539642107879568 -0.32505108605759703 -0.83424446030104193
    outer loop
      vertex 0.00054300000192597508 -0.026491993546485963 -0.0058559998869895935
      vertex -0.0037380000576376915 -0.025255986928939881 -0.0040520001202821732
      vertex -0.0005680000176653266 -0.020852991819381776 -0.0074599999934434891
    endloop
  endfacet
  facet normal -0.60529876857857556 -0.16666708929330873 -0.778354342252779
    outer loop
      vertex -0.0005680000176653266 -0.020852991819381776 -0.0074599999934434891
      vertex -0.0037380000576376915 -0.025255986928939881 -0.0040520001202821732
      vertex -0.004083000123500824 -0.019897991299629273 -0.0049310000613331795
    endloop
  endfacet
  facet normal 0.85819136089576575 0.098951370800778579 -0.50370250575167919
    outer loop
      vertex 0.0013409999664872885 -0.019419991850853028 -0.0039260000921785831
      vertex 0.0024939998984336853 -0.024700993180275025 -0.0029990000184625387
      vertex -0.0005680000176653266 -0.020852991819381776 -0.0074599999934434891
    endloop
  endfacet
  facet normal 0.82524782311746814 0.0019441967850192944 -0.56476743048686961
    outer loop
      vertex 0.00054300000192597508 -0.026491993546485963 -0.0058559998869895935
      vertex -0.0005680000176653266 -0.020852991819381776 -0.0074599999934434891
      vertex 0.0024939998984336853 -0.024700993180275025 -0.0029990000184625387
    endloop
  endfacet
  facet normal 0.93970704986249598 0.24986558531611389 -0.23349057735454831
    outer loop
      vertex 0.0039110002107918262 -0.025739991545677247 0.0015920000150799751
      vertex 0.0024939998984336853 -0.024700993180275025 -0.0029990000184625387
      vertex 0.0022730000782757998 -0.020416998744010987 0.00069600000279024243
    endloop
  endfacet
  facet normal 0.9703923212778689 0.18450406481266654 -0.15587492701699193
    outer loop
      vertex 0.0013409999664872885 -0.019419991850853028 -0.0039260000921785831
      vertex 0.0022730000782757998 -0.020416998744010987 0.00069600000279024243
      vertex 0.0024939998984336853 -0.024700993180275025 -0.0029990000184625387
    endloop
  endfacet
  facet normal 0.17500413962713005 0.2155604360295392 0.96068061786013093
    outer loop
      vertex 0.0039110002107918262 -0.025739991545677247 0.0015920000150799751
      vertex 0.0022730000782757998 -0.020416998744010987 0.00069600000279024243
      vertex 0.0004780000017490238 -0.023353987812995972 0.0016820000018924475
    endloop
  endfacet
  facet normal 0.24365878266721419 0.17154888200807863 0.95456868726713939
    outer loop
      vertex -0.00042100000428035855 -0.018309989452362122 0.0010049999691545963
      vertex 0.0004780000017490238 -0.023353987812995972 0.0016820000018924475
      vertex 0.0022730000782757998 -0.020416998744010987 0.00069600000279024243
    endloop
  endfacet
endsolid OBJECT
