solid OBJECT
  facet normal -0.13211721803438611 0.8832025979742667 0.44999801291823521
    outer loop
      vertex -0.0025170000735670328 -0.0093189959675073764 0.01039300300180912
      vertex 0.00076399999670684338 -0.0062179898172617099 0.0052700024098157883
      vertex -0.0064240000210702419 -0.00712000180780889 0.0049300026148557663
    endloop
  endfacet
  facet normal -0.12833986406788428 0.98725718951257113 0.094085711172188266
    outer loop
      vertex -0.0012400000123307109 -0.0060000007301569125 0.0002490021288394928
      vertex -0.0064240000210702419 -0.00712000180780889 0.0049300026148557663
      vertex 0.00076399999670684338 -0.0062179898172617099 0.0052700024098157883
    endloop
  endfacet
  facet normal 0.86504922651553739 -0.10470075109512061 0.49063997842102969
    outer loop
      vertex 0.00076399999670684338 -0.0062179898172617099 0.0052700024098157883
      vertex -0.0025170000735670328 -0.0093189959675073764 0.01039300300180912
      vertex 0.00069399998756125569 -0.010085988536477103 0.0045680031180381775
    endloop
  endfacet
  facet normal 0.83620862031802723 -0.24088893593005226 0.49267399348078894
    outer loop
      vertex -0.002612000098451972 -0.01228098918497564 0.0091060027480125427
      vertex 0.00069399998756125569 -0.010085988536477103 0.0045680031180381775
      vertex -0.0025170000735670328 -0.0093189959675073764 0.01039300300180912
    endloop
  endfacet
  facet normal -0.83319490941018692 -0.19256962419262361 0.51836587732147454
    outer loop
      vertex -0.0064240000210702419 -0.00712000180780889 0.0049300026148557663
      vertex -0.0061980001628398895 -0.011144999161362662 0.0037980023771524429
      vertex -0.0025170000735670328 -0.0093189959675073764 0.01039300300180912
    endloop
  endfacet
  facet normal -0.83129022109759643 -0.19886604711840883 0.5190461093303832
    outer loop
      vertex -0.002612000098451972 -0.01228098918497564 0.0091060027480125427
      vertex -0.0025170000735670328 -0.0093189959675073764 0.01039300300180912
      vertex -0.0061980001628398895 -0.011144999161362662 0.0037980023771524429
    endloop
  endfacet
  facet normal 0.91523981677107069 0.0073911210302861127 -0.40284171721257039
    outer loop
      vertex -0.0013139999937266111 -0.010407987728714957 1.862645149230957e-09
      vertex -0.0012400000123307109 -0.0060000007301569125 0.0002490021288394928
      vertex 0.00069399998756125569 -0.010085988536477103 0.0045680031180381775
    endloop
  endfacet
  facet normal 0.92833926111847531 0.050050974341276581 -0.36834917705010817
    outer loop
      vertex 0.00076399999670684338 -0.0062179898172617099 0.0052700024098157883
      vertex 0.00069399998756125569 -0.010085988536477103 0.0045680031180381775
      vertex -0.0012400000123307109 -0.0060000007301569125 0.0002490021288394928
    endloop
  endfacet
  facet normal -0.67551396243103401 0.052884644644947659 -0.73544823129945813
    outer loop
      vertex -0.0012400000123307109 -0.0060000007301569125 0.0002490021288394928
      vertex -0.0013139999937266111 -0.010407987728714957 1.862645149230957e-09
      vertex -0.0064240000210702419 -0.00712000180780889 0.0049300026148557663
    endloop
  endfacet
  facet normal -0.62063401298511356 0.17979839719386156 -0.76320767703981618
    outer loop
      vertex -0.0061980001628398895 -0.011144999161362662 0.0037980023771524429
      vertex -0.0064240000210702419 -0.00712000180780889 0.0049300026148557663
      vertex -0.0013139999937266111 -0.010407987728714957 1.862645149230957e-09
    endloop
  endfacet
  facet normal 0.83596619924007487 -0.21694811948094328 0.50407740197492079
    outer loop
      vertex 0.00069399998756125569 -0.010085988536477103 0.0045680031180381775
      vertex -0.002612000098451972 -0.01228098918497564 0.0091060027480125427
      vertex -0.00037799999699927866 -0.013837996616959588 0.0047310031950473785
    endloop
  endfacet
  facet normal 0.82820578067329187 -0.23772103680374265 0.50750753050599851
    outer loop
      vertex -0.0030439998954534531 -0.01544699420034887 0.0083280019462108612
      vertex -0.00037799999699927866 -0.013837996616959588 0.0047310031950473785
      vertex -0.002612000098451972 -0.01228098918497564 0.0091060027480125427
    endloop
  endfacet
  facet normal -0.83181327802422866 -0.19149069233721483 0.52097791244044278
    outer loop
      vertex -0.0061980001628398895 -0.011144999161362662 0.0037980023771524429
      vertex -0.0052009997889399529 -0.015045989051461236 0.0039560031145811081
      vertex -0.002612000098451972 -0.01228098918497564 0.0091060027480125427
    endloop
  endfacet
  facet normal -0.8962284421798099 0.013332531007039619 0.44339240300764865
    outer loop
      vertex -0.0030439998954534531 -0.01544699420034887 0.0083280019462108612
      vertex -0.002612000098451972 -0.01228098918497564 0.0091060027480125427
      vertex -0.0052009997889399529 -0.015045989051461236 0.0039560031145811081
    endloop
  endfacet
  facet normal 0.8565142687318269 -0.37954846266783587 -0.34975172900968798
    outer loop
      vertex -0.0013139999937266111 -0.010407987728714957 1.862645149230957e-09
      vertex 0.00069399998756125569 -0.010085988536477103 0.0045680031180381775
      vertex -0.002397000091150403 -0.014353994026780144 0.0016300026327371597
    endloop
  endfacet
  facet normal 0.82867540306035115 -0.25833562679228467 -0.49654786304303239
    outer loop
      vertex -0.00037799999699927866 -0.013837996616959588 0.0047310031950473785
      vertex -0.002397000091150403 -0.014353994026780144 0.0016300026327371597
      vertex 0.00069399998756125569 -0.010085988536477103 0.0045680031180381775
    endloop
  endfacet
  facet normal -0.58989356874798782 -0.16464472192836088 -0.79051735786818467
    outer loop
      vertex -0.0013139999937266111 -0.010407987728714957 1.862645149230957e-09
      vertex -0.002397000091150403 -0.014353994026780144 0.0016300026327371597
      vertex -0.0061980001628398895 -0.011144999161362662 0.0037980023771524429
    endloop
  endfacet
  facet normal -0.60002133853397888 -0.18487563674519264 -0.77832858886331036
    outer loop
      vertex -0.0052009997889399529 -0.015045989051461236 0.0039560031145811081
      vertex -0.0061980001628398895 -0.011144999161362662 0.0037980023771524429
      vertex -0.002397000091150403 -0.014353994026780144 0.0016300026327371597
    endloop
  endfacet
  facet normal 0.81339432391254318 -0.052621574410166516 0.57932775156508098
    outer loop
      vertex -0.00037799999699927866 -0.013837996616959588 0.0047310031950473785
      vertex -0.0030439998954534531 -0.01544699420034887 0.0083280019462108612
      vertex -0.00054600002476945519 -0.017777997747063651 0.0046090018004179001
    endloop
  endfacet
  facet normal 0.74932772431850803 -0.20275427277998839 0.63039564278086824
    outer loop
      vertex -0.0030269999988377094 -0.018312994137406363 0.0073860026895999908
      vertex -0.00054600002476945519 -0.017777997747063651 0.0046090018004179001
      vertex -0.0030439998954534531 -0.01544699420034887 0.0083280019462108612
    endloop
  endfacet
  facet normal -0.84622091835392399 -0.003708020423017472 0.5328193013816076
    outer loop
      vertex -0.0050570000894367695 -0.01916998971998693 0.0041560027748346329
      vertex -0.0030269999988377094 -0.018312994137406363 0.0073860026895999908
      vertex -0.0052009997889399529 -0.015045989051461236 0.0039560031145811081
    endloop
  endfacet
  facet normal -0.89246860598305122 -0.14562649533879937 0.42695750513371739
    outer loop
      vertex -0.0030439998954534531 -0.01544699420034887 0.0083280019462108612
      vertex -0.0052009997889399529 -0.015045989051461236 0.0039560031145811081
      vertex -0.0030269999988377094 -0.018312994137406363 0.0073860026895999908
    endloop
  endfacet
  facet normal 0.83931901574712608 -0.018964777707702541 -0.54330831671507929
    outer loop
      vertex -0.00037799999699927866 -0.013837996616959588 0.0047310031950473785
      vertex -0.00054600002476945519 -0.017777997747063651 0.0046090018004179001
      vertex -0.002397000091150403 -0.014353994026780144 0.0016300026327371597
    endloop
  endfacet
  facet normal 0.78072992435248711 -0.11268497570138016 -0.61462417904906674
    outer loop
      vertex -0.0026690000668168068 -0.018692988649010672 0.0020800027996301651
      vertex -0.002397000091150403 -0.014353994026780144 0.0016300026327371597
      vertex -0.00054600002476945519 -0.017777997747063651 0.0046090018004179001
    endloop
  endfacet
  facet normal -0.6319657957954864 -0.04064852705712111 -0.77392953826085742
    outer loop
      vertex -0.002397000091150403 -0.014353994026780144 0.0016300026327371597
      vertex -0.0026690000668168068 -0.018692988649010672 0.0020800027996301651
      vertex -0.0052009997889399529 -0.015045989051461236 0.0039560031145811081
    endloop
  endfacet
  facet normal -0.64813452000740224 -0.059449863339096021 -0.7592017898580965
    outer loop
      vertex -0.0052009997889399529 -0.015045989051461236 0.0039560031145811081
      vertex -0.0026690000668168068 -0.018692988649010672 0.0020800027996301651
      vertex -0.0050570000894367695 -0.01916998971998693 0.0041560027748346329
    endloop
  endfacet
  facet normal 0.73444640128512562 0.087449308214413407 0.67300899112281454
    outer loop
      vertex -0.00054600002476945519 -0.017777997747063651 0.0046090018004179001
      vertex -0.0030269999988377094 -0.018312994137406363 0.0073860026895999908
      vertex -0.00058400002308189869 -0.021607000127434745 0.005148002877831459
    endloop
  endfacet
  facet normal 0.85095116353625255 0.3991406681072614 0.34142179827771274
    outer loop
      vertex -0.0018009999766945839 -0.021309990182518973 0.0078340023756027222
      vertex -0.00058400002308189869 -0.021607000127434745 0.005148002877831459
      vertex -0.0030269999988377094 -0.018312994137406363 0.0073860026895999908
    endloop
  endfacet
  facet normal -0.75690392426594899 -0.029566058227415551 0.65285702694518011
    outer loop
      vertex -0.0047670002095401287 -0.023303989067673697 0.0043050032109022141
      vertex -0.0018009999766945839 -0.021309990182518973 0.0078340023756027222
      vertex -0.0050570000894367695 -0.01916998971998693 0.0041560027748346329
    endloop
  endfacet
  facet normal -0.79195168434581753 -0.24004623943939973 0.5614181441606827
    outer loop
      vertex -0.0030269999988377094 -0.018312994137406363 0.0073860026895999908
      vertex -0.0050570000894367695 -0.01916998971998693 0.0041560027748346329
      vertex -0.0018009999766945839 -0.021309990182518973 0.0078340023756027222
    endloop
  endfacet
  facet normal 0.86748174134211775 0.10986590138846779 -0.48518544099153132
    outer loop
      vertex -0.002082000020891428 -0.023477989926934256 0.0020460020750761032
      vertex -0.0026690000668168068 -0.018692988649010672 0.0020800027996301651
      vertex -0.00058400002308189869 -0.021607000127434745 0.005148002877831459
    endloop
  endfacet
  facet normal 0.77909872802809677 -0.094961308154130813 -0.61966726711894182
    outer loop
      vertex -0.00054600002476945519 -0.017777997747063651 0.0046090018004179001
      vertex -0.00058400002308189869 -0.021607000127434745 0.005148002877831459
      vertex -0.0026690000668168068 -0.018692988649010672 0.0020800027996301651
    endloop
  endfacet
  facet normal -0.6448350053269768 -0.073699411206780197 -0.76076028595920531
    outer loop
      vertex -0.002082000020891428 -0.023477989926934256 0.0020460020750761032
      vertex -0.0047670002095401287 -0.023303989067673697 0.0043050032109022141
      vertex -0.0026690000668168068 -0.018692988649010672 0.0020800027996301651
    endloop
  endfacet
  facet normal -0.64603732136124126 -0.072705993632001226 -0.75983525707772703
    outer loop
      vertex -0.0050570000894367695 -0.01916998971998693 0.0041560027748346329
      vertex -0.0026690000668168068 -0.018692988649010672 0.0020800027996301651
      vertex -0.0047670002095401287 -0.023303989067673697 0.0043050032109022141
    endloop
  endfacet
  facet normal 0.91304576333602205 0.2448153076482133 0.32620990051690912
    outer loop
      vertex 0.00033099998836405575 -0.025325987234711661 0.0053780023008584976
      vertex -0.00058400002308189869 -0.021607000127434745 0.005148002877831459
      vertex -0.00087899999925866723 -0.024318996563553824 0.0080090034753084183
    endloop
  endfacet
  facet normal 0.88291202406692348 0.29192461302100065 0.36775858667145683
    outer loop
      vertex -0.0018009999766945839 -0.021309990182518973 0.0078340023756027222
      vertex -0.00087899999925866723 -0.024318996563553824 0.0080090034753084183
      vertex -0.00058400002308189869 -0.021607000127434745 0.005148002877831459
    endloop
  endfacet
  facet normal -0.7019421964358562 -0.14150229152969723 0.69803599789312454
    outer loop
      vertex -0.0033390000462532043 -0.026909995570778861 0.0050100032240152359
      vertex -0.00087899999925866723 -0.024318996563553824 0.0080090034753084183
      vertex -0.0047670002095401287 -0.023303989067673697 0.0043050032109022141
    endloop
  endfacet
  facet normal -0.70269071700410046 -0.17520821789110988 0.6895852642129795
    outer loop
      vertex -0.0018009999766945839 -0.021309990182518973 0.0078340023756027222
      vertex -0.0047670002095401287 -0.023303989067673697 0.0043050032109022141
      vertex -0.00087899999925866723 -0.024318996563553824 0.0080090034753084183
    endloop
  endfacet
  facet normal 0.82355064052646887 0.057931560252605742 -0.56427677323733738
    outer loop
      vertex -0.0012080000014975667 -0.027749988928437247 0.0028830021619796753
      vertex -0.002082000020891428 -0.023477989926934256 0.0020460020750761032
      vertex 0.00033099998836405575 -0.025325987234711661 0.0053780023008584976
    endloop
  endfacet
  facet normal 0.84100936443218588 0.1752625880741967 -0.51184594768241098
    outer loop
      vertex -0.002082000020891428 -0.023477989926934256 0.0020460020750761032
      vertex -0.00058400002308189869 -0.021607000127434745 0.005148002877831459
      vertex 0.00033099998836405575 -0.025325987234711661 0.0053780023008584976
    endloop
  endfacet
  facet normal -0.6102923045988653 -0.37780702114014736 -0.69627951120553189
    outer loop
      vertex -0.0047670002095401287 -0.023303989067673697 0.0043050032109022141
      vertex -0.002082000020891428 -0.023477989926934256 0.0020460020750761032
      vertex -0.0033390000462532043 -0.026909995570778861 0.0050100032240152359
    endloop
  endfacet
  facet normal -0.7313967302503992 -0.27214736243218168 -0.62529563895827045
    outer loop
      vertex -0.0012080000014975667 -0.027749988928437247 0.0028830021619796753
      vertex -0.0033390000462532043 -0.026909995570778861 0.0050100032240152359
      vertex -0.002082000020891428 -0.023477989926934256 0.0020460020750761032
    endloop
  endfacet
  facet normal 0.91371320631061215 0.23871451023441512 0.32885188036124152
    outer loop
      vertex -0.00087899999925866723 -0.024318996563553824 0.0080090034753084183
      vertex -0.00011000000085914508 -0.02735199381411077 0.0080740023404359818
      vertex 0.00033099998836405575 -0.025325987234711661 0.0053780023008584976
    endloop
  endfacet
  facet normal 0.95875372366681566 -0.27924877748916882 -0.05302280288536175
    outer loop
      vertex -0.00072399998316541314 -0.029044989243149771 0.0058880019932985306
      vertex 0.00033099998836405575 -0.025325987234711661 0.0053780023008584976
      vertex -0.00011000000085914508 -0.02735199381411077 0.0080740023404359818
    endloop
  endfacet
  facet normal -0.70377707734178963 -0.13835151478706695 0.69681897488829381
    outer loop
      vertex -0.0033390000462532043 -0.026909995570778861 0.0050100032240152359
      vertex -0.0012519999872893095 -0.029633987441658988 0.0065770018845796585
      vertex -0.00087899999925866723 -0.024318996563553824 0.0080090034753084183
    endloop
  endfacet
  facet normal -0.66059934927597974 -0.15173466216502446 0.73524491976063189
    outer loop
      vertex -0.00011000000085914508 -0.02735199381411077 0.0080740023404359818
      vertex -0.00087899999925866723 -0.024318996563553824 0.0080090034753084183
      vertex -0.0012519999872893095 -0.029633987441658988 0.0065770018845796585
    endloop
  endfacet
  facet normal 0.91429169399344667 -0.29711790146184636 -0.27530283493909391
    outer loop
      vertex -0.0012080000014975667 -0.027749988928437247 0.0028830021619796753
      vertex 0.00033099998836405575 -0.025325987234711661 0.0053780023008584976
      vertex -0.00072399998316541314 -0.029044989243149771 0.0058880019932985306
    endloop
  endfacet
  facet normal -0.56063113318228419 -0.78945237286042269 -0.24991535265324549
    outer loop
      vertex -0.0012080000014975667 -0.027749988928437247 0.0028830021619796753
      vertex -0.00072399998316541314 -0.029044989243149771 0.0058880019932985306
      vertex -0.0033390000462532043 -0.026909995570778861 0.0050100032240152359
    endloop
  endfacet
  facet normal -0.26297166019820051 -0.62452327745691893 -0.73540232651730897
    outer loop
      vertex -0.00072399998316541314 -0.029044989243149771 0.0058880019932985306
      vertex -0.0012519999872893095 -0.029633987441658988 0.0065770018845796585
      vertex -0.0033390000462532043 -0.026909995570778861 0.0050100032240152359
    endloop
  endfacet
  facet normal 0.82756822398214236 -0.53189594764506831 0.179492438653548
    outer loop
      vertex -0.00072399998316541314 -0.029044989243149771 0.0058880019932985306
      vertex -0.00011000000085914508 -0.02735199381411077 0.0080740023404359818
      vertex -0.0012519999872893095 -0.029633987441658988 0.0065770018845796585
    endloop
  endfacet
endsolid OBJECT
