solid OBJECT
  facet normal 0.94786445373467287 0.2519020471898491 -0.19518795036536718
    outer loop
      vertex -0.0035520000383257866 -0.043693982362747186 0.0030160008296370514
      vertex -0.0017969999462366104 -0.050974972844123834 0.0021420011594891555
      vertex -0.0040000001899898052 -0.04461097747087478 -0.0003429993689060204
    endloop
  endfacet
  facet normal 0.82125255659953411 0.4305034656496643 0.37444759892721668
    outer loop
      vertex -0.0010779999429360032 -0.051067985892295831 0.00067200067639350963
      vertex -0.0040000001899898052 -0.04461097747087478 -0.0003429993689060204
      vertex -0.0017969999462366104 -0.050974972844123834 0.0021420011594891555
    endloop
  endfacet
  facet normal 0.83585681898424735 0.06883751210391624 -0.54461433609929721
    outer loop
      vertex -0.004372000228613615 -0.036616981327533715 0.0026520008519291885
      vertex -0.0035520000383257866 -0.043693982362747186 0.0030160008296370514
      vertex -0.006407999899238348 -0.038200982213020318 -0.00067299955338239598
    endloop
  endfacet
  facet normal 0.91808946220588417 0.33389585684124451 -0.21360078691512643
    outer loop
      vertex -0.0040000001899898052 -0.04461097747087478 -0.0003429993689060204
      vertex -0.006407999899238348 -0.038200982213020318 -0.00067299955338239598
      vertex -0.0035520000383257866 -0.043693982362747186 0.0030160008296370514
    endloop
  endfacet
  facet normal -0.020174710670399974 -0.1641583184489592 -0.98622767530290678
    outer loop
      vertex -0.0010779999429360032 -0.051067985892295831 0.00067200067639350963
      vertex -0.0058019999414682388 -0.047831975221633904 0.00023000057041645122
      vertex -0.0040000001899898052 -0.04461097747087478 -0.0003429993689060204
    endloop
  endfacet
  facet normal 0.03902341807725633 -0.19613355900911433 -0.97980038776884848
    outer loop
      vertex -0.0068879998289048672 -0.041348979175090783 -0.0011109996289014809
      vertex -0.0040000001899898052 -0.04461097747087478 -0.0003429993689060204
      vertex -0.0058019999414682388 -0.047831975221633904 0.00023000057041645122
    endloop
  endfacet
  facet normal 0.3384305389730155 0.078862111008345226 -0.93768093599994973
    outer loop
      vertex -0.0040000001899898052 -0.04461097747087478 -0.0003429993689060204
      vertex -0.0068879998289048672 -0.041348979175090783 -0.0011109996289014809
      vertex -0.006407999899238348 -0.038200982213020318 -0.00067299955338239598
    endloop
  endfacet
  facet normal 0.82408380959257443 -0.047111464797699634 -0.56450543367801598
    outer loop
      vertex -0.0068879998289048672 -0.041348979175090783 -0.0011109996289014809
      vertex -0.0072650001384317875 -0.03476297885179519 -0.0022109996229410164
      vertex -0.006407999899238348 -0.038200982213020318 -0.00067299955338239598
    endloop
  endfacet
  facet normal 0.85112327083325501 0.14457425416767619 0.50466569417581941
    outer loop
      vertex -0.0017969999462366104 -0.050974972844123834 0.0021420011594891555
      vertex -0.0035520000383257866 -0.043693982362747186 0.0030160008296370514
      vertex -0.0037809999193996191 -0.049047984480857842 0.004936000548303128
    endloop
  endfacet
  facet normal 0.60924812349987367 0.24446168892654366 0.75435747935515585
    outer loop
      vertex -0.0058059999719262123 -0.042587980926036828 0.0044780003204941757
      vertex -0.0037809999193996191 -0.049047984480857842 0.004936000548303128
      vertex -0.0035520000383257866 -0.043693982362747186 0.0030160008296370514
    endloop
  endfacet
  facet normal 0.57790907423449667 0.10856380855404595 0.80884794701455931
    outer loop
      vertex -0.0035520000383257866 -0.043693982362747186 0.0030160008296370514
      vertex -0.004372000228613615 -0.036616981327533715 0.0026520008519291885
      vertex -0.0058059999719262123 -0.042587980926036828 0.0044780003204941757
    endloop
  endfacet
  facet normal 0.77580061679664958 0.0066327570563389253 0.63094326964614633
    outer loop
      vertex -0.0057439999654889107 -0.035475977063179009 0.0043270012661814697
      vertex -0.0058059999719262123 -0.042587980926036828 0.0044780003204941757
      vertex -0.004372000228613615 -0.036616981327533715 0.0026520008519291885
    endloop
  endfacet
  facet normal 0.67795453004333894 -0.28467207581229503 0.67774587010651299
    outer loop
      vertex -0.0017969999462366104 -0.050974972844123834 0.0021420011594891555
      vertex -0.0037809999193996191 -0.049047984480857842 0.004936000548303128
      vertex -0.0065120002254843712 -0.054901980161666863 0.0052090009972453125
    endloop
  endfacet
  facet normal 0.72575768684249531 -0.5661701060558203 0.39080326380132974
    outer loop
      vertex -0.0010779999429360032 -0.051067985892295831 0.00067200067639350963
      vertex -0.0017969999462366104 -0.050974972844123834 0.0021420011594891555
      vertex -0.0065120002254843712 -0.054901980161666863 0.0052090009972453125
    endloop
  endfacet
  facet normal 0.59740754724679368 -0.80100691162293203 0.038628357781070211
    outer loop
      vertex -0.0065120002254843712 -0.054901980161666863 0.0052090009972453125
      vertex -0.006155999843031168 -0.054809980392456048 0.0016110001429915435
      vertex -0.0010779999429360032 -0.051067985892295831 0.00067200067639350963
    endloop
  endfacet
  facet normal -0.03980570732064382 -0.19204448820630365 -0.9805786150096697
    outer loop
      vertex -0.006155999843031168 -0.054809980392456048 0.0016110001429915435
      vertex -0.0058019999414682388 -0.047831975221633904 0.00023000057041645122
      vertex -0.0010779999429360032 -0.051067985892295831 0.00067200067639350963
    endloop
  endfacet
  facet normal 0.86913397098470491 -0.10073072833499121 -0.48421014120881484
    outer loop
      vertex -0.006407999899238348 -0.038200982213020318 -0.00067299955338239598
      vertex -0.0060270000249147415 -0.030620977580547326 -0.0015659991353750222
      vertex -0.004372000228613615 -0.036616981327533715 0.0026520008519291885
    endloop
  endfacet
  facet normal 0.96072652644649481 0.077794659283057552 -0.26636916557493168
    outer loop
      vertex -0.0052869999781250954 -0.029425978958606713 0.0014520010277628906
      vertex -0.004372000228613615 -0.036616981327533715 0.0026520008519291885
      vertex -0.0060270000249147415 -0.030620977580547326 -0.0015659991353750222
    endloop
  endfacet
  facet normal 0.78427290701796259 -0.14030121813255267 -0.60434392154477434
    outer loop
      vertex -0.0068109999410808086 -0.028089978098869317 -0.0031709994822740548
      vertex -0.0060270000249147415 -0.030620977580547326 -0.0015659991353750222
      vertex -0.0072650001384317875 -0.03476297885179519 -0.0022109996229410164
    endloop
  endfacet
  facet normal 0.73502790988439926 -0.11565413572166097 -0.66810036115949434
    outer loop
      vertex -0.0072650001384317875 -0.03476297885179519 -0.0022109996229410164
      vertex -0.0060270000249147415 -0.030620977580547326 -0.0015659991353750222
      vertex -0.006407999899238348 -0.038200982213020318 -0.00067299955338239598
    endloop
  endfacet
  facet normal 0.96940157022472317 0.041730149883575283 0.24190740012768383
    outer loop
      vertex -0.0060049998573958874 -0.028467983305454247 0.0041640011891722686
      vertex -0.0057439999654889107 -0.035475977063179009 0.0043270012661814697
      vertex -0.0052869999781250954 -0.029425978958606713 0.0014520010277628906
    endloop
  endfacet
  facet normal 0.81959218307434389 0.19423564681045954 0.53901870742262148
    outer loop
      vertex -0.004372000228613615 -0.036616981327533715 0.0026520008519291885
      vertex -0.0052869999781250954 -0.029425978958606713 0.0014520010277628906
      vertex -0.0057439999654889107 -0.035475977063179009 0.0043270012661814697
    endloop
  endfacet
  facet normal -0.39384916610517329 -0.12377360636934849 -0.91080345230163962
    outer loop
      vertex -0.0096429996192455292 -0.041147977411746972 5.3000852465630299e-05
      vertex -0.0068879998289048672 -0.041348979175090783 -0.0011109996289014809
      vertex -0.0083259996026754379 -0.047847979068756097 0.0003940008878707893
    endloop
  endfacet
  facet normal -0.062024647540554312 -0.21212403789183237 -0.97527244175457695
    outer loop
      vertex -0.0058019999414682388 -0.047831975221633904 0.00023000057041645122
      vertex -0.0083259996026754379 -0.047847979068756097 0.0003940008878707893
      vertex -0.0068879998289048672 -0.041348979175090783 -0.0011109996289014809
    endloop
  endfacet
  facet normal -0.44221274096493035 -0.14891760360490086 -0.88446110093370234
    outer loop
      vertex -0.010467999614775181 -0.034409977793693536 -0.0006689995229244225
      vertex -0.0072650001384317875 -0.03476297885179519 -0.0022109996229410164
      vertex -0.0096429996192455292 -0.041147977411746972 5.3000852465630299e-05
    endloop
  endfacet
  facet normal -0.39400578759446869 -0.17331039954880326 -0.90262004450948052
    outer loop
      vertex -0.0068879998289048672 -0.041348979175090783 -0.0011109996289014809
      vertex -0.0096429996192455292 -0.041147977411746972 5.3000852465630299e-05
      vertex -0.0072650001384317875 -0.03476297885179519 -0.0022109996229410164
    endloop
  endfacet
  facet normal -0.062445330671414806 -0.19071367198054626 -0.97965752995474631
    outer loop
      vertex -0.0058019999414682388 -0.047831975221633904 0.00023000057041645122
      vertex -0.006155999843031168 -0.054809980392456048 0.0016110001429915435
      vertex -0.0083259996026754379 -0.047847979068756097 0.0003940008878707893
    endloop
  endfacet
  facet normal -0.2652019057123311 -0.21833880459593483 -0.93914648251173594
    outer loop
      vertex -0.01056199986487627 -0.027731977701187127 -0.0021949995011091225
      vertex -0.0068109999410808086 -0.028089978098869317 -0.0031709994822740548
      vertex -0.010467999614775181 -0.034409977793693536 -0.0006689995229244225
    endloop
  endfacet
  facet normal -0.44045214477644828 -0.098412365029249896 -0.89236590845413633
    outer loop
      vertex -0.0072650001384317875 -0.03476297885179519 -0.0022109996229410164
      vertex -0.010467999614775181 -0.034409977793693536 -0.0006689995229244225
      vertex -0.0068109999410808086 -0.028089978098869317 -0.0031709994822740548
    endloop
  endfacet
  facet normal 0.90053452123577427 0.43412606216529565 0.023919410768421395
    outer loop
      vertex -0.0031179999932646751 -0.050734974741935723 0.010593001015484334
      vertex -0.0037809999193996191 -0.049047984480857842 0.004936000548303128
      vertex -0.006147999782115221 -0.044417977631092065 0.010018000595271588
    endloop
  endfacet
  facet normal 0.9388238689052848 0.30555546889567814 0.15888863584805216
    outer loop
      vertex -0.0058059999719262123 -0.042587980926036828 0.0044780003204941757
      vertex -0.006147999782115221 -0.044417977631092065 0.010018000595271588
      vertex -0.0037809999193996191 -0.049047984480857842 0.004936000548303128
    endloop
  endfacet
  facet normal 0.9454788617452099 0.28735469799761154 0.15328731040658178
    outer loop
      vertex -0.006147999782115221 -0.044417977631092065 0.010018000595271588
      vertex -0.0058059999719262123 -0.042587980926036828 0.0044780003204941757
      vertex -0.0080880001187324524 -0.037486978173255914 0.0089910013899207122
    endloop
  endfacet
  facet normal 0.89319960734872339 0.0017603183823833002 0.44965693891152048
    outer loop
      vertex -0.0057439999654889107 -0.035475977063179009 0.0043270012661814697
      vertex -0.0080880001187324524 -0.037486978173255914 0.0089910013899207122
      vertex -0.0058059999719262123 -0.042587980926036828 0.0044780003204941757
    endloop
  endfacet
  facet normal 0.78063870340066455 -0.56794045179222841 -0.26085792679343456
    outer loop
      vertex -0.0031179999932646751 -0.050734974741935723 0.010593001015484334
      vertex -0.0070070000365376472 -0.054781981110572808 0.0077660011425614364
      vertex -0.0037809999193996191 -0.049047984480857842 0.004936000548303128
    endloop
  endfacet
  facet normal 0.89278100595103527 -0.40754746554292876 0.19195608545339871
    outer loop
      vertex -0.0065120002254843712 -0.054901980161666863 0.0052090009972453125
      vertex -0.0037809999193996191 -0.049047984480857842 0.004936000548303128
      vertex -0.0070070000365376472 -0.054781981110572808 0.0077660011425614364
    endloop
  endfacet
  facet normal 0.90561158411452203 -0.099304755465225797 0.412318110516113
    outer loop
      vertex -0.0080880001187324524 -0.037486978173255914 0.0089910013899207122
      vertex -0.0057439999654889107 -0.035475977063179009 0.0043270012661814697
      vertex -0.0071840002201497555 -0.030035980343818658 0.0088000001683831222
    endloop
  endfacet
  facet normal 0.96481425881403393 0.041969914516739711 0.25956111470053372
    outer loop
      vertex -0.0060049998573958874 -0.028467983305454247 0.0041640011891722686
      vertex -0.0071840002201497555 -0.030035980343818658 0.0088000001683831222
      vertex -0.0057439999654889107 -0.035475977063179009 0.0043270012661814697
    endloop
  endfacet
  facet normal -0.42219805380941605 -0.9046930443808523 0.057265162258100161
    outer loop
      vertex -0.011660000309348106 -0.053065978288650506 0.0075770004019141204
      vertex -0.0081690000370144844 -0.054999985098838799 0.0027610009834170349
      vertex -0.0078530004248023033 -0.054727979302406304 0.0093879999890923507
    endloop
  endfacet
  facet normal -0.0016044986349074233 -0.99915428891422076 0.041086889982675505
    outer loop
      vertex -0.0081690000370144844 -0.054999985098838799 0.0027610009834170349
      vertex -0.0065120002254843712 -0.054901980161666863 0.0052090009972453125
      vertex -0.0078530004248023033 -0.054727979302406304 0.0093879999890923507
    endloop
  endfacet
  facet normal 0.041476445494141936 -0.99763291003772336 0.054847801039194226
    outer loop
      vertex -0.0078530004248023033 -0.054727979302406304 0.0093879999890923507
      vertex -0.0065120002254843712 -0.054901980161666863 0.0052090009972453125
      vertex -0.0070070000365376472 -0.054781981110572808 0.0077660011425614364
    endloop
  endfacet
  facet normal 0.084247935096947293 -0.9962974121510535 -0.017139194059644966
    outer loop
      vertex -0.0065120002254843712 -0.054901980161666863 0.0052090009972453125
      vertex -0.0081690000370144844 -0.054999985098838799 0.0027610009834170349
      vertex -0.006155999843031168 -0.054809980392456048 0.0016110001429915435
    endloop
  endfacet
  facet normal -0.71070545589271417 -0.33011516788605122 -0.62122599019671843
    outer loop
      vertex -0.0083259996026754379 -0.047847979068756097 0.0003940008878707893
      vertex -0.006155999843031168 -0.054809980392456048 0.0016110001429915435
      vertex -0.010293000377714634 -0.048633985519409173 0.0030620007142424591
    endloop
  endfacet
  facet normal -0.48383929909628898 -0.12044606223218907 -0.86682886358425537
    outer loop
      vertex -0.0081690000370144844 -0.054999985098838799 0.0027610009834170349
      vertex -0.010293000377714634 -0.048633985519409173 0.0030620007142424591
      vertex -0.006155999843031168 -0.054809980392456048 0.0016110001429915435
    endloop
  endfacet
  facet normal 0.9980989709768523 -0.060874024246092777 0.0096331358879019301
    outer loop
      vertex -0.0048360000364482403 -0.022115983366966241 0.00091700091212987972
      vertex -0.0052869999781250954 -0.029425978958606713 0.0014520010277628906
      vertex -0.0048509999178349972 -0.022930980026721948 -0.0026789994612336152
    endloop
  endfacet
  facet normal 0.97025515499141379 -0.17290094833919581 -0.16944083414571026
    outer loop
      vertex -0.0052869999781250954 -0.029425978958606713 0.0014520010277628906
      vertex -0.0060270000249147415 -0.030620977580547326 -0.0015659991353750222
      vertex -0.0048509999178349972 -0.022930980026721948 -0.0026789994612336152
    endloop
  endfacet
  facet normal 0.62300523959178267 -0.16374613763251133 -0.76488670654654478
    outer loop
      vertex -0.0063849999569356441 -0.021428980231285089 -0.0042499990835785859
      vertex -0.0048509999178349972 -0.022930980026721948 -0.0026789994612336152
      vertex -0.0068109999410808086 -0.028089978098869317 -0.0031709994822740548
    endloop
  endfacet
  facet normal 0.71107281423591395 -0.20603893995696973 -0.67225248833754825
    outer loop
      vertex -0.0060270000249147415 -0.030620977580547326 -0.0015659991353750222
      vertex -0.0068109999410808086 -0.028089978098869317 -0.0031709994822740548
      vertex -0.0048509999178349972 -0.022930980026721948 -0.0026789994612336152
    endloop
  endfacet
  facet normal 0.96268299880717256 -0.040376299758887693 0.26760268725371511
    outer loop
      vertex -0.0056599997915327549 -0.021474980115890496 0.0039780011698603637
      vertex -0.0060049998573958874 -0.028467983305454247 0.0041640011891722686
      vertex -0.0048360000364482403 -0.022115983366966241 0.00091700091212987972
    endloop
  endfacet
  facet normal 0.96237410789370481 -0.039701285553239124 0.26881198704897069
    outer loop
      vertex -0.0048360000364482403 -0.022115983366966241 0.00091700091212987972
      vertex -0.0060049998573958874 -0.028467983305454247 0.0041640011891722686
      vertex -0.0052869999781250954 -0.029425978958606713 0.0014520010277628906
    endloop
  endfacet
  facet normal -0.26385581268177605 -0.18238002096904526 -0.94716294166598913
    outer loop
      vertex -0.01056199986487627 -0.027731977701187127 -0.0021949995011091225
      vertex -0.0099400002509355545 -0.021033980250358575 -0.0036579992324113839
      vertex -0.0068109999410808086 -0.028089978098869317 -0.0031709994822740548
    endloop
  endfacet
  facet normal -0.17828546489057739 -0.14622060368091014 -0.97305386699192598
    outer loop
      vertex -0.0063849999569356441 -0.021428980231285089 -0.0042499990835785859
      vertex -0.0068109999410808086 -0.028089978098869317 -0.0031709994822740548
      vertex -0.0099400002509355545 -0.021033980250358575 -0.0036579992324113839
    endloop
  endfacet
  facet normal 0.96954510540562855 -0.0050509960251499944 0.2448607278089778
    outer loop
      vertex -0.0071840002201497555 -0.030035980343818658 0.0088000001683831222
      vertex -0.0060049998573958874 -0.028467983305454247 0.0041640011891722686
      vertex -0.0070110000669956207 -0.022666983604431146 0.0082670005336403854
    endloop
  endfacet
  facet normal 0.95614809302274328 -0.039452476503766341 0.29021427653837334
    outer loop
      vertex -0.0056599997915327549 -0.021474980115890496 0.0039780011698603637
      vertex -0.0070110000669956207 -0.022666983604431146 0.0082670005336403854
      vertex -0.0060049998573958874 -0.028467983305454247 0.0041640011891722686
    endloop
  endfacet
  facet normal -0.79120352849566911 -0.078611248307820084 -0.60647938805493573
    outer loop
      vertex -0.010293000377714634 -0.048633985519409173 0.0030620007142424591
      vertex -0.010912000201642513 -0.041670978367328637 0.0029670002236962326
      vertex -0.0083259996026754379 -0.047847979068756097 0.0003940008878707893
    endloop
  endfacet
  facet normal -0.88580488537706115 -0.19553944904662621 -0.42084917596292554
    outer loop
      vertex -0.010912000201642513 -0.041670978367328637 0.0029670002236962326
      vertex -0.0096429996192455292 -0.041147977411746972 5.3000852465630299e-05
      vertex -0.0083259996026754379 -0.047847979068756097 0.0003940008878707893
    endloop
  endfacet
  facet normal -0.86464721277913137 -0.15700271805741942 -0.47721624443836991
    outer loop
      vertex -0.010467999614775181 -0.034409977793693536 -0.0006689995229244225
      vertex -0.0096429996192455292 -0.041147977411746972 5.3000852465630299e-05
      vertex -0.012153999879956245 -0.034899980127811425 0.002546999819576741
    endloop
  endfacet
  facet normal -0.887475061454017 -0.18886475144656167 -0.42037854483574355
    outer loop
      vertex -0.010912000201642513 -0.041670978367328637 0.0029670002236962326
      vertex -0.012153999879956245 -0.034899980127811425 0.002546999819576741
      vertex -0.0096429996192455292 -0.041147977411746972 5.3000852465630299e-05
    endloop
  endfacet
  facet normal -0.86111395545811364 -0.12474759753585402 -0.49286995508380754
    outer loop
      vertex -0.01056199986487627 -0.027731977701187127 -0.0021949995011091225
      vertex -0.010467999614775181 -0.034409977793693536 -0.0006689995229244225
      vertex -0.012776999734342098 -0.028079979419708245 0.0017630013003945358
    endloop
  endfacet
  facet normal -0.86911778521944594 -0.13412039476229115 -0.47607351861246433
    outer loop
      vertex -0.012776999734342098 -0.028079979419708245 0.0017630013003945358
      vertex -0.010467999614775181 -0.034409977793693536 -0.0006689995229244225
      vertex -0.012153999879956245 -0.034899980127811425 0.002546999819576741
    endloop
  endfacet
  facet normal -0.84361548265322139 -0.038636864073164426 -0.53555588892510952
    outer loop
      vertex -0.0099400002509355545 -0.021033980250358575 -0.0036579992324113839
      vertex -0.01056199986487627 -0.027731977701187127 -0.0021949995011091225
      vertex -0.012838000431656837 -0.021172978281974786 0.00091700091212987972
    endloop
  endfacet
  facet normal -0.86807509341188593 -0.067900464149249537 -0.49176738318666685
    outer loop
      vertex -0.012776999734342098 -0.028079979419708245 0.0017630013003945358
      vertex -0.012838000431656837 -0.021172978281974786 0.00091700091212987972
      vertex -0.01056199986487627 -0.027731977701187127 -0.0021949995011091225
    endloop
  endfacet
  facet normal -0.1876981292609062 -0.00062444308825768938 0.98222656365157734
    outer loop
      vertex -0.0031179999932646751 -0.050734974741935723 0.010593001015484334
      vertex -0.006147999782115221 -0.044417977631092065 0.010018000595271588
      vertex -0.0081139998510479927 -0.04804798245429992 0.0096400009766221054
    endloop
  endfacet
  facet normal -0.27611182778832716 0.049590763914618155 0.95984530768752219
    outer loop
      vertex -0.0085680000483989716 -0.041381977796554559 0.0091650003865361221
      vertex -0.0081139998510479927 -0.04804798245429992 0.0096400009766221054
      vertex -0.006147999782115221 -0.044417977631092065 0.010018000595271588
    endloop
  endfacet
  facet normal -0.24800073255044947 0.07371371499639677 0.96595130564427023
    outer loop
      vertex -0.006147999782115221 -0.044417977631092065 0.010018000595271588
      vertex -0.0080880001187324524 -0.037486978173255914 0.0089910013899207122
      vertex -0.0085680000483989716 -0.041381977796554559 0.0091650003865361221
    endloop
  endfacet
  facet normal -0.15262492593379312 0.062868330137172912 0.98628251786669496
    outer loop
      vertex -0.0085680000483989716 -0.041381977796554559 0.0091650003865361221
      vertex -0.0080880001187324524 -0.037486978173255914 0.0089910013899207122
      vertex -0.0089349998161196709 -0.034726977646350854 0.0086840002164244659
    endloop
  endfacet
  facet normal 0.56234183728152065 -0.76301781282558989 0.31870907635914075
    outer loop
      vertex -0.0031179999932646751 -0.050734974741935723 0.010593001015484334
      vertex -0.0078530004248023033 -0.054727979302406304 0.0093879999890923507
      vertex -0.0070070000365376472 -0.054781981110572808 0.0077660011425614364
    endloop
  endfacet
  facet normal -0.2105170976849173 -0.045065385512634261 0.97655090118790866
    outer loop
      vertex -0.0031179999932646751 -0.050734974741935723 0.010593001015484334
      vertex -0.0081139998510479927 -0.04804798245429992 0.0096400009766221054
      vertex -0.0078530004248023033 -0.054727979302406304 0.0093879999890923507
    endloop
  endfacet
  facet normal -0.20731040789637623 0.053227201360504156 0.97682611544387288
    outer loop
      vertex -0.0094649996608495712 -0.02801898151636123 0.0082060007676482208
      vertex -0.0089349998161196709 -0.034726977646350854 0.0086840002164244659
      vertex -0.0071840002201497555 -0.030035980343818658 0.0088000001683831222
    endloop
  endfacet
  facet normal -0.19578510592204301 0.048860813710424861 0.97942881986525687
    outer loop
      vertex -0.0071840002201497555 -0.030035980343818658 0.0088000001683831222
      vertex -0.0089349998161196709 -0.034726977646350854 0.0086840002164244659
      vertex -0.0080880001187324524 -0.037486978173255914 0.0089910013899207122
    endloop
  endfacet
  facet normal -0.12627685789876678 0.046606654128525167 0.99089957864062028
    outer loop
      vertex -0.0097049996256828308 -0.021312982141971581 0.0078600013926625259
      vertex -0.0094649996608495712 -0.02801898151636123 0.0082060007676482208
      vertex -0.0070110000669956207 -0.022666983604431146 0.0082670005336403854
    endloop
  endfacet
  facet normal -0.18845383989529169 0.075249466262027595 0.97919490810359089
    outer loop
      vertex -0.0094649996608495712 -0.02801898151636123 0.0082060007676482208
      vertex -0.0071840002201497555 -0.030035980343818658 0.0088000001683831222
      vertex -0.0070110000669956207 -0.022666983604431146 0.0082670005336403854
    endloop
  endfacet
  facet normal -0.82876340618142219 -0.25291219271649251 -0.49918597671599557
    outer loop
      vertex -0.0081690000370144844 -0.054999985098838799 0.0027610009834170349
      vertex -0.011660000309348106 -0.053065978288650506 0.0075770004019141204
      vertex -0.010293000377714634 -0.048633985519409173 0.0030620007142424591
    endloop
  endfacet
  facet normal -0.97743938075628845 0.14566702560406561 -0.15294892807217797
    outer loop
      vertex -0.010293000377714634 -0.048633985519409173 0.0030620007142424591
      vertex -0.011660000309348106 -0.053065978288650506 0.0075770004019141204
      vertex -0.010600999929010868 -0.046736978292465203 0.0068370012864470489
    endloop
  endfacet
  facet normal -0.44713704269820542 -0.051158663630351313 0.89300126325927442
    outer loop
      vertex -0.0078530004248023033 -0.054727979302406304 0.0093879999890923507
      vertex -0.0081139998510479927 -0.04804798245429992 0.0096400009766221054
      vertex -0.011660000309348106 -0.053065978288650506 0.0075770004019141204
    endloop
  endfacet
  facet normal -0.6859233817348962 0.19668631016241075 0.70058804570450661
    outer loop
      vertex -0.011660000309348106 -0.053065978288650506 0.0075770004019141204
      vertex -0.0081139998510479927 -0.04804798245429992 0.0096400009766221054
      vertex -0.010600999929010868 -0.046736978292465203 0.0068370012864470489
    endloop
  endfacet
  facet normal -0.9975998462496215 -0.068574262958261772 -0.0095977717446744139
    outer loop
      vertex -0.01104000024497509 -0.040362976789474481 0.0069260003343224533
      vertex -0.010912000201642513 -0.041670978367328637 0.0029670002236962326
      vertex -0.010600999929010868 -0.046736978292465203 0.0068370012864470489
    endloop
  endfacet
  facet normal -0.99536422712273709 -0.088984155581225355 -0.036494868404371821
    outer loop
      vertex -0.010600999929010868 -0.046736978292465203 0.0068370012864470489
      vertex -0.010912000201642513 -0.041670978367328637 0.0029670002236962326
      vertex -0.010293000377714634 -0.048633985519409173 0.0030620007142424591
    endloop
  endfacet
  facet normal 0.97836494869574642 -0.20261178787429041 0.041838864443875738
    outer loop
      vertex -0.0048509999178349972 -0.022930980026721948 -0.0026789994612336152
      vertex -0.0033170001115649939 -0.015730977356433862 -0.0036829996556043618
      vertex -0.0048360000364482403 -0.022115983366966241 0.00091700091212987972
    endloop
  endfacet
  facet normal 0.97671387275125998 -0.21282552673177066 0.027116525341202929
    outer loop
      vertex -0.0032500000670552254 -0.014999978542327874 -0.00035899949073791432
      vertex -0.0048360000364482403 -0.022115983366966241 0.00091700091212987972
      vertex -0.0033170001115649939 -0.015730977356433862 -0.0036829996556043618
    endloop
  endfacet
  facet normal 0.60974638668819925 -0.25358387633392993 -0.75093579058674742
    outer loop
      vertex -0.0055410000495612621 -0.014930978715419763 -0.0057589996308088295
      vertex -0.0033170001115649939 -0.015730977356433862 -0.0036829996556043618
      vertex -0.0063849999569356441 -0.021428980231285089 -0.0042499990835785859
    endloop
  endfacet
  facet normal 0.57576473162426089 -0.23199574600997888 -0.7840108083763363
    outer loop
      vertex -0.0048509999178349972 -0.022930980026721948 -0.0026789994612336152
      vertex -0.0063849999569356441 -0.021428980231285089 -0.0042499990835785859
      vertex -0.0033170001115649939 -0.015730977356433862 -0.0036829996556043618
    endloop
  endfacet
  facet normal 0.94475969614038113 -0.1591909173517404 0.28650893246362441
    outer loop
      vertex -0.0032500000670552254 -0.014999978542327874 -0.00035899949073791432
      vertex -0.0043700002133846283 -0.014490977227687829 0.0036170000508427627
      vertex -0.0048360000364482403 -0.022115983366966241 0.00091700091212987972
    endloop
  endfacet
  facet normal 0.94435681721743614 -0.15956262010560868 0.28762818366771226
    outer loop
      vertex -0.0056599997915327549 -0.021474980115890496 0.0039780011698603637
      vertex -0.0048360000364482403 -0.022115983366966241 0.00091700091212987972
      vertex -0.0043700002133846283 -0.014490977227687829 0.0036170000508427627
    endloop
  endfacet
  facet normal -0.21697992270930505 -0.1939888966758965 -0.9567068626844546
    outer loop
      vertex -0.0055410000495612621 -0.014930978715419763 -0.0057589996308088295
      vertex -0.0063849999569356441 -0.021428980231285089 -0.0042499990835785859
      vertex -0.0092810001224279404 -0.014342978894710534 -0.0050299994349479668
    endloop
  endfacet
  facet normal -0.18104066395030399 -0.18041031140229377 -0.96678663495942085
    outer loop
      vertex -0.0099400002509355545 -0.021033980250358575 -0.0036579992324113839
      vertex -0.0092810001224279404 -0.014342978894710534 -0.0050299994349479668
      vertex -0.0063849999569356441 -0.021428980231285089 -0.0042499990835785859
    endloop
  endfacet
  facet normal 0.95668277949742564 -0.098389524160473876 0.274002848431464
    outer loop
      vertex -0.0070110000669956207 -0.022666983604431146 0.0082670005336403854
      vertex -0.0056599997915327549 -0.021474980115890496 0.0039780011698603637
      vertex -0.0060319998301565647 -0.015241980850696557 0.0075150003954768188
    endloop
  endfacet
  facet normal 0.91948535023898947 -0.15107601398267875 0.3629362598239369
    outer loop
      vertex -0.0043700002133846283 -0.014490977227687829 0.0036170000508427627
      vertex -0.0060319998301565647 -0.015241980850696557 0.0075150003954768188
      vertex -0.0056599997915327549 -0.021474980115890496 0.0039780011698603637
    endloop
  endfacet
  facet normal -0.81310484316837539 -0.039012577081953576 -0.58080851650570375
    outer loop
      vertex -0.0092810001224279404 -0.014342978894710534 -0.0050299994349479668
      vertex -0.0099400002509355545 -0.021033980250358575 -0.0036579992324113839
      vertex -0.012961000204086304 -0.014285981953144067 0.00011800064891576839
    endloop
  endfacet
  facet normal -0.84120099282509453 -0.077114730335745021 -0.53519548581366083
    outer loop
      vertex -0.012838000431656837 -0.021172978281974786 0.00091700091212987972
      vertex -0.012961000204086304 -0.014285981953144067 0.00011800064891576839
      vertex -0.0099400002509355545 -0.021033980250358575 -0.0036579992324113839
    endloop
  endfacet
  facet normal -0.09294232298448378 0.11245047687869868 0.98930107391430699
    outer loop
      vertex -0.0070110000669956207 -0.022666983604431146 0.0082670005336403854
      vertex -0.0060319998301565647 -0.015241980850696557 0.0075150003954768188
      vertex -0.0097049996256828308 -0.021312982141971581 0.0078600013926625259
    endloop
  endfacet
  facet normal 0.28468581342803961 -0.11817629918192858 0.9513087563690763
    outer loop
      vertex -0.0082820001989603043 -0.014817983210086816 0.0082409998700022705
      vertex -0.0097049996256828308 -0.021312982141971581 0.0078600013926625259
      vertex -0.0060319998301565647 -0.015241980850696557 0.0075150003954768188
    endloop
  endfacet
  facet normal -0.98718695742155083 -0.14014190694630865 0.076303060320235941
    outer loop
      vertex -0.011950000189244747 -0.033979982435703271 0.0068760013505816467
      vertex -0.012153999879956245 -0.034899980127811425 0.002546999819576741
      vertex -0.01104000024497509 -0.040362976789474481 0.0069260003343224533
    endloop
  endfacet
  facet normal -0.98352319440612002 -0.17871688758415546 0.027247021074121396
    outer loop
      vertex -0.010912000201642513 -0.041670978367328637 0.0029670002236962326
      vertex -0.01104000024497509 -0.040362976789474481 0.0069260003343224533
      vertex -0.012153999879956245 -0.034899980127811425 0.002546999819576741
    endloop
  endfacet
  facet normal -0.9944196321606481 -0.083414396760368409 0.064588184574155577
    outer loop
      vertex -0.012153999879956245 -0.034899980127811425 0.002546999819576741
      vertex -0.011950000189244747 -0.033979982435703271 0.0068760013505816467
      vertex -0.012776999734342098 -0.028079979419708245 0.0017630013003945358
    endloop
  endfacet
  facet normal -0.99442710031250126 -0.076761965279495359 0.072265779249242657
    outer loop
      vertex -0.012489999644458294 -0.027602978348731988 0.0062189998403191574
      vertex -0.012776999734342098 -0.028079979419708245 0.0017630013003945358
      vertex -0.011950000189244747 -0.033979982435703271 0.0068760013505816467
    endloop
  endfacet
  facet normal -0.99704264926145192 0.00060706323263983017 0.076847817327082305
    outer loop
      vertex -0.012838000431656837 -0.021172978281974786 0.00091700091212987972
      vertex -0.012776999734342098 -0.028079979419708245 0.0017630013003945358
      vertex -0.012480000033974648 -0.021199979186058038 0.0055620001927018173
    endloop
  endfacet
  facet normal -0.9979548123005284 0.0080651507759854617 0.063412506252139969
    outer loop
      vertex -0.012489999644458294 -0.027602978348731988 0.0062189998403191574
      vertex -0.012480000033974648 -0.021199979186058038 0.0055620001927018173
      vertex -0.012776999734342098 -0.028079979419708245 0.0017630013003945358
    endloop
  endfacet
  facet normal -0.99553423596106649 -0.0068568558843727758 0.094151837777052327
    outer loop
      vertex -0.012961000204086304 -0.014285981953144067 0.00011800064891576839
      vertex -0.012838000431656837 -0.021172978281974786 0.00091700091212987972
      vertex -0.012501000426709652 -0.01477897942066192 0.004946001090109349
    endloop
  endfacet
  facet normal -0.99703283600588977 0.004113408465932309 0.076867443022680226
    outer loop
      vertex -0.012480000033974648 -0.021199979186058038 0.0055620001927018173
      vertex -0.012501000426709652 -0.01477897942066192 0.004946001090109349
      vertex -0.012838000431656837 -0.021172978281974786 0.00091700091212987972
    endloop
  endfacet
  facet normal -0.74888495967387203 -0.0037827976925512343 0.66268922400766406
    outer loop
      vertex -0.0081139998510479927 -0.04804798245429992 0.0096400009766221054
      vertex -0.0085680000483989716 -0.041381977796554559 0.0091650003865361221
      vertex -0.010600999929010868 -0.046736978292465203 0.0068370012864470489
    endloop
  endfacet
  facet normal -0.68306670512412304 -0.057211745242433241 0.72811173081965197
    outer loop
      vertex -0.01104000024497509 -0.040362976789474481 0.0069260003343224533
      vertex -0.010600999929010868 -0.046736978292465203 0.0068370012864470489
      vertex -0.0085680000483989716 -0.041381977796554559 0.0091650003865361221
    endloop
  endfacet
  facet normal -0.52547323487879227 -0.068271742913336347 0.84806653544730382
    outer loop
      vertex -0.011950000189244747 -0.033979982435703271 0.0068760013505816467
      vertex -0.01104000024497509 -0.040362976789474481 0.0069260003343224533
      vertex -0.0089349998161196709 -0.034726977646350854 0.0086840002164244659
    endloop
  endfacet
  facet normal -0.66735535038889349 0.0170108307514946 0.74454514164317886
    outer loop
      vertex -0.0085680000483989716 -0.041381977796554559 0.0091650003865361221
      vertex -0.0089349998161196709 -0.034726977646350854 0.0086840002164244659
      vertex -0.01104000024497509 -0.040362976789474481 0.0069260003343224533
    endloop
  endfacet
  facet normal -0.54470369964915566 0.040176841167922424 0.8376656260240658
    outer loop
      vertex -0.012489999644458294 -0.027602978348731988 0.0062189998403191574
      vertex -0.011950000189244747 -0.033979982435703271 0.0068760013505816467
      vertex -0.0094649996608495712 -0.02801898151636123 0.0082060007676482208
    endloop
  endfacet
  facet normal -0.5103528866147603 0.020938297812266748 0.85971013650457007
    outer loop
      vertex -0.0089349998161196709 -0.034726977646350854 0.0086840002164244659
      vertex -0.0094649996608495712 -0.02801898151636123 0.0082060007676482208
      vertex -0.011950000189244747 -0.033979982435703271 0.0068760013505816467
    endloop
  endfacet
  facet normal -0.54658748163455018 0.023627238080501458 0.83706862236084789
    outer loop
      vertex -0.0094649996608495712 -0.02801898151636123 0.0082060007676482208
      vertex -0.0097049996256828308 -0.021312982141971581 0.0078600013926625259
      vertex -0.012489999644458294 -0.027602978348731988 0.0062189998403191574
    endloop
  endfacet
  facet normal -0.6338329544661041 0.079929256137192928 0.76932899324419368
    outer loop
      vertex -0.0097049996256828308 -0.021312982141971581 0.0078600013926625259
      vertex -0.012480000033974648 -0.021199979186058038 0.0055620001927018173
      vertex -0.012489999644458294 -0.027602978348731988 0.0062189998403191574
    endloop
  endfacet
  facet normal -0.61261496902904256 0.088143979140521148 0.78545116885954191
    outer loop
      vertex -0.0082820001989603043 -0.014817983210086816 0.0082409998700022705
      vertex -0.012501000426709652 -0.01477897942066192 0.004946001090109349
      vertex -0.0097049996256828308 -0.021312982141971581 0.0078600013926625259
    endloop
  endfacet
  facet normal -0.6344269423662624 0.07176096992293092 0.76964460499344456
    outer loop
      vertex -0.012480000033974648 -0.021199979186058038 0.0055620001927018173
      vertex -0.0097049996256828308 -0.021312982141971581 0.0078600013926625259
      vertex -0.012501000426709652 -0.01477897942066192 0.004946001090109349
    endloop
  endfacet
  facet normal 0.92086498825557217 -0.38426426850144141 0.065944259478114289
    outer loop
      vertex -0.0033170001115649939 -0.015730977356433862 -0.0036829996556043618
      vertex -0.00046899999142624438 -0.0089829790592193537 -0.0041319995820522301
      vertex -0.0032500000670552254 -0.014999978542327874 -0.00035899949073791432
    endloop
  endfacet
  facet normal 0.83629716738486282 -0.51105038677363346 -0.19858134354106449
    outer loop
      vertex 0.00036400000681169331 -0.0088189768791198664 -0.0010459989011287682
      vertex -0.0032500000670552254 -0.014999978542327874 -0.00035899949073791432
      vertex -0.00046899999142624438 -0.0089829790592193537 -0.0041319995820522301
    endloop
  endfacet
  facet normal 0.61123100311131584 -0.3065226877510836 -0.72968520796942715
    outer loop
      vertex -0.00046899999142624438 -0.0089829790592193537 -0.0041319995820522301
      vertex -0.0033170001115649939 -0.015730977356433862 -0.0036829996556043618
      vertex -0.0036989999935030937 -0.008636981546878808 -0.006982999172061681
    endloop
  endfacet
  facet normal 0.58403777158752956 -0.31630383808367168 -0.74756388581352107
    outer loop
      vertex -0.0055410000495612621 -0.014930978715419763 -0.0057589996308088295
      vertex -0.0036989999935030937 -0.008636981546878808 -0.006982999172061681
      vertex -0.0033170001115649939 -0.015730977356433862 -0.0036829996556043618
    endloop
  endfacet
  facet normal 0.86448503402717047 -0.49739925100999949 0.072523175866293171
    outer loop
      vertex 0.00036400000681169331 -0.0088189768791198664 -0.0010459989011287682
      vertex -0.00027700001373887062 -0.0091949778795242243 0.0040160009935498245
      vertex -0.0032500000670552254 -0.014999978542327874 -0.00035899949073791432
    endloop
  endfacet
  facet normal 0.74730926686925248 -0.59919515079485397 0.28721774129616823
    outer loop
      vertex -0.0043700002133846283 -0.014490977227687829 0.0036170000508427627
      vertex -0.0032500000670552254 -0.014999978542327874 -0.00035899949073791432
      vertex -0.00027700001373887062 -0.0091949778795242243 0.0040160009935498245
    endloop
  endfacet
  facet normal -0.036605085381464578 -0.29137088800976579 -0.95590955291001056
    outer loop
      vertex -0.0098139997571706772 -0.0078129771351814203 -0.006999999534338712
      vertex -0.0036989999935030937 -0.008636981546878808 -0.006982999172061681
      vertex -0.0092810001224279404 -0.014342978894710534 -0.0050299994349479668
    endloop
  endfacet
  facet normal -0.20901755116096182 -0.12738405401130762 -0.96957978840852455
    outer loop
      vertex -0.0055410000495612621 -0.014930978715419763 -0.0057589996308088295
      vertex -0.0092810001224279404 -0.014342978894710534 -0.0050299994349479668
      vertex -0.0036989999935030937 -0.008636981546878808 -0.006982999172061681
    endloop
  endfacet
  facet normal 0.71766826834809549 -0.58330757179529558 0.38040049065757287
    outer loop
      vertex -0.00027700001373887062 -0.0091949778795242243 0.0040160009935498245
      vertex -0.0024890000931918621 -0.0090209770202636652 0.0084560012742877014
      vertex -0.0043700002133846283 -0.014490977227687829 0.0036170000508427627
    endloop
  endfacet
  facet normal 0.82361049784878848 -0.50739543428835643 0.2534080130868025
    outer loop
      vertex -0.0060319998301565647 -0.015241980850696557 0.0075150003954768188
      vertex -0.0043700002133846283 -0.014490977227687829 0.0036170000508427627
      vertex -0.0024890000931918621 -0.0090209770202636652 0.0084560012742877014
    endloop
  endfacet
  facet normal -0.8745365590931421 -0.20409938020637275 -0.43991959470896685
    outer loop
      vertex -0.0098139997571706772 -0.0078129771351814203 -0.006999999534338712
      vertex -0.0092810001224279404 -0.014342978894710534 -0.0050299994349479668
      vertex -0.012881999835371971 -0.0074529799818992548 -0.0010679995343089096
    endloop
  endfacet
  facet normal -0.8106187772017831 -0.091030135080215235 -0.57845545425310307
    outer loop
      vertex -0.012881999835371971 -0.0074529799818992548 -0.0010679995343089096
      vertex -0.0092810001224279404 -0.014342978894710534 -0.0050299994349479668
      vertex -0.012961000204086304 -0.014285981953144067 0.00011800064891576839
    endloop
  endfacet
  facet normal 0.12121117518277706 -0.21559475969559533 0.96893072538887348
    outer loop
      vertex -0.0024890000931918621 -0.0090209770202636652 0.0084560012742877014
      vertex -0.0077880001626908779 -0.0082609805464744501 0.0092880001589655883
      vertex -0.0060319998301565647 -0.015241980850696557 0.0075150003954768188
    endloop
  endfacet
  facet normal 0.27306074553408211 -0.17171375509654119 0.94654752419464738
    outer loop
      vertex -0.0082820001989603043 -0.014817983210086816 0.0082409998700022705
      vertex -0.0060319998301565647 -0.015241980850696557 0.0075150003954768188
      vertex -0.0077880001626908779 -0.0082609805464744501 0.0092880001589655883
    endloop
  endfacet
  facet normal -0.99981485871983955 0.013873657415549067 0.013333038398772886
    outer loop
      vertex -0.012881999835371971 -0.0074529799818992548 -0.0010679995343089096
      vertex -0.012961000204086304 -0.014285981953144067 0.00011800064891576839
      vertex -0.012822999618947506 -0.0083829763531684809 0.0043240005448460586
    endloop
  endfacet
  facet normal -0.9950323263054407 -0.041284136402995879 0.09058857372009918
    outer loop
      vertex -0.012501000426709652 -0.01477897942066192 0.004946001090109349
      vertex -0.012822999618947506 -0.0083829763531684809 0.0043240005448460586
      vertex -0.012961000204086304 -0.014285981953144067 0.00011800064891576839
    endloop
  endfacet
  facet normal -0.7000177129163081 -0.060875263698644426 0.71152610905928226
    outer loop
      vertex -0.0077880001626908779 -0.0082609805464744501 0.0092880001589655883
      vertex -0.012822999618947506 -0.0083829763531684809 0.0043240005448460586
      vertex -0.0082820001989603043 -0.014817983210086816 0.0082409998700022705
    endloop
  endfacet
  facet normal -0.6146134252958303 0.04564174093201917 0.78750693262397453
    outer loop
      vertex -0.012501000426709652 -0.01477897942066192 0.004946001090109349
      vertex -0.0082820001989603043 -0.014817983210086816 0.0082409998700022705
      vertex -0.012822999618947506 -0.0083829763531684809 0.0043240005448460586
    endloop
  endfacet
  facet normal 0.86134001258557757 -0.04891708440259486 -0.50566837114123153
    outer loop
      vertex -0.0010049999691545963 -0.0017779770493507319 -0.0057419992685317986
      vertex 0.0009679999784566462 -0.0019459801912307673 -0.0023649993985891335
      vertex -0.00046899999142624438 -0.0089829790592193537 -0.0041319995820522301
    endloop
  endfacet
  facet normal 0.95867645504500076 -0.13255818873251485 -0.25172957939484431
    outer loop
      vertex 0.00036400000681169331 -0.0088189768791198664 -0.0010459989011287682
      vertex -0.00046899999142624438 -0.0089829790592193537 -0.0041319995820522301
      vertex 0.0009679999784566462 -0.0019459801912307673 -0.0023649993985891335
    endloop
  endfacet
  facet normal 0.64979809785629339 -0.11940135729736803 -0.75067019915398858
    outer loop
      vertex -0.0010049999691545963 -0.0017779770493507319 -0.0057419992685317986
      vertex -0.00046899999142624438 -0.0089829790592193537 -0.0041319995820522301
      vertex -0.0036989999935030937 -0.008636981546878808 -0.006982999172061681
    endloop
  endfacet
  facet normal 0.98590684701435105 -0.056416578199496213 0.15749558315864198
    outer loop
      vertex 0.0009679999784566462 -0.0019459801912307673 -0.0023649993985891335
      vertex 3.4000000596279278e-05 -0.0022439810633659296 0.0033750014677643783
      vertex 0.00036400000681169331 -0.0088189768791198664 -0.0010459989011287682
    endloop
  endfacet
  facet normal 0.99183933654842471 -0.033020734258206237 0.1231436623794725
    outer loop
      vertex -0.00027700001373887062 -0.0091949778795242243 0.0040160009935498245
      vertex 0.00036400000681169331 -0.0088189768791198664 -0.0010459989011287682
      vertex 3.4000000596279278e-05 -0.0022439810633659296 0.0033750014677643783
    endloop
  endfacet
  facet normal 0.067600925096237413 0.15186131018735899 -0.98608734775085294
    outer loop
      vertex -0.0010049999691545963 -0.0017779770493507319 -0.0057419992685317986
      vertex -0.0036989999935030937 -0.008636981546878808 -0.006982999172061681
      vertex -0.0085960002616047859 -0.0012039768695831232 -0.0061739997640252106
    endloop
  endfacet
  facet normal 0.01900290508983422 0.1205448142675679 -0.99252598824985139
    outer loop
      vertex -0.0098139997571706772 -0.0078129771351814203 -0.006999999534338712
      vertex -0.0085960002616047859 -0.0012039768695831232 -0.0061739997640252106
      vertex -0.0036989999935030937 -0.008636981546878808 -0.006982999172061681
    endloop
  endfacet
  facet normal 0.88967260038633289 -0.093603790897486591 0.44690154894723744
    outer loop
      vertex -0.0024890000931918621 -0.0090209770202636652 0.0084560012742877014
      vertex -0.00027700001373887062 -0.0091949778795242243 0.0040160009935498245
      vertex -0.0014519999967887998 -0.0018239769339561396 0.0078990014567971237
    endloop
  endfacet
  facet normal 0.94959706501503482 -0.013606384422931817 0.31317771379484716
    outer loop
      vertex 3.4000000596279278e-05 -0.0022439810633659296 0.0033750014677643783
      vertex -0.0014519999967887998 -0.0018239769339561396 0.0078990014567971237
      vertex -0.00027700001373887062 -0.0091949778795242243 0.0040160009935498245
    endloop
  endfacet
  facet normal -0.86181693627339651 0.21617484414151891 -0.45884638509279635
    outer loop
      vertex -0.0098139997571706772 -0.0078129771351814203 -0.006999999534338712
      vertex -0.012881999835371971 -0.0074529799818992548 -0.0010679995343089096
      vertex -0.0085960002616047859 -0.0012039768695831232 -0.0061739997640252106
    endloop
  endfacet
  facet normal -0.85424984730232612 0.19075975223462463 -0.48359891988230991
    outer loop
      vertex -0.011646999977529049 -0.00065998017787932683 -0.00056999900192022251
      vertex -0.0085960002616047859 -0.0012039768695831232 -0.0061739997640252106
      vertex -0.012881999835371971 -0.0074529799818992548 -0.0010679995343089096
    endloop
  endfacet
  facet normal 0.14111833935908302 0.056162012625397419 0.98839842302302328
    outer loop
      vertex -0.0014519999967887998 -0.0018239769339561396 0.0078990014567971237
      vertex -0.0069519998505711555 -0.0017489793896675043 0.008680001117289067
      vertex -0.0024890000931918621 -0.0090209770202636652 0.0084560012742877014
    endloop
  endfacet
  facet normal 0.16461323346064788 0.07072243863030718 0.9838195058260496
    outer loop
      vertex -0.0077880001626908779 -0.0082609805464744501 0.0092880001589655883
      vertex -0.0024890000931918621 -0.0090209770202636652 0.0084560012742877014
      vertex -0.0069519998505711555 -0.0017489793896675043 0.008680001117289067
    endloop
  endfacet
  facet normal -0.98395386126874118 0.17371248519933019 0.040728017140625968
    outer loop
      vertex -0.012822999618947506 -0.0083829763531684809 0.0043240005448460586
      vertex -0.011702000163495541 -0.002049982845783227 0.0043950008526444442
      vertex -0.012881999835371971 -0.0074529799818992548 -0.0010679995343089096
    endloop
  endfacet
  facet normal -0.98363869621099531 0.17601645639646171 0.03838127660677218
    outer loop
      vertex -0.011702000163495541 -0.002049982845783227 0.0043950008526444442
      vertex -0.011646999977529049 -0.00065998017787932683 -0.00056999900192022251
      vertex -0.012881999835371971 -0.0074529799818992548 -0.0010679995343089096
    endloop
  endfacet
  facet normal -0.69876818996187595 0.11577438224812976 0.70591735289088031
    outer loop
      vertex -0.012822999618947506 -0.0083829763531684809 0.0043240005448460586
      vertex -0.0077880001626908779 -0.0082609805464744501 0.0092880001589655883
      vertex -0.011702000163495541 -0.002049982845783227 0.0043950008526444442
    endloop
  endfacet
  facet normal -0.66722055949579284 0.1537045034459098 0.7288289584028389
    outer loop
      vertex -0.0069519998505711555 -0.0017489793896675043 0.008680001117289067
      vertex -0.011702000163495541 -0.002049982845783227 0.0043950008526444442
      vertex -0.0077880001626908779 -0.0082609805464744501 0.0092880001589655883
    endloop
  endfacet
  facet normal 0.06156019579625685 0.97495621154453538 0.21370710765965137
    outer loop
      vertex -0.0010049999691545963 -0.0017779770493507319 -0.0057419992685317986
      vertex -0.0085960002616047859 -0.0012039768695831232 -0.0061739997640252106
      vertex -0.0046979999169707298 -0.0028759765624999933 0.00033100064098835064
    endloop
  endfacet
  facet normal -0.10855776879748291 0.9876968602513817 0.1125616412605782
    outer loop
      vertex 0.0009679999784566462 -0.0019459801912307673 -0.0023649993985891335
      vertex -0.0010049999691545963 -0.0017779770493507319 -0.0057419992685317986
      vertex -0.0046979999169707298 -0.0028759765624999933 0.00033100064098835064
    endloop
  endfacet
  facet normal -0.14938331912625707 0.9884104502183958 0.02700751498918166
    outer loop
      vertex 3.4000000596279278e-05 -0.0022439810633659296 0.0033750014677643783
      vertex 0.0009679999784566462 -0.0019459801912307673 -0.0023649993985891335
      vertex -0.0046979999169707298 -0.0028759765624999933 0.00033100064098835064
    endloop
  endfacet
  facet normal -0.060460927486669765 0.99187345774035607 -0.11194427219666855
    outer loop
      vertex -0.0014519999967887998 -0.0018239769339561396 0.0078990014567971237
      vertex 3.4000000596279278e-05 -0.0022439810633659296 0.0033750014677643783
      vertex -0.0046979999169707298 -0.0028759765624999933 0.00033100064098835064
    endloop
  endfacet
  facet normal 0.2950837575434016 0.95303864711365649 0.068138925305866641
    outer loop
      vertex -0.0085960002616047859 -0.0012039768695831232 -0.0061739997640252106
      vertex -0.011646999977529049 -0.00065998017787932683 -0.00056999900192022251
      vertex -0.0046979999169707298 -0.0028759765624999933 0.00033100064098835064
    endloop
  endfacet
  facet normal -0.0056996248995396393 0.99079080901054262 -0.13528151040049413
    outer loop
      vertex -0.0069519998505711555 -0.0017489793896675043 0.008680001117289067
      vertex -0.0014519999967887998 -0.0018239769339561396 0.0078990014567971237
      vertex -0.0046979999169707298 -0.0028759765624999933 0.00033100064098835064
    endloop
  endfacet
  facet normal 0.26203261040562736 0.92856922831443922 0.26286517325720349
    outer loop
      vertex -0.011646999977529049 -0.00065998017787932683 -0.00056999900192022251
      vertex -0.011702000163495541 -0.002049982845783227 0.0043950008526444442
      vertex -0.0046979999169707298 -0.0028759765624999933 0.00033100064098835064
    endloop
  endfacet
  facet normal 0.046566493515447796 0.99152662390794766 -0.12127042410820288
    outer loop
      vertex -0.011702000163495541 -0.002049982845783227 0.0043950008526444442
      vertex -0.0069519998505711555 -0.0017489793896675043 0.008680001117289067
      vertex -0.0046979999169707298 -0.0028759765624999933 0.00033100064098835064
    endloop
  endfacet
endsolid OBJECT
