solid OBJECT
  facet normal 0.94786445373467287 0.2519020471898491 -0.19518795036536718
    outer loop
      vertex 0.002444500511046499 -0.048693993240594854 0.0030160008296370514
      vertex 0.0041995006031356752 -0.055974983721971502 0.0021420011594891555
      vertex 0.0019965003593824804 -0.049610988348722448 -0.0003429993689060204
    endloop
  endfacet
  facet normal 0.82125255659953411 0.4305034656496643 0.37444759892721668
    outer loop
      vertex 0.0049185006064362824 -0.056067996770143499 0.00067200067639350963
      vertex 0.0019965003593824804 -0.049610988348722448 -0.0003429993689060204
      vertex 0.0041995006031356752 -0.055974983721971502 0.0021420011594891555
    endloop
  endfacet
  facet normal 0.83585681898424735 0.06883751210391624 -0.54461433609929721
    outer loop
      vertex 0.0016245003207586706 -0.041616992205381384 0.0026520008519291885
      vertex 0.002444500511046499 -0.048693993240594854 0.0030160008296370514
      vertex -0.0004114993498660624 -0.043200993090867987 -0.00067299955338239598
    endloop
  endfacet
  facet normal 0.91808946220588417 0.33389585684124451 -0.21360078691512643
    outer loop
      vertex 0.0019965003593824804 -0.049610988348722448 -0.0003429993689060204
      vertex -0.0004114993498660624 -0.043200993090867987 -0.00067299955338239598
      vertex 0.002444500511046499 -0.048693993240594854 0.0030160008296370514
    endloop
  endfacet
  facet normal -0.020174710670399974 -0.1641583184489592 -0.98622767530290678
    outer loop
      vertex 0.0049185006064362824 -0.056067996770143499 0.00067200067639350963
      vertex 0.00019450060790404677 -0.052831986099481573 0.00023000057041645122
      vertex 0.0019965003593824804 -0.049610988348722448 -0.0003429993689060204
    endloop
  endfacet
  facet normal 0.03902341807725633 -0.19613355900911433 -0.97980038776884848
    outer loop
      vertex -0.00089149927953258157 -0.046348990052938452 -0.0011109996289014809
      vertex 0.0019965003593824804 -0.049610988348722448 -0.0003429993689060204
      vertex 0.00019450060790404677 -0.052831986099481573 0.00023000057041645122
    endloop
  endfacet
  facet normal 0.3384305389730155 0.078862111008345226 -0.93768093599994973
    outer loop
      vertex 0.0019965003593824804 -0.049610988348722448 -0.0003429993689060204
      vertex -0.00089149927953258157 -0.046348990052938452 -0.0011109996289014809
      vertex -0.0004114993498660624 -0.043200993090867987 -0.00067299955338239598
    endloop
  endfacet
  facet normal 0.82408380959257443 -0.047111464797699634 -0.56450543367801598
    outer loop
      vertex -0.00089149927953258157 -0.046348990052938452 -0.0011109996289014809
      vertex -0.0012684995890595019 -0.039762989729642859 -0.0022109996229410164
      vertex -0.0004114993498660624 -0.043200993090867987 -0.00067299955338239598
    endloop
  endfacet
  facet normal 0.85112327083325501 0.14457425416767619 0.50466569417581941
    outer loop
      vertex 0.0041995006031356752 -0.055974983721971502 0.0021420011594891555
      vertex 0.002444500511046499 -0.048693993240594854 0.0030160008296370514
      vertex 0.0022155006299726665 -0.054047995358705511 0.004936000548303128
    endloop
  endfacet
  facet normal 0.60924812349987367 0.24446168892654366 0.75435747935515585
    outer loop
      vertex 0.00019050057744607329 -0.047587991803884497 0.0044780003204941757
      vertex 0.0022155006299726665 -0.054047995358705511 0.004936000548303128
      vertex 0.002444500511046499 -0.048693993240594854 0.0030160008296370514
    endloop
  endfacet
  facet normal 0.57790907423449667 0.10856380855404595 0.80884794701455931
    outer loop
      vertex 0.002444500511046499 -0.048693993240594854 0.0030160008296370514
      vertex 0.0016245003207586706 -0.041616992205381384 0.0026520008519291885
      vertex 0.00019050057744607329 -0.047587991803884497 0.0044780003204941757
    endloop
  endfacet
  facet normal 0.77580061679664958 0.0066327570563389253 0.63094326964614633
    outer loop
      vertex 0.00025250058388337493 -0.040475987941026678 0.0043270012661814697
      vertex 0.00019050057744607329 -0.047587991803884497 0.0044780003204941757
      vertex 0.0016245003207586706 -0.041616992205381384 0.0026520008519291885
    endloop
  endfacet
  facet normal 0.67795453004333894 -0.28467207581229503 0.67774587010651299
    outer loop
      vertex 0.0041995006031356752 -0.055974983721971502 0.0021420011594891555
      vertex 0.0022155006299726665 -0.054047995358705511 0.004936000548303128
      vertex -0.00051549967611208558 -0.059901991039514532 0.0052090009972453125
    endloop
  endfacet
  facet normal 0.72575768684249531 -0.5661701060558203 0.39080326380132974
    outer loop
      vertex 0.0049185006064362824 -0.056067996770143499 0.00067200067639350963
      vertex 0.0041995006031356752 -0.055974983721971502 0.0021420011594891555
      vertex -0.00051549967611208558 -0.059901991039514532 0.0052090009972453125
    endloop
  endfacet
  facet normal 0.59740754724679368 -0.80100691162293203 0.038628357781070211
    outer loop
      vertex -0.00051549967611208558 -0.059901991039514532 0.0052090009972453125
      vertex -0.00015949929365888238 -0.059809991270303717 0.0016110001429915435
      vertex 0.0049185006064362824 -0.056067996770143499 0.00067200067639350963
    endloop
  endfacet
  facet normal -0.03980570732064382 -0.19204448820630365 -0.9805786150096697
    outer loop
      vertex -0.00015949929365888238 -0.059809991270303717 0.0016110001429915435
      vertex 0.00019450060790404677 -0.052831986099481573 0.00023000057041645122
      vertex 0.0049185006064362824 -0.056067996770143499 0.00067200067639350963
    endloop
  endfacet
  facet normal 0.86913397098470491 -0.10073072833499121 -0.48421014120881484
    outer loop
      vertex -0.0004114993498660624 -0.043200993090867987 -0.00067299955338239598
      vertex -3.0499475542455912e-05 -0.035620988458394995 -0.0015659991353750222
      vertex 0.0016245003207586706 -0.041616992205381384 0.0026520008519291885
    endloop
  endfacet
  facet normal 0.96072652644649481 0.077794659283057552 -0.26636916557493168
    outer loop
      vertex 0.00070950057124719024 -0.034425989836454382 0.0014520010277628906
      vertex 0.0016245003207586706 -0.041616992205381384 0.0026520008519291885
      vertex -3.0499475542455912e-05 -0.035620988458394995 -0.0015659991353750222
    endloop
  endfacet
  facet normal 0.78427290701796259 -0.14030121813255267 -0.60434392154477434
    outer loop
      vertex -0.00081449939170852304 -0.033089988976716986 -0.0031709994822740548
      vertex -3.0499475542455912e-05 -0.035620988458394995 -0.0015659991353750222
      vertex -0.0012684995890595019 -0.039762989729642859 -0.0022109996229410164
    endloop
  endfacet
  facet normal 0.73502790988439926 -0.11565413572166097 -0.66810036115949434
    outer loop
      vertex -0.0012684995890595019 -0.039762989729642859 -0.0022109996229410164
      vertex -3.0499475542455912e-05 -0.035620988458394995 -0.0015659991353750222
      vertex -0.0004114993498660624 -0.043200993090867987 -0.00067299955338239598
    endloop
  endfacet
  facet normal 0.96940157022472317 0.041730149883575283 0.24190740012768383
    outer loop
      vertex -8.4993080236017704e-06 -0.033467994183301916 0.0041640011891722686
      vertex 0.00025250058388337493 -0.040475987941026678 0.0043270012661814697
      vertex 0.00070950057124719024 -0.034425989836454382 0.0014520010277628906
    endloop
  endfacet
  facet normal 0.81959218307434389 0.19423564681045954 0.53901870742262148
    outer loop
      vertex 0.0016245003207586706 -0.041616992205381384 0.0026520008519291885
      vertex 0.00070950057124719024 -0.034425989836454382 0.0014520010277628906
      vertex 0.00025250058388337493 -0.040475987941026678 0.0043270012661814697
    endloop
  endfacet
  facet normal -0.39384916610517329 -0.12377360636934849 -0.91080345230163962
    outer loop
      vertex -0.0036464990698732436 -0.046147988289594641 5.3000852465630299e-05
      vertex -0.00089149927953258157 -0.046348990052938452 -0.0011109996289014809
      vertex -0.0023294990533031523 -0.052847989946603766 0.0003940008878707893
    endloop
  endfacet
  facet normal -0.062024647540554312 -0.21212403789183237 -0.97527244175457695
    outer loop
      vertex 0.00019450060790404677 -0.052831986099481573 0.00023000057041645122
      vertex -0.0023294990533031523 -0.052847989946603766 0.0003940008878707893
      vertex -0.00089149927953258157 -0.046348990052938452 -0.0011109996289014809
    endloop
  endfacet
  facet normal -0.44221274096493035 -0.14891760360490086 -0.88446110093370234
    outer loop
      vertex -0.0044714990654028952 -0.039409988671541205 -0.0006689995229244225
      vertex -0.0012684995890595019 -0.039762989729642859 -0.0022109996229410164
      vertex -0.0036464990698732436 -0.046147988289594641 5.3000852465630299e-05
    endloop
  endfacet
  facet normal -0.39400578759446869 -0.17331039954880326 -0.90262004450948052
    outer loop
      vertex -0.00089149927953258157 -0.046348990052938452 -0.0011109996289014809
      vertex -0.0036464990698732436 -0.046147988289594641 5.3000852465630299e-05
      vertex -0.0012684995890595019 -0.039762989729642859 -0.0022109996229410164
    endloop
  endfacet
  facet normal -0.062445330671414806 -0.19071367198054626 -0.97965752995474631
    outer loop
      vertex 0.00019450060790404677 -0.052831986099481573 0.00023000057041645122
      vertex -0.00015949929365888238 -0.059809991270303717 0.0016110001429915435
      vertex -0.0023294990533031523 -0.052847989946603766 0.0003940008878707893
    endloop
  endfacet
  facet normal -0.2652019057123311 -0.21833880459593483 -0.93914648251173594
    outer loop
      vertex -0.0045654993155039847 -0.032731988579034796 -0.0021949995011091225
      vertex -0.00081449939170852304 -0.033089988976716986 -0.0031709994822740548
      vertex -0.0044714990654028952 -0.039409988671541205 -0.0006689995229244225
    endloop
  endfacet
  facet normal -0.44045214477644828 -0.098412365029249896 -0.89236590845413633
    outer loop
      vertex -0.0012684995890595019 -0.039762989729642859 -0.0022109996229410164
      vertex -0.0044714990654028952 -0.039409988671541205 -0.0006689995229244225
      vertex -0.00081449939170852304 -0.033089988976716986 -0.0031709994822740548
    endloop
  endfacet
  facet normal 0.90053452123577427 0.43412606216529565 0.023919410768421395
    outer loop
      vertex 0.0028785005561076105 -0.055734985619783392 0.010593001015484334
      vertex 0.0022155006299726665 -0.054047995358705511 0.004936000548303128
      vertex -0.00015149923274293542 -0.049417988508939734 0.010018000595271588
    endloop
  endfacet
  facet normal 0.9388238689052848 0.30555546889567814 0.15888863584805216
    outer loop
      vertex 0.00019050057744607329 -0.047587991803884497 0.0044780003204941757
      vertex -0.00015149923274293542 -0.049417988508939734 0.010018000595271588
      vertex 0.0022155006299726665 -0.054047995358705511 0.004936000548303128
    endloop
  endfacet
  facet normal 0.9454788617452099 0.28735469799761154 0.15328731040658178
    outer loop
      vertex -0.00015149923274293542 -0.049417988508939734 0.010018000595271588
      vertex 0.00019050057744607329 -0.047587991803884497 0.0044780003204941757
      vertex -0.0020914995693601668 -0.042486989051103582 0.0089910013899207122
    endloop
  endfacet
  facet normal 0.89319960734872339 0.0017603183823833002 0.44965693891152048
    outer loop
      vertex 0.00025250058388337493 -0.040475987941026678 0.0043270012661814697
      vertex -0.0020914995693601668 -0.042486989051103582 0.0089910013899207122
      vertex 0.00019050057744607329 -0.047587991803884497 0.0044780003204941757
    endloop
  endfacet
  facet normal 0.78063870340066455 -0.56794045179222841 -0.26085792679343456
    outer loop
      vertex 0.0028785005561076105 -0.055734985619783392 0.010593001015484334
      vertex -0.0010104994871653616 -0.059781991988420477 0.0077660011425614364
      vertex 0.0022155006299726665 -0.054047995358705511 0.004936000548303128
    endloop
  endfacet
  facet normal 0.89278100595103527 -0.40754746554292876 0.19195608545339871
    outer loop
      vertex -0.00051549967611208558 -0.059901991039514532 0.0052090009972453125
      vertex 0.0022155006299726665 -0.054047995358705511 0.004936000548303128
      vertex -0.0010104994871653616 -0.059781991988420477 0.0077660011425614364
    endloop
  endfacet
  facet normal 0.90561158411452203 -0.099304755465225797 0.412318110516113
    outer loop
      vertex -0.0020914995693601668 -0.042486989051103582 0.0089910013899207122
      vertex 0.00025250058388337493 -0.040475987941026678 0.0043270012661814697
      vertex -0.0011874996707774699 -0.035035991221666327 0.0088000001683831222
    endloop
  endfacet
  facet normal 0.96481425881403393 0.041969914516739711 0.25956111470053372
    outer loop
      vertex -8.4993080236017704e-06 -0.033467994183301916 0.0041640011891722686
      vertex -0.0011874996707774699 -0.035035991221666327 0.0088000001683831222
      vertex 0.00025250058388337493 -0.040475987941026678 0.0043270012661814697
    endloop
  endfacet
  facet normal -0.42219805380941605 -0.9046930443808523 0.057265162258100161
    outer loop
      vertex -0.0056634997599758208 -0.058065989166498175 0.0075770004019141204
      vertex -0.0021724994876421988 -0.059999995976686468 0.0027610009834170349
      vertex -0.0018564998754300177 -0.059727990180253973 0.0093879999890923507
    endloop
  endfacet
  facet normal -0.0016044986349074233 -0.99915428891422076 0.041086889982675505
    outer loop
      vertex -0.0021724994876421988 -0.059999995976686468 0.0027610009834170349
      vertex -0.00051549967611208558 -0.059901991039514532 0.0052090009972453125
      vertex -0.0018564998754300177 -0.059727990180253973 0.0093879999890923507
    endloop
  endfacet
  facet normal 0.041476445494141936 -0.99763291003772336 0.054847801039194226
    outer loop
      vertex -0.0018564998754300177 -0.059727990180253973 0.0093879999890923507
      vertex -0.00051549967611208558 -0.059901991039514532 0.0052090009972453125
      vertex -0.0010104994871653616 -0.059781991988420477 0.0077660011425614364
    endloop
  endfacet
  facet normal 0.084247935096947293 -0.9962974121510535 -0.017139194059644966
    outer loop
      vertex -0.00051549967611208558 -0.059901991039514532 0.0052090009972453125
      vertex -0.0021724994876421988 -0.059999995976686468 0.0027610009834170349
      vertex -0.00015949929365888238 -0.059809991270303717 0.0016110001429915435
    endloop
  endfacet
  facet normal -0.71070545589271417 -0.33011516788605122 -0.62122599019671843
    outer loop
      vertex -0.0023294990533031523 -0.052847989946603766 0.0003940008878707893
      vertex -0.00015949929365888238 -0.059809991270303717 0.0016110001429915435
      vertex -0.0042964998283423483 -0.053633996397256842 0.0030620007142424591
    endloop
  endfacet
  facet normal -0.48383929909628898 -0.12044606223218907 -0.86682886358425537
    outer loop
      vertex -0.0021724994876421988 -0.059999995976686468 0.0027610009834170349
      vertex -0.0042964998283423483 -0.053633996397256842 0.0030620007142424591
      vertex -0.00015949929365888238 -0.059809991270303717 0.0016110001429915435
    endloop
  endfacet
  facet normal 0.9980989709768523 -0.060874024246092777 0.0096331358879019301
    outer loop
      vertex 0.0011605005129240453 -0.02711599424481391 0.00091700091212987972
      vertex 0.00070950057124719024 -0.034425989836454382 0.0014520010277628906
      vertex 0.0011455006315372884 -0.027930990904569616 -0.0026789994612336152
    endloop
  endfacet
  facet normal 0.97025515499141379 -0.17290094833919581 -0.16944083414571026
    outer loop
      vertex 0.00070950057124719024 -0.034425989836454382 0.0014520010277628906
      vertex -3.0499475542455912e-05 -0.035620988458394995 -0.0015659991353750222
      vertex 0.0011455006315372884 -0.027930990904569616 -0.0026789994612336152
    endloop
  endfacet
  facet normal 0.62300523959178267 -0.16374613763251133 -0.76488670654654478
    outer loop
      vertex -0.00038849940756335855 -0.026428991109132757 -0.0042499990835785859
      vertex 0.0011455006315372884 -0.027930990904569616 -0.0026789994612336152
      vertex -0.00081449939170852304 -0.033089988976716986 -0.0031709994822740548
    endloop
  endfacet
  facet normal 0.71107281423591395 -0.20603893995696973 -0.67225248833754825
    outer loop
      vertex -3.0499475542455912e-05 -0.035620988458394995 -0.0015659991353750222
      vertex -0.00081449939170852304 -0.033089988976716986 -0.0031709994822740548
      vertex 0.0011455006315372884 -0.027930990904569616 -0.0026789994612336152
    endloop
  endfacet
  facet normal 0.96268299880717256 -0.040376299758887693 0.26760268725371511
    outer loop
      vertex 0.00033650075783953071 -0.026474990993738165 0.0039780011698603637
      vertex -8.4993080236017704e-06 -0.033467994183301916 0.0041640011891722686
      vertex 0.0011605005129240453 -0.02711599424481391 0.00091700091212987972
    endloop
  endfacet
  facet normal 0.96237410789370481 -0.039701285553239124 0.26881198704897069
    outer loop
      vertex 0.0011605005129240453 -0.02711599424481391 0.00091700091212987972
      vertex -8.4993080236017704e-06 -0.033467994183301916 0.0041640011891722686
      vertex 0.00070950057124719024 -0.034425989836454382 0.0014520010277628906
    endloop
  endfacet
  facet normal -0.26385581268177605 -0.18238002096904526 -0.94716294166598913
    outer loop
      vertex -0.0045654993155039847 -0.032731988579034796 -0.0021949995011091225
      vertex -0.0039434997015632689 -0.026033991128206244 -0.0036579992324113839
      vertex -0.00081449939170852304 -0.033089988976716986 -0.0031709994822740548
    endloop
  endfacet
  facet normal -0.17828546489057739 -0.14622060368091014 -0.97305386699192598
    outer loop
      vertex -0.00038849940756335855 -0.026428991109132757 -0.0042499990835785859
      vertex -0.00081449939170852304 -0.033089988976716986 -0.0031709994822740548
      vertex -0.0039434997015632689 -0.026033991128206244 -0.0036579992324113839
    endloop
  endfacet
  facet normal 0.96954510540562855 -0.0050509960251499944 0.2448607278089778
    outer loop
      vertex -0.0011874996707774699 -0.035035991221666327 0.0088000001683831222
      vertex -8.4993080236017704e-06 -0.033467994183301916 0.0041640011891722686
      vertex -0.0010144995176233351 -0.027666994482278814 0.0082670005336403854
    endloop
  endfacet
  facet normal 0.95614809302274328 -0.039452476503766341 0.29021427653837334
    outer loop
      vertex 0.00033650075783953071 -0.026474990993738165 0.0039780011698603637
      vertex -0.0010144995176233351 -0.027666994482278814 0.0082670005336403854
      vertex -8.4993080236017704e-06 -0.033467994183301916 0.0041640011891722686
    endloop
  endfacet
  facet normal -0.79120352849566911 -0.078611248307820084 -0.60647938805493573
    outer loop
      vertex -0.0042964998283423483 -0.053633996397256842 0.0030620007142424591
      vertex -0.0049154996522702277 -0.046670989245176306 0.0029670002236962326
      vertex -0.0023294990533031523 -0.052847989946603766 0.0003940008878707893
    endloop
  endfacet
  facet normal -0.88580488537706115 -0.19553944904662621 -0.42084917596292554
    outer loop
      vertex -0.0049154996522702277 -0.046670989245176306 0.0029670002236962326
      vertex -0.0036464990698732436 -0.046147988289594641 5.3000852465630299e-05
      vertex -0.0023294990533031523 -0.052847989946603766 0.0003940008878707893
    endloop
  endfacet
  facet normal -0.86464721277913137 -0.15700271805741942 -0.47721624443836991
    outer loop
      vertex -0.0044714990654028952 -0.039409988671541205 -0.0006689995229244225
      vertex -0.0036464990698732436 -0.046147988289594641 5.3000852465630299e-05
      vertex -0.0061574993305839598 -0.039899991005659094 0.002546999819576741
    endloop
  endfacet
  facet normal -0.887475061454017 -0.18886475144656167 -0.42037854483574355
    outer loop
      vertex -0.0049154996522702277 -0.046670989245176306 0.0029670002236962326
      vertex -0.0061574993305839598 -0.039899991005659094 0.002546999819576741
      vertex -0.0036464990698732436 -0.046147988289594641 5.3000852465630299e-05
    endloop
  endfacet
  facet normal -0.86111395545811364 -0.12474759753585402 -0.49286995508380754
    outer loop
      vertex -0.0045654993155039847 -0.032731988579034796 -0.0021949995011091225
      vertex -0.0044714990654028952 -0.039409988671541205 -0.0006689995229244225
      vertex -0.0067804991849698126 -0.033079990297555914 0.0017630013003945358
    endloop
  endfacet
  facet normal -0.86911778521944594 -0.13412039476229115 -0.47607351861246433
    outer loop
      vertex -0.0067804991849698126 -0.033079990297555914 0.0017630013003945358
      vertex -0.0044714990654028952 -0.039409988671541205 -0.0006689995229244225
      vertex -0.0061574993305839598 -0.039899991005659094 0.002546999819576741
    endloop
  endfacet
  facet normal -0.84361548265322139 -0.038636864073164426 -0.53555588892510952
    outer loop
      vertex -0.0039434997015632689 -0.026033991128206244 -0.0036579992324113839
      vertex -0.0045654993155039847 -0.032731988579034796 -0.0021949995011091225
      vertex -0.0068414998822845519 -0.026172989159822455 0.00091700091212987972
    endloop
  endfacet
  facet normal -0.86807509341188593 -0.067900464149249537 -0.49176738318666685
    outer loop
      vertex -0.0067804991849698126 -0.033079990297555914 0.0017630013003945358
      vertex -0.0068414998822845519 -0.026172989159822455 0.00091700091212987972
      vertex -0.0045654993155039847 -0.032731988579034796 -0.0021949995011091225
    endloop
  endfacet
  facet normal -0.1876981292609062 -0.00062444308825768938 0.98222656365157734
    outer loop
      vertex 0.0028785005561076105 -0.055734985619783392 0.010593001015484334
      vertex -0.00015149923274293542 -0.049417988508939734 0.010018000595271588
      vertex -0.0021174993016757071 -0.053047993332147589 0.0096400009766221054
    endloop
  endfacet
  facet normal -0.27611182778832716 0.049590763914618155 0.95984530768752219
    outer loop
      vertex -0.002571499499026686 -0.046381988674402228 0.0091650003865361221
      vertex -0.0021174993016757071 -0.053047993332147589 0.0096400009766221054
      vertex -0.00015149923274293542 -0.049417988508939734 0.010018000595271588
    endloop
  endfacet
  facet normal -0.24800073255044947 0.07371371499639677 0.96595130564427023
    outer loop
      vertex -0.00015149923274293542 -0.049417988508939734 0.010018000595271588
      vertex -0.0020914995693601668 -0.042486989051103582 0.0089910013899207122
      vertex -0.002571499499026686 -0.046381988674402228 0.0091650003865361221
    endloop
  endfacet
  facet normal -0.15262492593379312 0.062868330137172912 0.98628251786669496
    outer loop
      vertex -0.002571499499026686 -0.046381988674402228 0.0091650003865361221
      vertex -0.0020914995693601668 -0.042486989051103582 0.0089910013899207122
      vertex -0.0029384992667473853 -0.039726988524198523 0.0086840002164244659
    endloop
  endfacet
  facet normal 0.56234183728152065 -0.76301781282558989 0.31870907635914075
    outer loop
      vertex 0.0028785005561076105 -0.055734985619783392 0.010593001015484334
      vertex -0.0018564998754300177 -0.059727990180253973 0.0093879999890923507
      vertex -0.0010104994871653616 -0.059781991988420477 0.0077660011425614364
    endloop
  endfacet
  facet normal -0.2105170976849173 -0.045065385512634261 0.97655090118790866
    outer loop
      vertex 0.0028785005561076105 -0.055734985619783392 0.010593001015484334
      vertex -0.0021174993016757071 -0.053047993332147589 0.0096400009766221054
      vertex -0.0018564998754300177 -0.059727990180253973 0.0093879999890923507
    endloop
  endfacet
  facet normal -0.20731040789637623 0.053227201360504156 0.97682611544387288
    outer loop
      vertex -0.0034684991114772856 -0.033018992394208899 0.0082060007676482208
      vertex -0.0029384992667473853 -0.039726988524198523 0.0086840002164244659
      vertex -0.0011874996707774699 -0.035035991221666327 0.0088000001683831222
    endloop
  endfacet
  facet normal -0.19578510592204301 0.048860813710424861 0.97942881986525687
    outer loop
      vertex -0.0011874996707774699 -0.035035991221666327 0.0088000001683831222
      vertex -0.0029384992667473853 -0.039726988524198523 0.0086840002164244659
      vertex -0.0020914995693601668 -0.042486989051103582 0.0089910013899207122
    endloop
  endfacet
  facet normal -0.12627685789876678 0.046606654128525167 0.99089957864062028
    outer loop
      vertex -0.0037084990763105452 -0.02631299301981925 0.0078600013926625259
      vertex -0.0034684991114772856 -0.033018992394208899 0.0082060007676482208
      vertex -0.0010144995176233351 -0.027666994482278814 0.0082670005336403854
    endloop
  endfacet
  facet normal -0.18845383989529169 0.075249466262027595 0.97919490810359089
    outer loop
      vertex -0.0034684991114772856 -0.033018992394208899 0.0082060007676482208
      vertex -0.0011874996707774699 -0.035035991221666327 0.0088000001683831222
      vertex -0.0010144995176233351 -0.027666994482278814 0.0082670005336403854
    endloop
  endfacet
  facet normal -0.82876340618142219 -0.25291219271649251 -0.49918597671599557
    outer loop
      vertex -0.0021724994876421988 -0.059999995976686468 0.0027610009834170349
      vertex -0.0056634997599758208 -0.058065989166498175 0.0075770004019141204
      vertex -0.0042964998283423483 -0.053633996397256842 0.0030620007142424591
    endloop
  endfacet
  facet normal -0.97743938075628845 0.14566702560406561 -0.15294892807217797
    outer loop
      vertex -0.0042964998283423483 -0.053633996397256842 0.0030620007142424591
      vertex -0.0056634997599758208 -0.058065989166498175 0.0075770004019141204
      vertex -0.0046044993796385825 -0.051736989170312872 0.0068370012864470489
    endloop
  endfacet
  facet normal -0.44713704269820542 -0.051158663630351313 0.89300126325927442
    outer loop
      vertex -0.0018564998754300177 -0.059727990180253973 0.0093879999890923507
      vertex -0.0021174993016757071 -0.053047993332147589 0.0096400009766221054
      vertex -0.0056634997599758208 -0.058065989166498175 0.0075770004019141204
    endloop
  endfacet
  facet normal -0.6859233817348962 0.19668631016241075 0.70058804570450661
    outer loop
      vertex -0.0056634997599758208 -0.058065989166498175 0.0075770004019141204
      vertex -0.0021174993016757071 -0.053047993332147589 0.0096400009766221054
      vertex -0.0046044993796385825 -0.051736989170312872 0.0068370012864470489
    endloop
  endfacet
  facet normal -0.9975998462496215 -0.068574262958261772 -0.0095977717446744139
    outer loop
      vertex -0.0050434996956028044 -0.045362987667322149 0.0069260003343224533
      vertex -0.0049154996522702277 -0.046670989245176306 0.0029670002236962326
      vertex -0.0046044993796385825 -0.051736989170312872 0.0068370012864470489
    endloop
  endfacet
  facet normal -0.99536422712273709 -0.088984155581225355 -0.036494868404371821
    outer loop
      vertex -0.0046044993796385825 -0.051736989170312872 0.0068370012864470489
      vertex -0.0049154996522702277 -0.046670989245176306 0.0029670002236962326
      vertex -0.0042964998283423483 -0.053633996397256842 0.0030620007142424591
    endloop
  endfacet
  facet normal 0.97836494869574642 -0.20261178787429041 0.041838864443875738
    outer loop
      vertex 0.0011455006315372884 -0.027930990904569616 -0.0026789994612336152
      vertex 0.0026795004378072917 -0.02073098823428153 -0.0036829996556043618
      vertex 0.0011605005129240453 -0.02711599424481391 0.00091700091212987972
    endloop
  endfacet
  facet normal 0.97671387275125998 -0.21282552673177066 0.027116525341202929
    outer loop
      vertex 0.0027465004823170602 -0.019999989420175543 -0.00035899949073791432
      vertex 0.0011605005129240453 -0.02711599424481391 0.00091700091212987972
      vertex 0.0026795004378072917 -0.02073098823428153 -0.0036829996556043618
    endloop
  endfacet
  facet normal 0.60974638668819925 -0.25358387633392993 -0.75093579058674742
    outer loop
      vertex 0.00045550049981102347 -0.019930989593267431 -0.0057589996308088295
      vertex 0.0026795004378072917 -0.02073098823428153 -0.0036829996556043618
      vertex -0.00038849940756335855 -0.026428991109132757 -0.0042499990835785859
    endloop
  endfacet
  facet normal 0.57576473162426089 -0.23199574600997888 -0.7840108083763363
    outer loop
      vertex 0.0011455006315372884 -0.027930990904569616 -0.0026789994612336152
      vertex -0.00038849940756335855 -0.026428991109132757 -0.0042499990835785859
      vertex 0.0026795004378072917 -0.02073098823428153 -0.0036829996556043618
    endloop
  endfacet
  facet normal 0.94475969614038113 -0.1591909173517404 0.28650893246362441
    outer loop
      vertex 0.0027465004823170602 -0.019999989420175543 -0.00035899949073791432
      vertex 0.0016265003359876573 -0.019490988105535498 0.0036170000508427627
      vertex 0.0011605005129240453 -0.02711599424481391 0.00091700091212987972
    endloop
  endfacet
  facet normal 0.94435681721743614 -0.15956262010560868 0.28762818366771226
    outer loop
      vertex 0.00033650075783953071 -0.026474990993738165 0.0039780011698603637
      vertex 0.0011605005129240453 -0.02711599424481391 0.00091700091212987972
      vertex 0.0016265003359876573 -0.019490988105535498 0.0036170000508427627
    endloop
  endfacet
  facet normal -0.21697992270930505 -0.1939888966758965 -0.9567068626844546
    outer loop
      vertex 0.00045550049981102347 -0.019930989593267431 -0.0057589996308088295
      vertex -0.00038849940756335855 -0.026428991109132757 -0.0042499990835785859
      vertex -0.0032844995730556548 -0.019342989772558203 -0.0050299994349479668
    endloop
  endfacet
  facet normal -0.18104066395030399 -0.18041031140229377 -0.96678663495942085
    outer loop
      vertex -0.0039434997015632689 -0.026033991128206244 -0.0036579992324113839
      vertex -0.0032844995730556548 -0.019342989772558203 -0.0050299994349479668
      vertex -0.00038849940756335855 -0.026428991109132757 -0.0042499990835785859
    endloop
  endfacet
  facet normal 0.95668277949742564 -0.098389524160473876 0.274002848431464
    outer loop
      vertex -0.0010144995176233351 -0.027666994482278814 0.0082670005336403854
      vertex 0.00033650075783953071 -0.026474990993738165 0.0039780011698603637
      vertex -3.5499280784279108e-05 -0.020241991728544226 0.0075150003954768188
    endloop
  endfacet
  facet normal 0.91948535023898947 -0.15107601398267875 0.3629362598239369
    outer loop
      vertex 0.0016265003359876573 -0.019490988105535498 0.0036170000508427627
      vertex -3.5499280784279108e-05 -0.020241991728544226 0.0075150003954768188
      vertex 0.00033650075783953071 -0.026474990993738165 0.0039780011698603637
    endloop
  endfacet
  facet normal -0.81310484316837539 -0.039012577081953576 -0.58080851650570375
    outer loop
      vertex -0.0032844995730556548 -0.019342989772558203 -0.0050299994349479668
      vertex -0.0039434997015632689 -0.026033991128206244 -0.0036579992324113839
      vertex -0.0069644996547140181 -0.019285992830991736 0.00011800064891576839
    endloop
  endfacet
  facet normal -0.84120099282509453 -0.077114730335745021 -0.53519548581366083
    outer loop
      vertex -0.0068414998822845519 -0.026172989159822455 0.00091700091212987972
      vertex -0.0069644996547140181 -0.019285992830991736 0.00011800064891576839
      vertex -0.0039434997015632689 -0.026033991128206244 -0.0036579992324113839
    endloop
  endfacet
  facet normal -0.09294232298448378 0.11245047687869868 0.98930107391430699
    outer loop
      vertex -0.0010144995176233351 -0.027666994482278814 0.0082670005336403854
      vertex -3.5499280784279108e-05 -0.020241991728544226 0.0075150003954768188
      vertex -0.0037084990763105452 -0.02631299301981925 0.0078600013926625259
    endloop
  endfacet
  facet normal 0.28468581342803961 -0.11817629918192858 0.9513087563690763
    outer loop
      vertex -0.0022854996495880187 -0.019817994087934485 0.0082409998700022705
      vertex -0.0037084990763105452 -0.02631299301981925 0.0078600013926625259
      vertex -3.5499280784279108e-05 -0.020241991728544226 0.0075150003954768188
    endloop
  endfacet
  facet normal -0.98718695742155083 -0.14014190694630865 0.076303060320235941
    outer loop
      vertex -0.0059534996398724616 -0.03897999331355094 0.0068760013505816467
      vertex -0.0061574993305839598 -0.039899991005659094 0.002546999819576741
      vertex -0.0050434996956028044 -0.045362987667322149 0.0069260003343224533
    endloop
  endfacet
  facet normal -0.98352319440612002 -0.17871688758415546 0.027247021074121396
    outer loop
      vertex -0.0049154996522702277 -0.046670989245176306 0.0029670002236962326
      vertex -0.0050434996956028044 -0.045362987667322149 0.0069260003343224533
      vertex -0.0061574993305839598 -0.039899991005659094 0.002546999819576741
    endloop
  endfacet
  facet normal -0.9944196321606481 -0.083414396760368409 0.064588184574155577
    outer loop
      vertex -0.0061574993305839598 -0.039899991005659094 0.002546999819576741
      vertex -0.0059534996398724616 -0.03897999331355094 0.0068760013505816467
      vertex -0.0067804991849698126 -0.033079990297555914 0.0017630013003945358
    endloop
  endfacet
  facet normal -0.99442710031250126 -0.076761965279495359 0.072265779249242657
    outer loop
      vertex -0.0064934990950860083 -0.032602989226579657 0.0062189998403191574
      vertex -0.0067804991849698126 -0.033079990297555914 0.0017630013003945358
      vertex -0.0059534996398724616 -0.03897999331355094 0.0068760013505816467
    endloop
  endfacet
  facet normal -0.99704264926145192 0.00060706323263983017 0.076847817327082305
    outer loop
      vertex -0.0068414998822845519 -0.026172989159822455 0.00091700091212987972
      vertex -0.0067804991849698126 -0.033079990297555914 0.0017630013003945358
      vertex -0.0064834994846023619 -0.026199990063905707 0.0055620001927018173
    endloop
  endfacet
  facet normal -0.9979548123005284 0.0080651507759854617 0.063412506252139969
    outer loop
      vertex -0.0064934990950860083 -0.032602989226579657 0.0062189998403191574
      vertex -0.0064834994846023619 -0.026199990063905707 0.0055620001927018173
      vertex -0.0067804991849698126 -0.033079990297555914 0.0017630013003945358
    endloop
  endfacet
  facet normal -0.99553423596106649 -0.0068568558843727758 0.094151837777052327
    outer loop
      vertex -0.0069644996547140181 -0.019285992830991736 0.00011800064891576839
      vertex -0.0068414998822845519 -0.026172989159822455 0.00091700091212987972
      vertex -0.0065044998773373663 -0.019778990298509588 0.004946001090109349
    endloop
  endfacet
  facet normal -0.99703283600588977 0.004113408465932309 0.076867443022680226
    outer loop
      vertex -0.0064834994846023619 -0.026199990063905707 0.0055620001927018173
      vertex -0.0065044998773373663 -0.019778990298509588 0.004946001090109349
      vertex -0.0068414998822845519 -0.026172989159822455 0.00091700091212987972
    endloop
  endfacet
  facet normal -0.74888495967387203 -0.0037827976925512343 0.66268922400766406
    outer loop
      vertex -0.0021174993016757071 -0.053047993332147589 0.0096400009766221054
      vertex -0.002571499499026686 -0.046381988674402228 0.0091650003865361221
      vertex -0.0046044993796385825 -0.051736989170312872 0.0068370012864470489
    endloop
  endfacet
  facet normal -0.68306670512412304 -0.057211745242433241 0.72811173081965197
    outer loop
      vertex -0.0050434996956028044 -0.045362987667322149 0.0069260003343224533
      vertex -0.0046044993796385825 -0.051736989170312872 0.0068370012864470489
      vertex -0.002571499499026686 -0.046381988674402228 0.0091650003865361221
    endloop
  endfacet
  facet normal -0.52547323487879227 -0.068271742913336347 0.84806653544730382
    outer loop
      vertex -0.0059534996398724616 -0.03897999331355094 0.0068760013505816467
      vertex -0.0050434996956028044 -0.045362987667322149 0.0069260003343224533
      vertex -0.0029384992667473853 -0.039726988524198523 0.0086840002164244659
    endloop
  endfacet
  facet normal -0.66735535038889349 0.0170108307514946 0.74454514164317886
    outer loop
      vertex -0.002571499499026686 -0.046381988674402228 0.0091650003865361221
      vertex -0.0029384992667473853 -0.039726988524198523 0.0086840002164244659
      vertex -0.0050434996956028044 -0.045362987667322149 0.0069260003343224533
    endloop
  endfacet
  facet normal -0.54470369964915566 0.040176841167922424 0.8376656260240658
    outer loop
      vertex -0.0064934990950860083 -0.032602989226579657 0.0062189998403191574
      vertex -0.0059534996398724616 -0.03897999331355094 0.0068760013505816467
      vertex -0.0034684991114772856 -0.033018992394208899 0.0082060007676482208
    endloop
  endfacet
  facet normal -0.5103528866147603 0.020938297812266748 0.85971013650457007
    outer loop
      vertex -0.0029384992667473853 -0.039726988524198523 0.0086840002164244659
      vertex -0.0034684991114772856 -0.033018992394208899 0.0082060007676482208
      vertex -0.0059534996398724616 -0.03897999331355094 0.0068760013505816467
    endloop
  endfacet
  facet normal -0.54658748163455018 0.023627238080501458 0.83706862236084789
    outer loop
      vertex -0.0034684991114772856 -0.033018992394208899 0.0082060007676482208
      vertex -0.0037084990763105452 -0.02631299301981925 0.0078600013926625259
      vertex -0.0064934990950860083 -0.032602989226579657 0.0062189998403191574
    endloop
  endfacet
  facet normal -0.6338329544661041 0.079929256137192928 0.76932899324419368
    outer loop
      vertex -0.0037084990763105452 -0.02631299301981925 0.0078600013926625259
      vertex -0.0064834994846023619 -0.026199990063905707 0.0055620001927018173
      vertex -0.0064934990950860083 -0.032602989226579657 0.0062189998403191574
    endloop
  endfacet
  facet normal -0.61261496902904256 0.088143979140521148 0.78545116885954191
    outer loop
      vertex -0.0022854996495880187 -0.019817994087934485 0.0082409998700022705
      vertex -0.0065044998773373663 -0.019778990298509588 0.004946001090109349
      vertex -0.0037084990763105452 -0.02631299301981925 0.0078600013926625259
    endloop
  endfacet
  facet normal -0.6344269423662624 0.07176096992293092 0.76964460499344456
    outer loop
      vertex -0.0064834994846023619 -0.026199990063905707 0.0055620001927018173
      vertex -0.0037084990763105452 -0.02631299301981925 0.0078600013926625259
      vertex -0.0065044998773373663 -0.019778990298509588 0.004946001090109349
    endloop
  endfacet
  facet normal 0.92086498825557217 -0.38426426850144141 0.065944259478114289
    outer loop
      vertex 0.0026795004378072917 -0.02073098823428153 -0.0036829996556043618
      vertex 0.0055275005579460412 -0.013982989937067022 -0.0041319995820522301
      vertex 0.0027465004823170602 -0.019999989420175543 -0.00035899949073791432
    endloop
  endfacet
  facet normal 0.83629716738486282 -0.51105038677363346 -0.19858134354106449
    outer loop
      vertex 0.0063605005561839789 -0.013818987756967535 -0.0010459989011287682
      vertex 0.0027465004823170602 -0.019999989420175543 -0.00035899949073791432
      vertex 0.0055275005579460412 -0.013982989937067022 -0.0041319995820522301
    endloop
  endfacet
  facet normal 0.61123100311131584 -0.3065226877510836 -0.72968520796942715
    outer loop
      vertex 0.0055275005579460412 -0.013982989937067022 -0.0041319995820522301
      vertex 0.0026795004378072917 -0.02073098823428153 -0.0036829996556043618
      vertex 0.0022975005558691919 -0.013636992424726477 -0.006982999172061681
    endloop
  endfacet
  facet normal 0.58403777158752956 -0.31630383808367168 -0.74756388581352107
    outer loop
      vertex 0.00045550049981102347 -0.019930989593267431 -0.0057589996308088295
      vertex 0.0022975005558691919 -0.013636992424726477 -0.006982999172061681
      vertex 0.0026795004378072917 -0.02073098823428153 -0.0036829996556043618
    endloop
  endfacet
  facet normal 0.86448503402717047 -0.49739925100999949 0.072523175866293171
    outer loop
      vertex 0.0063605005561839789 -0.013818987756967535 -0.0010459989011287682
      vertex 0.005719500535633415 -0.014194988757371893 0.0040160009935498245
      vertex 0.0027465004823170602 -0.019999989420175543 -0.00035899949073791432
    endloop
  endfacet
  facet normal 0.74730926686925248 -0.59919515079485397 0.28721774129616823
    outer loop
      vertex 0.0016265003359876573 -0.019490988105535498 0.0036170000508427627
      vertex 0.0027465004823170602 -0.019999989420175543 -0.00035899949073791432
      vertex 0.005719500535633415 -0.014194988757371893 0.0040160009935498245
    endloop
  endfacet
  facet normal -0.036605085381464578 -0.29137088800976579 -0.95590955291001056
    outer loop
      vertex -0.0038174992077983916 -0.012812988013029089 -0.006999999534338712
      vertex 0.0022975005558691919 -0.013636992424726477 -0.006982999172061681
      vertex -0.0032844995730556548 -0.019342989772558203 -0.0050299994349479668
    endloop
  endfacet
  facet normal -0.20901755116096182 -0.12738405401130762 -0.96957978840852455
    outer loop
      vertex 0.00045550049981102347 -0.019930989593267431 -0.0057589996308088295
      vertex -0.0032844995730556548 -0.019342989772558203 -0.0050299994349479668
      vertex 0.0022975005558691919 -0.013636992424726477 -0.006982999172061681
    endloop
  endfacet
  facet normal 0.71766826834809549 -0.58330757179529558 0.38040049065757287
    outer loop
      vertex 0.005719500535633415 -0.014194988757371893 0.0040160009935498245
      vertex 0.0035075004561804235 -0.014020987898111334 0.0084560012742877014
      vertex 0.0016265003359876573 -0.019490988105535498 0.0036170000508427627
    endloop
  endfacet
  facet normal 0.82361049784878848 -0.50739543428835643 0.2534080130868025
    outer loop
      vertex -3.5499280784279108e-05 -0.020241991728544226 0.0075150003954768188
      vertex 0.0016265003359876573 -0.019490988105535498 0.0036170000508427627
      vertex 0.0035075004561804235 -0.014020987898111334 0.0084560012742877014
    endloop
  endfacet
  facet normal -0.8745365590931421 -0.20409938020637275 -0.43991959470896685
    outer loop
      vertex -0.0038174992077983916 -0.012812988013029089 -0.006999999534338712
      vertex -0.0032844995730556548 -0.019342989772558203 -0.0050299994349479668
      vertex -0.0068854992859996855 -0.012452990859746924 -0.0010679995343089096
    endloop
  endfacet
  facet normal -0.8106187772017831 -0.091030135080215235 -0.57845545425310307
    outer loop
      vertex -0.0068854992859996855 -0.012452990859746924 -0.0010679995343089096
      vertex -0.0032844995730556548 -0.019342989772558203 -0.0050299994349479668
      vertex -0.0069644996547140181 -0.019285992830991736 0.00011800064891576839
    endloop
  endfacet
  facet normal 0.12121117518277706 -0.21559475969559533 0.96893072538887348
    outer loop
      vertex 0.0035075004561804235 -0.014020987898111334 0.0084560012742877014
      vertex -0.0017914996133185923 -0.013260991424322119 0.0092880001589655883
      vertex -3.5499280784279108e-05 -0.020241991728544226 0.0075150003954768188
    endloop
  endfacet
  facet normal 0.27306074553408211 -0.17171375509654119 0.94654752419464738
    outer loop
      vertex -0.0022854996495880187 -0.019817994087934485 0.0082409998700022705
      vertex -3.5499280784279108e-05 -0.020241991728544226 0.0075150003954768188
      vertex -0.0017914996133185923 -0.013260991424322119 0.0092880001589655883
    endloop
  endfacet
  facet normal -0.99981485871983955 0.013873657415549067 0.013333038398772886
    outer loop
      vertex -0.0068854992859996855 -0.012452990859746924 -0.0010679995343089096
      vertex -0.0069644996547140181 -0.019285992830991736 0.00011800064891576839
      vertex -0.0068264990695752203 -0.01338298723101615 0.0043240005448460586
    endloop
  endfacet
  facet normal -0.9950323263054407 -0.041284136402995879 0.09058857372009918
    outer loop
      vertex -0.0065044998773373663 -0.019778990298509588 0.004946001090109349
      vertex -0.0068264990695752203 -0.01338298723101615 0.0043240005448460586
      vertex -0.0069644996547140181 -0.019285992830991736 0.00011800064891576839
    endloop
  endfacet
  facet normal -0.7000177129163081 -0.060875263698644426 0.71152610905928226
    outer loop
      vertex -0.0017914996133185923 -0.013260991424322119 0.0092880001589655883
      vertex -0.0068264990695752203 -0.01338298723101615 0.0043240005448460586
      vertex -0.0022854996495880187 -0.019817994087934485 0.0082409998700022705
    endloop
  endfacet
  facet normal -0.6146134252958303 0.04564174093201917 0.78750693262397453
    outer loop
      vertex -0.0065044998773373663 -0.019778990298509588 0.004946001090109349
      vertex -0.0022854996495880187 -0.019817994087934485 0.0082409998700022705
      vertex -0.0068264990695752203 -0.01338298723101615 0.0043240005448460586
    endloop
  endfacet
  facet normal 0.86134001258557757 -0.04891708440259486 -0.50566837114123153
    outer loop
      vertex 0.0049915005802176893 -0.0067779879271984006 -0.0057419992685317986
      vertex 0.0069645005278289318 -0.006945991069078436 -0.0023649993985891335
      vertex 0.0055275005579460412 -0.013982989937067022 -0.0041319995820522301
    endloop
  endfacet
  facet normal 0.95867645504500076 -0.13255818873251485 -0.25172957939484431
    outer loop
      vertex 0.0063605005561839789 -0.013818987756967535 -0.0010459989011287682
      vertex 0.0055275005579460412 -0.013982989937067022 -0.0041319995820522301
      vertex 0.0069645005278289318 -0.006945991069078436 -0.0023649993985891335
    endloop
  endfacet
  facet normal 0.64979809785629339 -0.11940135729736803 -0.75067019915398858
    outer loop
      vertex 0.0049915005802176893 -0.0067779879271984006 -0.0057419992685317986
      vertex 0.0055275005579460412 -0.013982989937067022 -0.0041319995820522301
      vertex 0.0022975005558691919 -0.013636992424726477 -0.006982999172061681
    endloop
  endfacet
  facet normal 0.98590684701435105 -0.056416578199496213 0.15749558315864198
    outer loop
      vertex 0.0069645005278289318 -0.006945991069078436 -0.0023649993985891335
      vertex 0.0060305005499685649 -0.0072439919412135984 0.0033750014677643783
      vertex 0.0063605005561839789 -0.013818987756967535 -0.0010459989011287682
    endloop
  endfacet
  facet normal 0.99183933654842471 -0.033020734258206237 0.1231436623794725
    outer loop
      vertex 0.005719500535633415 -0.014194988757371893 0.0040160009935498245
      vertex 0.0063605005561839789 -0.013818987756967535 -0.0010459989011287682
      vertex 0.0060305005499685649 -0.0072439919412135984 0.0033750014677643783
    endloop
  endfacet
  facet normal 0.067600925096237413 0.15186131018735899 -0.98608734775085294
    outer loop
      vertex 0.0049915005802176893 -0.0067779879271984006 -0.0057419992685317986
      vertex 0.0022975005558691919 -0.013636992424726477 -0.006982999172061681
      vertex -0.0025994997122325003 -0.006203987747430792 -0.0061739997640252106
    endloop
  endfacet
  facet normal 0.01900290508983422 0.1205448142675679 -0.99252598824985139
    outer loop
      vertex -0.0038174992077983916 -0.012812988013029089 -0.006999999534338712
      vertex -0.0025994997122325003 -0.006203987747430792 -0.0061739997640252106
      vertex 0.0022975005558691919 -0.013636992424726477 -0.006982999172061681
    endloop
  endfacet
  facet normal 0.88967260038633289 -0.093603790897486591 0.44690154894723744
    outer loop
      vertex 0.0035075004561804235 -0.014020987898111334 0.0084560012742877014
      vertex 0.005719500535633415 -0.014194988757371893 0.0040160009935498245
      vertex 0.0045445005525834858 -0.0068239878118038083 0.0078990014567971237
    endloop
  endfacet
  facet normal 0.94959706501503482 -0.013606384422931817 0.31317771379484716
    outer loop
      vertex 0.0060305005499685649 -0.0072439919412135984 0.0033750014677643783
      vertex 0.0045445005525834858 -0.0068239878118038083 0.0078990014567971237
      vertex 0.005719500535633415 -0.014194988757371893 0.0040160009935498245
    endloop
  endfacet
  facet normal -0.86181693627339651 0.21617484414151891 -0.45884638509279635
    outer loop
      vertex -0.0038174992077983916 -0.012812988013029089 -0.006999999534338712
      vertex -0.0068854992859996855 -0.012452990859746924 -0.0010679995343089096
      vertex -0.0025994997122325003 -0.006203987747430792 -0.0061739997640252106
    endloop
  endfacet
  facet normal -0.85424984730232612 0.19075975223462463 -0.48359891988230991
    outer loop
      vertex -0.0056504994281567633 -0.0056599910557269956 -0.00056999900192022251
      vertex -0.0025994997122325003 -0.006203987747430792 -0.0061739997640252106
      vertex -0.0068854992859996855 -0.012452990859746924 -0.0010679995343089096
    endloop
  endfacet
  facet normal 0.14111833935908302 0.056162012625397419 0.98839842302302328
    outer loop
      vertex 0.0045445005525834858 -0.0068239878118038083 0.0078990014567971237
      vertex -0.00095549930119886994 -0.0067489902675151731 0.008680001117289067
      vertex 0.0035075004561804235 -0.014020987898111334 0.0084560012742877014
    endloop
  endfacet
  facet normal 0.16461323346064788 0.07072243863030718 0.9838195058260496
    outer loop
      vertex -0.0017914996133185923 -0.013260991424322119 0.0092880001589655883
      vertex 0.0035075004561804235 -0.014020987898111334 0.0084560012742877014
      vertex -0.00095549930119886994 -0.0067489902675151731 0.008680001117289067
    endloop
  endfacet
  facet normal -0.98395386126874118 0.17371248519933019 0.040728017140625968
    outer loop
      vertex -0.0068264990695752203 -0.01338298723101615 0.0043240005448460586
      vertex -0.005705499614123255 -0.0070499937236308957 0.0043950008526444442
      vertex -0.0068854992859996855 -0.012452990859746924 -0.0010679995343089096
    endloop
  endfacet
  facet normal -0.98363869621099531 0.17601645639646171 0.03838127660677218
    outer loop
      vertex -0.005705499614123255 -0.0070499937236308957 0.0043950008526444442
      vertex -0.0056504994281567633 -0.0056599910557269956 -0.00056999900192022251
      vertex -0.0068854992859996855 -0.012452990859746924 -0.0010679995343089096
    endloop
  endfacet
  facet normal -0.69876818996187595 0.11577438224812976 0.70591735289088031
    outer loop
      vertex -0.0068264990695752203 -0.01338298723101615 0.0043240005448460586
      vertex -0.0017914996133185923 -0.013260991424322119 0.0092880001589655883
      vertex -0.005705499614123255 -0.0070499937236308957 0.0043950008526444442
    endloop
  endfacet
  facet normal -0.66722055949579284 0.1537045034459098 0.7288289584028389
    outer loop
      vertex -0.00095549930119886994 -0.0067489902675151731 0.008680001117289067
      vertex -0.005705499614123255 -0.0070499937236308957 0.0043950008526444442
      vertex -0.0017914996133185923 -0.013260991424322119 0.0092880001589655883
    endloop
  endfacet
  facet normal 0.06156019579625685 0.97495621154453538 0.21370710765965137
    outer loop
      vertex 0.0049915005802176893 -0.0067779879271984006 -0.0057419992685317986
      vertex -0.0025994997122325003 -0.006203987747430792 -0.0061739997640252106
      vertex 0.0012985006324015558 -0.0078759874403476621 0.00033100064098835064
    endloop
  endfacet
  facet normal -0.10855776879748291 0.9876968602513817 0.1125616412605782
    outer loop
      vertex 0.0069645005278289318 -0.006945991069078436 -0.0023649993985891335
      vertex 0.0049915005802176893 -0.0067779879271984006 -0.0057419992685317986
      vertex 0.0012985006324015558 -0.0078759874403476621 0.00033100064098835064
    endloop
  endfacet
  facet normal -0.14938331912625707 0.9884104502183958 0.02700751498918166
    outer loop
      vertex 0.0060305005499685649 -0.0072439919412135984 0.0033750014677643783
      vertex 0.0069645005278289318 -0.006945991069078436 -0.0023649993985891335
      vertex 0.0012985006324015558 -0.0078759874403476621 0.00033100064098835064
    endloop
  endfacet
  facet normal -0.060460927486669765 0.99187345774035607 -0.11194427219666855
    outer loop
      vertex 0.0045445005525834858 -0.0068239878118038083 0.0078990014567971237
      vertex 0.0060305005499685649 -0.0072439919412135984 0.0033750014677643783
      vertex 0.0012985006324015558 -0.0078759874403476621 0.00033100064098835064
    endloop
  endfacet
  facet normal 0.2950837575434016 0.95303864711365649 0.068138925305866641
    outer loop
      vertex -0.0025994997122325003 -0.006203987747430792 -0.0061739997640252106
      vertex -0.0056504994281567633 -0.0056599910557269956 -0.00056999900192022251
      vertex 0.0012985006324015558 -0.0078759874403476621 0.00033100064098835064
    endloop
  endfacet
  facet normal -0.0056996248995396393 0.99079080901054262 -0.13528151040049413
    outer loop
      vertex -0.00095549930119886994 -0.0067489902675151731 0.008680001117289067
      vertex 0.0045445005525834858 -0.0068239878118038083 0.0078990014567971237
      vertex 0.0012985006324015558 -0.0078759874403476621 0.00033100064098835064
    endloop
  endfacet
  facet normal 0.26203261040562736 0.92856922831443922 0.26286517325720349
    outer loop
      vertex -0.0056504994281567633 -0.0056599910557269956 -0.00056999900192022251
      vertex -0.005705499614123255 -0.0070499937236308957 0.0043950008526444442
      vertex 0.0012985006324015558 -0.0078759874403476621 0.00033100064098835064
    endloop
  endfacet
  facet normal 0.046566493515447796 0.99152662390794766 -0.12127042410820288
    outer loop
      vertex -0.005705499614123255 -0.0070499937236308957 0.0043950008526444442
      vertex -0.00095549930119886994 -0.0067489902675151731 0.008680001117289067
      vertex 0.0012985006324015558 -0.0078759874403476621 0.00033100064098835064
    endloop
  endfacet
endsolid OBJECT
