solid OBJECT
  facet normal -0.092011161474206515 -0.1390073502923786 0.98600755713577559
    outer loop
      vertex 4.6836742103482584e-06 -0.037604994436353609 -0.001228998199105262
      vertex 0.0052346835821072022 -0.0042459883891047675 0.0039620019793510444
      vertex -0.0052483160450219725 -0.0047549971543254096 0.0029120009690523155
    endloop
  endfacet
  facet normal -0.053018542596358541 0.99754512047891453 0.045746767641722558
    outer loop
      vertex 0.0052346835821072022 -0.0042459883891047675 0.0039620019793510444
      vertex 0.004416683567119428 -0.0040000000201167304 -0.0023499995172023766
      vertex -0.0052483160450219725 -0.0047549971543254096 0.0029120009690523155
    endloop
  endfacet
  facet normal -0.057850154716818446 0.99764359966755078 0.036886415407462708
    outer loop
      vertex 0.004416683567119428 -0.0040000000201167304 -0.0023499995172023766
      vertex -0.00080731645516153323 -0.0041309961281718452 -0.00699999813735485
      vertex -0.0052483160450219725 -0.0047549971543254096 0.0029120009690523155
    endloop
  endfacet
  facet normal -0.015162860024195948 0.99831257986324207 0.056054264446912722
    outer loop
      vertex -0.0056053162022590254 -0.0044729926787318427 -0.0022069986611604683
      vertex -0.0052483160450219725 -0.0047549971543254096 0.0029120009690523155
      vertex -0.00080731645516153323 -0.0041309961281718452 -0.00699999813735485
    endloop
  endfacet
  facet normal 0.95815897072896672 -0.25291838223503654 -0.13402864894946476
    outer loop
      vertex 0.004416683567119428 -0.0040000000201167304 -0.0023499995172023766
      vertex 0.0052346835821072022 -0.0042459883891047675 0.0039620019793510444
      vertex 0.0030576836381942417 -0.0095299997530879227 -0.0016299996227025979
    endloop
  endfacet
  facet normal 0.93161937859658228 -0.36289705614519346 -0.019775238670378809
    outer loop
      vertex 0.0030156835512161638 -0.0099279948674143997 0.0036950011104345329
      vertex 0.0030576836381942417 -0.0095299997530879227 -0.0016299996227025979
      vertex 0.0052346835821072022 -0.0042459883891047675 0.0039620019793510444
    endloop
  endfacet
  facet normal 0.45448992295576579 -0.21807560550282132 0.86364456822019098
    outer loop
      vertex 0.0052346835821072022 -0.0042459883891047675 0.0039620019793510444
      vertex 0.0004786835581899072 -0.0042769977055491645 0.0064570002555847175
      vertex 0.0030156835512161638 -0.0099279948674143997 0.0036950011104345329
    endloop
  endfacet
  facet normal 0.54187636618459822 -0.15999872727169245 0.82508812319776703
    outer loop
      vertex 0.0030156835512161638 -0.0099279948674143997 0.0036950011104345329
      vertex 0.0004786835581899072 -0.0042769977055491645 0.0064570002555847175
      vertex 0.00029068352364901556 -0.0093949952326716629 0.0055880017876625068
    endloop
  endfacet
  facet normal 0.66465145452695218 0.012500525581132255 -0.74704898156372745
    outer loop
      vertex -0.00080731645516153323 -0.0041309961281718452 -0.00699999813735485
      vertex 0.004416683567119428 -0.0040000000201167304 -0.0023499995172023766
      vertex 5.0683558815755973e-05 -0.0098899969063700882 -0.0063329998105764382
    endloop
  endfacet
  facet normal 0.82098183921700529 -0.26743516446952997 -0.50444747246965072
    outer loop
      vertex 0.0030576836381942417 -0.0095299997530879227 -0.0016299996227025979
      vertex 5.0683558815755973e-05 -0.0098899969063700882 -0.0063329998105764382
      vertex 0.004416683567119428 -0.0040000000201167304 -0.0023499995172023766
    endloop
  endfacet
  facet normal -0.63944812100390236 -0.18178790463019254 -0.74703363931936984
    outer loop
      vertex 5.0683558815755973e-05 -0.0098899969063700882 -0.0063329998105764382
      vertex -0.0048193162708639716 -0.010022989770025179 -0.0021319992542266838
      vertex -0.00080731645516153323 -0.0041309961281718452 -0.00699999813735485
    endloop
  endfacet
  facet normal -0.69868366616460387 -0.10850483169596113 -0.70715474694964719
    outer loop
      vertex -0.0056053162022590254 -0.0044729926787318427 -0.0022069986611604683
      vertex -0.00080731645516153323 -0.0041309961281718452 -0.00699999813735485
      vertex -0.0048193162708639716 -0.010022989770025179 -0.0021319992542266838
    endloop
  endfacet
  facet normal -0.98837479401273998 -0.13914741812727602 0.061263876703868951
    outer loop
      vertex -0.0056053162022590254 -0.0044729926787318427 -0.0022069986611604683
      vertex -0.0048193162708639716 -0.010022989770025179 -0.0021319992542266838
      vertex -0.0052483160450219725 -0.0047549971543254096 0.0029120009690523155
    endloop
  endfacet
  facet normal -0.98539874838535502 -0.15258310869304248 0.075549332373907541
    outer loop
      vertex -0.0044833165063619231 -0.010046995540708467 0.0022020016163587577
      vertex -0.0052483160450219725 -0.0047549971543254096 0.0029120009690523155
      vertex -0.0048193162708639716 -0.010022989770025179 -0.0021319992542266838
    endloop
  endfacet
  facet normal -0.51461655747525514 -0.12512178563292034 0.8482419097948104
    outer loop
      vertex 0.0004786835581899072 -0.0042769977055491645 0.0064570002555847175
      vertex -0.0052483160450219725 -0.0047549971543254096 0.0029120009690523155
      vertex 0.00029068352364901556 -0.0093949952326716629 0.0055880017876625068
    endloop
  endfacet
  facet normal -0.55084938463433097 -0.18870435775653899 0.8129917716752556
    outer loop
      vertex -0.0044833165063619231 -0.010046995540708467 0.0022020016163587577
      vertex 0.00029068352364901556 -0.0093949952326716629 0.0055880017876625068
      vertex -0.0052483160450219725 -0.0047549971543254096 0.0029120009690523155
    endloop
  endfacet
  facet normal -0.12227322645985085 -0.92476840708771924 0.36035073379076155
    outer loop
      vertex 0.0032826836052254225 -0.036824993153661653 0.0018850017637014396
      vertex 0.00090368376755122198 -0.036150000353902742 0.002810000658035279
      vertex 4.6836742103482584e-06 -0.037604994436353609 -0.001228998199105262
    endloop
  endfacet
  facet normal -0.52081791507765962 -0.75960012652425601 0.38955917024053477
    outer loop
      vertex -0.00038531650147434222 -0.037253997584432527 -0.001065998122096061
      vertex 4.6836742103482584e-06 -0.037604994436353609 -0.001228998199105262
      vertex 0.00090368376755122198 -0.036150000353902742 0.002810000658035279
    endloop
  endfacet
  facet normal -0.63866946916533829 -0.28678987341940476 -0.71403982918332165
    outer loop
      vertex 0.0018516835355103399 -0.033857993146032259 -0.0043859991878271096
      vertex 4.6836742103482584e-06 -0.037604994436353609 -0.001228998199105262
      vertex -0.0027343164599597071 -0.032443992158025667 -0.00085199882090091633
    endloop
  endfacet
  facet normal -0.54408558407658458 -0.22980668679533992 -0.80694470932288198
    outer loop
      vertex -0.00038531650147434222 -0.037253997584432527 -0.001065998122096061
      vertex -0.0027343164599597071 -0.032443992158025667 -0.00085199882090091633
      vertex 4.6836742103482584e-06 -0.037604994436353609 -0.001228998199105262
    endloop
  endfacet
  facet normal 0.89620118780057589 -0.2854940715658762 -0.33958292961451336
    outer loop
      vertex 0.0042686836043276275 -0.032016999384015962 0.00044500197470188213
      vertex 0.0032826836052254225 -0.036824993153661653 0.0018850017637014396
      vertex 0.0018516835355103399 -0.033857993146032259 -0.0043859991878271096
    endloop
  endfacet
  facet normal 0.58855116125514795 -0.67058563267931492 -0.45157772291079634
    outer loop
      vertex 4.6836742103482584e-06 -0.037604994436353609 -0.001228998199105262
      vertex 0.0018516835355103399 -0.033857993146032259 -0.0043859991878271096
      vertex 0.0032826836052254225 -0.036824993153661653 0.0018850017637014396
    endloop
  endfacet
  facet normal 0.97585129539208948 -0.21826590441428292 -0.0086165104187254423
    outer loop
      vertex 0.0030576836381942417 -0.0095299997530879227 -0.0016299996227025979
      vertex 0.0030156835512161638 -0.0099279948674143997 0.0036950011104345329
      vertex 0.0018216835399061824 -0.015091992279142307 -0.0007199987471103661
    endloop
  endfacet
  facet normal 0.98383904722810234 -0.10117758997263841 -0.14772888829416012
    outer loop
      vertex 0.002376683574998417 -0.015850997825712129 0.0034960016906261451
      vertex 0.0018216835399061824 -0.015091992279142307 -0.0007199987471103661
      vertex 0.0030156835512161638 -0.0099279948674143997 0.0036950011104345329
    endloop
  endfacet
  facet normal 0.55110685415080218 -0.11681736709712794 0.82621724628120752
    outer loop
      vertex 0.00029068352364901556 -0.0093949952326716629 0.0055880017876625068
      vertex 0.00025668373041752828 -0.014767996331304477 0.0048510015308856971
      vertex 0.0030156835512161638 -0.0099279948674143997 0.0036950011104345329
    endloop
  endfacet
  facet normal 0.50605763648021607 -0.083437865804486935 0.85845430344896634
    outer loop
      vertex 0.002376683574998417 -0.015850997825712129 0.0034960016906261451
      vertex 0.0030156835512161638 -0.0099279948674143997 0.0036950011104345329
      vertex 0.00025668373041752828 -0.014767996331304477 0.0048510015308856971
    endloop
  endfacet
  facet normal 0.83658180090098544 -0.16558836394823781 -0.52221775546816662
    outer loop
      vertex 5.0683558815755973e-05 -0.0098899969063700882 -0.0063329998105764382
      vertex 0.0030576836381942417 -0.0095299997530879227 -0.0016299996227025979
      vertex -0.00015231635711189257 -0.015806994696706697 -0.0047819994091987603
    endloop
  endfacet
  facet normal 0.88572953597862336 -0.25977170938289201 -0.38471008317872646
    outer loop
      vertex 0.0018216835399061824 -0.015091992279142307 -0.0007199987471103661
      vertex -0.00015231635711189257 -0.015806994696706697 -0.0047819994091987603
      vertex 0.0030576836381942417 -0.0095299997530879227 -0.0016299996227025979
    endloop
  endfacet
  facet normal -0.56518818439228857 -0.10859666860539903 0.81778302733130714
    outer loop
      vertex 0.00029068352364901556 -0.0093949952326716629 0.0055880017876625068
      vertex -0.0044833165063619231 -0.010046995540708467 0.0022020016163587577
      vertex 0.00025668373041752828 -0.014767996331304477 0.0048510015308856971
    endloop
  endfacet
  facet normal -0.4551360016469691 0.042098103275179009 0.8894262025066737
    outer loop
      vertex -0.0033663161500453566 -0.015252999325841831 0.0030200008600950248
      vertex 0.00025668373041752828 -0.014767996331304477 0.0048510015308856971
      vertex -0.0044833165063619231 -0.010046995540708467 0.0022020016163587577
    endloop
  endfacet
  facet normal -0.64047790756972911 -0.17409271731323028 -0.74798380710654233
    outer loop
      vertex 5.0683558815755973e-05 -0.0098899969063700882 -0.0063329998105764382
      vertex -0.00015231635711189257 -0.015806994696706697 -0.0047819994091987603
      vertex -0.0048193162708639716 -0.010022989770025179 -0.0021319992542266838
    endloop
  endfacet
  facet normal -0.56357125228186045 -0.07795232160629538 -0.82238122495448795
    outer loop
      vertex -0.0039813168748378371 -0.015553987880796359 -0.0021819982379674904
      vertex -0.0048193162708639716 -0.010022989770025179 -0.0021319992542266838
      vertex -0.00015231635711189257 -0.015806994696706697 -0.0047819994091987603
    endloop
  endfacet
  facet normal -0.97382433266749024 -0.18913447015784479 0.12607268261930768
    outer loop
      vertex -0.0033663161500453566 -0.015252999325841831 0.0030200008600950248
      vertex -0.0044833165063619231 -0.010046995540708467 0.0022020016163587577
      vertex -0.0039813168748378371 -0.015553987880796359 -0.0021819982379674904
    endloop
  endfacet
  facet normal -0.98578588675252543 -0.15003938819631396 0.07559343535792469
    outer loop
      vertex -0.0048193162708639716 -0.010022989770025179 -0.0021319992542266838
      vertex -0.0039813168748378371 -0.015553987880796359 -0.0021819982379674904
      vertex -0.0044833165063619231 -0.010046995540708467 0.0022020016163587577
    endloop
  endfacet
  facet normal 0.74686388010157945 -0.32664131716343098 -0.57922344092875966
    outer loop
      vertex 0.0042686836043276275 -0.032016999384015962 0.00044500197470188213
      vertex 0.0070416834735215093 -0.032625994940847322 0.004364001780748368
      vertex 0.0032826836052254225 -0.036824993153661653 0.0018850017637014396
    endloop
  endfacet
  facet normal 0.67658289277496986 -0.71340415796446988 0.18245573875123625
    outer loop
      vertex 0.0032826836052254225 -0.036824993153661653 0.0018850017637014396
      vertex 0.0070416834735215093 -0.032625994940847322 0.004364001780748368
      vertex 0.0031806835270390297 -0.03608899499997513 0.0051410004794597633
    endloop
  endfacet
  facet normal -0.19010004116800658 -0.95886866304248475 0.21079103724551468
    outer loop
      vertex 0.0032826836052254225 -0.036824993153661653 0.0018850017637014396
      vertex 0.0031806835270390297 -0.03608899499997513 0.0051410004794597633
      vertex 0.00090368376755122198 -0.036150000353902742 0.002810000658035279
    endloop
  endfacet
  facet normal 0.013737064085041682 -0.99982437665957191 0.012747898164875813
    outer loop
      vertex 0.0016716835618853952 -0.036113999148458406 0.0048060018867254264
      vertex 0.00090368376755122198 -0.036150000353902742 0.002810000658035279
      vertex 0.0031806835270390297 -0.03608899499997513 0.0051410004794597633
    endloop
  endfacet
  facet normal -0.64626002289223683 -0.2198098423037074 0.73077466844284111
    outer loop
      vertex -0.0012303166492938613 -0.031341991683095857 0.0023690007925033577
      vertex 0.00090368376755122198 -0.036150000353902742 0.002810000658035279
      vertex 0.001432683604666629 -0.030736989637464452 0.0049060017168521888
    endloop
  endfacet
  facet normal -0.93192577681517696 -0.048107514520427601 0.35944403396647984
    outer loop
      vertex 0.0016716835618853952 -0.036113999148458406 0.0048060018867254264
      vertex 0.001432683604666629 -0.030736989637464452 0.0049060017168521888
      vertex 0.00090368376755122198 -0.036150000353902742 0.002810000658035279
    endloop
  endfacet
  facet normal -0.81980675240719458 -0.4177822319591647 0.39163107048188522
    outer loop
      vertex -0.00038531650147434222 -0.037253997584432527 -0.001065998122096061
      vertex 0.00090368376755122198 -0.036150000353902742 0.002810000658035279
      vertex -0.0027343164599597071 -0.032443992158025667 -0.00085199882090091633
    endloop
  endfacet
  facet normal -0.81348458093624076 -0.31629366354435523 0.48805855691779326
    outer loop
      vertex -0.0012303166492938613 -0.031341991683095857 0.0023690007925033577
      vertex -0.0027343164599597071 -0.032443992158025667 -0.00085199882090091633
      vertex 0.00090368376755122198 -0.036150000353902742 0.002810000658035279
    endloop
  endfacet
  facet normal -0.92792084373328232 -0.20673977601844143 0.31019602314852135
    outer loop
      vertex -0.0021973163290977095 -0.026066995521634984 0.0029920015782117851
      vertex -0.0034223165764569853 -0.026799998541921544 -0.0011609986126422875
      vertex -0.0012303166492938613 -0.031341991683095857 0.0023690007925033577
    endloop
  endfacet
  facet normal -0.89149652815118929 -0.084303684714198357 0.44511439994453639
    outer loop
      vertex -0.0034223165764569853 -0.026799998541921544 -0.0011609986126422875
      vertex -0.0027343164599597071 -0.032443992158025667 -0.00085199882090091633
      vertex -0.0012303166492938613 -0.031341991683095857 0.0023690007925033577
    endloop
  endfacet
  facet normal -0.5915232433107378 0.085351070672285076 -0.80175772360373321
    outer loop
      vertex 0.0018516835355103399 -0.033857993146032259 -0.0043859991878271096
      vertex -0.0027343164599597071 -0.032443992158025667 -0.00085199882090091633
      vertex 0.00085568340205554021 -0.027975998183340001 -0.0030249997675418847
    endloop
  endfacet
  facet normal -0.42053900219994944 -0.10062888394436315 -0.90167664677798054
    outer loop
      vertex -0.0034223165764569853 -0.026799998541921544 -0.0011609986126422875
      vertex 0.00085568340205554021 -0.027975998183340001 -0.0030249997675418847
      vertex -0.0027343164599597071 -0.032443992158025667 -0.00085199882090091633
    endloop
  endfacet
  facet normal 0.8215817563746266 0.25687856642649498 -0.50893695061672672
    outer loop
      vertex 0.0018516835355103399 -0.033857993146032259 -0.0043859991878271096
      vertex 0.00085568340205554021 -0.027975998183340001 -0.0030249997675418847
      vertex 0.0042686836043276275 -0.032016999384015962 0.00044500197470188213
    endloop
  endfacet
  facet normal 0.79053446348270373 0.16008110256805844 -0.5911254542368386
    outer loop
      vertex 0.0028116836276740219 -0.026405996938795018 1.6001269221306569e-05
      vertex 0.0042686836043276275 -0.032016999384015962 0.00044500197470188213
      vertex 0.00085568340205554021 -0.027975998183340001 -0.0030249997675418847
    endloop
  endfacet
  facet normal 0.9510848648081045 0.2313101064187382 -0.204776010805714
    outer loop
      vertex 0.0028116836276740219 -0.026405996938795018 1.6001269221306569e-05
      vertex 0.0041456835990675176 -0.027916989585012365 0.004505000293254853
      vertex 0.0042686836043276275 -0.032016999384015962 0.00044500197470188213
    endloop
  endfacet
  facet normal 0.75120491042887239 0.47568699425897298 -0.45761672395183906
    outer loop
      vertex 0.0070416834735215093 -0.032625994940847322 0.004364001780748368
      vertex 0.0042686836043276275 -0.032016999384015962 0.00044500197470188213
      vertex 0.0041456835990675176 -0.027916989585012365 0.004505000293254853
    endloop
  endfacet
  facet normal 0.98389951942822362 0.024018383878914779 -0.17710125043250147
    outer loop
      vertex 0.0026436835125923539 -0.022298000117391515 0.0041050009727478035
      vertex 0.0017946835671455051 -0.020832992454618376 -0.00041299943625926899
      vertex 0.002376683574998417 -0.015850997825712129 0.0034960016906261451
    endloop
  endfacet
  facet normal 0.99110190153891786 -0.011751158023695047 -0.13258556124647577
    outer loop
      vertex 0.0018216835399061824 -0.015091992279142307 -0.0007199987471103661
      vertex 0.002376683574998417 -0.015850997825712129 0.0034960016906261451
      vertex 0.0017946835671455051 -0.020832992454618376 -0.00041299943625926899
    endloop
  endfacet
  facet normal 0.51231005819430098 -0.068234890486607372 0.85608551207997474
    outer loop
      vertex 0.00025668373041752828 -0.014767996331304477 0.0048510015308856971
      vertex -6.3166423797224661e-06 -0.020104996224492949 0.0045830004215240486
      vertex 0.002376683574998417 -0.015850997825712129 0.0034960016906261451
    endloop
  endfacet
  facet normal 0.25728311049186381 0.1014334229116698 0.96099774285481754
    outer loop
      vertex -6.3166423797224661e-06 -0.020104996224492949 0.0045830004215240486
      vertex 0.0026436835125923539 -0.022298000117391515 0.0041050009727478035
      vertex 0.002376683574998417 -0.015850997825712129 0.0034960016906261451
    endloop
  endfacet
  facet normal 0.90096825470179465 -0.027392924903358984 -0.43301943568948625
    outer loop
      vertex 0.0018216835399061824 -0.015091992279142307 -0.0007199987471103661
      vertex 0.0017946835671455051 -0.020832992454618376 -0.00041299943625926899
      vertex -0.00015231635711189257 -0.015806994696706697 -0.0047819994091987603
    endloop
  endfacet
  facet normal 0.89328370353055575 -0.042906042221693294 -0.44744083021959957
    outer loop
      vertex -0.00015231635711189257 -0.015806994696706697 -0.0047819994091987603
      vertex 0.0017946835671455051 -0.020832992454618376 -0.00041299943625926899
      vertex -0.00010331621683236109 -0.021971992512792516 -0.0040929995179176323
    endloop
  endfacet
  facet normal -0.44850645013028201 -0.022765382852085979 0.89348962027274315
    outer loop
      vertex 0.00025668373041752828 -0.014767996331304477 0.0048510015308856971
      vertex -0.0033663161500453566 -0.015252999325841831 0.0030200008600950248
      vertex -6.3166423797224661e-06 -0.020104996224492949 0.0045830004215240486
    endloop
  endfacet
  facet normal -0.40106590144238297 0.01730171506180251 0.91588579711453599
    outer loop
      vertex -6.3166423797224661e-06 -0.020104996224492949 0.0045830004215240486
      vertex -0.0033663161500453566 -0.015252999325841831 0.0030200008600950248
      vertex -0.0026543163164615248 -0.020610994955152433 0.0034330014437437065
    endloop
  endfacet
  facet normal -0.59996268195514357 -0.093566075346379576 -0.79453770823382985
    outer loop
      vertex -0.00010331621683236109 -0.021971992512792516 -0.0040929995179176323
      vertex -0.0036303162976264571 -0.021162993570417333 -0.0015249985903501503
      vertex -0.00015231635711189257 -0.015806994696706697 -0.0047819994091987603
    endloop
  endfacet
  facet normal -0.56283450146523528 -0.13081937545786829 -0.81615171075308879
    outer loop
      vertex -0.0039813168748378371 -0.015553987880796359 -0.0021819982379674904
      vertex -0.00015231635711189257 -0.015806994696706697 -0.0047819994091987603
      vertex -0.0036303162976264571 -0.021162993570417333 -0.0015249985903501503
    endloop
  endfacet
  facet normal -0.99161189129256999 -0.047996077968579021 0.12000930608418149
    outer loop
      vertex -0.0039813168748378371 -0.015553987880796359 -0.0021819982379674904
      vertex -0.0036303162976264571 -0.021162993570417333 -0.0015249985903501503
      vertex -0.0033663161500453566 -0.015252999325841831 0.0030200008600950248
    endloop
  endfacet
  facet normal -0.97236099059340264 -0.11348443799973479 0.20404750991889437
    outer loop
      vertex -0.0026543163164615248 -0.020610994955152433 0.0034330014437437065
      vertex -0.0033663161500453566 -0.015252999325841831 0.0030200008600950248
      vertex -0.0036303162976264571 -0.021162993570417333 -0.0015249985903501503
    endloop
  endfacet
  facet normal 0.12378105374198491 0.083842764021453547 0.98876116512318923
    outer loop
      vertex 0.0070416834735215093 -0.032625994940847322 0.004364001780748368
      vertex 0.001432683604666629 -0.030736989637464452 0.0049060017168521888
      vertex 0.0031806835270390297 -0.03608899499997513 0.0051410004794597633
    endloop
  endfacet
  facet normal -0.21620216231902706 -0.027760324794343212 0.97595388691059048
    outer loop
      vertex 0.0016716835618853952 -0.036113999148458406 0.0048060018867254264
      vertex 0.0031806835270390297 -0.03608899499997513 0.0051410004794597633
      vertex 0.001432683604666629 -0.030736989637464452 0.0049060017168521888
    endloop
  endfacet
  facet normal 0.1088621675175932 0.036526932632172042 0.99338553023277731
    outer loop
      vertex 0.00076668342285756124 -0.025406993290037084 0.0047830019444227226
      vertex 0.001432683604666629 -0.030736989637464452 0.0049060017168521888
      vertex 0.0041456835990675176 -0.027916989585012365 0.004505000293254853
    endloop
  endfacet
  facet normal 0.10843557259424626 0.036941794254314819 0.99341684626013349
    outer loop
      vertex 0.0070416834735215093 -0.032625994940847322 0.004364001780748368
      vertex 0.0041456835990675176 -0.027916989585012365 0.004505000293254853
      vertex 0.001432683604666629 -0.030736989637464452 0.0049060017168521888
    endloop
  endfacet
  facet normal -0.65015226214289112 -0.20557370175757339 0.73146530278350841
    outer loop
      vertex -0.0012303166492938613 -0.031341991683095857 0.0023690007925033577
      vertex 0.001432683604666629 -0.030736989637464452 0.0049060017168521888
      vertex -0.0021973163290977095 -0.026066995521634984 0.0029920015782117851
    endloop
  endfacet
  facet normal -0.50950364957335315 -0.043832957920835303 0.85935132679908266
    outer loop
      vertex 0.00076668342285756124 -0.025406993290037084 0.0047830019444227226
      vertex -0.0021973163290977095 -0.026066995521634984 0.0029920015782117851
      vertex 0.001432683604666629 -0.030736989637464452 0.0049060017168521888
    endloop
  endfacet
  facet normal -0.49571856349473714 -0.11114279844691964 0.86134219922171551
    outer loop
      vertex -0.0021973163290977095 -0.026066995521634984 0.0029920015782117851
      vertex 0.00076668342285756124 -0.025406993290037084 0.0047830019444227226
      vertex -0.0026543163164615248 -0.020610994955152433 0.0034330014437437065
    endloop
  endfacet
  facet normal -0.39456107874099711 -0.022873899397540955 0.91858496605871554
    outer loop
      vertex -6.3166423797224661e-06 -0.020104996224492949 0.0045830004215240486
      vertex -0.0026543163164615248 -0.020610994955152433 0.0034330014437437065
      vertex 0.00076668342285756124 -0.025406993290037084 0.0047830019444227226
    endloop
  endfacet
  facet normal -0.97432332254225418 -0.097994951656337703 0.20270928099150914
    outer loop
      vertex -0.0026543163164615248 -0.020610994955152433 0.0034330014437437065
      vertex -0.0036303162976264571 -0.021162993570417333 -0.0015249985903501503
      vertex -0.0021973163290977095 -0.026066995521634984 0.0029920015782117851
    endloop
  endfacet
  facet normal -0.95819338616984806 -0.016912863883114929 0.285621059685086
    outer loop
      vertex -0.0034223165764569853 -0.026799998541921544 -0.0011609986126422875
      vertex -0.0021973163290977095 -0.026066995521634984 0.0029920015782117851
      vertex -0.0036303162976264571 -0.021162993570417333 -0.0015249985903501503
    endloop
  endfacet
  facet normal -0.44052225069656581 -0.22495954062778203 -0.86909916104076956
    outer loop
      vertex 0.00085568340205554021 -0.027975998183340001 -0.0030249997675418847
      vertex -0.0034223165764569853 -0.026799998541921544 -0.0011609986126422875
      vertex -0.00010331621683236109 -0.021971992512792516 -0.0040929995179176323
    endloop
  endfacet
  facet normal -0.59798971457437988 -0.073602263265666809 -0.7981171643971976
    outer loop
      vertex -0.0036303162976264571 -0.021162993570417333 -0.0015249985903501503
      vertex -0.00010331621683236109 -0.021971992512792516 -0.0040929995179176323
      vertex -0.0034223165764569853 -0.026799998541921544 -0.0011609986126422875
    endloop
  endfacet
  facet normal 0.86650834523200737 0.12084470502116157 -0.48431378765386879
    outer loop
      vertex 0.0017946835671455051 -0.020832992454618376 -0.00041299943625926899
      vertex 0.0028116836276740219 -0.026405996938795018 1.6001269221306569e-05
      vertex -0.00010331621683236109 -0.021971992512792516 -0.0040929995179176323
    endloop
  endfacet
  facet normal 0.83233335611775927 0.034542282021687312 -0.55319798901160322
    outer loop
      vertex 0.00085568340205554021 -0.027975998183340001 -0.0030249997675418847
      vertex -0.00010331621683236109 -0.021971992512792516 -0.0040929995179176323
      vertex 0.0028116836276740219 -0.026405996938795018 1.6001269221306569e-05
    endloop
  endfacet
  facet normal 0.94972863821590991 0.2395178960843376 -0.20161024579094664
    outer loop
      vertex 0.0041456835990675176 -0.027916989585012365 0.004505000293254853
      vertex 0.0028116836276740219 -0.026405996938795018 1.6001269221306569e-05
      vertex 0.0026436835125923539 -0.022298000117391515 0.0041050009727478035
    endloop
  endfacet
  facet normal 0.97723697797588183 0.1684002338149263 -0.12903197327656532
    outer loop
      vertex 0.0017946835671455051 -0.020832992454618376 -0.00041299943625926899
      vertex 0.0026436835125923539 -0.022298000117391515 0.0041050009727478035
      vertex 0.0028116836276740219 -0.026405996938795018 1.6001269221306569e-05
    endloop
  endfacet
  facet normal 0.16520761634479914 0.1139003864764863 0.97965970901235733
    outer loop
      vertex 0.0041456835990675176 -0.027916989585012365 0.004505000293254853
      vertex 0.0026436835125923539 -0.022298000117391515 0.0041050009727478035
      vertex 0.00076668342285756124 -0.025406993290037084 0.0047830019444227226
    endloop
  endfacet
  facet normal 0.23336430932491581 0.070606718539672333 0.9698225561567253
    outer loop
      vertex -6.3166423797224661e-06 -0.020104996224492949 0.0045830004215240486
      vertex 0.00076668342285756124 -0.025406993290037084 0.0047830019444227226
      vertex 0.0026436835125923539 -0.022298000117391515 0.0041050009727478035
    endloop
  endfacet
endsolid OBJECT
