solid OBJECT
  facet normal -0.0088076325541730192 0.9264161314651761 0.37639816281417765
    outer loop
      vertex -0.00097999968379735951 -0.026908005774021145 0.0084640029817819595
      vertex 0.002029999952763319 -0.025125007331371303 0.0041460022330284119
      vertex -0.0038589997198432684 -0.025040011107921596 0.00379900261759758
    endloop
  endfacet
  facet normal 0.012932345099641784 0.99959449114748089 0.02536942486207559
    outer loop
      vertex 0.00050100018456578251 -0.025000001490116115 3.7252902984619141e-09
      vertex -0.0038589997198432684 -0.025040011107921596 0.00379900261759758
      vertex 0.002029999952763319 -0.025125007331371303 0.0041460022330284119
    endloop
  endfacet
  facet normal 0.83983884845951007 -0.16665753550046325 0.51661975811917571
    outer loop
      vertex 0.002029999952763319 -0.025125007331371303 0.0041460022330284119
      vertex -0.00097999968379735951 -0.026908005774021145 0.0084640029817819595
      vertex 0.0016269999109208583 -0.028185005486011501 0.0038140043616294861
    endloop
  endfacet
  facet normal 0.79342847822392892 -0.30281355023472956 0.5279916701402585
    outer loop
      vertex -0.0013109996430575848 -0.029287005960941311 0.0075970031321048737
      vertex 0.0016269999109208583 -0.028185005486011501 0.0038140043616294861
      vertex -0.00097999968379735951 -0.026908005774021145 0.0084640029817819595
    endloop
  endfacet
  facet normal -0.85991164069818993 -0.059164379290413939 0.5070025112511054
    outer loop
      vertex -0.0038589997198432684 -0.025040011107921596 0.00379900261759758
      vertex -0.0040299998577684164 -0.028279002010822292 0.0031310021877288818
      vertex -0.00097999968379735951 -0.026908005774021145 0.0084640029817819595
    endloop
  endfacet
  facet normal -0.85882153410135353 -0.065661538037417089 0.50804934306261917
    outer loop
      vertex -0.0013109996430575848 -0.029287005960941311 0.0075970031321048737
      vertex -0.00097999968379735951 -0.026908005774021145 0.0084640029817819595
      vertex -0.0040299998577684164 -0.028279002010822292 0.0031310021877288818
    endloop
  endfacet
  facet normal 0.91612093388013016 -0.13018169409047156 -0.37917695213492714
    outer loop
      vertex 3.9000391960144001e-05 -0.028458009660243984 7.1004033088684082e-05
      vertex 0.00050100018456578251 -0.025000001490116115 3.7252902984619141e-09
      vertex 0.0016269999109208583 -0.028185005486011501 0.0038140043616294861
    endloop
  endfacet
  facet normal 0.93396891873833632 -0.085353818816279223 -0.34701121659713091
    outer loop
      vertex 0.002029999952763319 -0.025125007331371303 0.0041460022330284119
      vertex 0.0016269999109208583 -0.028185005486011501 0.0038140043616294861
      vertex 0.00050100018456578251 -0.025000001490116115 3.7252902984619141e-09
    endloop
  endfacet
  facet normal -0.65559992020404079 0.072156983473787961 -0.75165292147667395
    outer loop
      vertex 0.00050100018456578251 -0.025000001490116115 3.7252902984619141e-09
      vertex 3.9000391960144001e-05 -0.028458009660243984 7.1004033088684082e-05
      vertex -0.0038589997198432684 -0.025040011107921596 0.00379900261759758
    endloop
  endfacet
  facet normal -0.58423978476262373 0.19340077494041549 -0.78820049108901835
    outer loop
      vertex -0.0040299998577684164 -0.028279002010822292 0.0031310021877288818
      vertex -0.0038589997198432684 -0.025040011107921596 0.00379900261759758
      vertex 3.9000391960144001e-05 -0.028458009660243984 7.1004033088684082e-05
    endloop
  endfacet
  facet normal 0.79627119098829025 -0.27733796717626158 0.53762053752124117
    outer loop
      vertex 0.0016269999109208583 -0.028185005486011501 0.0038140043616294861
      vertex -0.0013109996430575848 -0.029287005960941311 0.0075970031321048737
      vertex 0.00041300044581294056 -0.030994008481502529 0.004163004457950592
    endloop
  endfacet
  facet normal 0.7857019621255692 -0.29753269432322038 0.54235295013560625
    outer loop
      vertex 0.00041300044581294056 -0.030994008481502529 0.004163004457950592
      vertex -0.0013109996430575848 -0.029287005960941311 0.0075970031321048737
      vertex -0.0019409997835755349 -0.031760002672672268 0.0071530025452375412
    endloop
  endfacet
  facet normal -0.85845313989191274 -0.057575340431137587 0.50965016117328432
    outer loop
      vertex -0.0040299998577684164 -0.028279002010822292 0.0031310021877288818
      vertex -0.0035859997365623713 -0.031438003480434414 0.0035220012068748474
      vertex -0.0013109996430575848 -0.029287005960941311 0.0075970031321048737
    endloop
  endfacet
  facet normal -0.89502541515909795 0.15277622111174513 0.41903333099181933
    outer loop
      vertex -0.0019409997835755349 -0.031760002672672268 0.0071530025452375412
      vertex -0.0013109996430575848 -0.029287005960941311 0.0075970031321048737
      vertex -0.0035859997365623713 -0.031438003480434414 0.0035220012068748474
    endloop
  endfacet
  facet normal 0.80201611204182266 -0.51491703219428131 -0.30270547729030617
    outer loop
      vertex 3.9000391960144001e-05 -0.028458009660243984 7.1004033088684082e-05
      vertex 0.0016269999109208583 -0.028185005486011501 0.0038140043616294861
      vertex -0.0012219996638596058 -0.031338001787662502 0.0016290023922920227
    endloop
  endfacet
  facet normal 0.79390282711153248 -0.40000675722532192 -0.45794420542070241
    outer loop
      vertex 0.00041300044581294056 -0.030994008481502529 0.004163004457950592
      vertex -0.0012219996638596058 -0.031338001787662502 0.0016290023922920227
      vertex 0.0016269999109208583 -0.028185005486011501 0.0038140043616294861
    endloop
  endfacet
  facet normal -0.59756445373114531 -0.16305711365218251 -0.78506630377594022
    outer loop
      vertex 3.9000391960144001e-05 -0.028458009660243984 7.1004033088684082e-05
      vertex -0.0012219996638596058 -0.031338001787662502 0.0016290023922920227
      vertex -0.0040299998577684164 -0.028279002010822292 0.0031310021877288818
    endloop
  endfacet
  facet normal -0.61002612873925799 -0.18121579669753066 -0.77138120101715812
    outer loop
      vertex -0.0035859997365623713 -0.031438003480434414 0.0035220012068748474
      vertex -0.0040299998577684164 -0.028279002010822292 0.0031310021877288818
      vertex -0.0012219996638596058 -0.031338001787662502 0.0016290023922920227
    endloop
  endfacet
  facet normal 0.79408178516808836 -0.100303856316781 0.59947748487515751
    outer loop
      vertex 0.00041300044581294056 -0.030994008481502529 0.004163004457950592
      vertex -0.0019409997835755349 -0.031760002672672268 0.0071530025452375412
      vertex -8.3999846130609554e-05 -0.034068013727664943 0.0043070036917924881
    endloop
  endfacet
  facet normal 0.71057938533480758 -0.24266884030397823 0.66044588808071869
    outer loop
      vertex -0.002177999958395958 -0.03405700176954269 0.0065640024840831757
      vertex -8.3999846130609554e-05 -0.034068013727664943 0.0043070036917924881
      vertex -0.0019409997835755349 -0.031760002672672268 0.0071530025452375412
    endloop
  endfacet
  facet normal -0.84889363809912499 0.13667907897048923 0.5105863497652583
    outer loop
      vertex -0.0038519996665418148 -0.03467401415109634 0.0039460025727748871
      vertex -0.002177999958395958 -0.03405700176954269 0.0065640024840831757
      vertex -0.0035859997365623713 -0.031438003480434414 0.0035220012068748474
    endloop
  endfacet
  facet normal -0.91120572786266929 -0.011575015771923861 0.41178895143039296
    outer loop
      vertex -0.0019409997835755349 -0.031760002672672268 0.0071530025452375412
      vertex -0.0035859997365623713 -0.031438003480434414 0.0035220012068748474
      vertex -0.002177999958395958 -0.03405700176954269 0.0065640024840831757
    endloop
  endfacet
  facet normal 0.83919834120994885 -0.16002739454710019 -0.51974741664094581
    outer loop
      vertex 0.00041300044581294056 -0.030994008481502529 0.004163004457950592
      vertex -8.3999846130609554e-05 -0.034068013727664943 0.0043070036917924881
      vertex -0.0012219996638596058 -0.031338001787662502 0.0016290023922920227
    endloop
  endfacet
  facet normal 0.76852974275793029 -0.25518431929352142 -0.58672224918025029
    outer loop
      vertex -0.0018479997739195824 -0.034681002795696254 0.0022630020976066589
      vertex -0.0012219996638596058 -0.031338001787662502 0.0016290023922920227
      vertex -8.3999846130609554e-05 -0.034068013727664943 0.0043070036917924881
    endloop
  endfacet
  facet normal -0.62394613991968606 -0.03124840750066276 -0.78084233460282881
    outer loop
      vertex -0.0012219996638596058 -0.031338001787662502 0.0016290023922920227
      vertex -0.0018479997739195824 -0.034681002795696254 0.0022630020976066589
      vertex -0.0035859997365623713 -0.031438003480434414 0.0035220012068748474
    endloop
  endfacet
  facet normal -0.64248560904472762 -0.04740033265989723 -0.76483034107843606
    outer loop
      vertex -0.0038519996665418148 -0.03467401415109634 0.0039460025727748871
      vertex -0.0035859997365623713 -0.031438003480434414 0.0035220012068748474
      vertex -0.0018479997739195824 -0.034681002795696254 0.0022630020976066589
    endloop
  endfacet
  facet normal 0.73195121259651541 0.058943521371545224 0.67880268389776799
    outer loop
      vertex -8.3999846130609554e-05 -0.034068013727664943 0.0043070036917924881
      vertex -0.002177999958395958 -0.03405700176954269 0.0065640024840831757
      vertex -0.00047399955615401272 -0.037033002078533168 0.004985002800822258
    endloop
  endfacet
  facet normal 0.88411809974408961 0.33151315686913979 0.32929350514025757
    outer loop
      vertex -0.0014689999148249627 -0.0365180030465126 0.0071380026638507843
      vertex -0.00047399955615401272 -0.037033002078533168 0.004985002800822258
      vertex -0.002177999958395958 -0.03405700176954269 0.0065640024840831757
    endloop
  endfacet
  facet normal -0.76511864670975327 0.10956777334412998 0.63449851024367676
    outer loop
      vertex -0.003999999862164259 -0.037937010824680324 0.0043310020118951797
      vertex -0.0014689999148249627 -0.0365180030465126 0.0071380026638507843
      vertex -0.0038519996665418148 -0.03467401415109634 0.0039460025727748871
    endloop
  endfacet
  facet normal -0.82566586405260955 -0.10875383343350091 0.55357789393343371
    outer loop
      vertex -0.002177999958395958 -0.03405700176954269 0.0065640024840831757
      vertex -0.0038519996665418148 -0.03467401415109634 0.0039460025727748871
      vertex -0.0014689999148249627 -0.0365180030465126 0.0071380026638507843
    endloop
  endfacet
  facet normal 0.88299103241185517 -0.026533463464667513 -0.46863931972980594
    outer loop
      vertex -0.0018129997402429581 -0.038497011363506313 0.0025450028479099274
      vertex -0.0018479997739195824 -0.034681002795696254 0.0022630020976066589
      vertex -0.00047399955615401272 -0.037033002078533168 0.004985002800822258
    endloop
  endfacet
  facet normal 0.76952165282275764 -0.23683775095548376 -0.59308035337488596
    outer loop
      vertex -0.0018479997739195824 -0.034681002795696254 0.0022630020976066589
      vertex -8.3999846130609554e-05 -0.034068013727664943 0.0043070036917924881
      vertex -0.00047399955615401272 -0.037033002078533168 0.004985002800822258
    endloop
  endfacet
  facet normal -0.64083039600626834 -0.06242105643150677 -0.7651405199493907
    outer loop
      vertex -0.0018129997402429581 -0.038497011363506313 0.0025450028479099274
      vertex -0.003999999862164259 -0.037937010824680324 0.0043310020118951797
      vertex -0.0018479997739195824 -0.034681002795696254 0.0022630020976066589
    endloop
  endfacet
  facet normal -0.6420367568257378 -0.061051271343638747 -0.76423919367696247
    outer loop
      vertex -0.0038519996665418148 -0.03467401415109634 0.0039460025727748871
      vertex -0.0018479997739195824 -0.034681002795696254 0.0022630020976066589
      vertex -0.003999999862164259 -0.037937010824680324 0.0043310020118951797
    endloop
  endfacet
  facet normal 0.92930745028738571 0.16960963730319778 0.32805522976205659
    outer loop
      vertex -7.9999815672636074e-05 -0.040037001669406887 0.0054220035672187805
      vertex -0.00047399955615401272 -0.037033002078533168 0.004985002800822258
      vertex -0.0010029996261000634 -0.038970004022121425 0.0074850022792816162
    endloop
  endfacet
  facet normal 0.90406336099341356 0.2233817230308015 0.36437624116438089
    outer loop
      vertex -0.0014689999148249627 -0.0365180030465126 0.0071380026638507843
      vertex -0.0010029996261000634 -0.038970004022121425 0.0074850022792816162
      vertex -0.00047399955615401272 -0.037033002078533168 0.004985002800822258
    endloop
  endfacet
  facet normal -0.72614432748452373 -0.0076279123064481747 0.68749998590246819
    outer loop
      vertex -0.0031869999580085278 -0.040884013473987575 0.005157003179192543
      vertex -0.0010029996261000634 -0.038970004022121425 0.0074850022792816162
      vertex -0.003999999862164259 -0.037937010824680324 0.0043310020118951797
    endloop
  endfacet
  facet normal -0.73119255459409416 -0.042612174786121816 0.6808389315147596
    outer loop
      vertex -0.0014689999148249627 -0.0365180030465126 0.0071380026638507843
      vertex -0.003999999862164259 -0.037937010824680324 0.0043310020118951797
      vertex -0.0010029996261000634 -0.038970004022121425 0.0074850022792816162
    endloop
  endfacet
  facet normal 0.83393774727547487 -0.081278904566011168 -0.54584024525648123
    outer loop
      vertex -0.0015119995437562466 -0.041896010935306545 0.0035110041499137878
      vertex -0.0018129997402429581 -0.038497011363506313 0.0025450028479099274
      vertex -7.9999815672636074e-05 -0.040037001669406887 0.0054220035672187805
    endloop
  endfacet
  facet normal 0.8653981583373862 0.040852584011988019 -0.49941675374961525
    outer loop
      vertex -0.00047399955615401272 -0.037033002078533168 0.004985002800822258
      vertex -7.9999815672636074e-05 -0.040037001669406887 0.0054220035672187805
      vertex -0.0018129997402429581 -0.038497011363506313 0.0025450028479099274
    endloop
  endfacet
  facet normal -0.6430696691804324 -0.36595624285094747 -0.6727090224596276
    outer loop
      vertex -0.003999999862164259 -0.037937010824680324 0.0043310020118951797
      vertex -0.0018129997402429581 -0.038497011363506313 0.0025450028479099274
      vertex -0.0031869999580085278 -0.040884013473987575 0.005157003179192543
    endloop
  endfacet
  facet normal -0.75044727150430146 -0.24132486437453085 -0.6152976536005671
    outer loop
      vertex -0.0031869999580085278 -0.040884013473987575 0.005157003179192543
      vertex -0.0018129997402429581 -0.038497011363506313 0.0025450028479099274
      vertex -0.0015119995437562466 -0.041896010935306545 0.0035110041499137878
    endloop
  endfacet
  facet normal 0.92928666868379339 0.16371507947704114 0.33109463927765992
    outer loop
      vertex -0.0010029996261000634 -0.038970004022121425 0.0074850022792816162
      vertex -0.00066099981591105465 -0.041429008543491359 0.0077410023659467697
      vertex -7.9999815672636074e-05 -0.040037001669406887 0.0054220035672187805
    endloop
  endfacet
  facet normal 0.91617356314984866 -0.40063220866624355 -0.010946943158610365
    outer loop
      vertex -0.0012819996550679207 -0.04280299991369247 0.0060530025511980057
      vertex -7.9999815672636074e-05 -0.040037001669406887 0.0054220035672187805
      vertex -0.00066099981591105465 -0.041429008543491359 0.0077410023659467697
    endloop
  endfacet
  facet normal -0.72751725772653109 -0.0043289945529974396 0.68607572433094288
    outer loop
      vertex -0.0031869999580085278 -0.040884013473987575 0.005157003179192543
      vertex -0.0017729999013245106 -0.043168003857135769 0.0066420026123523712
      vertex -0.0010029996261000634 -0.038970004022121425 0.0074850022792816162
    endloop
  endfacet
  facet normal -0.68688330153547383 -0.019898746643245108 0.72649526492177152
    outer loop
      vertex -0.00066099981591105465 -0.041429008543491359 0.0077410023659467697
      vertex -0.0010029996261000634 -0.038970004022121425 0.0074850022792816162
      vertex -0.0017729999013245106 -0.043168003857135769 0.0066420026123523712
    endloop
  endfacet
  facet normal 0.87137843840255813 -0.43180163819005973 -0.23290977296691451
    outer loop
      vertex -0.0015119995437562466 -0.041896010935306545 0.0035110041499137878
      vertex -7.9999815672636074e-05 -0.040037001669406887 0.0054220035672187805
      vertex -0.0012819996550679207 -0.04280299991369247 0.0060530025511980057
    endloop
  endfacet
  facet normal -0.64539182995579614 -0.73604406352202423 -0.20422664463848847
    outer loop
      vertex -0.0015119995437562466 -0.041896010935306545 0.0035110041499137878
      vertex -0.0012819996550679207 -0.04280299991369247 0.0060530025511980057
      vertex -0.0031869999580085278 -0.040884013473987575 0.005157003179192543
    endloop
  endfacet
  facet normal -0.33449262773180538 -0.650454797445703 -0.68192612391148444
    outer loop
      vertex -0.0017729999013245106 -0.043168003857135769 0.0066420026123523712
      vertex -0.0031869999580085278 -0.040884013473987575 0.005157003179192543
      vertex -0.0012819996550679207 -0.04280299991369247 0.0060530025511980057
    endloop
  endfacet
  facet normal 0.74512620752876524 -0.62446056519473314 0.23417074405329524
    outer loop
      vertex -0.0012819996550679207 -0.04280299991369247 0.0060530025511980057
      vertex -0.00066099981591105465 -0.041429008543491359 0.0077410023659467697
      vertex -0.0017729999013245106 -0.043168003857135769 0.0066420026123523712
    endloop
  endfacet
endsolid OBJECT
