solid OBJECT
  facet normal -0.092011161474206501 -0.13900735029237857 0.98600755713577559
    outer loop
      vertex -0.00071349984500557184 -0.0029999998882411245 -0.001228998199105262
      vertex 0.0045165000628912821 0.030359006159007721 0.0039620019793510444
      vertex -0.0059664995642378926 0.029849997393787079 0.0029120009690523155
    endloop
  endfacet
  facet normal -0.053018542596358541 0.99754512047891453 0.045746767641722558
    outer loop
      vertex 0.0045165000628912821 0.030359006159007721 0.0039620019793510444
      vertex 0.0036985000479035079 0.030604994527995758 -0.0023499995172023766
      vertex -0.0059664995642378926 0.029849997393787079 0.0029120009690523155
    endloop
  endfacet
  facet normal -0.057850154716818446 0.99764359966755078 0.036886415407462708
    outer loop
      vertex 0.0036985000479035079 0.030604994527995758 -0.0023499995172023766
      vertex -0.0015254999743774533 0.030473998419940643 -0.00699999813735485
      vertex -0.0059664995642378926 0.029849997393787079 0.0029120009690523155
    endloop
  endfacet
  facet normal -0.015162860024195948 0.99831257986324207 0.056054264446912722
    outer loop
      vertex -0.0063234997214749455 0.030132001869380646 -0.0022069986611604683
      vertex -0.0059664995642378926 0.029849997393787079 0.0029120009690523155
      vertex -0.0015254999743774533 0.030473998419940643 -0.00699999813735485
    endloop
  endfacet
  facet normal 0.95815897072896672 -0.25291838223503643 -0.13402864894946476
    outer loop
      vertex 0.0036985000479035079 0.030604994527995758 -0.0023499995172023766
      vertex 0.0045165000628912821 0.030359006159007721 0.0039620019793510444
      vertex 0.0023395001189783216 0.025074994795024563 -0.0016299996227025979
    endloop
  endfacet
  facet normal 0.93161937859658228 -0.3628970561451933 -0.019775238670378798
    outer loop
      vertex 0.0022975000320002437 0.024676999680698086 0.0036950011104345329
      vertex 0.0023395001189783216 0.025074994795024563 -0.0016299996227025979
      vertex 0.0045165000628912821 0.030359006159007721 0.0039620019793510444
    endloop
  endfacet
  facet normal 0.45448992295576579 -0.21807560550282123 0.86364456822019098
    outer loop
      vertex 0.0045165000628912821 0.030359006159007721 0.0039620019793510444
      vertex -0.0002394999610260129 0.030327996842563324 0.0064570002555847175
      vertex 0.0022975000320002437 0.024676999680698086 0.0036950011104345329
    endloop
  endfacet
  facet normal 0.54187636618459822 -0.15999872727169243 0.82508812319776714
    outer loop
      vertex 0.0022975000320002437 0.024676999680698086 0.0036950011104345329
      vertex -0.0002394999610260129 0.030327996842563324 0.0064570002555847175
      vertex -0.00042749999556690454 0.025209999315440823 0.0055880017876625068
    endloop
  endfacet
  facet normal 0.66465145452695207 0.012500525581132247 -0.74704898156372734
    outer loop
      vertex -0.0015254999743774533 0.030473998419940643 -0.00699999813735485
      vertex 0.0036985000479035079 0.030604994527995758 -0.0023499995172023766
      vertex -0.00066749996040016413 0.024714997641742398 -0.0063329998105764382
    endloop
  endfacet
  facet normal 0.82098183921700518 -0.26743516446952981 -0.50444747246965072
    outer loop
      vertex 0.0023395001189783216 0.025074994795024563 -0.0016299996227025979
      vertex -0.00066749996040016413 0.024714997641742398 -0.0063329998105764382
      vertex 0.0036985000479035079 0.030604994527995758 -0.0023499995172023766
    endloop
  endfacet
  facet normal -0.63944812100390258 -0.18178790463019254 -0.74703363931936995
    outer loop
      vertex -0.00066749996040016413 0.024714997641742398 -0.0063329998105764382
      vertex -0.0055374997900798917 0.024582004778087307 -0.0021319992542266838
      vertex -0.0015254999743774533 0.030473998419940643 -0.00699999813735485
    endloop
  endfacet
  facet normal -0.69868366616460376 -0.10850483169596109 -0.70715474694964719
    outer loop
      vertex -0.0063234997214749455 0.030132001869380646 -0.0022069986611604683
      vertex -0.0015254999743774533 0.030473998419940643 -0.00699999813735485
      vertex -0.0055374997900798917 0.024582004778087307 -0.0021319992542266838
    endloop
  endfacet
  facet normal -0.98837479401273987 -0.13914741812727591 0.061263876703868944
    outer loop
      vertex -0.0063234997214749455 0.030132001869380646 -0.0022069986611604683
      vertex -0.0055374997900798917 0.024582004778087307 -0.0021319992542266838
      vertex -0.0059664995642378926 0.029849997393787079 0.0029120009690523155
    endloop
  endfacet
  facet normal -0.98539874838535513 -0.15258310869304242 0.075549332373907541
    outer loop
      vertex -0.0052015000255778432 0.024557999007404019 0.0022020016163587577
      vertex -0.0059664995642378926 0.029849997393787079 0.0029120009690523155
      vertex -0.0055374997900798917 0.024582004778087307 -0.0021319992542266838
    endloop
  endfacet
  facet normal -0.51461655747525514 -0.12512178563292026 0.8482419097948104
    outer loop
      vertex -0.0002394999610260129 0.030327996842563324 0.0064570002555847175
      vertex -0.0059664995642378926 0.029849997393787079 0.0029120009690523155
      vertex -0.00042749999556690454 0.025209999315440823 0.0055880017876625068
    endloop
  endfacet
  facet normal -0.55084938463433109 -0.18870435775653893 0.81299177167525571
    outer loop
      vertex -0.0052015000255778432 0.024557999007404019 0.0022020016163587577
      vertex -0.00042749999556690454 0.025209999315440823 0.0055880017876625068
      vertex -0.0059664995642378926 0.029849997393787079 0.0029120009690523155
    endloop
  endfacet
  facet normal -0.12227322645985085 -0.92476840708771924 0.36035073379076155
    outer loop
      vertex 0.0025645000860095024 -0.0022199986055491689 0.0018850017637014396
      vertex 0.00018550024833530188 -0.0015450058057902578 0.002810000658035279
      vertex -0.00071349984500557184 -0.0029999998882411245 -0.001228998199105262
    endloop
  endfacet
  facet normal -0.52081791507765962 -0.75960012652425601 0.38955917024053477
    outer loop
      vertex -0.0011035000206902623 -0.0026490030363200429 -0.001065998122096061
      vertex -0.00071349984500557184 -0.0029999998882411245 -0.001228998199105262
      vertex 0.00018550024833530188 -0.0015450058057902578 0.002810000658035279
    endloop
  endfacet
  facet normal -0.63866946916533818 -0.28678987341940465 -0.71403982918332143
    outer loop
      vertex 0.0011335000162944198 0.00074700140208022563 -0.0043859991878271096
      vertex -0.00071349984500557184 -0.0029999998882411245 -0.001228998199105262
      vertex -0.0034524999791756272 0.0021610023900868183 -0.00085199882090091633
    endloop
  endfacet
  facet normal -0.54408558407658469 -0.22980668679533989 -0.80694470932288187
    outer loop
      vertex -0.0011035000206902623 -0.0026490030363200429 -0.001065998122096061
      vertex -0.0034524999791756272 0.0021610023900868183 -0.00085199882090091633
      vertex -0.00071349984500557184 -0.0029999998882411245 -0.001228998199105262
    endloop
  endfacet
  facet normal 0.89620118780057578 -0.28549407156587608 -0.33958292961451325
    outer loop
      vertex 0.0035505000851117074 0.0025879951640965229 0.00044500197470188213
      vertex 0.0025645000860095024 -0.0022199986055491689 0.0018850017637014396
      vertex 0.0011335000162944198 0.00074700140208022563 -0.0043859991878271096
    endloop
  endfacet
  facet normal 0.58855116125514795 -0.67058563267931492 -0.45157772291079634
    outer loop
      vertex -0.00071349984500557184 -0.0029999998882411245 -0.001228998199105262
      vertex 0.0011335000162944198 0.00074700140208022563 -0.0043859991878271096
      vertex 0.0025645000860095024 -0.0022199986055491689 0.0018850017637014396
    endloop
  endfacet
  facet normal 0.97585129539208948 -0.21826590441428301 -0.0086165104187254492
    outer loop
      vertex 0.0023395001189783216 0.025074994795024563 -0.0016299996227025979
      vertex 0.0022975000320002437 0.024676999680698086 0.0036950011104345329
      vertex 0.0011035000206902623 0.019513002268970181 -0.0007199987471103661
    endloop
  endfacet
  facet normal 0.98383904722810234 -0.10117758997263841 -0.14772888829416017
    outer loop
      vertex 0.0016585000557824969 0.018753996722400357 0.0034960016906261451
      vertex 0.0011035000206902623 0.019513002268970181 -0.0007199987471103661
      vertex 0.0022975000320002437 0.024676999680698086 0.0036950011104345329
    endloop
  endfacet
  facet normal 0.55110685415080207 -0.11681736709712798 0.82621724628120741
    outer loop
      vertex -0.00042749999556690454 0.025209999315440823 0.0055880017876625068
      vertex -0.00046149978879839182 0.019836998216808011 0.0048510015308856971
      vertex 0.0022975000320002437 0.024676999680698086 0.0036950011104345329
    endloop
  endfacet
  facet normal 0.50605763648021596 -0.083437865804486935 0.85845430344896634
    outer loop
      vertex 0.0016585000557824969 0.018753996722400357 0.0034960016906261451
      vertex 0.0022975000320002437 0.024676999680698086 0.0036950011104345329
      vertex -0.00046149978879839182 0.019836998216808011 0.0048510015308856971
    endloop
  endfacet
  facet normal 0.83658180090098544 -0.16558836394823781 -0.52221775546816662
    outer loop
      vertex -0.00066749996040016413 0.024714997641742398 -0.0063329998105764382
      vertex 0.0023395001189783216 0.025074994795024563 -0.0016299996227025979
      vertex -0.00087049987632781267 0.018797999851405789 -0.0047819994091987603
    endloop
  endfacet
  facet normal 0.88572953597862347 -0.25977170938289212 -0.38471008317872635
    outer loop
      vertex 0.0011035000206902623 0.019513002268970181 -0.0007199987471103661
      vertex -0.00087049987632781267 0.018797999851405789 -0.0047819994091987603
      vertex 0.0023395001189783216 0.025074994795024563 -0.0016299996227025979
    endloop
  endfacet
  facet normal -0.56518818439228857 -0.10859666860539906 0.81778302733130714
    outer loop
      vertex -0.00042749999556690454 0.025209999315440823 0.0055880017876625068
      vertex -0.0052015000255778432 0.024557999007404019 0.0022020016163587577
      vertex -0.00046149978879839182 0.019836998216808011 0.0048510015308856971
    endloop
  endfacet
  facet normal -0.4551360016469691 0.042098103275179037 0.8894262025066737
    outer loop
      vertex -0.0040844996692612767 0.019351995222270657 0.0030200008600950248
      vertex -0.00046149978879839182 0.019836998216808011 0.0048510015308856971
      vertex -0.0052015000255778432 0.024557999007404019 0.0022020016163587577
    endloop
  endfacet
  facet normal -0.64047790756972911 -0.17409271731323028 -0.74798380710654233
    outer loop
      vertex -0.00066749996040016413 0.024714997641742398 -0.0063329998105764382
      vertex -0.00087049987632781267 0.018797999851405789 -0.0047819994091987603
      vertex -0.0055374997900798917 0.024582004778087307 -0.0021319992542266838
    endloop
  endfacet
  facet normal -0.56357125228186045 -0.077952321606295422 -0.82238122495448795
    outer loop
      vertex -0.0046995003940537572 0.019051006667316128 -0.0021819982379674904
      vertex -0.0055374997900798917 0.024582004778087307 -0.0021319992542266838
      vertex -0.00087049987632781267 0.018797999851405789 -0.0047819994091987603
    endloop
  endfacet
  facet normal -0.97382433266749024 -0.18913447015784485 0.12607268261930768
    outer loop
      vertex -0.0040844996692612767 0.019351995222270657 0.0030200008600950248
      vertex -0.0052015000255778432 0.024557999007404019 0.0022020016163587577
      vertex -0.0046995003940537572 0.019051006667316128 -0.0021819982379674904
    endloop
  endfacet
  facet normal -0.98578588675252554 -0.15003938819631402 0.075593435357924704
    outer loop
      vertex -0.0055374997900798917 0.024582004778087307 -0.0021319992542266838
      vertex -0.0046995003940537572 0.019051006667316128 -0.0021819982379674904
      vertex -0.0052015000255778432 0.024557999007404019 0.0022020016163587577
    endloop
  endfacet
  facet normal 0.74686388010157945 -0.32664131716343092 -0.57922344092875966
    outer loop
      vertex 0.0035505000851117074 0.0025879951640965229 0.00044500197470188213
      vertex 0.0063234999543055892 0.001978999607265163 0.004364001780748368
      vertex 0.0025645000860095024 -0.0022199986055491689 0.0018850017637014396
    endloop
  endfacet
  facet normal 0.67658289277496997 -0.71340415796446977 0.18245573875123625
    outer loop
      vertex 0.0025645000860095024 -0.0022199986055491689 0.0018850017637014396
      vertex 0.0063234999543055892 0.001978999607265163 0.004364001780748368
      vertex 0.0024625000078231096 -0.0014840004518626455 0.0051410004794597633
    endloop
  endfacet
  facet normal -0.19010004116800658 -0.95886866304248475 0.21079103724551468
    outer loop
      vertex 0.0025645000860095024 -0.0022199986055491689 0.0018850017637014396
      vertex 0.0024625000078231096 -0.0014840004518626455 0.0051410004794597633
      vertex 0.00018550024833530188 -0.0015450058057902578 0.002810000658035279
    endloop
  endfacet
  facet normal 0.013737064085041682 -0.99982437665957191 0.012747898164875813
    outer loop
      vertex 0.00095350004266947508 -0.0015090046003459218 0.0048060018867254264
      vertex 0.00018550024833530188 -0.0015450058057902578 0.002810000658035279
      vertex 0.0024625000078231096 -0.0014840004518626455 0.0051410004794597633
    endloop
  endfacet
  facet normal -0.64626002289223694 -0.21980984230370731 0.73077466844284145
    outer loop
      vertex -0.0019485001685097814 0.0032630028650166279 0.0023690007925033577
      vertex 0.00018550024833530188 -0.0015450058057902578 0.002810000658035279
      vertex 0.00071450008545070887 0.0038680049106480366 0.0049060017168521888
    endloop
  endfacet
  facet normal -0.93192577681517696 -0.048107514520427552 0.35944403396647984
    outer loop
      vertex 0.00095350004266947508 -0.0015090046003459218 0.0048060018867254264
      vertex 0.00071450008545070887 0.0038680049106480366 0.0049060017168521888
      vertex 0.00018550024833530188 -0.0015450058057902578 0.002810000658035279
    endloop
  endfacet
  facet normal -0.81980675240719458 -0.41778223195916453 0.39163107048188522
    outer loop
      vertex -0.0011035000206902623 -0.0026490030363200429 -0.001065998122096061
      vertex 0.00018550024833530188 -0.0015450058057902578 0.002810000658035279
      vertex -0.0034524999791756272 0.0021610023900868183 -0.00085199882090091633
    endloop
  endfacet
  facet normal -0.81348458093624088 -0.31629366354435517 0.48805855691779326
    outer loop
      vertex -0.0019485001685097814 0.0032630028650166279 0.0023690007925033577
      vertex -0.0034524999791756272 0.0021610023900868183 -0.00085199882090091633
      vertex 0.00018550024833530188 -0.0015450058057902578 0.002810000658035279
    endloop
  endfacet
  facet normal -0.92792084373328254 -0.20673977601844126 0.3101960231485214
    outer loop
      vertex -0.0029154998483136296 0.0085379990264775052 0.0029920015782117851
      vertex -0.0041405000956729054 0.0078049960061909443 -0.0011609986126422875
      vertex -0.0019485001685097814 0.0032630028650166279 0.0023690007925033577
    endloop
  endfacet
  facet normal -0.89149652815118929 -0.084303684714198301 0.44511439994453639
    outer loop
      vertex -0.0041405000956729054 0.0078049960061909443 -0.0011609986126422875
      vertex -0.0034524999791756272 0.0021610023900868183 -0.00085199882090091633
      vertex -0.0019485001685097814 0.0032630028650166279 0.0023690007925033577
    endloop
  endfacet
  facet normal -0.5915232433107378 0.08535107067228502 -0.80175772360373321
    outer loop
      vertex 0.0011335000162944198 0.00074700140208022563 -0.0043859991878271096
      vertex -0.0034524999791756272 0.0021610023900868183 -0.00085199882090091633
      vertex 0.00013749988283962011 0.0066289963647724872 -0.0030249997675418847
    endloop
  endfacet
  facet normal -0.42053900219994933 -0.10062888394436306 -0.90167664677798043
    outer loop
      vertex -0.0041405000956729054 0.0078049960061909443 -0.0011609986126422875
      vertex 0.00013749988283962011 0.0066289963647724872 -0.0030249997675418847
      vertex -0.0034524999791756272 0.0021610023900868183 -0.00085199882090091633
    endloop
  endfacet
  facet normal 0.82158175637462671 0.25687856642649481 -0.50893695061672672
    outer loop
      vertex 0.0011335000162944198 0.00074700140208022563 -0.0043859991878271096
      vertex 0.00013749988283962011 0.0066289963647724872 -0.0030249997675418847
      vertex 0.0035505000851117074 0.0025879951640965229 0.00044500197470188213
    endloop
  endfacet
  facet normal 0.79053446348270373 0.1600811025680583 -0.5911254542368386
    outer loop
      vertex 0.0020935001084581017 0.008198997609317471 1.6001269221306569e-05
      vertex 0.0035505000851117074 0.0025879951640965229 0.00044500197470188213
      vertex 0.00013749988283962011 0.0066289963647724872 -0.0030249997675418847
    endloop
  endfacet
  facet normal 0.9510848648081045 0.231310106418738 -0.204776010805714
    outer loop
      vertex 0.0020935001084581017 0.008198997609317471 1.6001269221306569e-05
      vertex 0.0034275000798515975 0.006688004963100124 0.004505000293254853
      vertex 0.0035505000851117074 0.0025879951640965229 0.00044500197470188213
    endloop
  endfacet
  facet normal 0.7512049104288725 0.47568699425897271 -0.45761672395183922
    outer loop
      vertex 0.0063234999543055892 0.001978999607265163 0.004364001780748368
      vertex 0.0035505000851117074 0.0025879951640965229 0.00044500197470188213
      vertex 0.0034275000798515975 0.006688004963100124 0.004505000293254853
    endloop
  endfacet
  facet normal 0.98389951942822362 0.024018383878914789 -0.17710125043250152
    outer loop
      vertex 0.0019254999933764338 0.012306994430720974 0.0041050009727478035
      vertex 0.001076500047929585 0.013772002093494107 -0.00041299943625926899
      vertex 0.0016585000557824969 0.018753996722400357 0.0034960016906261451
    endloop
  endfacet
  facet normal 0.99110190153891786 -0.011751158023695037 -0.13258556124647577
    outer loop
      vertex 0.0011035000206902623 0.019513002268970181 -0.0007199987471103661
      vertex 0.0016585000557824969 0.018753996722400357 0.0034960016906261451
      vertex 0.001076500047929585 0.013772002093494107 -0.00041299943625926899
    endloop
  endfacet
  facet normal 0.51231005819430098 -0.068234890486607302 0.85608551207997474
    outer loop
      vertex -0.00046149978879839182 0.019836998216808011 0.0048510015308856971
      vertex -0.00072450016159564257 0.014499998323619534 0.0045830004215240486
      vertex 0.0016585000557824969 0.018753996722400357 0.0034960016906261451
    endloop
  endfacet
  facet normal 0.25728311049186359 0.10143342291166983 0.96099774285481743
    outer loop
      vertex -0.00072450016159564257 0.014499998323619534 0.0045830004215240486
      vertex 0.0019254999933764338 0.012306994430720974 0.0041050009727478035
      vertex 0.0016585000557824969 0.018753996722400357 0.0034960016906261451
    endloop
  endfacet
  facet normal 0.90096825470179476 -0.027392924903358963 -0.43301943568948631
    outer loop
      vertex 0.0011035000206902623 0.019513002268970181 -0.0007199987471103661
      vertex 0.001076500047929585 0.013772002093494107 -0.00041299943625926899
      vertex -0.00087049987632781267 0.018797999851405789 -0.0047819994091987603
    endloop
  endfacet
  facet normal 0.89328370353055575 -0.042906042221693315 -0.44744083021959963
    outer loop
      vertex -0.00087049987632781267 0.018797999851405789 -0.0047819994091987603
      vertex 0.001076500047929585 0.013772002093494107 -0.00041299943625926899
      vertex -0.00082149973604828119 0.012633002035319973 -0.0040929995179176323
    endloop
  endfacet
  facet normal -0.44850645013028206 -0.022765382852085961 0.89348962027274315
    outer loop
      vertex -0.00046149978879839182 0.019836998216808011 0.0048510015308856971
      vertex -0.0040844996692612767 0.019351995222270657 0.0030200008600950248
      vertex -0.00072450016159564257 0.014499998323619534 0.0045830004215240486
    endloop
  endfacet
  facet normal -0.40106590144238297 0.017301715061802486 0.91588579711453599
    outer loop
      vertex -0.00072450016159564257 0.014499998323619534 0.0045830004215240486
      vertex -0.0040844996692612767 0.019351995222270657 0.0030200008600950248
      vertex -0.0033724998356774449 0.013993999592960049 0.0034330014437437065
    endloop
  endfacet
  facet normal -0.59996268195514368 -0.093566075346379646 -0.79453770823382996
    outer loop
      vertex -0.00082149973604828119 0.012633002035319973 -0.0040929995179176323
      vertex -0.0043484998168423772 0.013442000977695157 -0.0015249985903501503
      vertex -0.00087049987632781267 0.018797999851405789 -0.0047819994091987603
    endloop
  endfacet
  facet normal -0.56283450146523528 -0.13081937545786831 -0.81615171075308879
    outer loop
      vertex -0.0046995003940537572 0.019051006667316128 -0.0021819982379674904
      vertex -0.00087049987632781267 0.018797999851405789 -0.0047819994091987603
      vertex -0.0043484998168423772 0.013442000977695157 -0.0015249985903501503
    endloop
  endfacet
  facet normal -0.99161189129256999 -0.047996077968579035 0.12000930608418149
    outer loop
      vertex -0.0046995003940537572 0.019051006667316128 -0.0021819982379674904
      vertex -0.0043484998168423772 0.013442000977695157 -0.0015249985903501503
      vertex -0.0040844996692612767 0.019351995222270657 0.0030200008600950248
    endloop
  endfacet
  facet normal -0.97236099059340275 -0.11348443799973469 0.2040475099188942
    outer loop
      vertex -0.0033724998356774449 0.013993999592960049 0.0034330014437437065
      vertex -0.0040844996692612767 0.019351995222270657 0.0030200008600950248
      vertex -0.0043484998168423772 0.013442000977695157 -0.0015249985903501503
    endloop
  endfacet
  facet normal 0.12378105374198495 0.083842764021453492 0.98876116512318935
    outer loop
      vertex 0.0063234999543055892 0.001978999607265163 0.004364001780748368
      vertex 0.00071450008545070887 0.0038680049106480366 0.0049060017168521888
      vertex 0.0024625000078231096 -0.0014840004518626455 0.0051410004794597633
    endloop
  endfacet
  facet normal -0.21620216231902703 -0.027760324794343188 0.97595388691059048
    outer loop
      vertex 0.00095350004266947508 -0.0015090046003459218 0.0048060018867254264
      vertex 0.0024625000078231096 -0.0014840004518626455 0.0051410004794597633
      vertex 0.00071450008545070887 0.0038680049106480366 0.0049060017168521888
    endloop
  endfacet
  facet normal 0.10886216751759323 0.036526932632172042 0.99338553023277743
    outer loop
      vertex 4.849990364164114e-05 0.0091980012580754056 0.0047830019444227226
      vertex 0.00071450008545070887 0.0038680049106480366 0.0049060017168521888
      vertex 0.0034275000798515975 0.006688004963100124 0.004505000293254853
    endloop
  endfacet
  facet normal 0.10843557259424627 0.036941794254314798 0.99341684626013349
    outer loop
      vertex 0.0063234999543055892 0.001978999607265163 0.004364001780748368
      vertex 0.0034275000798515975 0.006688004963100124 0.004505000293254853
      vertex 0.00071450008545070887 0.0038680049106480366 0.0049060017168521888
    endloop
  endfacet
  facet normal -0.65015226214289112 -0.20557370175757322 0.73146530278350863
    outer loop
      vertex -0.0019485001685097814 0.0032630028650166279 0.0023690007925033577
      vertex 0.00071450008545070887 0.0038680049106480366 0.0049060017168521888
      vertex -0.0029154998483136296 0.0085379990264775052 0.0029920015782117851
    endloop
  endfacet
  facet normal -0.50950364957335326 -0.043832957920835303 0.85935132679908266
    outer loop
      vertex 4.849990364164114e-05 0.0091980012580754056 0.0047830019444227226
      vertex -0.0029154998483136296 0.0085379990264775052 0.0029920015782117851
      vertex 0.00071450008545070887 0.0038680049106480366 0.0049060017168521888
    endloop
  endfacet
  facet normal -0.49571856349473714 -0.11114279844691978 0.86134219922171551
    outer loop
      vertex -0.0029154998483136296 0.0085379990264775052 0.0029920015782117851
      vertex 4.849990364164114e-05 0.0091980012580754056 0.0047830019444227226
      vertex -0.0033724998356774449 0.013993999592960049 0.0034330014437437065
    endloop
  endfacet
  facet normal -0.39456107874099711 -0.022873899397540982 0.91858496605871565
    outer loop
      vertex -0.00072450016159564257 0.014499998323619534 0.0045830004215240486
      vertex -0.0033724998356774449 0.013993999592960049 0.0034330014437437065
      vertex 4.849990364164114e-05 0.0091980012580754056 0.0047830019444227226
    endloop
  endfacet
  facet normal -0.97432332254225407 -0.0979949516563378 0.20270928099150898
    outer loop
      vertex -0.0033724998356774449 0.013993999592960049 0.0034330014437437065
      vertex -0.0043484998168423772 0.013442000977695157 -0.0015249985903501503
      vertex -0.0029154998483136296 0.0085379990264775052 0.0029920015782117851
    endloop
  endfacet
  facet normal -0.95819338616984806 -0.016912863883114925 0.28562105968508605
    outer loop
      vertex -0.0041405000956729054 0.0078049960061909443 -0.0011609986126422875
      vertex -0.0029154998483136296 0.0085379990264775052 0.0029920015782117851
      vertex -0.0043484998168423772 0.013442000977695157 -0.0015249985903501503
    endloop
  endfacet
  facet normal -0.44052225069656575 -0.22495954062778198 -0.86909916104076945
    outer loop
      vertex 0.00013749988283962011 0.0066289963647724872 -0.0030249997675418847
      vertex -0.0041405000956729054 0.0078049960061909443 -0.0011609986126422875
      vertex -0.00082149973604828119 0.012633002035319973 -0.0040929995179176323
    endloop
  endfacet
  facet normal -0.59798971457437988 -0.073602263265666809 -0.7981171643971976
    outer loop
      vertex -0.0043484998168423772 0.013442000977695157 -0.0015249985903501503
      vertex -0.00082149973604828119 0.012633002035319973 -0.0040929995179176323
      vertex -0.0041405000956729054 0.0078049960061909443 -0.0011609986126422875
    endloop
  endfacet
  facet normal 0.86650834523200748 0.12084470502116175 -0.48431378765386857
    outer loop
      vertex 0.001076500047929585 0.013772002093494107 -0.00041299943625926899
      vertex 0.0020935001084581017 0.008198997609317471 1.6001269221306569e-05
      vertex -0.00082149973604828119 0.012633002035319973 -0.0040929995179176323
    endloop
  endfacet
  facet normal 0.83233335611775894 0.034542282021687291 -0.55319798901160311
    outer loop
      vertex 0.00013749988283962011 0.0066289963647724872 -0.0030249997675418847
      vertex -0.00082149973604828119 0.012633002035319973 -0.0040929995179176323
      vertex 0.0020935001084581017 0.008198997609317471 1.6001269221306569e-05
    endloop
  endfacet
  facet normal 0.9497286382159098 0.23951789608433757 -0.20161024579094661
    outer loop
      vertex 0.0034275000798515975 0.006688004963100124 0.004505000293254853
      vertex 0.0020935001084581017 0.008198997609317471 1.6001269221306569e-05
      vertex 0.0019254999933764338 0.012306994430720974 0.0041050009727478035
    endloop
  endfacet
  facet normal 0.9772369779758816 0.16840023381492644 -0.12903197327656549
    outer loop
      vertex 0.001076500047929585 0.013772002093494107 -0.00041299943625926899
      vertex 0.0019254999933764338 0.012306994430720974 0.0041050009727478035
      vertex 0.0020935001084581017 0.008198997609317471 1.6001269221306569e-05
    endloop
  endfacet
  facet normal 0.16520761634479919 0.11390038647648631 0.97965970901235744
    outer loop
      vertex 0.0034275000798515975 0.006688004963100124 0.004505000293254853
      vertex 0.0019254999933764338 0.012306994430720974 0.0041050009727478035
      vertex 4.849990364164114e-05 0.0091980012580754056 0.0047830019444227226
    endloop
  endfacet
  facet normal 0.23336430932491573 0.070606718539672417 0.9698225561567253
    outer loop
      vertex -0.00072450016159564257 0.014499998323619534 0.0045830004215240486
      vertex 4.849990364164114e-05 0.0091980012580754056 0.0047830019444227226
      vertex 0.0019254999933764338 0.012306994430720974 0.0041050009727478035
    endloop
  endfacet
endsolid OBJECT
