solid OBJECT
  facet normal 0.9221088235717646 0.34650282826583173 -0.17219496942383569
    outer loop
      vertex 0.0074960000086575747 -0.045739995658397675 0.003658001035451889
      vertex 0.0097890000063925973 -0.052510993897914887 0.0023120005652308463
      vertex 0.0071170000331476331 -0.046427997171878815 0.00024400065094232551
    endloop
  endfacet
  facet normal 0.77936180039006642 0.47947000339613116 0.40336546696025927
    outer loop
      vertex 0.0071170000331476331 -0.046427997171878815 0.00024400065094232551
      vertex 0.0097890000063925973 -0.052510993897914887 0.0023120005652308463
      vertex 0.01051299993135035 -0.052452000200748444 0.00084300125390291206
    endloop
  endfacet
  facet normal 0.82748839800103924 0.17364008364151132 -0.53395886782283397
    outer loop
      vertex 0.0061499999968218618 -0.039014997303485871 0.0037590011060237884
      vertex 0.0074960000086575747 -0.045739995658397675 0.003658001035451889
      vertex 0.0042379999971017242 -0.040456997573375703 0.00032700105011463157
    endloop
  endfacet
  facet normal 0.88427322353546567 0.42893069422196944 -0.18460586581269736
    outer loop
      vertex 0.0071170000331476331 -0.046427997171878815 0.00024400065094232551
      vertex 0.0042379999971017242 -0.040456997573375703 0.00032700105011463157
      vertex 0.0074960000086575747 -0.045739995658397675 0.003658001035451889
    endloop
  endfacet
  facet normal -0.0077972529054935917 -0.10329634365996576 -0.99462006225171729
    outer loop
      vertex 0.01051299993135035 -0.052452000200748444 0.00084300125390291206
      vertex 0.0055610000011511148 -0.049670996487140656 0.00059300074726343147
      vertex 0.0071170000331476331 -0.046427997171878815 0.00024400065094232551
    endloop
  endfacet
  facet normal 0.053708484145248946 -0.13228348797705911 -0.98975576661085596
    outer loop
      vertex 0.0071170000331476331 -0.046427997171878815 0.00024400065094232551
      vertex 0.0055610000011511148 -0.049670996487140656 0.00059300074726343147
      vertex 0.0039930001106113196 -0.043468999087810517 -0.00032099922746419915
    endloop
  endfacet
  facet normal 0.33126854939726358 0.17262005965733901 -0.92761169849464975
    outer loop
      vertex 0.0071170000331476331 -0.046427997171878815 0.00024400065094232551
      vertex 0.0039930001106113196 -0.043468999087810517 -0.00032099922746419915
      vertex 0.0042379999971017242 -0.040456997573375703 0.00032700105011463157
    endloop
  endfacet
  facet normal 0.82497786656957439 0.053929738989806075 -0.56258608489972906
    outer loop
      vertex 0.0031260000281035901 -0.037132995545864106 -0.00098499869555234917
      vertex 0.0042379999971017242 -0.040456997573375703 0.00032700105011463157
      vertex 0.0039930001106113196 -0.043468999087810517 -0.00032099922746419915
    endloop
  endfacet
  facet normal 0.83684775147427382 0.18067192796018697 0.51676251344268509
    outer loop
      vertex 0.0097890000063925973 -0.052510993897914887 0.0023120005652308463
      vertex 0.0074960000086575747 -0.045739995658397675 0.003658001035451889
      vertex 0.0076670000301674009 -0.05099399608373642 0.0052180008068680762
    endloop
  endfacet
  facet normal 0.58787465426714836 0.24778000749800005 0.77007042454217911
    outer loop
      vertex 0.0051660000202246011 -0.044938998639583588 0.0051790007427334785
      vertex 0.0076670000301674009 -0.05099399608373642 0.0052180008068680762
      vertex 0.0074960000086575747 -0.045739995658397675 0.003658001035451889
    endloop
  endfacet
  facet normal 0.5680249050299202 0.10142321118646146 0.81673804827397178
    outer loop
      vertex 0.0074960000086575747 -0.045739995658397675 0.003658001035451889
      vertex 0.0061499999968218618 -0.039014997303485871 0.0037590011060237884
      vertex 0.0051660000202246011 -0.044938998639583588 0.0051790007427334785
    endloop
  endfacet
  facet normal 0.77318251769278523 0.023482655447357868 0.63374865619375198
    outer loop
      vertex 0.0046969999996945263 -0.038132997572422028 0.0054990008510649203
      vertex 0.0051660000202246011 -0.044938998639583588 0.0051790007427334785
      vertex 0.0061499999968218618 -0.039014997303485871 0.0037590011060237884
    endloop
  endfacet
  facet normal 0.69535717785942397 -0.28834564745188629 0.65828199336980953
    outer loop
      vertex 0.0097890000063925973 -0.052510993897914887 0.0023120005652308463
      vertex 0.0076670000301674009 -0.05099399608373642 0.0052180008068680762
      vertex 0.0053809999693185092 -0.05679899674654007 0.0050900007635354995
    endloop
  endfacet
  facet normal 0.75714496058637359 -0.5509127130045659 0.35103659539798315
    outer loop
      vertex 0.01051299993135035 -0.052452000200748444 0.00084300125390291206
      vertex 0.0097890000063925973 -0.052510993897914887 0.0023120005652308463
      vertex 0.0053809999693185092 -0.05679899674654007 0.0050900007635354995
    endloop
  endfacet
  facet normal 0.64018845961559867 -0.76811443771722654 -0.012607408352071673
    outer loop
      vertex 0.0053809999693185092 -0.05679899674654007 0.0050900007635354995
      vertex 0.0057279999922029675 -0.056450995028018952 0.0015080009624361991
      vertex 0.01051299993135035 -0.052452000200748444 0.00084300125390291206
    endloop
  endfacet
  facet normal -0.025419422269068837 -0.134315041462644 -0.99061259966164117
    outer loop
      vertex 0.0057279999922029675 -0.056450995028018952 0.0015080009624361991
      vertex 0.0055610000011511148 -0.049670996487140656 0.00059300074726343147
      vertex 0.01051299993135035 -0.052452000200748444 0.00084300125390291206
    endloop
  endfacet
  facet normal 0.8741826933350233 -0.0034041043239942037 -0.48558524560294852
    outer loop
      vertex 0.0042379999971017242 -0.040456997573375703 0.00032700105011463157
      vertex 0.0040510000865906478 -0.033131996512413026 -6.0999110341072166e-05
      vertex 0.0061499999968218618 -0.039014997303485871 0.0037590011060237884
    endloop
  endfacet
  facet normal 0.95112818769968055 0.17347312396176748 -0.25546476435325988
    outer loop
      vertex 0.0047000000225380064 -0.032133998692035676 0.0030330007001757621
      vertex 0.0061499999968218618 -0.039014997303485871 0.0037590011060237884
      vertex 0.0040510000865906478 -0.033131996512413026 -6.0999110341072166e-05
    endloop
  endfacet
  facet normal 0.792681299973648 -0.042818746188858441 -0.60813066987852338
    outer loop
      vertex 0.0030809999182820321 -0.03066599589586258 -0.0014989993497729302
      vertex 0.0040510000865906478 -0.033131996512413026 -6.0999110341072166e-05
      vertex 0.0031260000281035901 -0.037132995545864106 -0.00098499869555234917
    endloop
  endfacet
  facet normal 0.74163002348122631 -0.016588354519811457 -0.67060400741835791
    outer loop
      vertex 0.0042379999971017242 -0.040456997573375703 0.00032700105011463157
      vertex 0.0031260000281035901 -0.037132995545864106 -0.00098499869555234917
      vertex 0.0040510000865906478 -0.033131996512413026 -6.0999110341072166e-05
    endloop
  endfacet
  facet normal 0.96319844269911237 0.10178205383785807 0.24877534744936461
    outer loop
      vertex 0.0039129999671131373 -0.031446995556354523 0.0057990008071064948
      vertex 0.0046969999996945263 -0.038132997572422028 0.0054990008510649203
      vertex 0.0047000000225380064 -0.032133998692035676 0.0030330007001757621
    endloop
  endfacet
  facet normal 0.80107246964969658 0.22723212620627173 0.55375848453013576
    outer loop
      vertex 0.0061499999968218618 -0.039014997303485871 0.0037590011060237884
      vertex 0.0047000000225380064 -0.032133998692035676 0.0030330007001757621
      vertex 0.0046969999996945263 -0.038132997572422028 0.0054990008510649203
    endloop
  endfacet
  facet normal -0.38332792885581896 -0.095889056675100823 -0.91862124282484747
    outer loop
      vertex 0.0012310000341385604 -0.043550001800060273 0.00084000053256750098
      vertex 0.0039930001106113196 -0.043468999087810517 -0.00032099922746419915
      vertex 0.0030440001022070647 -0.049878003418445588 0.00074400073289871207
    endloop
  endfacet
  facet normal -0.046263533728307486 -0.15707905039189782 -0.98650182836878175
    outer loop
      vertex 0.0055610000011511148 -0.049670996487140656 0.00059300074726343147
      vertex 0.0030440001022070647 -0.049878003418445588 0.00074400073289871207
      vertex 0.0039930001106113196 -0.043468999087810517 -0.00032099922746419915
    endloop
  endfacet
  facet normal -0.42951887484381174 -0.12741979773792741 -0.89402333934709555
    outer loop
      vertex -9.400004334747785e-05 -0.037125999450683594 0.00056100050359964362
      vertex 0.0031260000281035901 -0.037132995545864106 -0.00098499869555234917
      vertex 0.0012310000341385604 -0.043550001800060273 0.00084000053256750098
    endloop
  endfacet
  facet normal -0.37957430649381163 -0.1476520025532021 -0.91330292455010298
    outer loop
      vertex 0.0031260000281035901 -0.037132995545864106 -0.00098499869555234917
      vertex 0.0039930001106113196 -0.043468999087810517 -0.00032099922746419915
      vertex 0.0012310000341385604 -0.043550001800060273 0.00084000053256750098
    endloop
  endfacet
  facet normal -0.048291456250863715 -0.13475544016909319 -0.98970142295442054
    outer loop
      vertex 0.0055610000011511148 -0.049670996487140656 0.00059300074726343147
      vertex 0.0057279999922029675 -0.056450995028018952 0.0015080009624361991
      vertex 0.0030440001022070647 -0.049878003418445588 0.00074400073289871207
    endloop
  endfacet
  facet normal -0.24779878559825608 -0.18166987548457519 -0.95162588142475857
    outer loop
      vertex -0.00068599989451467985 -0.030655997216701508 -0.00051999957859516152
      vertex 0.0030809999182820321 -0.03066599589586258 -0.0014989993497729302
      vertex -9.400004334747785e-05 -0.037125999450683594 0.00056100050359964362
    endloop
  endfacet
  facet normal -0.43175213465333934 -0.074450524528522591 -0.89891446401741293
    outer loop
      vertex 0.0031260000281035901 -0.037132995545864106 -0.00098499869555234917
      vertex -9.400004334747785e-05 -0.037125999450683594 0.00056100050359964362
      vertex 0.0030809999182820321 -0.03066599589586258 -0.0014989993497729302
    endloop
  endfacet
  facet normal 0.85660359393424734 0.51278638757127737 0.057274807555600507
    outer loop
      vertex 0.0084540000855922691 -0.052927004516124726 0.010754000818356872
      vertex 0.0076670000301674009 -0.05099399608373642 0.0052180008068680762
      vertex 0.0049610000308603049 -0.047073001384735108 0.010584000804461539
    endloop
  endfacet
  facet normal 0.90823106913562957 0.3763212084500509 0.18302642740174044
    outer loop
      vertex 0.0051660000202246011 -0.044938998639583588 0.0051790007427334785
      vertex 0.0049610000308603049 -0.047073001384735108 0.010584000804461539
      vertex 0.0076670000301674009 -0.05099399608373642 0.0052180008068680762
    endloop
  endfacet
  facet normal 0.91660976247620796 0.35875658326735177 0.17640934582851703
    outer loop
      vertex 0.0049610000308603049 -0.047073001384735108 0.010584000804461539
      vertex 0.0051660000202246011 -0.044938998639583588 0.0051790007427334785
      vertex 0.0025089999865740538 -0.040524999022483826 0.010008000842295587
    endloop
  endfacet
  facet normal 0.89044155507144185 0.040045647461581832 0.4533323098140426
    outer loop
      vertex 0.0046969999996945263 -0.038132997572422028 0.0054990008510649203
      vertex 0.0025089999865740538 -0.040524999022483826 0.010008000842295587
      vertex 0.0051660000202246011 -0.044938998639583588 0.0051790007427334785
    endloop
  endfacet
  facet normal 0.81243833062019899 -0.50479856107664789 -0.29175738495196646
    outer loop
      vertex 0.0084540000855922691 -0.052927004516124726 0.010754000818356872
      vertex 0.0048779999809339643 -0.056886004626750947 0.0076460006684064864
      vertex 0.0076670000301674009 -0.05099399608373642 0.0052180008068680762
    endloop
  endfacet
  facet normal 0.9159843964292459 -0.3644143641958974 0.1678533784761275
    outer loop
      vertex 0.0053809999693185092 -0.05679899674654007 0.0050900007635354995
      vertex 0.0076670000301674009 -0.05099399608373642 0.0052180008068680762
      vertex 0.0048779999809339643 -0.056886004626750947 0.0076460006684064864
    endloop
  endfacet
  facet normal 0.9103592674366392 -0.061249324657831894 0.40926094905473853
    outer loop
      vertex 0.0025089999865740538 -0.040524999022483826 0.010008000842295587
      vertex 0.0046969999996945263 -0.038132997572422028 0.0054990008510649203
      vertex 0.0028550000600516797 -0.033331001520156861 0.010315000851638615
    endloop
  endfacet
  facet normal 0.95859148294765684 0.1004473434757622 0.26648208196588824
    outer loop
      vertex 0.0039129999671131373 -0.031446995556354523 0.0057990008071064948
      vertex 0.0028550000600516797 -0.033331001520156861 0.010315000851638615
      vertex 0.0046969999996945263 -0.038132997572422028 0.0054990008510649203
    endloop
  endfacet
  facet normal -0.34101580525464215 -0.9400384028445179 -0.006001811731124961
    outer loop
      vertex 0.00011000011302530772 -0.055566998541355134 0.0075490006282925605
      vertex 0.0037360000163316727 -0.056851001799106599 0.0026320011392235755
      vertex 0.004029999926686287 -0.056999998509883881 0.0092640008814632892
    endloop
  endfacet
  facet normal 0.069615715527097749 -0.99724815418757407 -0.025490608488747075
    outer loop
      vertex 0.0037360000163316727 -0.056851001799106599 0.0026320011392235755
      vertex 0.0053809999693185092 -0.05679899674654007 0.0050900007635354995
      vertex 0.004029999926686287 -0.056999998509883881 0.0092640008814632892
    endloop
  endfacet
  facet normal 0.11055823064684235 -0.99379632332231915 -0.012072505426801952
    outer loop
      vertex 0.004029999926686287 -0.056999998509883881 0.0092640008814632892
      vertex 0.0053809999693185092 -0.05679899674654007 0.0050900007635354995
      vertex 0.0048779999809339643 -0.056886004626750947 0.0076460006684064864
    endloop
  endfacet
  facet normal 0.152118515991188 -0.98504055461622553 -0.080963342655783158
    outer loop
      vertex 0.0053809999693185092 -0.05679899674654007 0.0050900007635354995
      vertex 0.0037360000163316727 -0.056851001799106599 0.0026320011392235755
      vertex 0.0057279999922029675 -0.056450995028018952 0.0015080009624361991
    endloop
  endfacet
  facet normal -0.73194201399295356 -0.24480537195451438 -0.6358704412175098
    outer loop
      vertex 0.0011420000549405814 -0.050942005932331086 0.0033430007323622703
      vertex 0.0030440001022070647 -0.049878003418445588 0.00074400073289871207
      vertex 0.0037360000163316727 -0.056851001799106599 0.0026320011392235755
    endloop
  endfacet
  facet normal -0.42985874361898357 -0.27547036911583661 -0.8598473912698078
    outer loop
      vertex 0.0037360000163316727 -0.056851001799106599 0.0026320011392235755
      vertex 0.0030440001022070647 -0.049878003418445588 0.00074400073289871207
      vertex 0.0057279999922029675 -0.056450995028018952 0.0015080009624361991
    endloop
  endfacet
  facet normal 0.9998472973163639 0.013692748660400175 0.010857747615676932
    outer loop
      vertex 0.0046039999900385738 -0.025085995316505433 0.0029850012660026549
      vertex 0.0047000000225380064 -0.032133998692035676 0.0030330007001757621
      vertex 0.0046509999986737967 -0.025629999458789826 -0.00065699899196624764
    endloop
  endfacet
  facet normal 0.98008539752612633 -0.092352031706086482 -0.17579452720666025
    outer loop
      vertex 0.0047000000225380064 -0.032133998692035676 0.0030330007001757621
      vertex 0.0040510000865906478 -0.033131996512413026 -6.0999110341072166e-05
      vertex 0.0046509999986737967 -0.025629999458789826 -0.00065699899196624764
    endloop
  endfacet
  facet normal 0.63314984016271547 -0.068480610406925643 -0.77099395970410967
    outer loop
      vertex 0.003008000060915947 -0.024202997207641602 -0.0021329990550875665
      vertex 0.0046509999986737967 -0.025629999458789826 -0.00065699899196624764
      vertex 0.0030809999182820321 -0.03066599589586258 -0.0014989993497729302
    endloop
  endfacet
  facet normal 0.72414242008051899 -0.11197852572266143 -0.68049876209799842
    outer loop
      vertex 0.0040510000865906478 -0.033131996512413026 -6.0999110341072166e-05
      vertex 0.0030809999182820321 -0.03066599589586258 -0.0014989993497729302
      vertex 0.0046509999986737967 -0.025629999458789826 -0.00065699899196624764
    endloop
  endfacet
  facet normal 0.96302988965770475 0.014390835388760397 0.2690099170712531
    outer loop
      vertex 0.0037350000087171794 -0.024731995880603791 0.0060770010612905025
      vertex 0.0039129999671131373 -0.031446995556354523 0.0057990008071064948
      vertex 0.0046039999900385738 -0.025085995316505433 0.0029850012660026549
    endloop
  endfacet
  facet normal 0.96268906281359756 0.014952811138584082 0.27019656137362436
    outer loop
      vertex 0.0047000000225380064 -0.032133998692035676 0.0030330007001757621
      vertex 0.0046039999900385738 -0.025085995316505433 0.0029850012660026549
      vertex 0.0039129999671131373 -0.031446995556354523 0.0057990008071064948
    endloop
  endfacet
  facet normal -0.24927492540329713 -0.1438318996188559 -0.95769222416035726
    outer loop
      vertex -0.00068599989451467985 -0.030655997216701508 -0.00051999957859516152
      vertex -0.00056599991209805006 -0.024118999361991883 -0.0015329991430044175
      vertex 0.0030809999182820321 -0.03066599589586258 -0.0014989993497729302
    endloop
  endfacet
  facet normal -0.16700581159036054 -0.098125305376222716 -0.98106089685598419
    outer loop
      vertex 0.003008000060915947 -0.024202997207641602 -0.0021329990550875665
      vertex 0.0030809999182820321 -0.03066599589586258 -0.0014989993497729302
      vertex -0.00056599991209805006 -0.024118999361991883 -0.0015329991430044175
    endloop
  endfacet
  facet normal 0.96711591402309471 0.053107284157379753 0.24872962270847701
    outer loop
      vertex 0.0028550000600516797 -0.033331001520156861 0.010315000851638615
      vertex 0.0039129999671131373 -0.031446995556354523 0.0057990008071064948
      vertex 0.0024769999757409096 -0.026245998561382294 0.010272000873461366
    endloop
  endfacet
  facet normal 0.95644438184263214 0.013280529057028109 0.29161236597515983
    outer loop
      vertex 0.0037350000087171794 -0.024731995880603791 0.0060770010612905025
      vertex 0.0024769999757409096 -0.026245998561382294 0.010272000873461366
      vertex 0.0039129999671131373 -0.031446995556354523 0.0057990008071064948
    endloop
  endfacet
  facet normal -0.78273612419605176 -0.10088378849314796 -0.61412264336841782
    outer loop
      vertex 0.0011420000549405814 -0.050942005932331086 0.0033430007323622703
      vertex 5.0000119954348235e-06 -0.044329995632171632 0.0037060004696249961
      vertex 0.0030440001022070647 -0.049878003418445588 0.00074400073289871207
    endloop
  endfacet
  facet normal -0.86663898289619945 -0.24167389579525025 -0.43649811158330054
    outer loop
      vertex 0.0012310000341385604 -0.043550001800060273 0.00084000053256750098
      vertex 0.0030440001022070647 -0.049878003418445588 0.00074400073289871207
      vertex 5.0000119954348235e-06 -0.044329995632171632 0.0037060004696249961
    endloop
  endfacet
  facet normal -0.84920289322567366 -0.19644307204152689 -0.49016789530122484
    outer loop
      vertex -9.400004334747785e-05 -0.037125999450683594 0.00056100050359964362
      vertex 0.0012310000341385604 -0.043550001800060273 0.00084000053256750098
      vertex -0.0017380004543811082 -0.037924001336097718 0.0037290004119277
    endloop
  endfacet
  facet normal -0.86894383361860073 -0.23486596208033733 -0.43563125906239458
    outer loop
      vertex 5.0000119954348235e-06 -0.044329995632171632 0.0037060004696249961
      vertex -0.0017380004543811082 -0.037924001336097718 0.0037290004119277
      vertex 0.0012310000341385604 -0.043550001800060273 0.00084000053256750098
    endloop
  endfacet
  facet normal -0.84841041186695476 -0.16183540796795567 -0.50399312868687962
    outer loop
      vertex -0.00068599989451467985 -0.030655997216701508 -0.00051999957859516152
      vertex -9.400004334747785e-05 -0.037125999450683594 0.00056100050359964362
      vertex -0.0028690004516392946 -0.031403998255729676 0.0033950011283159255
    endloop
  endfacet
  facet normal -0.85561972677598852 -0.17340413733628676 -0.48769446204200545
    outer loop
      vertex -0.0028690004516392946 -0.031403998255729676 0.0033950011283159255
      vertex -9.400004334747785e-05 -0.037125999450683594 0.00056100050359964362
      vertex -0.0017380004543811082 -0.037924001336097718 0.0037290004119277
    endloop
  endfacet
  facet normal -0.83821257552567086 -0.068453138659501797 -0.54103035593050097
    outer loop
      vertex -0.00056599991209805006 -0.024118999361991883 -0.0015329991430044175
      vertex -0.00068599989451467985 -0.030655997216701508 -0.00051999957859516152
      vertex -0.0034450001809746026 -0.02475600165128708 0.0030080012083053588
    endloop
  endfacet
  facet normal -0.86014864878323927 -0.10359776403536473 -0.49941145890261718
    outer loop
      vertex -0.0028690004516392946 -0.031403998255729676 0.0033950011283159255
      vertex -0.0034450001809746026 -0.02475600165128708 0.0030080012083053588
      vertex -0.00068599989451467985 -0.030655997216701508 -0.00051999957859516152
    endloop
  endfacet
  facet normal -0.18693897343591961 -0.083118082418727923 0.97884891816140773
    outer loop
      vertex 0.0084540000855922691 -0.052927004516124726 0.010754000818356872
      vertex 0.0049610000308603049 -0.047073001384735108 0.010584000804461539
      vertex 0.0032709999680519105 -0.050655993044376374 0.0099570008032023906
    endloop
  endfacet
  facet normal -0.27917749202402364 -0.036235466253348086 0.95955558407659669
    outer loop
      vertex 0.0023209999520331622 -0.044290000915527344 0.0099210008783265947
      vertex 0.0032709999680519105 -0.050655993044376374 0.0099570008032023906
      vertex 0.0049610000308603049 -0.047073001384735108 0.010584000804461539
    endloop
  endfacet
  facet normal -0.25317935137685216 -0.0097114112512699923 0.96737061384347689
    outer loop
      vertex 0.0049610000308603049 -0.047073001384735108 0.010584000804461539
      vertex 0.0025089999865740538 -0.040524999022483826 0.010008000842295587
      vertex 0.0023209999520331622 -0.044290000915527344 0.0099210008783265947
    endloop
  endfacet
  facet normal -0.15722806625791708 -0.014966562765729389 0.98744890357920578
    outer loop
      vertex 0.0014580001328140498 -0.037929000675678254 0.0098800007989630102
      vertex 0.0023209999520331622 -0.044290000915527344 0.0099210008783265947
      vertex 0.0025089999865740538 -0.040524999022483826 0.010008000842295587
    endloop
  endfacet
  facet normal 0.60385725785188826 -0.75228537244489513 0.2634826949631488
    outer loop
      vertex 0.0084540000855922691 -0.052927004516124726 0.010754000818356872
      vertex 0.004029999926686287 -0.056999998509883881 0.0092640008814632892
      vertex 0.0048779999809339643 -0.056886004626750947 0.0076460006684064864
    endloop
  endfacet
  facet normal -0.20634781166906691 -0.1306169906039954 0.9697214973305186
    outer loop
      vertex 0.0084540000855922691 -0.052927004516124726 0.010754000818356872
      vertex 0.0032709999680519105 -0.050655993044376374 0.0099570008032023906
      vertex 0.004029999926686287 -0.056999998509883881 0.0092640008814632892
    endloop
  endfacet
  facet normal -0.21086414424712174 -0.02837383670442916 0.97710349403816965
    outer loop
      vertex 0.0004300002213567496 -0.031528996646404267 0.0098440008740872144
      vertex 0.0014580001328140498 -0.037929000675678254 0.0098800007989630102
      vertex 0.0028550000600516797 -0.033331001520156861 0.010315000851638615
    endloop
  endfacet
  facet normal -0.19890618478378608 -0.032232617781967558 0.97948832969345789
    outer loop
      vertex 0.0025089999865740538 -0.040524999022483826 0.010008000842295587
      vertex 0.0028550000600516797 -0.033331001520156861 0.010315000851638615
      vertex 0.0014580001328140498 -0.037929000675678254 0.0098800007989630102
    endloop
  endfacet
  facet normal -0.12949000654661011 -0.030122039109302341 0.99112310081263688
    outer loop
      vertex -0.00031100006587803358 -0.025119001388549805 0.0099420008054003119
      vertex 0.0004300002213567496 -0.031528996646404267 0.0098440008740872144
      vertex 0.0024769999757409096 -0.026245998561382294 0.010272000873461366
    endloop
  endfacet
  facet normal -0.19380150021342993 -0.0043856966237509664 0.98103095984792876
    outer loop
      vertex 0.0028550000600516797 -0.033331001520156861 0.010315000851638615
      vertex 0.0024769999757409096 -0.026245998561382294 0.010272000873461366
      vertex 0.0004300002213567496 -0.031528996646404267 0.0098440008740872144
    endloop
  endfacet
  facet normal -0.80471822905224577 -0.29100349962895145 -0.51744133487258248
    outer loop
      vertex 0.0037360000163316727 -0.056851001799106599 0.0026320011392235755
      vertex 0.00011000011302530772 -0.055566998541355134 0.0075490006282925605
      vertex 0.0011420000549405814 -0.050942005932331086 0.0033430007323622703
    endloop
  endfacet
  facet normal -0.98532874477704058 0.085578396630133863 -0.1476604305368131
    outer loop
      vertex 0.00069300012849271304 -0.049397992312908173 0.0072340007908642291
      vertex 0.0011420000549405814 -0.050942005932331086 0.0033430007323622703
      vertex 0.00011000011302530772 -0.055566998541355134 0.0075490006282925605
    endloop
  endfacet
  facet normal -0.44167174735488174 -0.14947689678034798 0.88463705829984463
    outer loop
      vertex 0.004029999926686287 -0.056999998509883881 0.0092640008814632892
      vertex 0.0032709999680519105 -0.050655993044376374 0.0099570008032023906
      vertex 0.00011000011302530772 -0.055566998541355134 0.0075490006282925605
    endloop
  endfacet
  facet normal -0.69838164129213609 0.10217219663387749 0.70839531713663262
    outer loop
      vertex 0.00069300012849271304 -0.049397992312908173 0.0072340007908642291
      vertex 0.00011000011302530772 -0.055566998541355134 0.0075490006282925605
      vertex 0.0032709999680519105 -0.050655993044376374 0.0099570008032023906
    endloop
  endfacet
  facet normal -0.98883352350087939 -0.1477541201407532 -0.019416044454725369
    outer loop
      vertex -0.00022099984623491758 -0.043348001658916474 0.007743000941351056
      vertex 5.0000119954348235e-06 -0.044329995632171632 0.0037060004696249961
      vertex 0.00069300012849271304 -0.049397992312908173 0.0072340007908642291
    endloop
  endfacet
  facet normal -0.98485561810743849 -0.16674903539829952 -0.047478107333292136
    outer loop
      vertex 0.0011420000549405814 -0.050942005932331086 0.0033430007323622703
      vertex 0.00069300012849271304 -0.049397992312908173 0.0072340007908642291
      vertex 5.0000119954348235e-06 -0.044329995632171632 0.0037060004696249961
    endloop
  endfacet
  facet normal 0.99003444883586211 -0.13685161158584808 0.033217864540437625
    outer loop
      vertex 0.0046509999986737967 -0.025629999458789826 -0.00065699899196624764
      vertex 0.0056429999852553011 -0.01857900094985962 -0.0011739994361996652
      vertex 0.0046039999900385738 -0.025085995316505433 0.0029850012660026549
    endloop
  endfacet
  facet normal 0.98903232163736354 -0.14664062187467228 0.017652047269817159
    outer loop
      vertex 0.0056549999893177301 -0.018092999577522278 0.0021910012736916541
      vertex 0.0046039999900385738 -0.025085995316505433 0.0029850012660026549
      vertex 0.0056429999852553011 -0.01857900094985962 -0.0011739994361996652
    endloop
  endfacet
  facet normal 0.62633472536058443 -0.16348230680845469 -0.76221935633258975
    outer loop
      vertex 0.0033659999929368497 -0.017837996006011964 -0.0032039995267987252
      vertex 0.0056429999852553011 -0.01857900094985962 -0.0011739994361996652
      vertex 0.003008000060915947 -0.024202997207641602 -0.0021329990550875665
    endloop
  endfacet
  facet normal 0.59081153098303396 -0.14136342969197552 -0.79432872011731104
    outer loop
      vertex 0.0046509999986737967 -0.025629999458789826 -0.00065699899196624764
      vertex 0.003008000060915947 -0.024202997207641602 -0.0021329990550875665
      vertex 0.0056429999852553011 -0.01857900094985962 -0.0011739994361996652
    endloop
  endfacet
  facet normal 0.95355231079113112 -0.11154165947771302 0.2798150260187115
    outer loop
      vertex 0.0056549999893177301 -0.018092999577522278 0.0021910012736916541
      vertex 0.0045000000130385161 -0.017945001244544984 0.0061860007271170615
      vertex 0.0046039999900385738 -0.025085995316505433 0.0029850012660026549
    endloop
  endfacet
  facet normal 0.95323725882577504 -0.11195311433778619 0.2807226898139748
    outer loop
      vertex 0.0037350000087171794 -0.024731995880603791 0.0060770010612905025
      vertex 0.0046039999900385738 -0.025085995316505433 0.0029850012660026549
      vertex 0.0045000000130385161 -0.017945001244544984 0.0061860007271170615
    endloop
  endfacet
  facet normal -0.20166425770874835 -0.15148136446423902 -0.9676698421377159
    outer loop
      vertex 0.0033659999929368497 -0.017837996006011964 -0.0032039995267987252
      vertex 0.003008000060915947 -0.024202997207641602 -0.0021329990550875665
      vertex -0.00040800010599195951 -0.01759200018644333 -0.0024559994190931321
    endloop
  endfacet
  facet normal -0.16713134738456198 -0.13408254749619483 -0.97677478631379067
    outer loop
      vertex -0.00056599991209805006 -0.024118999361991883 -0.0015329991430044175
      vertex -0.00040800010599195951 -0.01759200018644333 -0.0024559994190931321
      vertex 0.003008000060915947 -0.024202997207641602 -0.0021329990550875665
    endloop
  endfacet
  facet normal 0.96132325747447844 -0.046665878482100881 0.27144039939579978
    outer loop
      vertex 0.0024769999757409096 -0.026245998561382294 0.010272000873461366
      vertex 0.0037350000087171794 -0.024731995880603791 0.0060770010612905025
      vertex 0.0028989999294281006 -0.019035997211933137 0.010017000794410705
    endloop
  endfacet
  facet normal 0.92782571852787665 -0.11030313302466438 0.35633222543459736
    outer loop
      vertex 0.0045000000130385161 -0.017945001244544984 0.0061860007271170615
      vertex 0.0028989999294281006 -0.019035997211933137 0.010017000794410705
      vertex 0.0037350000087171794 -0.024731995880603791 0.0060770010612905025
    endloop
  endfacet
  facet normal -0.80774517713988814 -0.063331627681127933 -0.58612015299127018
    outer loop
      vertex -0.00040800010599195951 -0.01759200018644333 -0.0024559994190931321
      vertex -0.00056599991209805006 -0.024118999361991883 -0.0015329991430044175
      vertex -0.0040819996763020753 -0.018135996878147126 0.0026660009324550628
    endloop
  endfacet
  facet normal -0.83267508371603571 -0.10817988378091732 -0.54309236572027042
    outer loop
      vertex -0.0040819996763020753 -0.018135996878147126 0.0026660009324550628
      vertex -0.00056599991209805006 -0.024118999361991883 -0.0015329991430044175
      vertex -0.0034450001809746026 -0.02475600165128708 0.0030080012083053588
    endloop
  endfacet
  facet normal -0.1010558180254979 0.041071275263644465 0.99403263125081331
    outer loop
      vertex 0.0024769999757409096 -0.026245998561382294 0.010272000873461366
      vertex 0.0028989999294281006 -0.019035997211933137 0.010017000794410705
      vertex -0.00031100006587803358 -0.025119001388549805 0.0099420008054003119
    endloop
  endfacet
  facet normal 0.29228133747153295 -0.1658491717507207 0.94184163849102132
    outer loop
      vertex -0.00031100006587803358 -0.025119001388549805 0.0099420008054003119
      vertex 0.0028989999294281006 -0.019035997211933137 0.010017000794410705
      vertex 0.00062300006113946444 -0.018838996410369874 0.010758000848814845
    endloop
  endfacet
  facet normal -0.97207417897269233 -0.22653668205425662 0.061261099063066461
    outer loop
      vertex -0.0016039998997002839 -0.037313999950885773 0.0081110009495168923
      vertex -0.0017380004543811082 -0.037924001336097718 0.0037290004119277
      vertex -0.00022099984623491758 -0.043348001658916474 0.007743000941351056
    endloop
  endfacet
  facet normal -0.96486419090797615 -0.26256429214379157 0.0098532022473250616
    outer loop
      vertex -0.0017380004543811082 -0.037924001336097718 0.0037290004119277
      vertex 5.0000119954348235e-06 -0.044329995632171632 0.0037060004696249961
      vertex -0.00022099984623491758 -0.043348001658916474 0.007743000941351056
    endloop
  endfacet
  facet normal -0.98433334147795815 -0.16800849217685665 0.053488497934570951
    outer loop
      vertex -0.0017380004543811082 -0.037924001336097718 0.0037290004119277
      vertex -0.0016039998997002839 -0.037313999950885773 0.0081110009495168923
      vertex -0.0028690004516392946 -0.031403998255729676 0.0033950011283159255
    endloop
  endfacet
  facet normal -0.98492653832694932 -0.16160535190076014 0.061671908810444778
    outer loop
      vertex -0.0028690004516392946 -0.031403998255729676 0.0033950011283159255
      vertex -0.0016039998997002839 -0.037313999950885773 0.0081110009495168923
      vertex -0.002618999944999814 -0.03121800196170807 0.0078750007823109626
    endloop
  endfacet
  facet normal -0.99407340587592719 -0.081972444487622045 0.071404356134328828
    outer loop
      vertex -0.0034450001809746026 -0.02475600165128708 0.0030080012083053588
      vertex -0.0028690004516392946 -0.031403998255729676 0.0033950011283159255
      vertex -0.0030869997832924127 -0.025060000240802766 0.00764300087839365
    endloop
  endfacet
  facet normal -0.99557508246178505 -0.073454397338168234 0.058606370753498643
    outer loop
      vertex -0.002618999944999814 -0.03121800196170807 0.0078750007823109626
      vertex -0.0030869997832924127 -0.025060000240802766 0.00764300087839365
      vertex -0.0028690004516392946 -0.031403998255729676 0.0033950011283159255
    endloop
  endfacet
  facet normal -0.99194101989308547 -0.090887527335916082 0.088274970564867702
    outer loop
      vertex -0.0040819996763020753 -0.018135996878147126 0.0026660009324550628
      vertex -0.0034450001809746026 -0.02475600165128708 0.0030080012083053588
      vertex -0.0035869998652487993 -0.01888899725675583 0.0074530008286237716
    endloop
  endfacet
  facet normal -0.99434615542103744 -0.07835959640548 0.071662380999883993
    outer loop
      vertex -0.0030869997832924127 -0.025060000240802766 0.00764300087839365
      vertex -0.0035869998652487993 -0.01888899725675583 0.0074530008286237716
      vertex -0.0034450001809746026 -0.02475600165128708 0.0030080012083053588
    endloop
  endfacet
  facet normal -0.746311095571912 -0.10765794274417126 0.65683294374623502
    outer loop
      vertex 0.0032709999680519105 -0.050655993044376374 0.0099570008032023906
      vertex 0.0023209999520331622 -0.044290000915527344 0.0099210008783265947
      vertex 0.00069300012849271304 -0.049397992312908173 0.0072340007908642291
    endloop
  endfacet
  facet normal -0.67604124120948206 -0.16259862629361557 0.71870016481935795
    outer loop
      vertex -0.00022099984623491758 -0.043348001658916474 0.007743000941351056
      vertex 0.00069300012849271304 -0.049397992312908173 0.0072340007908642291
      vertex 0.0023209999520331622 -0.044290000915527344 0.0099210008783265947
    endloop
  endfacet
  facet normal -0.51833606468880922 -0.16991861663901645 0.8381261168597488
    outer loop
      vertex -0.0016039998997002839 -0.037313999950885773 0.0081110009495168923
      vertex -0.00022099984623491758 -0.043348001658916474 0.007743000941351056
      vertex 0.0014580001328140498 -0.037929000675678254 0.0098800007989630102
    endloop
  endfacet
  facet normal -0.66636339700425506 -0.085631657491722607 0.74069362247029646
    outer loop
      vertex 0.0023209999520331622 -0.044290000915527344 0.0099210008783265947
      vertex 0.0014580001328140498 -0.037929000675678254 0.0098800007989630102
      vertex -0.00022099984623491758 -0.043348001658916474 0.007743000941351056
    endloop
  endfacet
  facet normal -0.54577250192105764 -0.058512061816435708 0.83588797979682583
    outer loop
      vertex -0.002618999944999814 -0.03121800196170807 0.0078750007823109626
      vertex -0.0016039998997002839 -0.037313999950885773 0.0081110009495168923
      vertex 0.0004300002213567496 -0.031528996646404267 0.0098440008740872144
    endloop
  endfacet
  facet normal -0.51032665601809346 -0.077153289379283993 0.85651274018274048
    outer loop
      vertex -0.0016039998997002839 -0.037313999950885773 0.0081110009495168923
      vertex 0.0014580001328140498 -0.037929000675678254 0.0098800007989630102
      vertex 0.0004300002213567496 -0.031528996646404267 0.0098440008740872144
    endloop
  endfacet
  facet normal -0.5463844463703178 -0.075914485923454372 0.83408694246557957
    outer loop
      vertex 0.0004300002213567496 -0.031528996646404267 0.0098440008740872144
      vertex -0.00031100006587803358 -0.025119001388549805 0.0099420008054003119
      vertex -0.002618999944999814 -0.03121800196170807 0.0078750007823109626
    endloop
  endfacet
  facet normal -0.63795909397320172 -0.019481271996128455 0.7698237944220121
    outer loop
      vertex -0.0030869997832924127 -0.025060000240802766 0.00764300087839365
      vertex -0.002618999944999814 -0.03121800196170807 0.0078750007823109626
      vertex -0.00031100006587803358 -0.025119001388549805 0.0099420008054003119
    endloop
  endfacet
  facet normal -0.61738181809466919 -0.010386443847438859 0.78659507528990102
    outer loop
      vertex 0.00062300006113946444 -0.018838996410369874 0.010758000848814845
      vertex -0.0035869998652487993 -0.01888899725675583 0.0074530008286237716
      vertex -0.00031100006587803358 -0.025119001388549805 0.0099420008054003119
    endloop
  endfacet
  facet normal -0.63793745692647552 -0.02799361679735566 0.76957920870355123
    outer loop
      vertex -0.0030869997832924127 -0.025060000240802766 0.00764300087839365
      vertex -0.00031100006587803358 -0.025119001388549805 0.0099420008054003119
      vertex -0.0035869998652487993 -0.01888899725675583 0.0074530008286237716
    endloop
  endfacet
  facet normal 0.94293547840418368 -0.3300153192925212 0.044300932258010461
    outer loop
      vertex 0.0056429999852553011 -0.01857900094985962 -0.0011739994361996652
      vertex 0.0079799999687820665 -0.011900002479553223 -0.0011619993448257447
      vertex 0.0056549999893177301 -0.018092999577522278 0.0021910012736916541
    endloop
  endfacet
  facet normal 0.86507578142686747 -0.44750167065136537 -0.22668512777183189
    outer loop
      vertex 0.0079799999687820665 -0.011900002479553223 -0.0011619993448257447
      vertex 0.0087979999110102645 -0.011885995388031007 0.0019320004656910895
      vertex 0.0056549999893177301 -0.018092999577522278 0.0021910012736916541
    endloop
  endfacet
  facet normal 0.630989053057463 -0.21944787970635032 -0.74410714484812834
    outer loop
      vertex 0.0079799999687820665 -0.011900002479553223 -0.0011619993448257447
      vertex 0.0056429999852553011 -0.01857900094985962 -0.0011739994361996652
      vertex 0.0047320000333711506 -0.011616001248359681 -0.0039999990686774255
    endloop
  endfacet
  facet normal 0.60474463535908174 -0.23030336061109793 -0.76239378807519531
    outer loop
      vertex 0.0047320000333711506 -0.011616001248359681 -0.0039999990686774255
      vertex 0.0056429999852553011 -0.01857900094985962 -0.0011739994361996652
      vertex 0.0033659999929368497 -0.017837996006011964 -0.0032039995267987252
    endloop
  endfacet
  facet normal 0.89204866733364652 -0.44992019200087657 0.042673128994247106
    outer loop
      vertex 0.0087979999110102645 -0.011885995388031007 0.0019320004656910895
      vertex 0.0081869999151676885 -0.012621002614498139 0.0069550007618963718
      vertex 0.0056549999893177301 -0.018092999577522278 0.0021910012736916541
    endloop
  endfacet
  facet normal 0.7796488104362933 -0.5755633806099405 0.24672763786436597
    outer loop
      vertex 0.0045000000130385161 -0.017945001244544984 0.0061860007271170615
      vertex 0.0056549999893177301 -0.018092999577522278 0.0021910012736916541
      vertex 0.0081869999151676885 -0.012621002614498139 0.0069550007618963718
    endloop
  endfacet
  facet normal -0.014833444765848662 -0.23814580242941191 -0.97111613399306174
    outer loop
      vertex -0.001427000181749463 -0.011264996945858002 -0.0039919990077614785
      vertex 0.0047320000333711506 -0.011616001248359681 -0.0039999990686774255
      vertex -0.00040800010599195951 -0.01759200018644333 -0.0024559994190931321
    endloop
  endfacet
  facet normal -0.19886849748854493 -0.0812855189392305 -0.97664936651667811
    outer loop
      vertex 0.0033659999929368497 -0.017837996006011964 -0.0032039995267987252
      vertex -0.00040800010599195951 -0.01759200018644333 -0.0024559994190931321
      vertex 0.0047320000333711506 -0.011616001248359681 -0.0039999990686774255
    endloop
  endfacet
  facet normal 0.74960558661222931 -0.56816256739047155 0.33953315233715137
    outer loop
      vertex 0.0081869999151676885 -0.012621002614498139 0.0069550007618963718
      vertex 0.005967000000353437 -0.012902001261711121 0.011386000843136571
      vertex 0.0045000000130385161 -0.017945001244544984 0.0061860007271170615
    endloop
  endfacet
  facet normal 0.85174592280065831 -0.47524807007906339 0.22060860109837305
    outer loop
      vertex 0.0028989999294281006 -0.019035997211933137 0.010017000794410705
      vertex 0.0045000000130385161 -0.017945001244544984 0.0061860007271170615
      vertex 0.005967000000353437 -0.012902001261711121 0.011386000843136571
    endloop
  endfacet
  facet normal -0.85466633140189607 -0.2483352923648407 -0.45593315796736433
    outer loop
      vertex -0.001427000181749463 -0.011264996945858002 -0.0039919990077614785
      vertex -0.00040800010599195951 -0.01759200018644333 -0.0024559994190931321
      vertex -0.0045129999313503503 -0.011525998234748841 0.0019350011870265006
    endloop
  endfacet
  facet normal -0.80104421662683778 -0.11715112329393651 -0.58702962218244559
    outer loop
      vertex -0.0045129999313503503 -0.011525998234748841 0.0019350011870265006
      vertex -0.00040800010599195951 -0.01759200018644333 -0.0024559994190931321
      vertex -0.0040819996763020753 -0.018135996878147126 0.0026660009324550628
    endloop
  endfacet
  facet normal 0.13654279856581156 -0.28034768713791414 0.95013748398652198
    outer loop
      vertex 0.005967000000353437 -0.012902001261711121 0.011386000843136571
      vertex 0.0006259998511523009 -0.012608999729156495 0.012240000841207802
      vertex 0.0028989999294281006 -0.019035997211933137 0.010017000794410705
    endloop
  endfacet
  facet normal 0.28442626160905465 -0.22199494020649529 0.93264138243475558
    outer loop
      vertex 0.00062300006113946444 -0.018838996410369874 0.010758000848814845
      vertex 0.0028989999294281006 -0.019035997211933137 0.010017000794410705
      vertex 0.0006259998511523009 -0.012608999729156495 0.012240000841207802
    endloop
  endfacet
  facet normal -0.99790441714237754 -0.064058093552795972 0.0091287949978571831
    outer loop
      vertex -0.0045129999313503503 -0.011525998234748841 0.0019350011870265006
      vertex -0.0040819996763020753 -0.018135996878147126 0.0026660009324550628
      vertex -0.0043849998880177736 -0.012761997401714326 0.0072540009431540965
    endloop
  endfacet
  facet normal -0.98859239922372621 -0.1260813844836407 0.08239267372627869
    outer loop
      vertex -0.0035869998652487993 -0.01888899725675583 0.0074530008286237716
      vertex -0.0043849998880177736 -0.012761997401714326 0.0072540009431540965
      vertex -0.0040819996763020753 -0.018135996878147126 0.0026660009324550628
    endloop
  endfacet
  facet normal -0.69292590614019411 -0.16654265510752553 0.70151067891339092
    outer loop
      vertex 0.0006259998511523009 -0.012608999729156495 0.012240000841207802
      vertex -0.0043849998880177736 -0.012761997401714326 0.0072540009431540965
      vertex 0.00062300006113946444 -0.018838996410369874 0.010758000848814845
    endloop
  endfacet
  facet normal -0.61616362949233283 -0.054731771031886339 0.78571420690385163
    outer loop
      vertex 0.00062300006113946444 -0.018838996410369874 0.010758000848814845
      vertex -0.0043849998880177736 -0.012761997401714326 0.0072540009431540965
      vertex -0.0035869998652487993 -0.01888899725675583 0.0074530008286237716
    endloop
  endfacet
  facet normal 0.86251843183547783 0.051187441566880092 -0.50343003542687581
    outer loop
      vertex 0.0069070000057108701 -0.0049529991745948798 -0.0022939995825290681
      vertex 0.0088869998902082435 -0.0051919988989830024 0.0010740009173750877
      vertex 0.0079799999687820665 -0.011900002479553223 -0.0011619993448257447
    endloop
  endfacet
  facet normal 0.96583021645601075 -0.045543958086467974 -0.25514258927578837
    outer loop
      vertex 0.0087979999110102645 -0.011885995388031007 0.0019320004656910895
      vertex 0.0079799999687820665 -0.011900002479553223 -0.0011619993448257447
      vertex 0.0088869998902082435 -0.0051919988989830024 0.0010740009173750877
    endloop
  endfacet
  facet normal 0.65676755671750908 -0.021387435797000028 -0.75378972799670252
    outer loop
      vertex 0.0069070000057108701 -0.0049529991745948798 -0.0022939995825290681
      vertex 0.0079799999687820665 -0.011900002479553223 -0.0011619993448257447
      vertex 0.0047320000333711506 -0.011616001248359681 -0.0039999990686774255
    endloop
  endfacet
  facet normal 0.98736704797149333 0.0071609285512239705 0.15828781912182363
    outer loop
      vertex 0.0088869998902082435 -0.0051919988989830024 0.0010740009173750877
      vertex 0.0079779999535530798 -0.005917998373508454 0.0067770008035004138
      vertex 0.0087979999110102645 -0.011885995388031007 0.0019320004656910895
    endloop
  endfacet
  facet normal 0.99148743546057327 0.034250406089750926 0.1256167783638113
    outer loop
      vertex 0.0081869999151676885 -0.012621002614498139 0.0069550007618963718
      vertex 0.0087979999110102645 -0.011885995388031007 0.0019320004656910895
      vertex 0.0079779999535530798 -0.005917998373508454 0.0067770008035004138
    endloop
  endfacet
  facet normal 0.055907413841887701 0.23048557828169461 -0.97146835217708682
    outer loop
      vertex 0.0069070000057108701 -0.0049529991745948798 -0.0022939995825290681
      vertex 0.0047320000333711506 -0.011616001248359681 -0.0039999990686774255
      vertex -0.00070499980635941022 -0.0049190021753311164 -0.002723999597132206
    endloop
  endfacet
  facet normal 0.0098307901651132675 0.19485278060936478 -0.98078323265313216
    outer loop
      vertex -0.001427000181749463 -0.011264996945858002 -0.0039919990077614785
      vertex -0.00070499980635941022 -0.0049190021753311164 -0.002723999597132206
      vertex 0.0047320000333711506 -0.011616001248359681 -0.0039999990686774255
    endloop
  endfacet
  facet normal 0.89399854164754833 -0.059041098556137553 0.44416298383965019
    outer loop
      vertex 0.005967000000353437 -0.012902001261711121 0.011386000843136571
      vertex 0.0081869999151676885 -0.012621002614498139 0.0069550007618963718
      vertex 0.006464999987045303 -0.005917998373508454 0.011312000847188756
    endloop
  endfacet
  facet normal 0.94791611408934273 0.037954182646153557 0.31625072437770402
    outer loop
      vertex 0.0079779999535530798 -0.005917998373508454 0.0067770008035004138
      vertex 0.006464999987045303 -0.005917998373508454 0.011312000847188756
      vertex 0.0081869999151676885 -0.012621002614498139 0.0069550007618963718
    endloop
  endfacet
  facet normal -0.87440479990907938 0.1887910402624102 -0.44696105983922058
    outer loop
      vertex -0.001427000181749463 -0.011264996945858002 -0.0039919990077614785
      vertex -0.0045129999313503503 -0.011525998234748841 0.0019350011870265006
      vertex -0.00070499980635941022 -0.0049190021753311164 -0.002723999597132206
    endloop
  endfacet
  facet normal -0.86524724794441854 0.16481226140409322 -0.4734808532723141
    outer loop
      vertex -0.0037879997659474611 -0.0049819968342781074 0.002888001225888729
      vertex -0.00070499980635941022 -0.0049190021753311164 -0.002723999597132206
      vertex -0.0045129999313503503 -0.011525998234748841 0.0019350011870265006
    endloop
  endfacet
  facet normal 0.13636599076735684 0.00077297262708679343 0.99065822515908819
    outer loop
      vertex 0.006464999987045303 -0.005917998373508454 0.011312000847188756
      vertex 0.00097499994747340685 -0.0062909967899322516 0.012068000841187313
      vertex 0.005967000000353437 -0.012902001261711121 0.011386000843136571
    endloop
  endfacet
  facet normal 0.15883179692863833 0.018099979161906119 0.98713973227641816
    outer loop
      vertex 0.0006259998511523009 -0.012608999729156495 0.012240000841207802
      vertex 0.005967000000353437 -0.012902001261711121 0.011386000843136571
      vertex 0.00097499994747340685 -0.0062909967899322516 0.012068000841187313
    endloop
  endfacet
  facet normal -0.99375843742155912 0.10099061166610135 0.047382110640702871
    outer loop
      vertex -0.0043849998880177736 -0.012761997401714326 0.0072540009431540965
      vertex -0.0037390000913292169 -0.006638000130653382 0.007750000761821866
      vertex -0.0045129999313503503 -0.011525998234748841 0.0019350011870265006
    endloop
  endfacet
  facet normal -0.99360032052698866 0.10348804939772638 0.045261757373296879
    outer loop
      vertex -0.0037879997659474611 -0.0049819968342781074 0.002888001225888729
      vertex -0.0045129999313503503 -0.011525998234748841 0.0019350011870265006
      vertex -0.0037390000913292169 -0.006638000130653382 0.007750000761821866
    endloop
  endfacet
  facet normal -0.70549525661784196 0.017036100487885942 0.70850985467380212
    outer loop
      vertex -0.0043849998880177736 -0.012761997401714326 0.0072540009431540965
      vertex 0.0006259998511523009 -0.012608999729156495 0.012240000841207802
      vertex -0.0037390000913292169 -0.006638000130653382 0.007750000761821866
    endloop
  endfacet
  facet normal -0.67663597776025775 0.057361129119262895 0.73408000549434882
    outer loop
      vertex -0.0037390000913292169 -0.006638000130653382 0.007750000761821866
      vertex 0.0006259998511523009 -0.012608999729156495 0.012240000841207802
      vertex 0.00097499994747340685 -0.0062909967899322516 0.012068000841187313
    endloop
  endfacet
  facet normal -0.010905492399358003 0.96302478856587037 0.26919198881688156
    outer loop
      vertex 0.0069070000057108701 -0.0049529991745948798 -0.0022939995825290681
      vertex -0.00070499980635941022 -0.0049190021753311164 -0.002723999597132206
      vertex 0.0033060000017285348 -0.0066619984507560737 0.0036740011572837829
    endloop
  endfacet
  facet normal -0.17528231259191254 0.96940610283984507 0.17183689554136822
    outer loop
      vertex 0.0088869998902082435 -0.0051919988989830024 0.0010740009173750877
      vertex 0.0069070000057108701 -0.0049529991745948798 -0.0022939995825290681
      vertex 0.0033060000017285348 -0.0066619984507560737 0.0036740011572837829
    endloop
  endfacet
  facet normal -0.21442182692299749 0.97261920468300267 0.089639069723014775
    outer loop
      vertex 0.0079779999535530798 -0.005917998373508454 0.0067770008035004138
      vertex 0.0088869998902082435 -0.0051919988989830024 0.0010740009173750877
      vertex 0.0033060000017285348 -0.0066619984507560737 0.0036740011572837829
    endloop
  endfacet
  facet normal -0.12914683085231934 0.99068895927986267 -0.043086912650881777
    outer loop
      vertex 0.006464999987045303 -0.005917998373508454 0.011312000847188756
      vertex 0.0079779999535530798 -0.005917998373508454 0.0067770008035004138
      vertex 0.0033060000017285348 -0.0066619984507560737 0.0036740011572837829
    endloop
  endfacet
  facet normal 0.21496941614566803 0.96806869500561066 0.12896182331265468
    outer loop
      vertex -0.00070499980635941022 -0.0049190021753311164 -0.002723999597132206
      vertex -0.0037879997659474611 -0.0049819968342781074 0.002888001225888729
      vertex 0.0033060000017285348 -0.0066619984507560737 0.0036740011572837829
    endloop
  endfacet
  facet normal -0.076580675796162082 0.99492666718364753 -0.065240532044447616
    outer loop
      vertex 0.00097499994747340685 -0.0062909967899322516 0.012068000841187313
      vertex 0.006464999987045303 -0.005917998373508454 0.011312000847188756
      vertex 0.0033060000017285348 -0.0066619984507560737 0.0036740011572837829
    endloop
  endfacet
  facet normal 0.18550072443478322 0.93073913891268156 0.31514145479490718
    outer loop
      vertex -0.0037879997659474611 -0.0049819968342781074 0.002888001225888729
      vertex -0.0037390000913292169 -0.006638000130653382 0.007750000761821866
      vertex 0.0033060000017285348 -0.0066619984507560737 0.0036740011572837829
    endloop
  endfacet
  facet normal -0.026364058505246285 0.99832773578210676 -0.051445781044745252
    outer loop
      vertex -0.0037390000913292169 -0.006638000130653382 0.007750000761821866
      vertex 0.00097499994747340685 -0.0062909967899322516 0.012068000841187313
      vertex 0.0033060000017285348 -0.0066619984507560737 0.0036740011572837829
    endloop
  endfacet
endsolid OBJECT
