solid OBJECT
  facet normal 0.94786445373467287 0.2519020471898491 -0.19518795036536718
    outer loop
      vertex 0.0059444997518876309 -0.048693993240594854 0.0060160005800426013
      vertex 0.0076994998439768071 -0.055974983721971502 0.0051420009098947055
      vertex 0.0054964996002236123 -0.049610988348722448 0.0026570003814995295
    endloop
  endfacet
  facet normal 0.82125255659953411 0.4305034656496643 0.37444759892721668
    outer loop
      vertex 0.0084184998472774143 -0.056067996770143499 0.0036720004267990596
      vertex 0.0054964996002236123 -0.049610988348722448 0.0026570003814995295
      vertex 0.0076994998439768071 -0.055974983721971502 0.0051420009098947055
    endloop
  endfacet
  facet normal 0.83585681898424746 0.068837512103915866 -0.54461433609929721
    outer loop
      vertex 0.005124499561599806 -0.041616992205381384 0.0056520006023347384
      vertex 0.0059444997518876309 -0.048693993240594854 0.0060160005800426013
      vertex 0.0030884998909750726 -0.043200993090867987 0.0023270001970231539
    endloop
  endfacet
  facet normal 0.91808946220588461 0.33389585684124423 -0.21360078691512643
    outer loop
      vertex 0.0054964996002236123 -0.049610988348722448 0.0026570003814995295
      vertex 0.0030884998909750726 -0.043200993090867987 0.0023270001970231539
      vertex 0.0059444997518876309 -0.048693993240594854 0.0060160005800426013
    endloop
  endfacet
  facet normal -0.020174710670399991 -0.1641583184489592 -0.98622767530290678
    outer loop
      vertex 0.0084184998472774143 -0.056067996770143499 0.0036720004267990596
      vertex 0.0036944998487451817 -0.052831986099481573 0.0032300003208220011
      vertex 0.0054964996002236123 -0.049610988348722448 0.0026570003814995295
    endloop
  endfacet
  facet normal 0.039023418077256379 -0.19613355900911431 -0.97980038776884848
    outer loop
      vertex 0.0026084999613085534 -0.046348990052938452 0.001889000121504069
      vertex 0.0054964996002236123 -0.049610988348722448 0.0026570003814995295
      vertex 0.0036944998487451817 -0.052831986099481573 0.0032300003208220011
    endloop
  endfacet
  facet normal 0.33843053897301578 0.07886211100834517 -0.93768093599994951
    outer loop
      vertex 0.0054964996002236123 -0.049610988348722448 0.0026570003814995295
      vertex 0.0026084999613085534 -0.046348990052938452 0.001889000121504069
      vertex 0.0030884998909750726 -0.043200993090867987 0.0023270001970231539
    endloop
  endfacet
  facet normal 0.82408380959257443 -0.047111464797699634 -0.56450543367801598
    outer loop
      vertex 0.0026084999613085534 -0.046348990052938452 0.001889000121504069
      vertex 0.0022314996517816331 -0.039762989729642859 0.00078900012746453349
      vertex 0.0030884998909750726 -0.043200993090867987 0.0023270001970231539
    endloop
  endfacet
  facet normal 0.85112327083325501 0.14457425416767619 0.50466569417581941
    outer loop
      vertex 0.0076994998439768071 -0.055974983721971502 0.0051420009098947055
      vertex 0.0059444997518876309 -0.048693993240594854 0.0060160005800426013
      vertex 0.0057154998708137984 -0.054047995358705511 0.0079360002987086779
    endloop
  endfacet
  facet normal 0.60924812349987423 0.24446168892654349 0.7543574793551554
    outer loop
      vertex 0.0036904998182872083 -0.047587991803884497 0.0074780000708997256
      vertex 0.0057154998708137984 -0.054047995358705511 0.0079360002987086779
      vertex 0.0059444997518876309 -0.048693993240594854 0.0060160005800426013
    endloop
  endfacet
  facet normal 0.57790907423449722 0.10856380855404574 0.80884794701455909
    outer loop
      vertex 0.0059444997518876309 -0.048693993240594854 0.0060160005800426013
      vertex 0.005124499561599806 -0.041616992205381384 0.0056520006023347384
      vertex 0.0036904998182872083 -0.047587991803884497 0.0074780000708997256
    endloop
  endfacet
  facet normal 0.77580061679664947 0.0066327570563389296 0.63094326964614644
    outer loop
      vertex 0.0037524998247245099 -0.040475987941026678 0.0073270010165870196
      vertex 0.0036904998182872083 -0.047587991803884497 0.0074780000708997256
      vertex 0.005124499561599806 -0.041616992205381384 0.0056520006023347384
    endloop
  endfacet
  facet normal 0.67795453004333917 -0.28467207581229481 0.67774587010651288
    outer loop
      vertex 0.0076994998439768071 -0.055974983721971502 0.0051420009098947055
      vertex 0.0057154998708137984 -0.054047995358705511 0.0079360002987086779
      vertex 0.0029844995647290494 -0.059901991039514532 0.0082090007476508624
    endloop
  endfacet
  facet normal 0.72575768684249553 -0.56617010605581997 0.39080326380132974
    outer loop
      vertex 0.0084184998472774143 -0.056067996770143499 0.0036720004267990596
      vertex 0.0076994998439768071 -0.055974983721971502 0.0051420009098947055
      vertex 0.0029844995647290494 -0.059901991039514532 0.0082090007476508624
    endloop
  endfacet
  facet normal 0.5974075472467939 -0.80100691162293169 0.038628357781070231
    outer loop
      vertex 0.0029844995647290494 -0.059901991039514532 0.0082090007476508624
      vertex 0.0033404999471822526 -0.059809991270303717 0.0046109998933970935
      vertex 0.0084184998472774143 -0.056067996770143499 0.0036720004267990596
    endloop
  endfacet
  facet normal -0.039805707320643847 -0.19204448820630365 -0.9805786150096697
    outer loop
      vertex 0.0033404999471822526 -0.059809991270303717 0.0046109998933970935
      vertex 0.0036944998487451817 -0.052831986099481573 0.0032300003208220011
      vertex 0.0084184998472774143 -0.056067996770143499 0.0036720004267990596
    endloop
  endfacet
  facet normal 0.8691339709847048 -0.10073072833499119 -0.48421014120881489
    outer loop
      vertex 0.0030884998909750726 -0.043200993090867987 0.0023270001970231539
      vertex 0.003469499765298679 -0.035620988458394995 0.0014340006150305278
      vertex 0.005124499561599806 -0.041616992205381384 0.0056520006023347384
    endloop
  endfacet
  facet normal 0.96072652644649481 0.077794659283057524 -0.26636916557493184
    outer loop
      vertex 0.0042094998120883256 -0.034425989836454382 0.0044520007781684405
      vertex 0.005124499561599806 -0.041616992205381384 0.0056520006023347384
      vertex 0.003469499765298679 -0.035620988458394995 0.0014340006150305278
    endloop
  endfacet
  facet normal 0.78427290701796259 -0.14030121813255267 -0.60434392154477434
    outer loop
      vertex 0.0026854998491326119 -0.033089988976716986 -0.00017099973186850484
      vertex 0.003469499765298679 -0.035620988458394995 0.0014340006150305278
      vertex 0.0022314996517816331 -0.039762989729642859 0.00078900012746453349
    endloop
  endfacet
  facet normal 0.73502790988439926 -0.11565413572166097 -0.66810036115949434
    outer loop
      vertex 0.0022314996517816331 -0.039762989729642859 0.00078900012746453349
      vertex 0.003469499765298679 -0.035620988458394995 0.0014340006150305278
      vertex 0.0030884998909750726 -0.043200993090867987 0.0023270001970231539
    endloop
  endfacet
  facet normal 0.96940157022472306 0.04173014988357529 0.24190740012768394
    outer loop
      vertex 0.0034914999328175332 -0.033467994183301916 0.0071640009395778186
      vertex 0.0037524998247245099 -0.040475987941026678 0.0073270010165870196
      vertex 0.0042094998120883256 -0.034425989836454382 0.0044520007781684405
    endloop
  endfacet
  facet normal 0.81959218307434378 0.19423564681045952 0.53901870742262159
    outer loop
      vertex 0.005124499561599806 -0.041616992205381384 0.0056520006023347384
      vertex 0.0042094998120883256 -0.034425989836454382 0.0044520007781684405
      vertex 0.0037524998247245099 -0.040475987941026678 0.0073270010165870196
    endloop
  endfacet
  facet normal -0.39384916610517329 -0.12377360636934849 -0.91080345230163962
    outer loop
      vertex -0.00014649982903210861 -0.046147988289594641 0.0030530006028711802
      vertex 0.0026084999613085534 -0.046348990052938452 0.001889000121504069
      vertex 0.0011705001875379826 -0.052847989946603766 0.0033940006382763392
    endloop
  endfacet
  facet normal -0.062024647540554312 -0.21212403789183237 -0.97527244175457695
    outer loop
      vertex 0.0036944998487451817 -0.052831986099481573 0.0032300003208220011
      vertex 0.0011705001875379826 -0.052847989946603766 0.0033940006382763392
      vertex 0.0026084999613085534 -0.046348990052938452 0.001889000121504069
    endloop
  endfacet
  facet normal -0.44221274096493035 -0.14891760360490086 -0.88446110093370234
    outer loop
      vertex -0.00097149982456176025 -0.039409988671541205 0.0023310002274811274
      vertex 0.0022314996517816331 -0.039762989729642859 0.00078900012746453349
      vertex -0.00014649982903210861 -0.046147988289594641 0.0030530006028711802
    endloop
  endfacet
  facet normal -0.39400578759446869 -0.17331039954880326 -0.90262004450948052
    outer loop
      vertex 0.0026084999613085534 -0.046348990052938452 0.001889000121504069
      vertex -0.00014649982903210861 -0.046147988289594641 0.0030530006028711802
      vertex 0.0022314996517816331 -0.039762989729642859 0.00078900012746453349
    endloop
  endfacet
  facet normal -0.062445330671414806 -0.19071367198054626 -0.97965752995474631
    outer loop
      vertex 0.0036944998487451817 -0.052831986099481573 0.0032300003208220011
      vertex 0.0033404999471822526 -0.059809991270303717 0.0046109998933970935
      vertex 0.0011705001875379826 -0.052847989946603766 0.0033940006382763392
    endloop
  endfacet
  facet normal -0.2652019057123311 -0.21833880459593483 -0.93914648251173594
    outer loop
      vertex -0.0010655000746628497 -0.032731988579034796 0.00080500024929642741
      vertex 0.0026854998491326119 -0.033089988976716986 -0.00017099973186850484
      vertex -0.00097149982456176025 -0.039409988671541205 0.0023310002274811274
    endloop
  endfacet
  facet normal -0.44045214477644828 -0.098412365029249896 -0.89236590845413633
    outer loop
      vertex 0.0022314996517816331 -0.039762989729642859 0.00078900012746453349
      vertex -0.00097149982456176025 -0.039409988671541205 0.0023310002274811274
      vertex 0.0026854998491326119 -0.033089988976716986 -0.00017099973186850484
    endloop
  endfacet
  facet normal 0.90053452123577449 0.43412606216529531 0.023919410768421256
    outer loop
      vertex 0.0063784997969487424 -0.055734985619783392 0.013593000765889884
      vertex 0.0057154998708137984 -0.054047995358705511 0.0079360002987086779
      vertex 0.0033485000080981995 -0.049417988508939734 0.013018000345677138
    endloop
  endfacet
  facet normal 0.93882386890528491 0.3055554688956777 0.15888863584805202
    outer loop
      vertex 0.0036904998182872083 -0.047587991803884497 0.0074780000708997256
      vertex 0.0033485000080981995 -0.049417988508939734 0.013018000345677138
      vertex 0.0057154998708137984 -0.054047995358705511 0.0079360002987086779
    endloop
  endfacet
  facet normal 0.9454788617452099 0.28735469799761154 0.15328731040658178
    outer loop
      vertex 0.0033485000080981995 -0.049417988508939734 0.013018000345677138
      vertex 0.0036904998182872083 -0.047587991803884497 0.0074780000708997256
      vertex 0.0014084996714809682 -0.042486989051103582 0.011991001140326262
    endloop
  endfacet
  facet normal 0.89319960734872339 0.0017603183823833002 0.44965693891152048
    outer loop
      vertex 0.0037524998247245099 -0.040475987941026678 0.0073270010165870196
      vertex 0.0014084996714809682 -0.042486989051103582 0.011991001140326262
      vertex 0.0036904998182872083 -0.047587991803884497 0.0074780000708997256
    endloop
  endfacet
  facet normal 0.78063870340066477 -0.56794045179222807 -0.26085792679343445
    outer loop
      vertex 0.0063784997969487424 -0.055734985619783392 0.013593000765889884
      vertex 0.0024894997536757733 -0.059781991988420477 0.010766000892966986
      vertex 0.0057154998708137984 -0.054047995358705511 0.0079360002987086779
    endloop
  endfacet
  facet normal 0.8927810059510356 -0.40754746554292842 0.19195608545339873
    outer loop
      vertex 0.0029844995647290494 -0.059901991039514532 0.0082090007476508624
      vertex 0.0057154998708137984 -0.054047995358705511 0.0079360002987086779
      vertex 0.0024894997536757733 -0.059781991988420477 0.010766000892966986
    endloop
  endfacet
  facet normal 0.90561158411452203 -0.099304755465225797 0.412318110516113
    outer loop
      vertex 0.0014084996714809682 -0.042486989051103582 0.011991001140326262
      vertex 0.0037524998247245099 -0.040475987941026678 0.0073270010165870196
      vertex 0.0023124995700636651 -0.035035991221666327 0.011799999918788672
    endloop
  endfacet
  facet normal 0.96481425881403393 0.041969914516739711 0.25956111470053372
    outer loop
      vertex 0.0034914999328175332 -0.033467994183301916 0.0071640009395778186
      vertex 0.0023124995700636651 -0.035035991221666327 0.011799999918788672
      vertex 0.0037524998247245099 -0.040475987941026678 0.0073270010165870196
    endloop
  endfacet
  facet normal -0.42219805380941605 -0.9046930443808523 0.057265162258100161
    outer loop
      vertex -0.0021635005191346858 -0.058065989166498175 0.01057700015231967
      vertex 0.0013274997531989362 -0.059999995976686468 0.0057610007338225848
      vertex 0.0016434993654111173 -0.059727990180253973 0.012387999739497901
    endloop
  endfacet
  facet normal -0.0016044986349074233 -0.99915428891422076 0.041086889982675505
    outer loop
      vertex 0.0013274997531989362 -0.059999995976686468 0.0057610007338225848
      vertex 0.0029844995647290494 -0.059901991039514532 0.0082090007476508624
      vertex 0.0016434993654111173 -0.059727990180253973 0.012387999739497901
    endloop
  endfacet
  facet normal 0.041476445494141936 -0.99763291003772336 0.054847801039194226
    outer loop
      vertex 0.0016434993654111173 -0.059727990180253973 0.012387999739497901
      vertex 0.0029844995647290494 -0.059901991039514532 0.0082090007476508624
      vertex 0.0024894997536757733 -0.059781991988420477 0.010766000892966986
    endloop
  endfacet
  facet normal 0.084247935096947293 -0.9962974121510535 -0.017139194059644966
    outer loop
      vertex 0.0029844995647290494 -0.059901991039514532 0.0082090007476508624
      vertex 0.0013274997531989362 -0.059999995976686468 0.0057610007338225848
      vertex 0.0033404999471822526 -0.059809991270303717 0.0046109998933970935
    endloop
  endfacet
  facet normal -0.71070545589271417 -0.33011516788605122 -0.62122599019671843
    outer loop
      vertex 0.0011705001875379826 -0.052847989946603766 0.0033940006382763392
      vertex 0.0033404999471822526 -0.059809991270303717 0.0046109998933970935
      vertex -0.00079650058750121338 -0.053633996397256842 0.006062000464648009
    endloop
  endfacet
  facet normal -0.48383929909628898 -0.12044606223218907 -0.86682886358425537
    outer loop
      vertex 0.0013274997531989362 -0.059999995976686468 0.0057610007338225848
      vertex -0.00079650058750121338 -0.053633996397256842 0.006062000464648009
      vertex 0.0033404999471822526 -0.059809991270303717 0.0046109998933970935
    endloop
  endfacet
  facet normal 0.9980989709768523 -0.060874024246092777 0.0096331358879019301
    outer loop
      vertex 0.0046604997537651807 -0.02711599424481391 0.0039170006625354296
      vertex 0.0042094998120883256 -0.034425989836454382 0.0044520007781684405
      vertex 0.0046454998723784238 -0.027930990904569616 0.00032100028917193477
    endloop
  endfacet
  facet normal 0.97025515499141379 -0.17290094833919586 -0.16944083414571037
    outer loop
      vertex 0.0042094998120883256 -0.034425989836454382 0.0044520007781684405
      vertex 0.003469499765298679 -0.035620988458394995 0.0014340006150305278
      vertex 0.0046454998723784238 -0.027930990904569616 0.00032100028917193477
    endloop
  endfacet
  facet normal 0.62300523959178244 -0.16374613763251131 -0.76488670654654478
    outer loop
      vertex 0.0031114998332777764 -0.026428991109132757 -0.0012499993331730359
      vertex 0.0046454998723784238 -0.027930990904569616 0.00032100028917193477
      vertex 0.0026854998491326119 -0.033089988976716986 -0.00017099973186850484
    endloop
  endfacet
  facet normal 0.71107281423591406 -0.20603893995696979 -0.67225248833754836
    outer loop
      vertex 0.003469499765298679 -0.035620988458394995 0.0014340006150305278
      vertex 0.0026854998491326119 -0.033089988976716986 -0.00017099973186850484
      vertex 0.0046454998723784238 -0.027930990904569616 0.00032100028917193477
    endloop
  endfacet
  facet normal 0.96268299880717267 -0.040376299758887693 0.26760268725371533
    outer loop
      vertex 0.0038364999986806657 -0.026474990993738165 0.0069780009202659136
      vertex 0.0034914999328175332 -0.033467994183301916 0.0071640009395778186
      vertex 0.0046604997537651807 -0.02711599424481391 0.0039170006625354296
    endloop
  endfacet
  facet normal 0.96237410789370481 -0.039701285553239117 0.2688119870489708
    outer loop
      vertex 0.0046604997537651807 -0.02711599424481391 0.0039170006625354296
      vertex 0.0034914999328175332 -0.033467994183301916 0.0071640009395778186
      vertex 0.0042094998120883256 -0.034425989836454382 0.0044520007781684405
    endloop
  endfacet
  facet normal -0.26385581268177605 -0.18238002096904526 -0.94716294166598913
    outer loop
      vertex -0.0010655000746628497 -0.032731988579034796 0.00080500024929642741
      vertex -0.00044350046072213394 -0.026033991128206244 -0.00065799948200583394
      vertex 0.0026854998491326119 -0.033089988976716986 -0.00017099973186850484
    endloop
  endfacet
  facet normal -0.17828546489057739 -0.14622060368091014 -0.97305386699192598
    outer loop
      vertex 0.0031114998332777764 -0.026428991109132757 -0.0012499993331730359
      vertex 0.0026854998491326119 -0.033089988976716986 -0.00017099973186850484
      vertex -0.00044350046072213394 -0.026033991128206244 -0.00065799948200583394
    endloop
  endfacet
  facet normal 0.96954510540562855 -0.0050509960251499944 0.2448607278089778
    outer loop
      vertex 0.0023124995700636651 -0.035035991221666327 0.011799999918788672
      vertex 0.0034914999328175332 -0.033467994183301916 0.0071640009395778186
      vertex 0.0024854997232177998 -0.027666994482278814 0.011267000284045935
    endloop
  endfacet
  facet normal 0.95614809302274328 -0.039452476503766341 0.29021427653837334
    outer loop
      vertex 0.0038364999986806657 -0.026474990993738165 0.0069780009202659136
      vertex 0.0024854997232177998 -0.027666994482278814 0.011267000284045935
      vertex 0.0034914999328175332 -0.033467994183301916 0.0071640009395778186
    endloop
  endfacet
  facet normal -0.79120352849566911 -0.078611248307820084 -0.60647938805493573
    outer loop
      vertex -0.00079650058750121338 -0.053633996397256842 0.006062000464648009
      vertex -0.0014155004114290927 -0.046670989245176306 0.0059669999741017825
      vertex 0.0011705001875379826 -0.052847989946603766 0.0033940006382763392
    endloop
  endfacet
  facet normal -0.88580488537706115 -0.19553944904662621 -0.42084917596292554
    outer loop
      vertex -0.0014155004114290927 -0.046670989245176306 0.0059669999741017825
      vertex -0.00014649982903210861 -0.046147988289594641 0.0030530006028711802
      vertex 0.0011705001875379826 -0.052847989946603766 0.0033940006382763392
    endloop
  endfacet
  facet normal -0.86464721277913137 -0.15700271805741942 -0.47721624443836991
    outer loop
      vertex -0.00097149982456176025 -0.039409988671541205 0.0023310002274811274
      vertex -0.00014649982903210861 -0.046147988289594641 0.0030530006028711802
      vertex -0.0026575000897428249 -0.039899991005659094 0.0055469995699822909
    endloop
  endfacet
  facet normal -0.887475061454017 -0.18886475144656167 -0.42037854483574355
    outer loop
      vertex -0.0014155004114290927 -0.046670989245176306 0.0059669999741017825
      vertex -0.0026575000897428249 -0.039899991005659094 0.0055469995699822909
      vertex -0.00014649982903210861 -0.046147988289594641 0.0030530006028711802
    endloop
  endfacet
  facet normal -0.86111395545811364 -0.12474759753585402 -0.49286995508380754
    outer loop
      vertex -0.0010655000746628497 -0.032731988579034796 0.00080500024929642741
      vertex -0.00097149982456176025 -0.039409988671541205 0.0023310002274811274
      vertex -0.0032804999441286777 -0.033079990297555914 0.0047630010508000857
    endloop
  endfacet
  facet normal -0.86911778521944594 -0.13412039476229115 -0.47607351861246433
    outer loop
      vertex -0.0032804999441286777 -0.033079990297555914 0.0047630010508000857
      vertex -0.00097149982456176025 -0.039409988671541205 0.0023310002274811274
      vertex -0.0026575000897428249 -0.039899991005659094 0.0055469995699822909
    endloop
  endfacet
  facet normal -0.84361548265322139 -0.038636864073164426 -0.53555588892510952
    outer loop
      vertex -0.00044350046072213394 -0.026033991128206244 -0.00065799948200583394
      vertex -0.0010655000746628497 -0.032731988579034796 0.00080500024929642741
      vertex -0.0033415006414434169 -0.026172989159822455 0.0039170006625354296
    endloop
  endfacet
  facet normal -0.86807509341188593 -0.067900464149249537 -0.49176738318666685
    outer loop
      vertex -0.0032804999441286777 -0.033079990297555914 0.0047630010508000857
      vertex -0.0033415006414434169 -0.026172989159822455 0.0039170006625354296
      vertex -0.0010655000746628497 -0.032731988579034796 0.00080500024929642741
    endloop
  endfacet
  facet normal -0.18769812926090629 -0.00062444308825762866 0.98222656365157723
    outer loop
      vertex 0.0063784997969487424 -0.055734985619783392 0.013593000765889884
      vertex 0.0033485000080981995 -0.049417988508939734 0.013018000345677138
      vertex 0.0013824999391654279 -0.053047993332147589 0.012640000727027655
    endloop
  endfacet
  facet normal -0.27611182778832716 0.049590763914618155 0.95984530768752219
    outer loop
      vertex 0.00092849974181444901 -0.046381988674402228 0.012165000136941672
      vertex 0.0013824999391654279 -0.053047993332147589 0.012640000727027655
      vertex 0.0033485000080981995 -0.049417988508939734 0.013018000345677138
    endloop
  endfacet
  facet normal -0.24800073255044947 0.07371371499639677 0.96595130564427023
    outer loop
      vertex 0.0033485000080981995 -0.049417988508939734 0.013018000345677138
      vertex 0.0014084996714809682 -0.042486989051103582 0.011991001140326262
      vertex 0.00092849974181444901 -0.046381988674402228 0.012165000136941672
    endloop
  endfacet
  facet normal -0.15262492593379312 0.062868330137172912 0.98628251786669496
    outer loop
      vertex 0.00092849974181444901 -0.046381988674402228 0.012165000136941672
      vertex 0.0014084996714809682 -0.042486989051103582 0.011991001140326262
      vertex 0.0005614999740937497 -0.039726988524198523 0.011683999966830016
    endloop
  endfacet
  facet normal 0.56234183728152087 -0.76301781282558967 0.31870907635914081
    outer loop
      vertex 0.0063784997969487424 -0.055734985619783392 0.013593000765889884
      vertex 0.0016434993654111173 -0.059727990180253973 0.012387999739497901
      vertex 0.0024894997536757733 -0.059781991988420477 0.010766000892966986
    endloop
  endfacet
  facet normal -0.21051709768491747 -0.045065385512634268 0.97655090118790866
    outer loop
      vertex 0.0063784997969487424 -0.055734985619783392 0.013593000765889884
      vertex 0.0013824999391654279 -0.053047993332147589 0.012640000727027655
      vertex 0.0016434993654111173 -0.059727990180253973 0.012387999739497901
    endloop
  endfacet
  facet normal -0.20731040789637623 0.053227201360504156 0.97682611544387288
    outer loop
      vertex 3.1500129363849338e-05 -0.033018992394208899 0.011206000518053771
      vertex 0.0005614999740937497 -0.039726988524198523 0.011683999966830016
      vertex 0.0023124995700636651 -0.035035991221666327 0.011799999918788672
    endloop
  endfacet
  facet normal -0.19578510592204301 0.048860813710424861 0.97942881986525687
    outer loop
      vertex 0.0023124995700636651 -0.035035991221666327 0.011799999918788672
      vertex 0.0005614999740937497 -0.039726988524198523 0.011683999966830016
      vertex 0.0014084996714809682 -0.042486989051103582 0.011991001140326262
    endloop
  endfacet
  facet normal -0.12627685789876678 0.046606654128525167 0.99089957864062028
    outer loop
      vertex -0.00020849983546941024 -0.02631299301981925 0.010860001143068076
      vertex 3.1500129363849338e-05 -0.033018992394208899 0.011206000518053771
      vertex 0.0024854997232177998 -0.027666994482278814 0.011267000284045935
    endloop
  endfacet
  facet normal -0.18845383989529169 0.075249466262027595 0.97919490810359089
    outer loop
      vertex 3.1500129363849338e-05 -0.033018992394208899 0.011206000518053771
      vertex 0.0023124995700636651 -0.035035991221666327 0.011799999918788672
      vertex 0.0024854997232177998 -0.027666994482278814 0.011267000284045935
    endloop
  endfacet
  facet normal -0.82876340618142219 -0.25291219271649251 -0.49918597671599557
    outer loop
      vertex 0.0013274997531989362 -0.059999995976686468 0.0057610007338225848
      vertex -0.0021635005191346858 -0.058065989166498175 0.01057700015231967
      vertex -0.00079650058750121338 -0.053633996397256842 0.006062000464648009
    endloop
  endfacet
  facet normal -0.97743938075628845 0.14566702560406561 -0.15294892807217797
    outer loop
      vertex -0.00079650058750121338 -0.053633996397256842 0.006062000464648009
      vertex -0.0021635005191346858 -0.058065989166498175 0.01057700015231967
      vertex -0.0011045001387974475 -0.051736989170312872 0.0098370010368525988
    endloop
  endfacet
  facet normal -0.44713704269820542 -0.051158663630351313 0.89300126325927442
    outer loop
      vertex 0.0016434993654111173 -0.059727990180253973 0.012387999739497901
      vertex 0.0013824999391654279 -0.053047993332147589 0.012640000727027655
      vertex -0.0021635005191346858 -0.058065989166498175 0.01057700015231967
    endloop
  endfacet
  facet normal -0.6859233817348962 0.19668631016241075 0.70058804570450661
    outer loop
      vertex -0.0021635005191346858 -0.058065989166498175 0.01057700015231967
      vertex 0.0013824999391654279 -0.053047993332147589 0.012640000727027655
      vertex -0.0011045001387974475 -0.051736989170312872 0.0098370010368525988
    endloop
  endfacet
  facet normal -0.9975998462496215 -0.068574262958261772 -0.0095977717446744139
    outer loop
      vertex -0.0015435004547616695 -0.045362987667322149 0.0099260000847280032
      vertex -0.0014155004114290927 -0.046670989245176306 0.0059669999741017825
      vertex -0.0011045001387974475 -0.051736989170312872 0.0098370010368525988
    endloop
  endfacet
  facet normal -0.99536422712273709 -0.088984155581225355 -0.036494868404371821
    outer loop
      vertex -0.0011045001387974475 -0.051736989170312872 0.0098370010368525988
      vertex -0.0014155004114290927 -0.046670989245176306 0.0059669999741017825
      vertex -0.00079650058750121338 -0.053633996397256842 0.006062000464648009
    endloop
  endfacet
  facet normal 0.97836494869574642 -0.20261178787428993 0.041838864443875634
    outer loop
      vertex 0.0046454998723784238 -0.027930990904569616 0.00032100028917193477
      vertex 0.0061794996786484237 -0.02073098823428153 -0.00068299990519881185
      vertex 0.0046604997537651807 -0.02711599424481391 0.0039170006625354296
    endloop
  endfacet
  facet normal 0.97671387275125998 -0.21282552673177021 0.027116525341202822
    outer loop
      vertex 0.0062464997231581922 -0.019999989420175543 0.0026410002596676356
      vertex 0.0046604997537651807 -0.02711599424481391 0.0039170006625354296
      vertex 0.0061794996786484237 -0.02073098823428153 -0.00068299990519881185
    endloop
  endfacet
  facet normal 0.60974638668819969 -0.25358387633392987 -0.75093579058674698
    outer loop
      vertex 0.0039554997406521589 -0.019930989593267431 -0.0027589998804032796
      vertex 0.0061794996786484237 -0.02073098823428153 -0.00068299990519881185
      vertex 0.0031114998332777764 -0.026428991109132757 -0.0012499993331730359
    endloop
  endfacet
  facet normal 0.57576473162426089 -0.23199574600997858 -0.78401080837633619
    outer loop
      vertex 0.0046454998723784238 -0.027930990904569616 0.00032100028917193477
      vertex 0.0031114998332777764 -0.026428991109132757 -0.0012499993331730359
      vertex 0.0061794996786484237 -0.02073098823428153 -0.00068299990519881185
    endloop
  endfacet
  facet normal 0.94475969614038124 -0.15919091735173999 0.28650893246362436
    outer loop
      vertex 0.0062464997231581922 -0.019999989420175543 0.0026410002596676356
      vertex 0.0051264995768287892 -0.019490988105535498 0.0066169998012483126
      vertex 0.0046604997537651807 -0.02711599424481391 0.0039170006625354296
    endloop
  endfacet
  facet normal 0.94435681721743614 -0.15956262010560826 0.28762818366771231
    outer loop
      vertex 0.0038364999986806657 -0.026474990993738165 0.0069780009202659136
      vertex 0.0046604997537651807 -0.02711599424481391 0.0039170006625354296
      vertex 0.0051264995768287892 -0.019490988105535498 0.0066169998012483126
    endloop
  endfacet
  facet normal -0.21697992270930505 -0.1939888966758965 -0.95670686268445471
    outer loop
      vertex 0.0039554997406521589 -0.019930989593267431 -0.0027589998804032796
      vertex 0.0031114998332777764 -0.026428991109132757 -0.0012499993331730359
      vertex 0.0002154996677854802 -0.019342989772558203 -0.0020299996845424169
    endloop
  endfacet
  facet normal -0.18104066395030399 -0.18041031140229377 -0.96678663495942085
    outer loop
      vertex -0.00044350046072213394 -0.026033991128206244 -0.00065799948200583394
      vertex 0.0002154996677854802 -0.019342989772558203 -0.0020299996845424169
      vertex 0.0031114998332777764 -0.026428991109132757 -0.0012499993331730359
    endloop
  endfacet
  facet normal 0.95668277949742564 -0.098389524160473876 0.274002848431464
    outer loop
      vertex 0.0024854997232177998 -0.027666994482278814 0.011267000284045935
      vertex 0.0038364999986806657 -0.026474990993738165 0.0069780009202659136
      vertex 0.0034644999600568559 -0.020241991728544226 0.010515000145882369
    endloop
  endfacet
  facet normal 0.9194853502389897 -0.15107601398267839 0.36293625982393635
    outer loop
      vertex 0.0051264995768287892 -0.019490988105535498 0.0066169998012483126
      vertex 0.0034644999600568559 -0.020241991728544226 0.010515000145882369
      vertex 0.0038364999986806657 -0.026474990993738165 0.0069780009202659136
    endloop
  endfacet
  facet normal -0.81310484316837539 -0.039012577081953576 -0.58080851650570375
    outer loop
      vertex 0.0002154996677854802 -0.019342989772558203 -0.0020299996845424169
      vertex -0.00044350046072213394 -0.026033991128206244 -0.00065799948200583394
      vertex -0.0034645004138728831 -0.019285992830991736 0.0031180003993213183
    endloop
  endfacet
  facet normal -0.84120099282509453 -0.077114730335745021 -0.53519548581366083
    outer loop
      vertex -0.0033415006414434169 -0.026172989159822455 0.0039170006625354296
      vertex -0.0034645004138728831 -0.019285992830991736 0.0031180003993213183
      vertex -0.00044350046072213394 -0.026033991128206244 -0.00065799948200583394
    endloop
  endfacet
  facet normal -0.09294232298448378 0.11245047687869868 0.98930107391430699
    outer loop
      vertex 0.0024854997232177998 -0.027666994482278814 0.011267000284045935
      vertex 0.0034644999600568559 -0.020241991728544226 0.010515000145882369
      vertex -0.00020849983546941024 -0.02631299301981925 0.010860001143068076
    endloop
  endfacet
  facet normal 0.28468581342803961 -0.11817629918192858 0.9513087563690763
    outer loop
      vertex 0.0012144995912531163 -0.019817994087934485 0.01124099962040782
      vertex -0.00020849983546941024 -0.02631299301981925 0.010860001143068076
      vertex 0.0034644999600568559 -0.020241991728544226 0.010515000145882369
    endloop
  endfacet
  facet normal -0.98718695742155083 -0.14014190694630865 0.076303060320235941
    outer loop
      vertex -0.0024535003990313266 -0.03897999331355094 0.0098760011009871966
      vertex -0.0026575000897428249 -0.039899991005659094 0.0055469995699822909
      vertex -0.0015435004547616695 -0.045362987667322149 0.0099260000847280032
    endloop
  endfacet
  facet normal -0.98352319440612002 -0.17871688758415546 0.027247021074121396
    outer loop
      vertex -0.0014155004114290927 -0.046670989245176306 0.0059669999741017825
      vertex -0.0015435004547616695 -0.045362987667322149 0.0099260000847280032
      vertex -0.0026575000897428249 -0.039899991005659094 0.0055469995699822909
    endloop
  endfacet
  facet normal -0.9944196321606481 -0.083414396760368409 0.064588184574155577
    outer loop
      vertex -0.0026575000897428249 -0.039899991005659094 0.0055469995699822909
      vertex -0.0024535003990313266 -0.03897999331355094 0.0098760011009871966
      vertex -0.0032804999441286777 -0.033079990297555914 0.0047630010508000857
    endloop
  endfacet
  facet normal -0.99442710031250126 -0.076761965279495359 0.072265779249242657
    outer loop
      vertex -0.0029934998542448733 -0.032602989226579657 0.0092189995907247073
      vertex -0.0032804999441286777 -0.033079990297555914 0.0047630010508000857
      vertex -0.0024535003990313266 -0.03897999331355094 0.0098760011009871966
    endloop
  endfacet
  facet normal -0.99704264926145192 0.00060706323263983017 0.076847817327082305
    outer loop
      vertex -0.0033415006414434169 -0.026172989159822455 0.0039170006625354296
      vertex -0.0032804999441286777 -0.033079990297555914 0.0047630010508000857
      vertex -0.002983500243761227 -0.026199990063905707 0.0085619999431073672
    endloop
  endfacet
  facet normal -0.9979548123005284 0.0080651507759854617 0.063412506252139969
    outer loop
      vertex -0.0029934998542448733 -0.032602989226579657 0.0092189995907247073
      vertex -0.002983500243761227 -0.026199990063905707 0.0085619999431073672
      vertex -0.0032804999441286777 -0.033079990297555914 0.0047630010508000857
    endloop
  endfacet
  facet normal -0.99553423596106649 -0.0068568558843727758 0.094151837777052327
    outer loop
      vertex -0.0034645004138728831 -0.019285992830991736 0.0031180003993213183
      vertex -0.0033415006414434169 -0.026172989159822455 0.0039170006625354296
      vertex -0.0030045006364962314 -0.019778990298509588 0.0079460008405148989
    endloop
  endfacet
  facet normal -0.99703283600588977 0.004113408465932309 0.076867443022680226
    outer loop
      vertex -0.002983500243761227 -0.026199990063905707 0.0085619999431073672
      vertex -0.0030045006364962314 -0.019778990298509588 0.0079460008405148989
      vertex -0.0033415006414434169 -0.026172989159822455 0.0039170006625354296
    endloop
  endfacet
  facet normal -0.74888495967387203 -0.0037827976925512343 0.66268922400766406
    outer loop
      vertex 0.0013824999391654279 -0.053047993332147589 0.012640000727027655
      vertex 0.00092849974181444901 -0.046381988674402228 0.012165000136941672
      vertex -0.0011045001387974475 -0.051736989170312872 0.0098370010368525988
    endloop
  endfacet
  facet normal -0.68306670512412304 -0.057211745242433241 0.72811173081965197
    outer loop
      vertex -0.0015435004547616695 -0.045362987667322149 0.0099260000847280032
      vertex -0.0011045001387974475 -0.051736989170312872 0.0098370010368525988
      vertex 0.00092849974181444901 -0.046381988674402228 0.012165000136941672
    endloop
  endfacet
  facet normal -0.52547323487879227 -0.068271742913336347 0.84806653544730382
    outer loop
      vertex -0.0024535003990313266 -0.03897999331355094 0.0098760011009871966
      vertex -0.0015435004547616695 -0.045362987667322149 0.0099260000847280032
      vertex 0.0005614999740937497 -0.039726988524198523 0.011683999966830016
    endloop
  endfacet
  facet normal -0.66735535038889349 0.0170108307514946 0.74454514164317886
    outer loop
      vertex 0.00092849974181444901 -0.046381988674402228 0.012165000136941672
      vertex 0.0005614999740937497 -0.039726988524198523 0.011683999966830016
      vertex -0.0015435004547616695 -0.045362987667322149 0.0099260000847280032
    endloop
  endfacet
  facet normal -0.54470369964915566 0.040176841167922424 0.8376656260240658
    outer loop
      vertex -0.0029934998542448733 -0.032602989226579657 0.0092189995907247073
      vertex -0.0024535003990313266 -0.03897999331355094 0.0098760011009871966
      vertex 3.1500129363849338e-05 -0.033018992394208899 0.011206000518053771
    endloop
  endfacet
  facet normal -0.5103528866147603 0.020938297812266748 0.85971013650457007
    outer loop
      vertex 0.0005614999740937497 -0.039726988524198523 0.011683999966830016
      vertex 3.1500129363849338e-05 -0.033018992394208899 0.011206000518053771
      vertex -0.0024535003990313266 -0.03897999331355094 0.0098760011009871966
    endloop
  endfacet
  facet normal -0.54658748163455018 0.023627238080501458 0.83706862236084789
    outer loop
      vertex 3.1500129363849338e-05 -0.033018992394208899 0.011206000518053771
      vertex -0.00020849983546941024 -0.02631299301981925 0.010860001143068076
      vertex -0.0029934998542448733 -0.032602989226579657 0.0092189995907247073
    endloop
  endfacet
  facet normal -0.6338329544661041 0.079929256137192928 0.76932899324419368
    outer loop
      vertex -0.00020849983546941024 -0.02631299301981925 0.010860001143068076
      vertex -0.002983500243761227 -0.026199990063905707 0.0085619999431073672
      vertex -0.0029934998542448733 -0.032602989226579657 0.0092189995907247073
    endloop
  endfacet
  facet normal -0.61261496902904256 0.088143979140521148 0.78545116885954191
    outer loop
      vertex 0.0012144995912531163 -0.019817994087934485 0.01124099962040782
      vertex -0.0030045006364962314 -0.019778990298509588 0.0079460008405148989
      vertex -0.00020849983546941024 -0.02631299301981925 0.010860001143068076
    endloop
  endfacet
  facet normal -0.6344269423662624 0.07176096992293092 0.76964460499344456
    outer loop
      vertex -0.002983500243761227 -0.026199990063905707 0.0085619999431073672
      vertex -0.00020849983546941024 -0.02631299301981925 0.010860001143068076
      vertex -0.0030045006364962314 -0.019778990298509588 0.0079460008405148989
    endloop
  endfacet
  facet normal 0.92086498825557217 -0.38426426850144141 0.065944259478114289
    outer loop
      vertex 0.0061794996786484237 -0.02073098823428153 -0.00068299990519881185
      vertex 0.0090274997987871732 -0.013982989937067022 -0.0011319998316466802
      vertex 0.0062464997231581922 -0.019999989420175543 0.0026410002596676356
    endloop
  endfacet
  facet normal 0.83629716738486282 -0.51105038677363346 -0.19858134354106449
    outer loop
      vertex 0.0098604997970251108 -0.013818987756967535 0.0019540008492767817
      vertex 0.0062464997231581922 -0.019999989420175543 0.0026410002596676356
      vertex 0.0090274997987871732 -0.013982989937067022 -0.0011319998316466802
    endloop
  endfacet
  facet normal 0.61123100311131584 -0.3065226877510836 -0.72968520796942715
    outer loop
      vertex 0.0090274997987871732 -0.013982989937067022 -0.0011319998316466802
      vertex 0.0061794996786484237 -0.02073098823428153 -0.00068299990519881185
      vertex 0.0057974997967103238 -0.013636992424726477 -0.0039829994216561311
    endloop
  endfacet
  facet normal 0.58403777158753012 -0.31630383808367141 -0.74756388581352051
    outer loop
      vertex 0.0039554997406521589 -0.019930989593267431 -0.0027589998804032796
      vertex 0.0057974997967103238 -0.013636992424726477 -0.0039829994216561311
      vertex 0.0061794996786484237 -0.02073098823428153 -0.00068299990519881185
    endloop
  endfacet
  facet normal 0.86448503402717047 -0.49739925100999949 0.072523175866293171
    outer loop
      vertex 0.0098604997970251108 -0.013818987756967535 0.0019540008492767817
      vertex 0.0092194997764745469 -0.014194988757371893 0.0070160007439553744
      vertex 0.0062464997231581922 -0.019999989420175543 0.0026410002596676356
    endloop
  endfacet
  facet normal 0.74730926686925248 -0.59919515079485397 0.28721774129616823
    outer loop
      vertex 0.0051264995768287892 -0.019490988105535498 0.0066169998012483126
      vertex 0.0062464997231581922 -0.019999989420175543 0.0026410002596676356
      vertex 0.0092194997764745469 -0.014194988757371893 0.0070160007439553744
    endloop
  endfacet
  facet normal -0.036605085381464599 -0.29137088800976579 -0.95590955291001056
    outer loop
      vertex -0.00031749996695725662 -0.012812988013029089 -0.0039999997839331621
      vertex 0.0057974997967103238 -0.013636992424726477 -0.0039829994216561311
      vertex 0.0002154996677854802 -0.019342989772558203 -0.0020299996845424169
    endloop
  endfacet
  facet normal -0.20901755116096174 -0.12738405401130767 -0.96957978840852432
    outer loop
      vertex 0.0039554997406521589 -0.019930989593267431 -0.0027589998804032796
      vertex 0.0002154996677854802 -0.019342989772558203 -0.0020299996845424169
      vertex 0.0057974997967103238 -0.013636992424726477 -0.0039829994216561311
    endloop
  endfacet
  facet normal 0.71766826834809549 -0.58330757179529558 0.38040049065757287
    outer loop
      vertex 0.0092194997764745469 -0.014194988757371893 0.0070160007439553744
      vertex 0.0070074996970215554 -0.014020987898111334 0.011456001024693251
      vertex 0.0051264995768287892 -0.019490988105535498 0.0066169998012483126
    endloop
  endfacet
  facet normal 0.8236104978487887 -0.5073954342883561 0.253408013086802
    outer loop
      vertex 0.0034644999600568559 -0.020241991728544226 0.010515000145882369
      vertex 0.0051264995768287892 -0.019490988105535498 0.0066169998012483126
      vertex 0.0070074996970215554 -0.014020987898111334 0.011456001024693251
    endloop
  endfacet
  facet normal -0.8745365590931421 -0.20409938020637275 -0.43991959470896685
    outer loop
      vertex -0.00031749996695725662 -0.012812988013029089 -0.0039999997839331621
      vertex 0.0002154996677854802 -0.019342989772558203 -0.0020299996845424169
      vertex -0.0033855000451585506 -0.012452990859746924 0.0019320002160966403
    endloop
  endfacet
  facet normal -0.8106187772017831 -0.091030135080215235 -0.57845545425310307
    outer loop
      vertex -0.0033855000451585506 -0.012452990859746924 0.0019320002160966403
      vertex 0.0002154996677854802 -0.019342989772558203 -0.0020299996845424169
      vertex -0.0034645004138728831 -0.019285992830991736 0.0031180003993213183
    endloop
  endfacet
  facet normal 0.12121117518277713 -0.21559475969559533 0.96893072538887337
    outer loop
      vertex 0.0070074996970215554 -0.014020987898111334 0.011456001024693251
      vertex 0.0017084996275225427 -0.013260991424322119 0.012287999909371138
      vertex 0.0034644999600568559 -0.020241991728544226 0.010515000145882369
    endloop
  endfacet
  facet normal 0.27306074553408211 -0.17171375509654119 0.94654752419464738
    outer loop
      vertex 0.0012144995912531163 -0.019817994087934485 0.01124099962040782
      vertex 0.0034644999600568559 -0.020241991728544226 0.010515000145882369
      vertex 0.0017084996275225427 -0.013260991424322119 0.012287999909371138
    endloop
  endfacet
  facet normal -0.99981485871983955 0.013873657415549067 0.013333038398772886
    outer loop
      vertex -0.0033855000451585506 -0.012452990859746924 0.0019320002160966403
      vertex -0.0034645004138728831 -0.019285992830991736 0.0031180003993213183
      vertex -0.0033264998287340854 -0.01338298723101615 0.0073240002952516085
    endloop
  endfacet
  facet normal -0.9950323263054407 -0.041284136402995879 0.09058857372009918
    outer loop
      vertex -0.0030045006364962314 -0.019778990298509588 0.0079460008405148989
      vertex -0.0033264998287340854 -0.01338298723101615 0.0073240002952516085
      vertex -0.0034645004138728831 -0.019285992830991736 0.0031180003993213183
    endloop
  endfacet
  facet normal -0.7000177129163081 -0.060875263698644426 0.71152610905928226
    outer loop
      vertex 0.0017084996275225427 -0.013260991424322119 0.012287999909371138
      vertex -0.0033264998287340854 -0.01338298723101615 0.0073240002952516085
      vertex 0.0012144995912531163 -0.019817994087934485 0.01124099962040782
    endloop
  endfacet
  facet normal -0.6146134252958303 0.04564174093201917 0.78750693262397453
    outer loop
      vertex -0.0030045006364962314 -0.019778990298509588 0.0079460008405148989
      vertex 0.0012144995912531163 -0.019817994087934485 0.01124099962040782
      vertex -0.0033264998287340854 -0.01338298723101615 0.0073240002952516085
    endloop
  endfacet
  facet normal 0.86134001258557757 -0.04891708440259486 -0.50566837114123153
    outer loop
      vertex 0.0084914998210588212 -0.0067779879271984006 -0.0027419995181262487
      vertex 0.010464499768670064 -0.006945991069078436 0.00063500035181641643
      vertex 0.0090274997987871732 -0.013982989937067022 -0.0011319998316466802
    endloop
  endfacet
  facet normal 0.95867645504500076 -0.13255818873251485 -0.25172957939484431
    outer loop
      vertex 0.0098604997970251108 -0.013818987756967535 0.0019540008492767817
      vertex 0.0090274997987871732 -0.013982989937067022 -0.0011319998316466802
      vertex 0.010464499768670064 -0.006945991069078436 0.00063500035181641643
    endloop
  endfacet
  facet normal 0.64979809785629339 -0.11940135729736803 -0.75067019915398858
    outer loop
      vertex 0.0084914998210588212 -0.0067779879271984006 -0.0027419995181262487
      vertex 0.0090274997987871732 -0.013982989937067022 -0.0011319998316466802
      vertex 0.0057974997967103238 -0.013636992424726477 -0.0039829994216561311
    endloop
  endfacet
  facet normal 0.98590684701435105 -0.056416578199496213 0.15749558315864198
    outer loop
      vertex 0.010464499768670064 -0.006945991069078436 0.00063500035181641643
      vertex 0.0095304997908096968 -0.0072439919412135984 0.0063750012181699282
      vertex 0.0098604997970251108 -0.013818987756967535 0.0019540008492767817
    endloop
  endfacet
  facet normal 0.99183933654842471 -0.033020734258206237 0.1231436623794725
    outer loop
      vertex 0.0092194997764745469 -0.014194988757371893 0.0070160007439553744
      vertex 0.0098604997970251108 -0.013818987756967535 0.0019540008492767817
      vertex 0.0095304997908096968 -0.0072439919412135984 0.0063750012181699282
    endloop
  endfacet
  facet normal 0.067600925096237441 0.15186131018735899 -0.98608734775085294
    outer loop
      vertex 0.0084914998210588212 -0.0067779879271984006 -0.0027419995181262487
      vertex 0.0057974997967103238 -0.013636992424726477 -0.0039829994216561311
      vertex 0.00090049952860863465 -0.006203987747430792 -0.0031740000136196607
    endloop
  endfacet
  facet normal 0.019002905089834231 0.12054481426756788 -0.99252598824985139
    outer loop
      vertex -0.00031749996695725662 -0.012812988013029089 -0.0039999997839331621
      vertex 0.00090049952860863465 -0.006203987747430792 -0.0031740000136196607
      vertex 0.0057974997967103238 -0.013636992424726477 -0.0039829994216561311
    endloop
  endfacet
  facet normal 0.88967260038633289 -0.093603790897486591 0.44690154894723744
    outer loop
      vertex 0.0070074996970215554 -0.014020987898111334 0.011456001024693251
      vertex 0.0092194997764745469 -0.014194988757371893 0.0070160007439553744
      vertex 0.0080444997934246178 -0.0068239878118038083 0.010899001207202674
    endloop
  endfacet
  facet normal 0.94959706501503482 -0.013606384422931817 0.31317771379484716
    outer loop
      vertex 0.0095304997908096968 -0.0072439919412135984 0.0063750012181699282
      vertex 0.0080444997934246178 -0.0068239878118038083 0.010899001207202674
      vertex 0.0092194997764745469 -0.014194988757371893 0.0070160007439553744
    endloop
  endfacet
  facet normal -0.86181693627339651 0.21617484414151891 -0.45884638509279635
    outer loop
      vertex -0.00031749996695725662 -0.012812988013029089 -0.0039999997839331621
      vertex -0.0033855000451585506 -0.012452990859746924 0.0019320002160966403
      vertex 0.00090049952860863465 -0.006203987747430792 -0.0031740000136196607
    endloop
  endfacet
  facet normal -0.85424984730232612 0.19075975223462463 -0.48359891988230991
    outer loop
      vertex -0.0021505001873156284 -0.0056599910557269956 0.0024300007484853274
      vertex 0.00090049952860863465 -0.006203987747430792 -0.0031740000136196607
      vertex -0.0033855000451585506 -0.012452990859746924 0.0019320002160966403
    endloop
  endfacet
  facet normal 0.14111833935908311 0.056162012625397405 0.98839842302302328
    outer loop
      vertex 0.0080444997934246178 -0.0068239878118038083 0.010899001207202674
      vertex 0.002544499939642265 -0.0067489902675151731 0.011680000867694617
      vertex 0.0070074996970215554 -0.014020987898111334 0.011456001024693251
    endloop
  endfacet
  facet normal 0.16461323346064802 0.07072243863030718 0.98381950582604971
    outer loop
      vertex 0.0017084996275225427 -0.013260991424322119 0.012287999909371138
      vertex 0.0070074996970215554 -0.014020987898111334 0.011456001024693251
      vertex 0.002544499939642265 -0.0067489902675151731 0.011680000867694617
    endloop
  endfacet
  facet normal -0.98395386126874118 0.17371248519933019 0.040728017140625968
    outer loop
      vertex -0.0033264998287340854 -0.01338298723101615 0.0073240002952516085
      vertex -0.0022055003732821201 -0.0070499937236308957 0.0073950006030499942
      vertex -0.0033855000451585506 -0.012452990859746924 0.0019320002160966403
    endloop
  endfacet
  facet normal -0.98363869621099531 0.17601645639646171 0.03838127660677218
    outer loop
      vertex -0.0022055003732821201 -0.0070499937236308957 0.0073950006030499942
      vertex -0.0021505001873156284 -0.0056599910557269956 0.0024300007484853274
      vertex -0.0033855000451585506 -0.012452990859746924 0.0019320002160966403
    endloop
  endfacet
  facet normal -0.69876818996187595 0.11577438224812976 0.70591735289088031
    outer loop
      vertex -0.0033264998287340854 -0.01338298723101615 0.0073240002952516085
      vertex 0.0017084996275225427 -0.013260991424322119 0.012287999909371138
      vertex -0.0022055003732821201 -0.0070499937236308957 0.0073950006030499942
    endloop
  endfacet
  facet normal -0.66722055949579284 0.1537045034459098 0.7288289584028389
    outer loop
      vertex 0.002544499939642265 -0.0067489902675151731 0.011680000867694617
      vertex -0.0022055003732821201 -0.0070499937236308957 0.0073950006030499942
      vertex 0.0017084996275225427 -0.013260991424322119 0.012287999909371138
    endloop
  endfacet
  facet normal 0.061560195796256878 0.9749562115445356 0.21370710765965142
    outer loop
      vertex 0.0084914998210588212 -0.0067779879271984006 -0.0027419995181262487
      vertex 0.00090049952860863465 -0.006203987747430792 -0.0031740000136196607
      vertex 0.0047984998732426912 -0.0078759874403476621 0.0033310003913939006
    endloop
  endfacet
  facet normal -0.10855776879748297 0.9876968602513817 0.11256164126057823
    outer loop
      vertex 0.010464499768670064 -0.006945991069078436 0.00063500035181641643
      vertex 0.0084914998210588212 -0.0067779879271984006 -0.0027419995181262487
      vertex 0.0047984998732426912 -0.0078759874403476621 0.0033310003913939006
    endloop
  endfacet
  facet normal -0.14938331912625716 0.9884104502183958 0.027007514989181646
    outer loop
      vertex 0.0095304997908096968 -0.0072439919412135984 0.0063750012181699282
      vertex 0.010464499768670064 -0.006945991069078436 0.00063500035181641643
      vertex 0.0047984998732426912 -0.0078759874403476621 0.0033310003913939006
    endloop
  endfacet
  facet normal -0.060460927486669799 0.99187345774035607 -0.11194427219666855
    outer loop
      vertex 0.0080444997934246178 -0.0068239878118038083 0.010899001207202674
      vertex 0.0095304997908096968 -0.0072439919412135984 0.0063750012181699282
      vertex 0.0047984998732426912 -0.0078759874403476621 0.0033310003913939006
    endloop
  endfacet
  facet normal 0.2950837575434016 0.95303864711365649 0.068138925305866627
    outer loop
      vertex 0.00090049952860863465 -0.006203987747430792 -0.0031740000136196607
      vertex -0.0021505001873156284 -0.0056599910557269956 0.0024300007484853274
      vertex 0.0047984998732426912 -0.0078759874403476621 0.0033310003913939006
    endloop
  endfacet
  facet normal -0.0056996248995396428 0.99079080901054262 -0.13528151040049413
    outer loop
      vertex 0.002544499939642265 -0.0067489902675151731 0.011680000867694617
      vertex 0.0080444997934246178 -0.0068239878118038083 0.010899001207202674
      vertex 0.0047984998732426912 -0.0078759874403476621 0.0033310003913939006
    endloop
  endfacet
  facet normal 0.26203261040562736 0.92856922831443922 0.26286517325720349
    outer loop
      vertex -0.0021505001873156284 -0.0056599910557269956 0.0024300007484853274
      vertex -0.0022055003732821201 -0.0070499937236308957 0.0073950006030499942
      vertex 0.0047984998732426912 -0.0078759874403476621 0.0033310003913939006
    endloop
  endfacet
  facet normal 0.046566493515447796 0.99152662390794766 -0.12127042410820288
    outer loop
      vertex -0.0022055003732821201 -0.0070499937236308957 0.0073950006030499942
      vertex 0.002544499939642265 -0.0067489902675151731 0.011680000867694617
      vertex 0.0047984998732426912 -0.0078759874403476621 0.0033310003913939006
    endloop
  endfacet
endsolid OBJECT
