solid OBJECT
  facet normal -0.13211721455511621 0.88320259945818924 0.44999801102726511
    outer loop
      vertex 0.0063129998743534088 0.0026810047850012123 0.011393001303076744
      vertex 0.009593999944627285 0.0057820109061430484 0.0062700007110834122
      vertex 0.0024059999268501997 0.0048799989446996987 0.0059300009161233902
    endloop
  endfacet
  facet normal -0.12833985994590622 0.98725719056578842 0.094085705743282025
    outer loop
      vertex 0.0075900000520050526 0.0059999999999999446 0.0012490003136917949
      vertex 0.0024059999268501997 0.0048799989446996987 0.0059300009161233902
      vertex 0.009593999944627285 0.0057820109061430484 0.0062700007110834122
    endloop
  endfacet
  facet normal 0.86504922834835718 -0.10470076385321474 0.49063997246704766
    outer loop
      vertex 0.009593999944627285 0.0057820109061430484 0.0062700007110834122
      vertex 0.0063129998743534088 0.0026810047850012123 0.011393001303076744
      vertex 0.0095239998772740364 0.0019140122160314858 0.0055680014193058014
    endloop
  endfacet
  facet normal 0.83620862474515678 -0.24088893335433437 0.49267398722606071
    outer loop
      vertex 0.0062179998494684696 -0.0002809884324670494 0.010106001049280167
      vertex 0.0095239998772740364 0.0019140122160314858 0.0055680014193058014
      vertex 0.0063129998743534088 0.0026810047850012123 0.011393001303076744
    endloop
  endfacet
  facet normal -0.83319490941018692 -0.19256962419262361 0.51836587732147454
    outer loop
      vertex 0.0024059999268501997 0.0048799989446996987 0.0059300009161233902
      vertex 0.0026319997850805521 0.00085500159114592668 0.0047980006784200668
      vertex 0.0063129998743534088 0.0026810047850012123 0.011393001303076744
    endloop
  endfacet
  facet normal -0.83129022109759632 -0.19886604711840894 0.5190461093303832
    outer loop
      vertex 0.0062179998494684696 -0.0002809884324670494 0.010106001049280167
      vertex 0.0063129998743534088 0.0026810047850012123 0.011393001303076744
      vertex 0.0026319997850805521 0.00085500159114592668 0.0047980006784200668
    endloop
  endfacet
  facet normal 0.91523982569054574 0.0073910956280703781 -0.40284169741395448
    outer loop
      vertex 0.0075159999541938305 0.0015920130237936318 0.0010000000474974513
      vertex 0.0075900000520050526 0.0059999999999999446 0.0012490003136917949
      vertex 0.0095239998772740364 0.0019140122160314858 0.0055680014193058014
    endloop
  endfacet
  facet normal 0.92833927202017319 0.050050956015912799 -0.36834915206492391
    outer loop
      vertex 0.009593999944627285 0.0057820109061430484 0.0062700007110834122
      vertex 0.0095239998772740364 0.0019140122160314858 0.0055680014193058014
      vertex 0.0075900000520050526 0.0059999999999999446 0.0012490003136917949
    endloop
  endfacet
  facet normal -0.67551396452589463 0.052884662607009233 -0.73544822808369814
    outer loop
      vertex 0.0075900000520050526 0.0059999999999999446 0.0012490003136917949
      vertex 0.0075159999541938305 0.0015920130237936318 0.0010000000474974513
      vertex 0.0024059999268501997 0.0048799989446996987 0.0059300009161233902
    endloop
  endfacet
  facet normal -0.62063402418876934 0.17979839420077512 -0.76320766863421685
    outer loop
      vertex 0.0026319997850805521 0.00085500159114592668 0.0047980006784200668
      vertex 0.0024059999268501997 0.0048799989446996987 0.0059300009161233902
      vertex 0.0075159999541938305 0.0015920130237936318 0.0010000000474974513
    endloop
  endfacet
  facet normal 0.83596620210989436 -0.21694804683255967 0.50407742848246717
    outer loop
      vertex 0.0095239998772740364 0.0019140122160314858 0.0055680014193058014
      vertex 0.0062179998494684696 -0.0002809884324670494 0.010106001049280167
      vertex 0.0084520000964403152 -0.0018379963301122845 0.0057310014963150024
    endloop
  endfacet
  facet normal 0.82820578992839033 -0.23772094863270679 0.50750755670261383
    outer loop
      vertex 0.0057860002852976322 -0.0034469939135015667 0.0093280002474784851
      vertex 0.0084520000964403152 -0.0018379963301122845 0.0057310014963150024
      vertex 0.0062179998494684696 -0.0002809884324670494 0.010106001049280167
    endloop
  endfacet
  facet normal -0.8318132795585127 -0.19149066963230132 0.52097791833616547
    outer loop
      vertex 0.0026319997850805521 0.00085500159114592668 0.0047980006784200668
      vertex 0.0036290001589804888 -0.0030459887646139324 0.004956001415848732
      vertex 0.0062179998494684696 -0.0002809884324670494 0.010106001049280167
    endloop
  endfacet
  facet normal -0.89622842698082505 0.013332452936512832 0.44339243607685913
    outer loop
      vertex 0.0057860002852976322 -0.0034469939135015667 0.0093280002474784851
      vertex 0.0062179998494684696 -0.0002809884324670494 0.010106001049280167
      vertex 0.0036290001589804888 -0.0030459887646139324 0.004956001415848732
    endloop
  endfacet
  facet normal 0.85651429336808482 -0.3795484120773876 -0.34975172357788914
    outer loop
      vertex 0.0075159999541938305 0.0015920130237936318 0.0010000000474974513
      vertex 0.0095239998772740364 0.0019140122160314858 0.0055680014193058014
      vertex 0.0064329998567700386 -0.0023539937399328411 0.00263000070117414
    endloop
  endfacet
  facet normal 0.8286754135295622 -0.25833555362079569 -0.4965478836396805
    outer loop
      vertex 0.0084520000964403152 -0.0018379963301122845 0.0057310014963150024
      vertex 0.0064329998567700386 -0.0023539937399328411 0.00263000070117414
      vertex 0.0095239998772740364 0.0019140122160314858 0.0055680014193058014
    endloop
  endfacet
  facet normal -0.5898935908084687 -0.16464467072744421 -0.7905173520702391
    outer loop
      vertex 0.0075159999541938305 0.0015920130237936318 0.0010000000474974513
      vertex 0.0064329998567700386 -0.0023539937399328411 0.00263000070117414
      vertex 0.0026319997850805521 0.00085500159114592668 0.0047980006784200668
    endloop
  endfacet
  facet normal -0.60002138129861327 -0.18487562438979319 -0.77832855883038765
    outer loop
      vertex 0.0036290001589804888 -0.0030459887646139324 0.004956001415848732
      vertex 0.0026319997850805521 0.00085500159114592668 0.0047980006784200668
      vertex 0.0064329998567700386 -0.0023539937399328411 0.00263000070117414
    endloop
  endfacet
  facet normal 0.81339434406563238 -0.052621640299806531 0.57932771728461008
    outer loop
      vertex 0.0084520000964403152 -0.0018379963301122845 0.0057310014963150024
      vertex 0.0057860002852976322 -0.0034469939135015667 0.0093280002474784851
      vertex 0.0082839997485280037 -0.0057779974602163494 0.005609000101685524
    endloop
  endfacet
  facet normal 0.74932777832390851 -0.20275425340811784 0.63039558481724167
    outer loop
      vertex 0.0058030001819133759 -0.0063129938505590618 0.0083860009908676147
      vertex 0.0082839997485280037 -0.0057779974602163494 0.005609000101685524
      vertex 0.0057860002852976322 -0.0034469939135015667 0.0093280002474784851
    endloop
  endfacet
  facet normal -0.8462208912091671 -0.0037080173834240196 0.53281934451392376
    outer loop
      vertex 0.0037729998584836721 -0.0071699894331396282 0.0051560010761022568
      vertex 0.0058030001819133759 -0.0063129938505590618 0.0083860009908676147
      vertex 0.0036290001589804888 -0.0030459887646139324 0.004956001415848732
    endloop
  endfacet
  facet normal -0.89246858643165539 -0.14562650731304982 0.42695754191779417
    outer loop
      vertex 0.0057860002852976322 -0.0034469939135015667 0.0093280002474784851
      vertex 0.0036290001589804888 -0.0030459887646139324 0.004956001415848732
      vertex 0.0058030001819133759 -0.0063129938505590618 0.0083860009908676147
    endloop
  endfacet
  facet normal 0.83931902050158746 -0.018964846410421513 -0.54330830697209564
    outer loop
      vertex 0.0084520000964403152 -0.0018379963301122845 0.0057310014963150024
      vertex 0.0082839997485280037 -0.0057779974602163494 0.005609000101685524
      vertex 0.0064329998567700386 -0.0023539937399328411 0.00263000070117414
    endloop
  endfacet
  facet normal 0.78073000684497362 -0.1126849289991278 -0.61462408282486702
    outer loop
      vertex 0.0061610001139342785 -0.0066929883621633709 0.0030800008680671453
      vertex 0.0064329998567700386 -0.0023539937399328411 0.00263000070117414
      vertex 0.0082839997485280037 -0.0057779974602163494 0.005609000101685524
    endloop
  endfacet
  facet normal -0.63196582911459209 -0.040648555900945467 -0.77392950953861028
    outer loop
      vertex 0.0064329998567700386 -0.0023539937399328411 0.00263000070117414
      vertex 0.0061610001139342785 -0.0066929883621633709 0.0030800008680671453
      vertex 0.0036290001589804888 -0.0030459887646139324 0.004956001415848732
    endloop
  endfacet
  facet normal -0.64813452622945744 -0.059449863298903255 -0.75920178454944276
    outer loop
      vertex 0.0036290001589804888 -0.0030459887646139324 0.004956001415848732
      vertex 0.0061610001139342785 -0.0066929883621633709 0.0030800008680671453
      vertex 0.0037729998584836721 -0.0071699894331396282 0.0051560010761022568
    endloop
  endfacet
  facet normal 0.73444645154680477 0.087449333035171009 0.67300893304770537
    outer loop
      vertex 0.0082839997485280037 -0.0057779974602163494 0.005609000101685524
      vertex 0.0058030001819133759 -0.0063129938505590618 0.0083860009908676147
      vertex 0.0082459999248385429 -0.0096069998405874431 0.0061480011790990829
    endloop
  endfacet
  facet normal 0.8509511883025781 0.39914066887694477 0.34142173565093281
    outer loop
      vertex 0.0070290002040565014 -0.0093099898956716717 0.0088340006768703461
      vertex 0.0082459999248385429 -0.0096069998405874431 0.0061480011790990829
      vertex 0.0058030001819133759 -0.0063129938505590618 0.0083860009908676147
    endloop
  endfacet
  facet normal -0.75690391346977626 -0.029566106387822609 0.65285703728090505
    outer loop
      vertex 0.0040629999712109566 -0.011303987849503821 0.005305001512169838
      vertex 0.0070290002040565014 -0.0093099898956716717 0.0088340006768703461
      vertex 0.0037729998584836721 -0.0071699894331396282 0.0051560010761022568
    endloop
  endfacet
  facet normal -0.79195166149272256 -0.24004622430448938 0.56141818286912915
    outer loop
      vertex 0.0058030001819133759 -0.0063129938505590618 0.0083860009908676147
      vertex 0.0037729998584836721 -0.0071699894331396282 0.0051560010761022568
      vertex 0.0070290002040565014 -0.0093099898956716717 0.0088340006768703461
    endloop
  endfacet
  facet normal 0.8674817907942568 0.10986592816726881 -0.48518534651031414
    outer loop
      vertex 0.0067480001598596573 -0.01147798870876438 0.0030460001435130835
      vertex 0.0061610001139342785 -0.0066929883621633709 0.0030800008680671453
      vertex 0.0082459999248385429 -0.0096069998405874431 0.0061480011790990829
    endloop
  endfacet
  facet normal 0.7790988103041373 -0.094961259918455054 -0.61966717106635349
    outer loop
      vertex 0.0082839997485280037 -0.0057779974602163494 0.005609000101685524
      vertex 0.0082459999248385429 -0.0096069998405874431 0.0061480011790990829
      vertex 0.0061610001139342785 -0.0066929883621633709 0.0030800008680671453
    endloop
  endfacet
  facet normal -0.64483504364698141 -0.073699430496157292 -0.7607602516097548
    outer loop
      vertex 0.0067480001598596573 -0.01147798870876438 0.0030460001435130835
      vertex 0.0040629999712109566 -0.011303987849503821 0.005305001512169838
      vertex 0.0061610001139342785 -0.0066929883621633709 0.0030800008680671453
    endloop
  endfacet
  facet normal -0.64603731920025553 -0.072706046130475335 -0.75983525389167117
    outer loop
      vertex 0.0037729998584836721 -0.0071699894331396282 0.0051560010761022568
      vertex 0.0061610001139342785 -0.0066929883621633709 0.0030800008680671453
      vertex 0.0040629999712109566 -0.011303987849503821 0.005305001512169838
    endloop
  endfacet
  facet normal 0.91304571144869828 0.24481541041832125 0.32620996861967522
    outer loop
      vertex 0.0091610001400113106 -0.013325986016541785 0.0063780006021261215
      vertex 0.0082459999248385429 -0.0096069998405874431 0.0061480011790990829
      vertex 0.0079509997740387917 -0.012318995345383948 0.0090090017765760422
    endloop
  endfacet
  facet normal 0.88291205633518033 0.2919245902517984 0.36775852727612335
    outer loop
      vertex 0.0070290002040565014 -0.0093099898956716717 0.0088340006768703461
      vertex 0.0079509997740387917 -0.012318995345383948 0.0090090017765760422
      vertex 0.0082459999248385429 -0.0096069998405874431 0.0061480011790990829
    endloop
  endfacet
  facet normal -0.70194223482770401 -0.14150231521987655 0.69803595448408173
    outer loop
      vertex 0.0054910001344978809 -0.014909994352608985 0.0060100015252828598
      vertex 0.0079509997740387917 -0.012318995345383948 0.0090090017765760422
      vertex 0.0040629999712109566 -0.011303987849503821 0.005305001512169838
    endloop
  endfacet
  facet normal -0.7026907541023939 -0.17520819012348618 0.68958523346476985
    outer loop
      vertex 0.0070290002040565014 -0.0093099898956716717 0.0088340006768703461
      vertex 0.0040629999712109566 -0.011303987849503821 0.005305001512169838
      vertex 0.0079509997740387917 -0.012318995345383948 0.0090090017765760422
    endloop
  endfacet
  facet normal 0.82355064848078186 0.057931495525328613 -0.564276768273409
    outer loop
      vertex 0.0076219998300075531 -0.015749987710267373 0.0038830002304166555
      vertex 0.0067480001598596573 -0.01147798870876438 0.0030460001435130835
      vertex 0.0091610001400113106 -0.013325986016541785 0.0063780006021261215
    endloop
  endfacet
  facet normal 0.84100939175246248 0.17526268968444753 -0.5118458680000515
    outer loop
      vertex 0.0067480001598596573 -0.01147798870876438 0.0030460001435130835
      vertex 0.0082459999248385429 -0.0096069998405874431 0.0061480011790990829
      vertex 0.0091610001400113106 -0.013325986016541785 0.0063780006021261215
    endloop
  endfacet
  facet normal -0.61029233782849523 -0.37780702788900772 -0.69627947841761395
    outer loop
      vertex 0.0040629999712109566 -0.011303987849503821 0.005305001512169838
      vertex 0.0067480001598596573 -0.01147798870876438 0.0030460001435130835
      vertex 0.0054910001344978809 -0.014909994352608985 0.0060100015252828598
    endloop
  endfacet
  facet normal -0.731396818132521 -0.27214730534617376 -0.62529556100970418
    outer loop
      vertex 0.0076219998300075531 -0.015749987710267373 0.0038830002304166555
      vertex 0.0054910001344978809 -0.014909994352608985 0.0060100015252828598
      vertex 0.0067480001598596573 -0.01147798870876438 0.0030460001435130835
    endloop
  endfacet
  facet normal 0.9137131510730262 0.23871464860933622 0.32885193339179603
    outer loop
      vertex 0.0079509997740387917 -0.012318995345383948 0.0090090017765760422
      vertex 0.0087200002744793892 -0.015351992595940894 0.0090740006417036057
      vertex 0.0091610001400113106 -0.013325986016541785 0.0063780006021261215
    endloop
  endfacet
  facet normal 0.95875368610463196 -0.27924888201851783 -0.053022931569166057
    outer loop
      vertex 0.0081059997901320457 -0.017044988024979897 0.0068880002945661545
      vertex 0.0091610001400113106 -0.013325986016541785 0.0063780006021261215
      vertex 0.0087200002744793892 -0.015351992595940894 0.0090740006417036057
    endloop
  endfacet
  facet normal -0.70377712602560094 -0.13835152091731331 0.69681892450120175
    outer loop
      vertex 0.0054910001344978809 -0.014909994352608985 0.0060100015252828598
      vertex 0.0075779999606311321 -0.017633986223489113 0.0075770001858472824
      vertex 0.0079509997740387917 -0.012318995345383948 0.0090090017765760422
    endloop
  endfacet
  facet normal -0.66059919260836786 -0.1517347290686841 0.73524504671546453
    outer loop
      vertex 0.0087200002744793892 -0.015351992595940894 0.0090740006417036057
      vertex 0.0079509997740387917 -0.012318995345383948 0.0090090017765760422
      vertex 0.0075779999606311321 -0.017633986223489113 0.0075770001858472824
    endloop
  endfacet
  facet normal 0.91429166840521792 -0.29711798631330216 -0.27530282834350106
    outer loop
      vertex 0.0076219998300075531 -0.015749987710267373 0.0038830002304166555
      vertex 0.0091610001400113106 -0.013325986016541785 0.0063780006021261215
      vertex 0.0081059997901320457 -0.017044988024979897 0.0068880002945661545
    endloop
  endfacet
  facet normal -0.56063120191822724 -0.78945233536024251 -0.2499153169175177
    outer loop
      vertex 0.0076219998300075531 -0.015749987710267373 0.0038830002304166555
      vertex 0.0081059997901320457 -0.017044988024979897 0.0068880002945661545
      vertex 0.0054910001344978809 -0.014909994352608985 0.0060100015252828598
    endloop
  endfacet
  facet normal -0.26297171252303625 -0.62452328205754581 -0.73540230389955452
    outer loop
      vertex 0.0081059997901320457 -0.017044988024979897 0.0068880002945661545
      vertex 0.0075779999606311321 -0.017633986223489113 0.0075770001858472824
      vertex 0.0054910001344978809 -0.014909994352608985 0.0060100015252828598
    endloop
  endfacet
  facet normal 0.82756825892096686 -0.53189595802157463 0.17949224681537279
    outer loop
      vertex 0.0081059997901320457 -0.017044988024979897 0.0068880002945661545
      vertex 0.0087200002744793892 -0.015351992595940894 0.0090740006417036057
      vertex 0.0075779999606311321 -0.017633986223489113 0.0075770001858472824
    endloop
  endfacet
endsolid OBJECT
