solid OBJECT
  facet normal -0.13211722227369435 0.88320259854685568 0.44999801054978561
    outer loop
      vertex 0.00031299982219934464 -0.0063189957030117512 0.011393001303076744
      vertex 0.0035939998924732208 -0.0032179895527660847 0.0062700007110834122
      vertex -0.0035939998924732208 -0.0041200015433132649 0.0059300009161233902
    endloop
  endfacet
  facet normal -0.12833986761583446 0.98725719053794514 0.094085695573097539
    outer loop
      vertex 0.0015900004655122757 -0.0030000004656612874 0.0012490003136917949
      vertex -0.0035939998924732208 -0.0041200015433132649 0.0059300009161233902
      vertex 0.0035939998924732208 -0.0032179895527660847 0.0062700007110834122
    endloop
  endfacet
  facet normal 0.86504922657743244 -0.1047007514747138 0.49063997823089833
    outer loop
      vertex 0.0035939998924732208 -0.0032179895527660847 0.0062700007110834122
      vertex 0.00031299982219934464 -0.0063189957030117512 0.011393001303076744
      vertex 0.0035239998251199722 -0.0070859887376427651 0.0055680014193058014
    endloop
  endfacet
  facet normal 0.83620866046473408 -0.24088877291061278 0.49267400504734804
    outer loop
      vertex 0.00021800026297569275 -0.0092809893861412994 0.010106001049280167
      vertex 0.0035239998251199722 -0.0070859887376427651 0.0055680014193058014
      vertex 0.00031299982219934464 -0.0063189957030117512 0.011393001303076744
    endloop
  endfacet
  facet normal -0.83319492435865594 -0.1925695986629494 0.5183658627781772
    outer loop
      vertex -0.0035939998924732208 -0.0041200015433132649 0.0059300009161233902
      vertex -0.0033680000342428684 -0.0081449993625283233 0.0047980006784200668
      vertex 0.00031299982219934464 -0.0063189957030117512 0.011393001303076744
    endloop
  endfacet
  facet normal -0.83129019766844814 -0.19886614697507382 0.5190461085950272
    outer loop
      vertex 0.00021800026297569275 -0.0092809893861412994 0.010106001049280167
      vertex 0.00031299982219934464 -0.0063189957030117512 0.011393001303076744
      vertex -0.0033680000342428684 -0.0081449993625283233 0.0047980006784200668
    endloop
  endfacet
  facet normal 0.91523986028995241 0.0073910897945276832 -0.40284161891254161
    outer loop
      vertex 0.0015160003677010536 -0.0074079879298806191 0.0010000000474974513
      vertex 0.0015900004655122757 -0.0030000004656612874 0.0012490003136917949
      vertex 0.0035239998251199722 -0.0070859887376427651 0.0055680014193058014
    endloop
  endfacet
  facet normal 0.92833930212883498 0.050050935795789148 -0.36834907893045366
    outer loop
      vertex 0.0035939998924732208 -0.0032179895527660847 0.0062700007110834122
      vertex 0.0035239998251199722 -0.0070859887376427651 0.0055680014193058014
      vertex 0.0015900004655122757 -0.0030000004656612874 0.0012490003136917949
    endloop
  endfacet
  facet normal -0.67551394763304107 0.052884657366272056 -0.73544824397674458
    outer loop
      vertex 0.0015900004655122757 -0.0030000004656612874 0.0012490003136917949
      vertex 0.0015160003677010536 -0.0074079879298806191 0.0010000000474974513
      vertex -0.0035939998924732208 -0.0041200015433132649 0.0059300009161233902
    endloop
  endfacet
  facet normal -0.62063400635535271 0.17979837945629432 -0.76320768660974203
    outer loop
      vertex -0.0033680000342428684 -0.0081449993625283233 0.0047980006784200668
      vertex -0.0035939998924732208 -0.0041200015433132649 0.0059300009161233902
      vertex 0.0015160003677010536 -0.0074079879298806191 0.0010000000474974513
    endloop
  endfacet
  facet normal 0.83596623896088806 -0.21694808770601842 0.50407734977708463
    outer loop
      vertex 0.0035239998251199722 -0.0070859887376427651 0.0055680014193058014
      vertex 0.00021800026297569275 -0.0092809893861412994 0.010106001049280167
      vertex 0.0024520000442862511 -0.010837996818125247 0.0057310014963150024
    endloop
  endfacet
  facet normal 0.82820583492554778 -0.23772096931196801 0.50750747358502502
    outer loop
      vertex -0.00021399930119514465 -0.012446994401514529 0.0093280002474784851
      vertex 0.0024520000442862511 -0.010837996818125247 0.0057310014963150024
      vertex 0.00021800026297569275 -0.0092809893861412994 0.010106001049280167
    endloop
  endfacet
  facet normal -0.83181326231166219 -0.19149068722931026 0.52097793940518877
    outer loop
      vertex -0.0033680000342428684 -0.0081449993625283233 0.0047980006784200668
      vertex -0.0023709996603429317 -0.012045989252626895 0.004956001415848732
      vertex 0.00021800026297569275 -0.0092809893861412994 0.010106001049280167
    endloop
  endfacet
  facet normal -0.89622840847669294 0.013332443108874931 0.44339247377473939
    outer loop
      vertex -0.00021399930119514465 -0.012446994401514529 0.0093280002474784851
      vertex 0.00021800026297569275 -0.0092809893861412994 0.010106001049280167
      vertex -0.0023709996603429317 -0.012045989252626895 0.004956001415848732
    endloop
  endfacet
  facet normal 0.85651428709276312 -0.37954851598867329 -0.34975162618174033
    outer loop
      vertex 0.0015160003677010536 -0.0074079879298806191 0.0010000000474974513
      vertex 0.0035239998251199722 -0.0070859887376427651 0.0055680014193058014
      vertex 0.00043299980461597443 -0.011353994227945804 0.00263000070117414
    endloop
  endfacet
  facet normal 0.82867540889459224 -0.25833558400775347 -0.49654787556564289
    outer loop
      vertex 0.0024520000442862511 -0.010837996818125247 0.0057310014963150024
      vertex 0.00043299980461597443 -0.011353994227945804 0.00263000070117414
      vertex 0.0035239998251199722 -0.0070859887376427651 0.0055680014193058014
    endloop
  endfacet
  facet normal -0.5898935811337932 -0.16464462971076754 -0.79051736783232862
    outer loop
      vertex 0.0015160003677010536 -0.0074079879298806191 0.0010000000474974513
      vertex 0.00043299980461597443 -0.011353994227945804 0.00263000070117414
      vertex -0.0033680000342428684 -0.0081449993625283233 0.0047980006784200668
    endloop
  endfacet
  facet normal -0.60002140438198104 -0.18487565137757073 -0.77832853462480367
    outer loop
      vertex -0.0023709996603429317 -0.012045989252626895 0.004956001415848732
      vertex -0.0033680000342428684 -0.0081449993625283233 0.0047980006784200668
      vertex 0.00043299980461597443 -0.011353994227945804 0.00263000070117414
    endloop
  endfacet
  facet normal 0.81339439314535167 -0.052621640258895659 0.5793276483788502
    outer loop
      vertex 0.0024520000442862511 -0.010837996818125247 0.0057310014963150024
      vertex -0.00021399930119514465 -0.012446994401514529 0.0093280002474784851
      vertex 0.0022839996963739395 -0.014777997948229312 0.005609000101685524
    endloop
  endfacet
  facet normal 0.74932777134799722 -0.2027543660194637 0.63039555689002824
    outer loop
      vertex -0.00019699987024068832 -0.015312994338572024 0.0083860009908676147
      vertex 0.0022839996963739395 -0.014777997948229312 0.005609000101685524
      vertex -0.00021399930119514465 -0.012446994401514529 0.0093280002474784851
    endloop
  endfacet
  facet normal -0.84622091835392399 -0.0037080204230174703 0.5328193013816076
    outer loop
      vertex -0.0022269999608397484 -0.016169989921152591 0.0051560010761022568
      vertex -0.00019699987024068832 -0.015312994338572024 0.0083860009908676147
      vertex -0.0023709996603429317 -0.012045989252626895 0.004956001415848732
    endloop
  endfacet
  facet normal -0.89246858025511111 -0.14562638070697906 0.42695759801133926
    outer loop
      vertex -0.00021399930119514465 -0.012446994401514529 0.0093280002474784851
      vertex -0.0023709996603429317 -0.012045989252626895 0.004956001415848732
      vertex -0.00019699987024068832 -0.015312994338572024 0.0083860009908676147
    endloop
  endfacet
  facet normal 0.83931902050158746 -0.018964846410421513 -0.54330830697209564
    outer loop
      vertex 0.0024520000442862511 -0.010837996818125247 0.0057310014963150024
      vertex 0.0022839996963739395 -0.014777997948229312 0.005609000101685524
      vertex 0.00043299980461597443 -0.011353994227945804 0.00263000070117414
    endloop
  endfacet
  facet normal 0.780730067680247 -0.11268484265214218 -0.61462402137929728
    outer loop
      vertex 0.00016100052744150162 -0.015692988850176334 0.0030800008680671453
      vertex 0.00043299980461597443 -0.011353994227945804 0.00263000070117414
      vertex 0.0022839996963739395 -0.014777997948229312 0.005609000101685524
    endloop
  endfacet
  facet normal -0.63196584923273125 -0.040648620407309669 -0.77392948972276243
    outer loop
      vertex 0.00043299980461597443 -0.011353994227945804 0.00263000070117414
      vertex 0.00016100052744150162 -0.015692988850176334 0.0030800008680671453
      vertex -0.0023709996603429317 -0.012045989252626895 0.004956001415848732
    endloop
  endfacet
  facet normal -0.64813448992057254 -0.059449863533448402 -0.75920181552815957
    outer loop
      vertex -0.0023709996603429317 -0.012045989252626895 0.004956001415848732
      vertex 0.00016100052744150162 -0.015692988850176334 0.0030800008680671453
      vertex -0.0022269999608397484 -0.016169989921152591 0.0051560010761022568
    endloop
  endfacet
  facet normal 0.73444645154680477 0.087449333035171009 0.67300893304770537
    outer loop
      vertex 0.0022839996963739395 -0.014777997948229312 0.005609000101685524
      vertex -0.00019699987024068832 -0.015312994338572024 0.0083860009908676147
      vertex 0.0022459998726844788 -0.018607000328600406 0.0061480011790990829
    endloop
  endfacet
  facet normal 0.85095119783648521 0.39914078172227202 0.3414215799664464
    outer loop
      vertex 0.0010290006175637245 -0.018309990383684634 0.0088340006768703461
      vertex 0.0022459998726844788 -0.018607000328600406 0.0061480011790990829
      vertex -0.00019699987024068832 -0.015312994338572024 0.0083860009908676147
    endloop
  endfacet
  facet normal -0.75690389906592226 -0.029566140800433235 0.65285705242187075
    outer loop
      vertex -0.0019369996152818203 -0.020303989268839358 0.005305001512169838
      vertex 0.0010290006175637245 -0.018309990383684634 0.0088340006768703461
      vertex -0.0022269999608397484 -0.016169989921152591 0.0051560010761022568
    endloop
  endfacet
  facet normal -0.79195164788358086 -0.2400463467435564 0.56141814971512383
    outer loop
      vertex -0.00019699987024068832 -0.015312994338572024 0.0083860009908676147
      vertex -0.0022269999608397484 -0.016169989921152591 0.0051560010761022568
      vertex 0.0010290006175637245 -0.018309990383684634 0.0088340006768703461
    endloop
  endfacet
  facet normal 0.86748181393139523 0.10986582507333308 -0.48518532848722051
    outer loop
      vertex 0.00074800010770559311 -0.020477990128099918 0.0030460001435130835
      vertex 0.00016100052744150162 -0.015692988850176334 0.0030800008680671453
      vertex 0.0022459998726844788 -0.018607000328600406 0.0061480011790990829
    endloop
  endfacet
  facet normal 0.7790988776266502 -0.094961248908955728 -0.61966708810985371
    outer loop
      vertex 0.0022839996963739395 -0.014777997948229312 0.005609000101685524
      vertex 0.0022459998726844788 -0.018607000328600406 0.0061480011790990829
      vertex 0.00016100052744150162 -0.015692988850176334 0.0030800008680671453
    endloop
  endfacet
  facet normal -0.64483510959664092 -0.073699361838759261 -0.76076020236080166
    outer loop
      vertex 0.00074800010770559311 -0.020477990128099918 0.0030460001435130835
      vertex -0.0019369996152818203 -0.020303989268839358 0.005305001512169838
      vertex 0.00016100052744150162 -0.015692988850176334 0.0030800008680671453
    endloop
  endfacet
  facet normal -0.64603727998970217 -0.072706064523942501 -0.75983528546978352
    outer loop
      vertex -0.0022269999608397484 -0.016169989921152591 0.0051560010761022568
      vertex 0.00016100052744150162 -0.015692988850176334 0.0030800008680671453
      vertex -0.0019369996152818203 -0.020303989268839358 0.005305001512169838
    endloop
  endfacet
  facet normal 0.91304571800847212 0.24481535228723353 0.32620999388564331
    outer loop
      vertex 0.0031610000878572464 -0.022325987435877322 0.0063780006021261215
      vertex 0.0022459998726844788 -0.018607000328600406 0.0061480011790990829
      vertex 0.0019509997218847275 -0.021318996764719485 0.0090090017765760422
    endloop
  endfacet
  facet normal 0.88291215803159762 0.29192438949175387 0.36775844248617051
    outer loop
      vertex 0.0010290006175637245 -0.018309990383684634 0.0088340006768703461
      vertex 0.0019509997218847275 -0.021318996764719485 0.0090090017765760422
      vertex 0.0022459998726844788 -0.018607000328600406 0.0061480011790990829
    endloop
  endfacet
  facet normal -0.70194227870410331 -0.14150234229436973 0.69803590487373779
    outer loop
      vertex -0.00050899945199489594 -0.023909995771944522 0.0060100015252828598
      vertex 0.0019509997218847275 -0.021318996764719485 0.0090090017765760422
      vertex -0.0019369996152818203 -0.020303989268839358 0.005305001512169838
    endloop
  endfacet
  facet normal -0.70269079535874379 -0.17520804001743082 0.68958522956292101
    outer loop
      vertex 0.0010290006175637245 -0.018309990383684634 0.0088340006768703461
      vertex -0.0019369996152818203 -0.020303989268839358 0.005305001512169838
      vertex 0.0019509997218847275 -0.021318996764719485 0.0090090017765760422
    endloop
  endfacet
  facet normal 0.82355064848078197 0.057931495525328641 -0.56427676827340911
    outer loop
      vertex 0.0016219997778534889 -0.024749989129602908 0.0038830002304166555
      vertex 0.00074800010770559311 -0.020477990128099918 0.0030460001435130835
      vertex 0.0031610000878572464 -0.022325987435877322 0.0063780006021261215
    endloop
  endfacet
  facet normal 0.84100938760077504 0.17526264337040942 -0.51184589068017927
    outer loop
      vertex 0.00074800010770559311 -0.020477990128099918 0.0030460001435130835
      vertex 0.0022459998726844788 -0.018607000328600406 0.0061480011790990829
      vertex 0.0031610000878572464 -0.022325987435877322 0.0063780006021261215
    endloop
  endfacet
  facet normal -0.61029239608035823 -0.37780703971982393 -0.69627942094006934
    outer loop
      vertex -0.0019369996152818203 -0.020303989268839358 0.005305001512169838
      vertex 0.00074800010770559311 -0.020477990128099918 0.0030460001435130835
      vertex -0.00050899945199489594 -0.023909995771944522 0.0060100015252828598
    endloop
  endfacet
  facet normal -0.73139689190017443 -0.27214730367514073 -0.6252954754522978
    outer loop
      vertex 0.0016219997778534889 -0.024749989129602908 0.0038830002304166555
      vertex -0.00050899945199489594 -0.023909995771944522 0.0060100015252828598
      vertex 0.00074800010770559311 -0.020477990128099918 0.0030460001435130835
    endloop
  endfacet
  facet normal 0.9137131510730262 0.23871464860933622 0.32885193339179603
    outer loop
      vertex 0.0019509997218847275 -0.021318996764719485 0.0090090017765760422
      vertex 0.002720000222325325 -0.024351994015276431 0.0090740006417036057
      vertex 0.0031610000878572464 -0.022325987435877322 0.0063780006021261215
    endloop
  endfacet
  facet normal 0.95875368610463207 -0.279248882018518 -0.053022931569166182
    outer loop
      vertex 0.0021059997379779816 -0.026044989444315433 0.0068880002945661545
      vertex 0.0031610000878572464 -0.022325987435877322 0.0063780006021261215
      vertex 0.002720000222325325 -0.024351994015276431 0.0090740006417036057
    endloop
  endfacet
  facet normal -0.70377715773520688 -0.13835156914332919 0.69681888289980509
    outer loop
      vertex -0.00050899945199489594 -0.023909995771944522 0.0060100015252828598
      vertex 0.0015780003741383553 -0.026633987642824649 0.0075770001858472824
      vertex 0.0019509997218847275 -0.021318996764719485 0.0090090017765760422
    endloop
  endfacet
  facet normal -0.6605992888295249 -0.15173475543438203 0.73524495482199259
    outer loop
      vertex 0.002720000222325325 -0.024351994015276431 0.0090740006417036057
      vertex 0.0019509997218847275 -0.021318996764719485 0.0090090017765760422
      vertex 0.0015780003741383553 -0.026633987642824649 0.0075770001858472824
    endloop
  endfacet
  facet normal 0.91429166840521803 -0.29711798631330238 -0.27530282834350117
    outer loop
      vertex 0.0016219997778534889 -0.024749989129602908 0.0038830002304166555
      vertex 0.0031610000878572464 -0.022325987435877322 0.0063780006021261215
      vertex 0.0021059997379779816 -0.026044989444315433 0.0068880002945661545
    endloop
  endfacet
  facet normal -0.5606312766685434 -0.78945229200256306 -0.24991528619293979
    outer loop
      vertex 0.0016219997778534889 -0.024749989129602908 0.0038830002304166555
      vertex 0.0021059997379779816 -0.026044989444315433 0.0068880002945661545
      vertex -0.00050899945199489594 -0.023909995771944522 0.0060100015252828598
    endloop
  endfacet
  facet normal -0.26297181318969698 -0.62452331995985555 -0.73540223571460739
    outer loop
      vertex 0.0021059997379779816 -0.026044989444315433 0.0068880002945661545
      vertex 0.0015780003741383553 -0.026633987642824649 0.0075770001858472824
      vertex -0.00050899945199489594 -0.023909995771944522 0.0060100015252828598
    endloop
  endfacet
  facet normal 0.82756844951614872 -0.53189573724358508 0.17949202229497754
    outer loop
      vertex 0.0021059997379779816 -0.026044989444315433 0.0068880002945661545
      vertex 0.002720000222325325 -0.024351994015276431 0.0090740006417036057
      vertex 0.0015780003741383553 -0.026633987642824649 0.0075770001858472824
    endloop
  endfacet
endsolid OBJECT
