solid OBJECT
  facet normal -0.13211721455511621 0.88320259945818924 0.44999801102726511
    outer loop
      vertex 0.0033130001914687453 -0.0073189956285059608 0.011393001303076744
      vertex 0.0065940002617426215 -0.0042179895073641248 0.0062700007110834122
      vertex -0.00059399975603446377 -0.0051200014688074745 0.0059300009161233902
    endloop
  endfacet
  facet normal -0.12833985994590622 0.98725719056578842 0.094085705743282025
    outer loop
      vertex 0.0045900003691203891 -0.0040000004135072285 0.0012490003136917949
      vertex -0.00059399975603446377 -0.0051200014688074745 0.0059300009161233902
      vertex 0.0065940002617426215 -0.0042179895073641248 0.0062700007110834122
    endloop
  endfacet
  facet normal 0.86504922834835718 -0.10470076385321474 0.49063997246704766
    outer loop
      vertex 0.0065940002617426215 -0.0042179895073641248 0.0062700007110834122
      vertex 0.0033130001914687453 -0.0073189956285059608 0.011393001303076744
      vertex 0.0065240001943893729 -0.0080859881974756874 0.0055680014193058014
    endloop
  endfacet
  facet normal 0.83620862474515678 -0.24088893335433437 0.49267398722606071
    outer loop
      vertex 0.0032180001665838062 -0.010280988845974223 0.010106001049280167
      vertex 0.0065240001943893729 -0.0080859881974756874 0.0055680014193058014
      vertex 0.0033130001914687453 -0.0073189956285059608 0.011393001303076744
    endloop
  endfacet
  facet normal -0.83319490941018692 -0.19256962419262361 0.51836587732147454
    outer loop
      vertex -0.00059399975603446377 -0.0051200014688074745 0.0059300009161233902
      vertex -0.00036799989780411137 -0.0091449988223612465 0.0047980006784200668
      vertex 0.0033130001914687453 -0.0073189956285059608 0.011393001303076744
    endloop
  endfacet
  facet normal -0.83129022109759632 -0.19886604711840894 0.5190461093303832
    outer loop
      vertex 0.0032180001665838062 -0.010280988845974223 0.010106001049280167
      vertex 0.0033130001914687453 -0.0073189956285059608 0.011393001303076744
      vertex -0.00036799989780411137 -0.0091449988223612465 0.0047980006784200668
    endloop
  endfacet
  facet normal 0.91523982569054574 0.0073910956280703781 -0.40284169741395448
    outer loop
      vertex 0.004516000271309167 -0.0084079873897135414 0.0010000000474974513
      vertex 0.0045900003691203891 -0.0040000004135072285 0.0012490003136917949
      vertex 0.0065240001943893729 -0.0080859881974756874 0.0055680014193058014
    endloop
  endfacet
  facet normal 0.92833927202017319 0.050050956015912799 -0.36834915206492391
    outer loop
      vertex 0.0065940002617426215 -0.0042179895073641248 0.0062700007110834122
      vertex 0.0065240001943893729 -0.0080859881974756874 0.0055680014193058014
      vertex 0.0045900003691203891 -0.0040000004135072285 0.0012490003136917949
    endloop
  endfacet
  facet normal -0.67551396452589463 0.052884662607009233 -0.73544822808369814
    outer loop
      vertex 0.0045900003691203891 -0.0040000004135072285 0.0012490003136917949
      vertex 0.004516000271309167 -0.0084079873897135414 0.0010000000474974513
      vertex -0.00059399975603446377 -0.0051200014688074745 0.0059300009161233902
    endloop
  endfacet
  facet normal -0.62063402418876934 0.17979839420077512 -0.76320766863421685
    outer loop
      vertex -0.00036799989780411137 -0.0091449988223612465 0.0047980006784200668
      vertex -0.00059399975603446377 -0.0051200014688074745 0.0059300009161233902
      vertex 0.004516000271309167 -0.0084079873897135414 0.0010000000474974513
    endloop
  endfacet
  facet normal 0.83596620210989436 -0.21694804683255967 0.50407742848246717
    outer loop
      vertex 0.0065240001943893729 -0.0080859881974756874 0.0055680014193058014
      vertex 0.0032180001665838062 -0.010280988845974223 0.010106001049280167
      vertex 0.0054520004135556518 -0.011837996743619458 0.0057310014963150024
    endloop
  endfacet
  facet normal 0.82820578992839033 -0.23772094863270679 0.50750755670261383
    outer loop
      vertex 0.0027860006024129687 -0.01344699432700874 0.0093280002474784851
      vertex 0.0054520004135556518 -0.011837996743619458 0.0057310014963150024
      vertex 0.0032180001665838062 -0.010280988845974223 0.010106001049280167
    endloop
  endfacet
  facet normal -0.8318132795585127 -0.19149066963230132 0.52097791833616547
    outer loop
      vertex -0.00036799989780411137 -0.0091449988223612465 0.0047980006784200668
      vertex 0.00062900047609582531 -0.013045989178121106 0.004956001415848732
      vertex 0.0032180001665838062 -0.010280988845974223 0.010106001049280167
    endloop
  endfacet
  facet normal -0.89622842698082505 0.013332452936512832 0.44339243607685913
    outer loop
      vertex 0.0027860006024129687 -0.01344699432700874 0.0093280002474784851
      vertex 0.0032180001665838062 -0.010280988845974223 0.010106001049280167
      vertex 0.00062900047609582531 -0.013045989178121106 0.004956001415848732
    endloop
  endfacet
  facet normal 0.85651429336808482 -0.3795484120773876 -0.34975172357788914
    outer loop
      vertex 0.004516000271309167 -0.0084079873897135414 0.0010000000474974513
      vertex 0.0065240001943893729 -0.0080859881974756874 0.0055680014193058014
      vertex 0.0034330001738853751 -0.012353994153440014 0.00263000070117414
    endloop
  endfacet
  facet normal 0.8286754135295622 -0.25833555362079569 -0.4965478836396805
    outer loop
      vertex 0.0054520004135556518 -0.011837996743619458 0.0057310014963150024
      vertex 0.0034330001738853751 -0.012353994153440014 0.00263000070117414
      vertex 0.0065240001943893729 -0.0080859881974756874 0.0055680014193058014
    endloop
  endfacet
  facet normal -0.5898935908084687 -0.16464467072744421 -0.7905173520702391
    outer loop
      vertex 0.004516000271309167 -0.0084079873897135414 0.0010000000474974513
      vertex 0.0034330001738853751 -0.012353994153440014 0.00263000070117414
      vertex -0.00036799989780411137 -0.0091449988223612465 0.0047980006784200668
    endloop
  endfacet
  facet normal -0.60002138129861327 -0.18487562438979319 -0.77832855883038765
    outer loop
      vertex 0.00062900047609582531 -0.013045989178121106 0.004956001415848732
      vertex -0.00036799989780411137 -0.0091449988223612465 0.0047980006784200668
      vertex 0.0034330001738853751 -0.012353994153440014 0.00263000070117414
    endloop
  endfacet
  facet normal 0.81339434406563238 -0.052621640299806531 0.57932771728461008
    outer loop
      vertex 0.0054520004135556518 -0.011837996743619458 0.0057310014963150024
      vertex 0.0027860006024129687 -0.01344699432700874 0.0093280002474784851
      vertex 0.0052840000656433402 -0.015777997873723523 0.005609000101685524
    endloop
  endfacet
  facet normal 0.74932777832390851 -0.20275425340811784 0.63039558481724167
    outer loop
      vertex 0.0028030004990287124 -0.016312994264066235 0.0083860009908676147
      vertex 0.0052840000656433402 -0.015777997873723523 0.005609000101685524
      vertex 0.0027860006024129687 -0.01344699432700874 0.0093280002474784851
    endloop
  endfacet
  facet normal -0.8462208912091671 -0.0037080173834240196 0.53281934451392376
    outer loop
      vertex 0.00077300017559900867 -0.017169989846646801 0.0051560010761022568
      vertex 0.0028030004990287124 -0.016312994264066235 0.0083860009908676147
      vertex 0.00062900047609582531 -0.013045989178121106 0.004956001415848732
    endloop
  endfacet
  facet normal -0.89246858643165539 -0.14562650731304982 0.42695754191779417
    outer loop
      vertex 0.0027860006024129687 -0.01344699432700874 0.0093280002474784851
      vertex 0.00062900047609582531 -0.013045989178121106 0.004956001415848732
      vertex 0.0028030004990287124 -0.016312994264066235 0.0083860009908676147
    endloop
  endfacet
  facet normal 0.83931902050158746 -0.018964846410421513 -0.54330830697209564
    outer loop
      vertex 0.0054520004135556518 -0.011837996743619458 0.0057310014963150024
      vertex 0.0052840000656433402 -0.015777997873723523 0.005609000101685524
      vertex 0.0034330001738853751 -0.012353994153440014 0.00263000070117414
    endloop
  endfacet
  facet normal 0.78073000684497362 -0.1126849289991278 -0.61462408282486702
    outer loop
      vertex 0.003161000431049615 -0.016692988775670544 0.0030800008680671453
      vertex 0.0034330001738853751 -0.012353994153440014 0.00263000070117414
      vertex 0.0052840000656433402 -0.015777997873723523 0.005609000101685524
    endloop
  endfacet
  facet normal -0.63196582911459209 -0.040648555900945467 -0.77392950953861028
    outer loop
      vertex 0.0034330001738853751 -0.012353994153440014 0.00263000070117414
      vertex 0.003161000431049615 -0.016692988775670544 0.0030800008680671453
      vertex 0.00062900047609582531 -0.013045989178121106 0.004956001415848732
    endloop
  endfacet
  facet normal -0.64813452622945744 -0.059449863298903255 -0.75920178454944276
    outer loop
      vertex 0.00062900047609582531 -0.013045989178121106 0.004956001415848732
      vertex 0.003161000431049615 -0.016692988775670544 0.0030800008680671453
      vertex 0.00077300017559900867 -0.017169989846646801 0.0051560010761022568
    endloop
  endfacet
  facet normal 0.73444645154680477 0.087449333035171009 0.67300893304770537
    outer loop
      vertex 0.0052840000656433402 -0.015777997873723523 0.005609000101685524
      vertex 0.0028030004990287124 -0.016312994264066235 0.0083860009908676147
      vertex 0.0052460002419538795 -0.019607000254094616 0.0061480011790990829
    endloop
  endfacet
  facet normal 0.8509511883025781 0.39914066887694477 0.34142173565093281
    outer loop
      vertex 0.0040290005211718379 -0.019309990309178845 0.0088340006768703461
      vertex 0.0052460002419538795 -0.019607000254094616 0.0061480011790990829
      vertex 0.0028030004990287124 -0.016312994264066235 0.0083860009908676147
    endloop
  endfacet
  facet normal -0.75690391346977626 -0.029566106387822609 0.65285703728090505
    outer loop
      vertex 0.0010630002883262931 -0.021303988263010994 0.005305001512169838
      vertex 0.0040290005211718379 -0.019309990309178845 0.0088340006768703461
      vertex 0.00077300017559900867 -0.017169989846646801 0.0051560010761022568
    endloop
  endfacet
  facet normal -0.79195166149272256 -0.24004622430448938 0.56141818286912915
    outer loop
      vertex 0.0028030004990287124 -0.016312994264066235 0.0083860009908676147
      vertex 0.00077300017559900867 -0.017169989846646801 0.0051560010761022568
      vertex 0.0040290005211718379 -0.019309990309178845 0.0088340006768703461
    endloop
  endfacet
  facet normal 0.8674817907942568 0.10986592816726881 -0.48518534651031414
    outer loop
      vertex 0.0037480004769749938 -0.021477989122271553 0.0030460001435130835
      vertex 0.003161000431049615 -0.016692988775670544 0.0030800008680671453
      vertex 0.0052460002419538795 -0.019607000254094616 0.0061480011790990829
    endloop
  endfacet
  facet normal 0.7790988103041373 -0.094961259918455054 -0.61966717106635349
    outer loop
      vertex 0.0052840000656433402 -0.015777997873723523 0.005609000101685524
      vertex 0.0052460002419538795 -0.019607000254094616 0.0061480011790990829
      vertex 0.003161000431049615 -0.016692988775670544 0.0030800008680671453
    endloop
  endfacet
  facet normal -0.64483504364698141 -0.073699430496157292 -0.7607602516097548
    outer loop
      vertex 0.0037480004769749938 -0.021477989122271553 0.0030460001435130835
      vertex 0.0010630002883262931 -0.021303988263010994 0.005305001512169838
      vertex 0.003161000431049615 -0.016692988775670544 0.0030800008680671453
    endloop
  endfacet
  facet normal -0.64603731920025553 -0.072706046130475335 -0.75983525389167117
    outer loop
      vertex 0.00077300017559900867 -0.017169989846646801 0.0051560010761022568
      vertex 0.003161000431049615 -0.016692988775670544 0.0030800008680671453
      vertex 0.0010630002883262931 -0.021303988263010994 0.005305001512169838
    endloop
  endfacet
  facet normal 0.91304571144869828 0.24481541041832125 0.32620996861967522
    outer loop
      vertex 0.0061610004571266471 -0.023325986430048958 0.0063780006021261215
      vertex 0.0052460002419538795 -0.019607000254094616 0.0061480011790990829
      vertex 0.0049510000911541282 -0.022318995758891121 0.0090090017765760422
    endloop
  endfacet
  facet normal 0.88291205633518033 0.2919245902517984 0.36775852727612335
    outer loop
      vertex 0.0040290005211718379 -0.019309990309178845 0.0088340006768703461
      vertex 0.0049510000911541282 -0.022318995758891121 0.0090090017765760422
      vertex 0.0052460002419538795 -0.019607000254094616 0.0061480011790990829
    endloop
  endfacet
  facet normal -0.70194223482770401 -0.14150231521987655 0.69803595448408173
    outer loop
      vertex 0.0024910004516132175 -0.024909994766116158 0.0060100015252828598
      vertex 0.0049510000911541282 -0.022318995758891121 0.0090090017765760422
      vertex 0.0010630002883262931 -0.021303988263010994 0.005305001512169838
    endloop
  endfacet
  facet normal -0.7026907541023939 -0.17520819012348618 0.68958523346476985
    outer loop
      vertex 0.0040290005211718379 -0.019309990309178845 0.0088340006768703461
      vertex 0.0010630002883262931 -0.021303988263010994 0.005305001512169838
      vertex 0.0049510000911541282 -0.022318995758891121 0.0090090017765760422
    endloop
  endfacet
  facet normal 0.82355064848078197 0.057931495525328641 -0.56427676827340911
    outer loop
      vertex 0.0046220001471228896 -0.025749988123774544 0.0038830002304166555
      vertex 0.0037480004769749938 -0.021477989122271553 0.0030460001435130835
      vertex 0.0061610004571266471 -0.023325986430048958 0.0063780006021261215
    endloop
  endfacet
  facet normal 0.84100939175246248 0.17526268968444753 -0.5118458680000515
    outer loop
      vertex 0.0037480004769749938 -0.021477989122271553 0.0030460001435130835
      vertex 0.0052460002419538795 -0.019607000254094616 0.0061480011790990829
      vertex 0.0061610004571266471 -0.023325986430048958 0.0063780006021261215
    endloop
  endfacet
  facet normal -0.61029233782849523 -0.37780702788900772 -0.69627947841761395
    outer loop
      vertex 0.0010630002883262931 -0.021303988263010994 0.005305001512169838
      vertex 0.0037480004769749938 -0.021477989122271553 0.0030460001435130835
      vertex 0.0024910004516132175 -0.024909994766116158 0.0060100015252828598
    endloop
  endfacet
  facet normal -0.73139681813252089 -0.27214730534617382 -0.62529556100970418
    outer loop
      vertex 0.0046220001471228896 -0.025749988123774544 0.0038830002304166555
      vertex 0.0024910004516132175 -0.024909994766116158 0.0060100015252828598
      vertex 0.0037480004769749938 -0.021477989122271553 0.0030460001435130835
    endloop
  endfacet
  facet normal 0.9137131510730262 0.23871464860933622 0.32885193339179603
    outer loop
      vertex 0.0049510000911541282 -0.022318995758891121 0.0090090017765760422
      vertex 0.0057200005915947257 -0.025351993009448067 0.0090740006417036057
      vertex 0.0061610004571266471 -0.023325986430048958 0.0063780006021261215
    endloop
  endfacet
  facet normal 0.95875368610463207 -0.279248882018518 -0.053022931569166182
    outer loop
      vertex 0.0051060001072473823 -0.027044988438487069 0.0068880002945661545
      vertex 0.0061610004571266471 -0.023325986430048958 0.0063780006021261215
      vertex 0.0057200005915947257 -0.025351993009448067 0.0090740006417036057
    endloop
  endfacet
  facet normal -0.70377712602560094 -0.13835152091731343 0.69681892450120186
    outer loop
      vertex 0.0024910004516132175 -0.024909994766116158 0.0060100015252828598
      vertex 0.0045780002777464687 -0.027633986636996285 0.0075770001858472824
      vertex 0.0049510000911541282 -0.022318995758891121 0.0090090017765760422
    endloop
  endfacet
  facet normal -0.66059919260836797 -0.15173472906868413 0.73524504671546442
    outer loop
      vertex 0.0057200005915947257 -0.025351993009448067 0.0090740006417036057
      vertex 0.0049510000911541282 -0.022318995758891121 0.0090090017765760422
      vertex 0.0045780002777464687 -0.027633986636996285 0.0075770001858472824
    endloop
  endfacet
  facet normal 0.91429166840521803 -0.29711798631330238 -0.27530282834350117
    outer loop
      vertex 0.0046220001471228896 -0.025749988123774544 0.0038830002304166555
      vertex 0.0061610004571266471 -0.023325986430048958 0.0063780006021261215
      vertex 0.0051060001072473823 -0.027044988438487069 0.0068880002945661545
    endloop
  endfacet
  facet normal -0.5606312019182268 -0.78945233536024262 -0.24991531691751784
    outer loop
      vertex 0.0046220001471228896 -0.025749988123774544 0.0038830002304166555
      vertex 0.0051060001072473823 -0.027044988438487069 0.0068880002945661545
      vertex 0.0024910004516132175 -0.024909994766116158 0.0060100015252828598
    endloop
  endfacet
  facet normal -0.26297171252303603 -0.62452328205754593 -0.73540230389955441
    outer loop
      vertex 0.0051060001072473823 -0.027044988438487069 0.0068880002945661545
      vertex 0.0045780002777464687 -0.027633986636996285 0.0075770001858472824
      vertex 0.0024910004516132175 -0.024909994766116158 0.0060100015252828598
    endloop
  endfacet
  facet normal 0.82756825892096686 -0.53189595802157486 0.17949224681537257
    outer loop
      vertex 0.0051060001072473823 -0.027044988438487069 0.0068880002945661545
      vertex 0.0057200005915947257 -0.025351993009448067 0.0090740006417036057
      vertex 0.0045780002777464687 -0.027633986636996285 0.0075770001858472824
    endloop
  endfacet
endsolid OBJECT
