solid OBJECT
  facet normal 0.92216484805004273 0.35572828082891478 -0.15188608639156698
    outer loop
      vertex 0.0049470001831650734 -0.036692002296447757 -0.036283999681472778
      vertex 0.0068259998224675655 -0.042168007671833041 -0.037700999528169632
      vertex 0.0046370001509785652 -0.037095004200935366 -0.039110001176595688
    endloop
  endfacet
  facet normal 0.77955800739682568 0.4557163715044012 0.42966487155264788
    outer loop
      vertex 0.0074189999140799046 -0.042051003754138949 -0.038901001214981079
      vertex 0.0046370001509785652 -0.037095004200935366 -0.039110001176595688
      vertex 0.0068259998224675655 -0.042168007671833041 -0.037700999528169632
    endloop
  endfacet
  facet normal 0.82758561421983368 0.20368615984479971 -0.52308125508763881
    outer loop
      vertex 0.0038449999410659075 -0.031195001184940341 -0.035886999219655991
      vertex 0.0049470001831650734 -0.036692002296447757 -0.036283999681472778
      vertex 0.0022780001163482666 -0.032214002192020419 -0.038763001561164856
    endloop
  endfacet
  facet normal 0.88433040586511935 0.43874344583145403 -0.15957418964975251
    outer loop
      vertex 0.0046370001509785652 -0.037095004200935366 -0.039110001176595688
      vertex 0.0022780001163482666 -0.032214002192020419 -0.038763001561164856
      vertex 0.0049470001831650734 -0.036692002296447757 -0.036283999681472778
    endloop
  endfacet
  facet normal -0.0077253212225969663 -0.046460832177905906 -0.99889023945844235
    outer loop
      vertex 0.0074189999140799046 -0.042051003754138949 -0.038901001214981079
      vertex 0.0033619999885559082 -0.039764003336429599 -0.038975998759269714
      vertex 0.0046370001509785652 -0.037095004200935366 -0.039110001176595688
    endloop
  endfacet
  facet normal 0.053456269706671812 -0.075528038126666822 -0.99570976829886748
    outer loop
      vertex 0.0020779999904334545 -0.034648002564907077 -0.03943299874663353
      vertex 0.0046370001509785652 -0.037095004200935366 -0.039110001176595688
      vertex 0.0033619999885559082 -0.039764003336429599 -0.038975998759269714
    endloop
  endfacet
  facet normal 0.33089517648587297 0.22507341707891837 -0.91643348864104834
    outer loop
      vertex 0.0046370001509785652 -0.037095004200935366 -0.039110001176595688
      vertex 0.0020779999904334545 -0.034648002564907077 -0.03943299874663353
      vertex 0.0022780001163482666 -0.032214002192020419 -0.038763001561164856
    endloop
  endfacet
  facet normal 0.82488425925583786 0.086016156446241235 -0.55871923151271941
    outer loop
      vertex 0.0013670000480487943 -0.029434004306793216 -0.039680000394582748
      vertex 0.0022780001163482666 -0.032214002192020419 -0.038763001561164856
      vertex 0.0020779999904334545 -0.034648002564907077 -0.03943299874663353
    endloop
  endfacet
  facet normal 0.8366928207795058 0.15086123649677594 0.52648457810148397
    outer loop
      vertex 0.0068259998224675655 -0.042168007671833041 -0.037700999528169632
      vertex 0.0049470001831650734 -0.036692002296447757 -0.036283999681472778
      vertex 0.0050869998522102833 -0.041063004612922671 -0.035254001617431641
    endloop
  endfacet
  facet normal 0.58769999365587833 0.2033572833337404 0.78310569706266431
    outer loop
      vertex 0.0050869998522102833 -0.041063004612922671 -0.035254001617431641
      vertex 0.0049470001831650734 -0.036692002296447757 -0.036283999681472778
      vertex 0.0030380000825971365 -0.036108003437519076 -0.035002999007701874
    endloop
  endfacet
  facet normal 0.56782448561606425 0.054515066067334882 0.82134247491927881
    outer loop
      vertex 0.0049470001831650734 -0.036692002296447757 -0.036283999681472778
      vertex 0.0038449999410659075 -0.031195001184940341 -0.035886999219655991
      vertex 0.0030380000825971365 -0.036108003437519076 -0.035002999007701874
    endloop
  endfacet
  facet normal 0.77291171813188864 -0.01281169036217876 0.63438421840748471
    outer loop
      vertex 0.0026539999525994062 -0.030555003762245181 -0.034423001110553741
      vertex 0.0030380000825971365 -0.036108003437519076 -0.035002999007701874
      vertex 0.0038449999410659075 -0.031195001184940341 -0.035886999219655991
    endloop
  endfacet
  facet normal 0.69516960994580879 -0.32540268383929338 0.64097761798519692
    outer loop
      vertex 0.0068259998224675655 -0.042168007671833041 -0.037700999528169632
      vertex 0.0050869998522102833 -0.041063004612922671 -0.035254001617431641
      vertex 0.0032140000257641077 -0.045805001139640811 -0.0356299988925457
    endloop
  endfacet
  facet normal 0.75704225411624271 -0.57048876012918037 0.31848014074486447
    outer loop
      vertex 0.0074189999140799046 -0.042051003754138949 -0.038901001214981079
      vertex 0.0068259998224675655 -0.042168007671833041 -0.037700999528169632
      vertex 0.0032140000257641077 -0.045805001139640811 -0.0356299988925457
    endloop
  endfacet
  facet normal 0.64010743848010698 -0.76620780728860516 -0.056462936980145165
    outer loop
      vertex 0.0032140000257641077 -0.045805001139640811 -0.0356299988925457
      vertex 0.0034980000928044319 -0.04535300421714783 -0.038543999195098877
      vertex 0.0074189999140799046 -0.042051003754138949 -0.038901001214981079
    endloop
  endfacet
  facet normal -0.025350226093901918 -0.077653144922695969 -0.99665809339040778
    outer loop
      vertex 0.0034980000928044319 -0.04535300421714783 -0.038543999195098877
      vertex 0.0033619999885559082 -0.039764003336429599 -0.038975998759269714
      vertex 0.0074189999140799046 -0.042051003754138949 -0.038901001214981079
    endloop
  endfacet
  facet normal 0.87424538646573757 0.024127771868874898 -0.48488437267870016
    outer loop
      vertex 0.0022780001163482666 -0.032214002192020419 -0.038763001561164856
      vertex 0.002125999890267849 -0.026204006254673007 -0.038738001137971878
      vertex 0.0038449999410659075 -0.031195001184940341 -0.035886999219655991
    endloop
  endfacet
  facet normal 0.95118432404796205 0.18763826526719327 -0.24503114718937294
    outer loop
      vertex 0.0026579999830573797 -0.025533006966114047 -0.036159001290798187
      vertex 0.0038449999410659075 -0.031195001184940341 -0.035886999219655991
      vertex 0.002125999890267849 -0.026204006254673007 -0.038738001137971878
    endloop
  endfacet
  facet normal 0.79235762340555793 -0.0082907961840039002 -0.61000054043396623
    outer loop
      vertex 0.0013310000067576766 -0.024119005978107455 -0.039799001067876816
      vertex 0.002125999890267849 -0.026204006254673007 -0.038738001137971878
      vertex 0.0013670000480487943 -0.029434004306793216 -0.039680000394582748
    endloop
  endfacet
  facet normal 0.74114060758546763 0.021535610604881902 -0.67100433475777121
    outer loop
      vertex 0.0022780001163482666 -0.032214002192020419 -0.038763001561164856
      vertex 0.0013670000480487943 -0.029434004306793216 -0.039680000394582748
      vertex 0.002125999890267849 -0.026204006254673007 -0.038738001137971878
    endloop
  endfacet
  facet normal 0.96307519070076786 0.087275440045806174 0.2546942767741166
    outer loop
      vertex 0.0020119999535381794 -0.025099003195762637 -0.033865001052618027
      vertex 0.0026539999525994062 -0.030555003762245181 -0.034423001110553741
      vertex 0.0026579999830573797 -0.025533006966114047 -0.036159001290798187
    endloop
  endfacet
  facet normal 0.8008366361165532 0.19509113447760476 0.56621562279909299
    outer loop
      vertex 0.0038449999410659075 -0.031195001184940341 -0.035886999219655991
      vertex 0.0026579999830573797 -0.025533006966114047 -0.036159001290798187
      vertex 0.0026539999525994062 -0.030555003762245181 -0.034423001110553741
    endloop
  endfacet
  facet normal -0.38302414034828142 -0.043250415701268995 -0.92272526217294371
    outer loop
      vertex -0.00018499999714549631 -0.034768001616001132 -0.038488000631332397
      vertex 0.0020779999904334545 -0.034648002564907077 -0.03943299874663353
      vertex 0.0013000000035390258 -0.039940000951290133 -0.038862001150846481
    endloop
  endfacet
  facet normal -0.04637473379608742 -0.10041846852570897 -0.99386393195662992
    outer loop
      vertex 0.0013000000035390258 -0.039940000951290133 -0.038862001150846481
      vertex 0.0020779999904334545 -0.034648002564907077 -0.03943299874663353
      vertex 0.0033619999885559082 -0.039764003336429599 -0.038975998759269714
    endloop
  endfacet
  facet normal -0.429584843946063 -0.076089964471365873 -0.89981508053520809
    outer loop
      vertex -0.0012710000155493617 -0.029500001549720767 -0.038414999842643738
      vertex 0.0013670000480487943 -0.029434004306793216 -0.039680000394582748
      vertex -0.00018499999714549631 -0.034768001616001132 -0.038488000631332397
    endloop
  endfacet
  facet normal -0.37927575174338324 -0.095319495746427965 -0.9203608519869465
    outer loop
      vertex 0.0020779999904334545 -0.034648002564907077 -0.03943299874663353
      vertex -0.00018499999714549631 -0.034768001616001132 -0.038488000631332397
      vertex 0.0013670000480487943 -0.029434004306793216 -0.039680000394582748
    endloop
  endfacet
  facet normal -0.04838109415860916 -0.07814471974311836 -0.99576737871065313
    outer loop
      vertex 0.0033619999885559082 -0.039764003336429599 -0.038975998759269714
      vertex 0.0034980000928044319 -0.04535300421714783 -0.038543999195098877
      vertex 0.0013000000035390258 -0.039940000951290133 -0.038862001150846481
    endloop
  endfacet
  facet normal -0.24764739903956851 -0.12727944440352817 -0.96045338709448358
    outer loop
      vertex -0.0017559999832883477 -0.024157003939151767 -0.03899800032377243
      vertex 0.0013310000067576766 -0.024119005978107455 -0.039799001067876816
      vertex -0.0012710000155493617 -0.029500001549720767 -0.038414999842643738
    endloop
  endfacet
  facet normal -0.43180101299734325 -0.023112803951574831 -0.9016727141640497
    outer loop
      vertex 0.0013670000480487943 -0.029434004306793216 -0.039680000394582748
      vertex -0.0012710000155493617 -0.029500001549720767 -0.038414999842643738
      vertex 0.0013310000067576766 -0.024119005978107455 -0.039799001067876816
    endloop
  endfacet
  facet normal 0.85662015639632672 0.50866586528241431 0.086376762801262538
    outer loop
      vertex 0.0057319998741149902 -0.042903007447719577 -0.030814999714493752
      vertex 0.0050869998522102833 -0.041063004612922671 -0.035254001617431641
      vertex 0.0028699999675154686 -0.038106003284454348 -0.030680999159812927
    endloop
  endfacet
  facet normal 0.90825227905692696 0.36524037800823783 0.20415010129876862
    outer loop
      vertex 0.0030380000825971365 -0.036108003437519076 -0.035002999007701874
      vertex 0.0028699999675154686 -0.038106003284454348 -0.030680999159812927
      vertex 0.0050869998522102833 -0.041063004612922671 -0.035254001617431641
    endloop
  endfacet
  facet normal 0.91670910145807893 0.34791419458824957 0.19646917444711565
    outer loop
      vertex 0.0028699999675154686 -0.038106003284454348 -0.030680999159812927
      vertex 0.0030380000825971365 -0.036108003437519076 -0.035002999007701874
      vertex 0.00086199998622760177 -0.032722005128860476 -0.030845999717712402
    endloop
  endfacet
  facet normal 0.89054326300465236 0.014092411853185155 0.45468021800512393
    outer loop
      vertex 0.0026539999525994062 -0.030555003762245181 -0.034423001110553741
      vertex 0.00086199998622760177 -0.032722005128860476 -0.030845999717712402
      vertex 0.0030380000825971365 -0.036108003437519076 -0.035002999007701874
    endloop
  endfacet
  facet normal 0.81244274310712594 -0.48734014812244669 -0.32005682183100004
    outer loop
      vertex 0.0057319998741149902 -0.042903007447719577 -0.030814999714493752
      vertex 0.0028019999153912067 -0.04599600422382355 -0.033543001860380173
      vertex 0.0050869998522102833 -0.041063004612922671 -0.035254001617431641
    endloop
  endfacet
  facet normal 0.91599354490456386 -0.37342851289740431 0.14665255350113601
    outer loop
      vertex 0.0032140000257641077 -0.045805001139640811 -0.0356299988925457
      vertex 0.0050869998522102833 -0.041063004612922671 -0.035254001617431641
      vertex 0.0028019999153912067 -0.04599600422382355 -0.033543001860380173
    endloop
  endfacet
  facet normal 0.91042377161015009 -0.084390395414216335 0.40497755153709625
    outer loop
      vertex 0.00086199998622760177 -0.032722005128860476 -0.030845999717712402
      vertex 0.0026539999525994062 -0.030555003762245181 -0.034423001110553741
      vertex 0.0011449999874457717 -0.026852005600929263 -0.030259000137448311
    endloop
  endfacet
  facet normal 0.95859329112630454 0.084998826344528114 0.27179790603993381
    outer loop
      vertex 0.0020119999535381794 -0.025099003195762637 -0.033865001052618027
      vertex 0.0011449999874457717 -0.026852005600929263 -0.030259000137448311
      vertex 0.0026539999525994062 -0.030555003762245181 -0.034423001110553741
    endloop
  endfacet
  facet normal -0.34114541451813235 -0.93811828989898249 -0.059614430386107795
    outer loop
      vertex -0.0011050000321120024 -0.044912004351615908 -0.033560998737812042
      vertex 0.0018660000059753656 -0.045733006179332736 -0.037643000483512878
      vertex 0.0021069999784231186 -0.046165005743503573 -0.032223999500274658
    endloop
  endfacet
  facet normal 0.069896148440883932 -0.99414844137655245 -0.082361428725473418
    outer loop
      vertex 0.0018660000059753656 -0.045733006179332736 -0.037643000483512878
      vertex 0.0032140000257641077 -0.045805001139640811 -0.0356299988925457
      vertex 0.0021069999784231186 -0.046165005743503573 -0.032223999500274658
    endloop
  endfacet
  facet normal 0.11015823220113516 -0.99151627143566523 -0.068997444565991994
    outer loop
      vertex 0.0028019999153912067 -0.04599600422382355 -0.033543001860380173
      vertex 0.0021069999784231186 -0.046165005743503573 -0.032223999500274658
      vertex 0.0032140000257641077 -0.045805001139640811 -0.0356299988925457
    endloop
  endfacet
  facet normal 0.15228224791084738 -0.97879826540302595 -0.13698201566354146
    outer loop
      vertex 0.0032140000257641077 -0.045805001139640811 -0.0356299988925457
      vertex 0.0018660000059753656 -0.045733006179332736 -0.037643000483512878
      vertex 0.0034980000928044319 -0.04535300421714783 -0.038543999195098877
    endloop
  endfacet
  facet normal -0.73198018502608253 -0.20803928409959946 -0.64878707215889286
    outer loop
      vertex -0.00025899999309331179 -0.040932001054286959 -0.036784999072551727
      vertex 0.0013000000035390258 -0.039940000951290133 -0.038862001150846481
      vertex 0.0018660000059753656 -0.045733006179332736 -0.037643000483512878
    endloop
  endfacet
  facet normal -0.42997187459248604 -0.22594622829833544 -0.87411240065404616
    outer loop
      vertex 0.0034980000928044319 -0.04535300421714783 -0.038543999195098877
      vertex 0.0018660000059753656 -0.045733006179332736 -0.037643000483512878
      vertex 0.0013000000035390258 -0.039940000951290133 -0.038862001150846481
    endloop
  endfacet
  facet normal 0.99985061938895403 0.012942649928174319 0.011455423185630063
    outer loop
      vertex 0.0025800000876188278 -0.019764007508754733 -0.035868998616933823
      vertex 0.0026579999830573797 -0.025533006966114047 -0.036159001290798187
      vertex 0.0026179999113082886 -0.020039000988006594 -0.038874998688697815
    endloop
  endfacet
  facet normal 0.98008026881453314 -0.082232786434772526 -0.18077730918344148
    outer loop
      vertex 0.002125999890267849 -0.026204006254673007 -0.038738001137971878
      vertex 0.0026179999113082886 -0.020039000988006594 -0.038874998688697815
      vertex 0.0026579999830573797 -0.025533006966114047 -0.036159001290798187
    endloop
  endfacet
  facet normal 0.63295579621616116 -0.024416244882070608 -0.77380282179779114
    outer loop
      vertex 0.0012720000231638551 -0.01880300182104111 -0.040015000849962234
      vertex 0.0026179999113082886 -0.020039000988006594 -0.038874998688697815
      vertex 0.0013310000067576766 -0.024119005978107455 -0.039799001067876816
    endloop
  endfacet
  facet normal 0.72396843089217511 -0.073019725861073873 -0.68595760124565697
    outer loop
      vertex 0.002125999890267849 -0.026204006254673007 -0.038738001137971878
      vertex 0.0013310000067576766 -0.024119005978107455 -0.039799001067876816
      vertex 0.0026179999113082886 -0.020039000988006594 -0.038874998688697815
    endloop
  endfacet
  facet normal 0.96290686121404256 -0.0011601858400575691 0.26983148555299641
    outer loop
      vertex 0.001867000013589859 -0.019619004309177401 -0.033323999494314194
      vertex 0.0020119999535381794 -0.025099003195762637 -0.033865001052618027
      vertex 0.0025800000876188278 -0.019764007508754733 -0.035868998616933823
    endloop
  endfacet
  facet normal 0.96253136309983667 -0.0006175396154839332 0.27116967694414773
    outer loop
      vertex 0.0025800000876188278 -0.019764007508754733 -0.035868998616933823
      vertex 0.0020119999535381794 -0.025099003195762637 -0.033865001052618027
      vertex 0.0026579999830573797 -0.025533006966114047 -0.036159001290798187
    endloop
  endfacet
  facet normal -0.24913784431890504 -0.088916689264775806 -0.96437760078628965
    outer loop
      vertex -0.0017559999832883477 -0.024157003939151767 -0.03899800032377243
      vertex -0.0016570000443607569 -0.018762001276016238 -0.039521001279354095
      vertex 0.0013310000067576766 -0.024119005978107455 -0.039799001067876816
    endloop
  endfacet
  facet normal -0.1667333721654724 -0.041877564936326953 -0.98511230433962893
    outer loop
      vertex 0.0012720000231638551 -0.01880300182104111 -0.040015000849962234
      vertex 0.0013310000067576766 -0.024119005978107455 -0.039799001067876816
      vertex -0.0016570000443607569 -0.018762001276016238 -0.039521001279354095
    endloop
  endfacet
  facet normal 0.96712385592846639 0.038703811904314156 0.25134331548328559
    outer loop
      vertex 0.0011449999874457717 -0.026852005600929263 -0.030259000137448311
      vertex 0.0020119999535381794 -0.025099003195762637 -0.033865001052618027
      vertex 0.0008360000210814178 -0.021053002655506137 -0.029962999746203423
    endloop
  endfacet
  facet normal 0.95644375270856408 -0.0035094311783658268 0.29189558372398017
    outer loop
      vertex 0.001867000013589859 -0.019619004309177401 -0.033323999494314194
      vertex 0.0008360000210814178 -0.021053002655506137 -0.029962999746203423
      vertex 0.0020119999535381794 -0.025099003195762637 -0.033865001052618027
    endloop
  endfacet
  facet normal -0.78275271433112548 -0.065598995826442283 -0.61886586588195203
    outer loop
      vertex -0.00025899999309331179 -0.040932001054286959 -0.036784999072551727
      vertex -0.0011899999808520079 -0.035540000975131991 -0.036178998649120331
      vertex 0.0013000000035390258 -0.039940000951290133 -0.038862001150846481
    endloop
  endfacet
  facet normal -0.86666477294553612 -0.21633147151710841 -0.44954740102296753
    outer loop
      vertex 0.0013000000035390258 -0.039940000951290133 -0.038862001150846481
      vertex -0.0011899999808520079 -0.035540000975131991 -0.036178998649120331
      vertex -0.00018499999714549631 -0.034768001616001132 -0.038488000631332397
    endloop
  endfacet
  facet normal -0.84919528867678562 -0.16812487055806724 -0.50060102835390141
    outer loop
      vertex -0.0012710000155493617 -0.029500001549720767 -0.038414999842643738
      vertex -0.00018499999714549631 -0.034768001616001132 -0.038488000631332397
      vertex -0.0026179999113082886 -0.030301006019115451 -0.035861000418663025
    endloop
  endfacet
  facet normal -0.86895004623056371 -0.20963954393225154 -0.44830467182015715
    outer loop
      vertex -0.0011899999808520079 -0.035540000975131991 -0.036178998649120331
      vertex -0.0026179999113082886 -0.030301006019115451 -0.035861000418663025
      vertex -0.00018499999714549631 -0.034768001616001132 -0.038488000631332397
    endloop
  endfacet
  facet normal -0.84858887656033199 -0.13290527219255624 -0.51208701135792944
    outer loop
      vertex -0.0017559999832883477 -0.024157003939151767 -0.03899800032377243
      vertex -0.0012710000155493617 -0.029500001549720767 -0.038414999842643738
      vertex -0.0035439999774098396 -0.024951004862785342 -0.035829000174999237
    endloop
  endfacet
  facet normal -0.85564908778126381 -0.14512775137602765 -0.49679228492361771
    outer loop
      vertex -0.0026179999113082886 -0.030301006019115451 -0.035861000418663025
      vertex -0.0035439999774098396 -0.024951004862785342 -0.035829000174999237
      vertex -0.0012710000155493617 -0.029500001549720767 -0.038414999842643738
    endloop
  endfacet
  facet normal -0.83822581376897087 -0.037358690930353933 -0.54404210622277838
    outer loop
      vertex -0.0016570000443607569 -0.018762001276016238 -0.039521001279354095
      vertex -0.0017559999832883477 -0.024157003939151767 -0.03899800032377243
      vertex -0.0040159998461604118 -0.019496002674102786 -0.035835999995470047
    endloop
  endfacet
  facet normal -0.86030890510210623 -0.075086145884819197 -0.50421290988845069
    outer loop
      vertex -0.0035439999774098396 -0.024951004862785342 -0.035829000174999237
      vertex -0.0040159998461604118 -0.019496002674102786 -0.035835999995470047
      vertex -0.0017559999832883477 -0.024157003939151767 -0.03899800032377243
    endloop
  endfacet
  facet normal -0.18695250469311203 -0.13870682911016791 0.97252721121168351
    outer loop
      vertex 0.0057319998741149902 -0.042903007447719577 -0.030814999714493752
      vertex 0.0028699999675154686 -0.038106003284454348 -0.030680999159812927
      vertex 0.0014850000152364373 -0.041007006049156192 -0.031360998749732971
    endloop
  endfacet
  facet normal -0.2791213103435643 -0.090818134260976707 0.95595154720385644
    outer loop
      vertex 0.00070799997774884105 -0.035798007130622866 -0.031092999503016472
      vertex 0.0014850000152364373 -0.041007006049156192 -0.031360998749732971
      vertex 0.0028699999675154686 -0.038106003284454348 -0.030680999159812927
    endloop
  endfacet
  facet normal -0.25315507081947181 -0.064834432600402322 0.96525074797576405
    outer loop
      vertex 0.0028699999675154686 -0.038106003284454348 -0.030680999159812927
      vertex 0.00086199998622760177 -0.032722005128860476 -0.030845999717712402
      vertex 0.00070799997774884105 -0.035798007130622866 -0.031092999503016472
    endloop
  endfacet
  facet normal -0.15773105576547339 -0.071190660301671094 0.9849125869501929
    outer loop
      vertex 9.9999999747524271e-07 -0.030593001723289492 -0.030829999595880508
      vertex 0.00070799997774884105 -0.035798007130622866 -0.031092999503016472
      vertex 0.00086199998622760177 -0.032722005128860476 -0.030845999717712402
    endloop
  endfacet
  facet normal 0.60387182415426199 -0.76611140652778242 0.22002757277356585
    outer loop
      vertex 0.0057319998741149902 -0.042903007447719577 -0.030814999714493752
      vertex 0.0021069999784231186 -0.046165005743503573 -0.032223999500274658
      vertex 0.0028019999153912067 -0.04599600422382355 -0.033543001860380173
    endloop
  endfacet
  facet normal -0.20637839005266806 -0.18562529039373335 0.96070349832063739
    outer loop
      vertex 0.0057319998741149902 -0.042903007447719577 -0.030814999714493752
      vertex 0.0014850000152364373 -0.041007006049156192 -0.031360998749732971
      vertex 0.0021069999784231186 -0.046165005743503573 -0.032223999500274658
    endloop
  endfacet
  facet normal -0.21088874308844269 -0.084156366436385313 0.97388071344841909
    outer loop
      vertex -0.00084200000856071711 -0.025356003522872927 -0.030559999868273735
      vertex 9.9999999747524271e-07 -0.030593001723289492 -0.030829999595880508
      vertex 0.0011449999874457717 -0.026852005600929263 -0.030259000137448311
    endloop
  endfacet
  facet normal -0.19941644532075842 -0.087981535989317156 0.97595713566764486
    outer loop
      vertex 0.00086199998622760177 -0.032722005128860476 -0.030845999717712402
      vertex 0.0011449999874457717 -0.026852005600929263 -0.030259000137448311
      vertex 9.9999999747524271e-07 -0.030593001723289492 -0.030829999595880508
    endloop
  endfacet
  facet normal -0.12937636393272944 -0.086597093011836018 0.98780701553362404
    outer loop
      vertex -0.0014479999663308263 -0.020116002738475802 -0.030179999768733978
      vertex -0.00084200000856071711 -0.025356003522872927 -0.030559999868273735
      vertex 0.0008360000210814178 -0.021053002655506137 -0.029962999746203423
    endloop
  endfacet
  facet normal -0.1937365640118458 -0.060304797190251731 0.9791983839859657
    outer loop
      vertex 0.0011449999874457717 -0.026852005600929263 -0.030259000137448311
      vertex 0.0008360000210814178 -0.021053002655506137 -0.029962999746203423
      vertex -0.00084200000856071711 -0.025356003522872927 -0.030559999868273735
    endloop
  endfacet
  facet normal -0.80473303462237999 -0.26089132672477894 -0.53323583771839667
    outer loop
      vertex 0.0018660000059753656 -0.045733006179332736 -0.037643000483512878
      vertex -0.0011050000321120024 -0.044912004351615908 -0.033560998737812042
      vertex -0.00025899999309331179 -0.040932001054286959 -0.036784999072551727
    endloop
  endfacet
  facet normal -0.98531406367494789 0.09393404405398896 -0.14259239563182943
    outer loop
      vertex -0.00025899999309331179 -0.040932001054286959 -0.036784999072551727
      vertex -0.0011050000321120024 -0.044912004351615908 -0.033560998737812042
      vertex -0.00062700000125914812 -0.039851003766059878 -0.033530000597238541
    endloop
  endfacet
  facet normal -0.44191027871570104 -0.199616287411643 0.87456768941312002
    outer loop
      vertex 0.0021069999784231186 -0.046165005743503573 -0.032223999500274658
      vertex 0.0014850000152364373 -0.041007006049156192 -0.031360998749732971
      vertex -0.0011050000321120024 -0.044912004351615908 -0.033560998737812042
    endloop
  endfacet
  facet normal -0.69848851443718674 0.061603816078973667 0.71296477125019297
    outer loop
      vertex -0.00062700000125914812 -0.039851003766059878 -0.033530000597238541
      vertex -0.0011050000321120024 -0.044912004351615908 -0.033560998737812042
      vertex 0.0014850000152364373 -0.041007006049156192 -0.031360998749732971
    endloop
  endfacet
  facet normal -0.98885822267418821 -0.14623720995273992 -0.027822542566844643
    outer loop
      vertex -0.0013749999925494194 -0.034926006078720095 -0.032830998301506042
      vertex -0.0011899999808520079 -0.035540000975131991 -0.036178998649120331
      vertex -0.00062700000125914812 -0.039851003766059878 -0.033530000597238541
    endloop
  endfacet
  facet normal -0.98487126399919533 -0.16364493162705057 -0.056999383342323122
    outer loop
      vertex -0.00025899999309331179 -0.040932001054286959 -0.036784999072551727
      vertex -0.00062700000125914812 -0.039851003766059878 -0.033530000597238541
      vertex -0.0011899999808520079 -0.035540000975131991 -0.036178998649120331
    endloop
  endfacet
  facet normal 0.99003323937164678 -0.13856257065381603 0.025191247549294259
    outer loop
      vertex 0.0026179999113082886 -0.020039000988006594 -0.038874998688697815
      vertex 0.0034310000482946634 -0.014247001588344577 -0.038968000560998917
      vertex 0.0025800000876188278 -0.019764007508754733 -0.035868998616933823
    endloop
  endfacet
  facet normal 0.98903408578041629 -0.14740179675533882 0.0091808211938633425
    outer loop
      vertex 0.0025800000876188278 -0.019764007508754733 -0.035868998616933823
      vertex 0.0034310000482946634 -0.014247001588344577 -0.038968000560998917
      vertex 0.0034409998916089535 -0.014007003486156466 -0.036191999912261963
    endloop
  endfacet
  facet normal 0.62627976363113202 -0.11975092895409019 -0.77034626803844908
    outer loop
      vertex 0.0015650000423192978 -0.013546006262302401 -0.040594000369310379
      vertex 0.0034310000482946634 -0.014247001588344577 -0.038968000560998917
      vertex 0.0012720000231638551 -0.01880300182104111 -0.040015000849962234
    endloop
  endfacet
  facet normal 0.59065331715269664 -0.0957728597742947 -0.80122170356722688
    outer loop
      vertex 0.0012720000231638551 -0.01880300182104111 -0.040015000849962234
      vertex 0.0034310000482946634 -0.014247001588344577 -0.038968000560998917
      vertex 0.0026179999113082886 -0.020039000988006594 -0.038874998688697815
    endloop
  endfacet
  facet normal 0.95357720988457917 -0.12730173575691642 0.27291898589511371
    outer loop
      vertex 0.0034409998916089535 -0.014007003486156466 -0.036191999912261963
      vertex 0.0024949999060481787 -0.01407200235128403 -0.032917000353336334
      vertex 0.0025800000876188278 -0.019764007508754733 -0.035868998616933823
    endloop
  endfacet
  facet normal 0.95308135830613394 -0.12802912478022702 0.27430725046440829
    outer loop
      vertex 0.0024949999060481787 -0.01407200235128403 -0.032917000353336334
      vertex 0.001867000013589859 -0.019619004309177401 -0.033323999494314194
      vertex 0.0025800000876188278 -0.019764007508754733 -0.035868998616933823
    endloop
  endfacet
  facet normal -0.20158991069104876 -0.096121323520941659 -0.974742119266505
    outer loop
      vertex 0.0015650000423192978 -0.013546006262302401 -0.040594000369310379
      vertex 0.0012720000231638551 -0.01880300182104111 -0.040015000849962234
      vertex -0.0015269999857991934 -0.013379001498222354 -0.039971001446247101
    endloop
  endfacet
  facet normal -0.16686425392907112 -0.078135496364718948 -0.98287901848016546
    outer loop
      vertex -0.0016570000443607569 -0.018762001276016238 -0.039521001279354095
      vertex -0.0015269999857991934 -0.013379001498222354 -0.039971001446247101
      vertex 0.0012720000231638551 -0.01880300182104111 -0.040015000849962234
    endloop
  endfacet
  facet normal 0.96131681429279348 -0.062299207290624423 0.26830727036164043
    outer loop
      vertex 0.0008360000210814178 -0.021053002655506137 -0.029962999746203423
      vertex 0.001867000013589859 -0.019619004309177401 -0.033323999494314194
      vertex 0.0011830000439658761 -0.015143000960350039 -0.029834000393748283
    endloop
  endfacet
  facet normal 0.9278015948552939 -0.13067966043865184 0.34943815895178348
    outer loop
      vertex 0.001867000013589859 -0.019619004309177401 -0.033323999494314194
      vertex 0.0024949999060481787 -0.01407200235128403 -0.032917000353336334
      vertex 0.0011830000439658761 -0.015143000960350039 -0.029834000393748283
    endloop
  endfacet
  facet normal -0.80781997280795448 -0.029702703255896072 -0.5886804234487909
    outer loop
      vertex -0.0015269999857991934 -0.013379001498222354 -0.039971001446247101
      vertex -0.0016570000443607569 -0.018762001276016238 -0.039521001279354095
      vertex -0.0045369998551905155 -0.014063002049922946 -0.035806000232696533
    endloop
  endfacet
  facet normal -0.83270160135633264 -0.076824336872954271 -0.54836672433931455
    outer loop
      vertex -0.0040159998461604118 -0.019496002674102786 -0.035835999995470047
      vertex -0.0045369998551905155 -0.014063002049922946 -0.035806000232696533
      vertex -0.0016570000443607569 -0.018762001276016238 -0.039521001279354095
    endloop
  endfacet
  facet normal -0.10098633908786597 -0.015783662070828479 0.99476260249833703
    outer loop
      vertex 0.0008360000210814178 -0.021053002655506137 -0.029962999746203423
      vertex 0.0011830000439658761 -0.015143000960350039 -0.029834000393748283
      vertex -0.0014479999663308263 -0.020116002738475802 -0.030179999768733978
    endloop
  endfacet
  facet normal 0.29214944245610835 -0.2193303210442813 0.93088286778906681
    outer loop
      vertex -0.00068200001260265708 -0.01501700419187546 -0.029218999668955803
      vertex -0.0014479999663308263 -0.020116002738475802 -0.030179999768733978
      vertex 0.0011830000439658761 -0.015143000960350039 -0.029834000393748283
    endloop
  endfacet
  facet normal -0.9720619889527492 -0.22974630718914235 0.048084550181709741
    outer loop
      vertex -0.0025090000126510859 -0.030006007730960849 -0.032248001545667648
      vertex -0.0026179999113082886 -0.030301006019115451 -0.035861000418663025
      vertex -0.0013749999925494194 -0.034926006078720095 -0.032830998301506042
    endloop
  endfacet
  facet normal -0.96486838553907528 -0.26268338648906309 -0.005141697176638543
    outer loop
      vertex -0.0011899999808520079 -0.035540000975131991 -0.036178998649120331
      vertex -0.0013749999925494194 -0.034926006078720095 -0.032830998301506042
      vertex -0.0026179999113082886 -0.030301006019115451 -0.035861000418663025
    endloop
  endfacet
  facet normal -0.98436715221520654 -0.17063925477984282 0.043629741781314166
    outer loop
      vertex -0.0026179999113082886 -0.030301006019115451 -0.035861000418663025
      vertex -0.0025090000126510859 -0.030006007730960849 -0.032248001545667648
      vertex -0.0035439999774098396 -0.024951004862785342 -0.035829000174999237
    endloop
  endfacet
  facet normal -0.98497418881597698 -0.1645681619211202 0.052375256068219356
    outer loop
      vertex -0.0033390000462532043 -0.025009007632732394 -0.032156001776456833
      vertex -0.0035439999774098396 -0.024951004862785342 -0.035829000174999237
      vertex -0.0025090000126510859 -0.030006007730960849 -0.032248001545667648
    endloop
  endfacet
  facet normal -0.99405933467009744 -0.085926319884467223 0.066803493219708493
    outer loop
      vertex -0.0040159998461604118 -0.019496002674102786 -0.035835999995470047
      vertex -0.0035439999774098396 -0.024951004862785342 -0.035829000174999237
      vertex -0.0037219999358057976 -0.019960002481937411 -0.032058000564575195
    endloop
  endfacet
  facet normal -0.99558093672018322 -0.076576356731531334 0.054356784572746841
    outer loop
      vertex -0.0037219999358057976 -0.019960002481937411 -0.032058000564575195
      vertex -0.0035439999774098396 -0.024951004862785342 -0.035829000174999237
      vertex -0.0033390000462532043 -0.025009007632732394 -0.032156001776456833
    endloop
  endfacet
  facet normal -0.99194829609799362 -0.095582082880893163 0.083082147904569539
    outer loop
      vertex -0.0045369998551905155 -0.014063002049922946 -0.035806000232696533
      vertex -0.0040159998461604118 -0.019496002674102786 -0.035835999995470047
      vertex -0.0041310000233352184 -0.014903002858161929 -0.031925000250339508
    endloop
  endfacet
  facet normal -0.99434279753006072 -0.082190067581232581 0.067284424580174654
    outer loop
      vertex -0.0037219999358057976 -0.019960002481937411 -0.032058000564575195
      vertex -0.0041310000233352184 -0.014903002858161929 -0.031925000250339508
      vertex -0.0040159998461604118 -0.019496002674102786 -0.035835999995470047
    endloop
  endfacet
  facet normal -0.74636612890635101 -0.14475327096919244 0.64960302659783509
    outer loop
      vertex 0.0014850000152364373 -0.041007006049156192 -0.031360998749732971
      vertex 0.00070799997774884105 -0.035798007130622866 -0.031092999503016472
      vertex -0.00062700000125914812 -0.039851003766059878 -0.033530000597238541
    endloop
  endfacet
  facet normal -0.67604369692684785 -0.2032034071668615 0.70828899127493095
    outer loop
      vertex -0.0013749999925494194 -0.034926006078720095 -0.032830998301506042
      vertex -0.00062700000125914812 -0.039851003766059878 -0.033530000597238541
      vertex 0.00070799997774884105 -0.035798007130622866 -0.031092999503016472
    endloop
  endfacet
  facet normal -0.51816043600450334 -0.21744665593815049 0.82717997701887014
    outer loop
      vertex -0.0025090000126510859 -0.030006007730960849 -0.032248001545667648
      vertex -0.0013749999925494194 -0.034926006078720095 -0.032830998301506042
      vertex 9.9999999747524271e-07 -0.030593001723289492 -0.030829999595880508
    endloop
  endfacet
  facet normal -0.66637250344558763 -0.12763266927349351 0.73461390429652429
    outer loop
      vertex 0.00070799997774884105 -0.035798007130622866 -0.031092999503016472
      vertex 9.9999999747524271e-07 -0.030593001723289492 -0.030829999595880508
      vertex -0.0013749999925494194 -0.034926006078720095 -0.032830998301506042
    endloop
  endfacet
  facet normal -0.54593738303904904 -0.10598132147964713 0.83109586288099302
    outer loop
      vertex -0.0033390000462532043 -0.025009007632732394 -0.032156001776456833
      vertex -0.0025090000126510859 -0.030006007730960849 -0.032248001545667648
      vertex -0.00084200000856071711 -0.025356003522872927 -0.030559999868273735
    endloop
  endfacet
  facet normal -0.51012678712301218 -0.1259803446478065 0.85082290391242565
    outer loop
      vertex 9.9999999747524271e-07 -0.030593001723289492 -0.030829999595880508
      vertex -0.00084200000856071711 -0.025356003522872927 -0.030559999868273735
      vertex -0.0025090000126510859 -0.030006007730960849 -0.032248001545667648
    endloop
  endfacet
  facet normal -0.54655403141544101 -0.12327593500864588 0.82830050983400538
    outer loop
      vertex -0.00084200000856071711 -0.025356003522872927 -0.030559999868273735
      vertex -0.0014479999663308263 -0.020116002738475802 -0.030179999768733978
      vertex -0.0033390000462532043 -0.025009007632732394 -0.032156001776456833
    endloop
  endfacet
  facet normal -0.63807752885786884 -0.063296909169994073 0.76736599381009907
    outer loop
      vertex -0.0037219999358057976 -0.019960002481937411 -0.032058000564575195
      vertex -0.0033390000462532043 -0.025009007632732394 -0.032156001776456833
      vertex -0.0014479999663308263 -0.020116002738475802 -0.030179999768733978
    endloop
  endfacet
  facet normal -0.61745596499509037 -0.05512806899129525 0.7846712861455255
    outer loop
      vertex -0.00068200001260265708 -0.01501700419187546 -0.029218999668955803
      vertex -0.0041310000233352184 -0.014903002858161929 -0.031925000250339508
      vertex -0.0014479999663308263 -0.020116002738475802 -0.030179999768733978
    endloop
  endfacet
  facet normal -0.63805687924211718 -0.071767521503053433 0.7666373599747921
    outer loop
      vertex -0.0037219999358057976 -0.019960002481937411 -0.032058000564575195
      vertex -0.0014479999663308263 -0.020116002738475802 -0.030179999768733978
      vertex -0.0041310000233352184 -0.014903002858161929 -0.031925000250339508
    endloop
  endfacet
  facet normal 0.94291115279387427 -0.33208100334383384 0.025313339469131686
    outer loop
      vertex 0.0034310000482946634 -0.014247001588344577 -0.038968000560998917
      vertex 0.0053460001945495605 -0.008785003304481509 -0.038646001368761063
      vertex 0.0034409998916089535 -0.014007003486156466 -0.036191999912261963
    endloop
  endfacet
  facet normal 0.86502952288155521 -0.43392370202879382 -0.25186136138942694
    outer loop
      vertex 0.0060169999487698078 -0.0089170052409172085 -0.036113999783992767
      vertex 0.0034409998916089535 -0.014007003486156466 -0.036191999912261963
      vertex 0.0053460001945495605 -0.008785003304481509 -0.038646001368761063
    endloop
  endfacet
  facet normal 0.63093549696242612 -0.17667284334386107 -0.75545159017475894
    outer loop
      vertex 0.0053460001945495605 -0.008785003304481509 -0.038646001368761063
      vertex 0.0034310000482946634 -0.014247001588344577 -0.038968000560998917
      vertex 0.0026849999558180571 -0.0084190009832382229 -0.040954001247882843
    endloop
  endfacet
  facet normal 0.60468714890489017 -0.18646526264595684 -0.77432819771441208
    outer loop
      vertex 0.0015650000423192978 -0.013546006262302401 -0.040594000369310379
      vertex 0.0026849999558180571 -0.0084190009832382229 -0.040954001247882843
      vertex 0.0034310000482946634 -0.014247001588344577 -0.038968000560998917
    endloop
  endfacet
  facet normal 0.8920089009264347 -0.45169786603474793 0.017004660763122421
    outer loop
      vertex 0.0060169999487698078 -0.0089170052409172085 -0.036113999783992767
      vertex 0.0055160000920295715 -0.0097530050873756435 -0.032039999961853027
      vertex 0.0034409998916089535 -0.014007003486156466 -0.036191999912261963
    endloop
  endfacet
  facet normal 0.77964604839646057 -0.58869422047452014 0.21352085144004357
    outer loop
      vertex 0.0055160000920295715 -0.0097530050873756435 -0.032039999961853027
      vertex 0.0024949999060481787 -0.01407200235128403 -0.032917000353336334
      vertex 0.0034409998916089535 -0.014007003486156466 -0.036191999912261963
    endloop
  endfacet
  facet normal -0.014694696770326667 -0.18236174819912757 -0.98312169067750022
    outer loop
      vertex -0.0023610000498592854 -0.0081310062408447292 -0.040931999683380127
      vertex 0.0026849999558180571 -0.0084190009832382229 -0.040954001247882843
      vertex -0.0015269999857991934 -0.013379001498222354 -0.039971001446247101
    endloop
  endfacet
  facet normal -0.19877101476737244 -0.025370687219362795 -0.97971751638845683
    outer loop
      vertex 0.0015650000423192978 -0.013546006262302401 -0.040594000369310379
      vertex -0.0015269999857991934 -0.013379001498222354 -0.039971001446247101
      vertex 0.0026849999558180571 -0.0084190009832382229 -0.040954001247882843
    endloop
  endfacet
  facet normal 0.74962995192658666 -0.58658796555653814 0.30654444023466665
    outer loop
      vertex 0.0055160000920295715 -0.0097530050873756435 -0.032039999961853027
      vertex 0.003696999978274107 -0.010190003991127017 -0.028427999466657639
      vertex 0.0024949999060481787 -0.01407200235128403 -0.032917000353336334
    endloop
  endfacet
  facet normal 0.8516831898638999 -0.48713799083831888 0.19321573948635318
    outer loop
      vertex 0.0011830000439658761 -0.015143000960350039 -0.029834000393748283
      vertex 0.0024949999060481787 -0.01407200235128403 -0.032917000353336334
      vertex 0.003696999978274107 -0.010190003991127017 -0.028427999466657639
    endloop
  endfacet
  facet normal -0.85468980659603 -0.22177749778886421 -0.46938265410574237
    outer loop
      vertex -0.0023610000498592854 -0.0081310062408447292 -0.040931999683380127
      vertex -0.0015269999857991934 -0.013379001498222354 -0.039971001446247101
      vertex -0.004889999981969595 -0.0086220069527626064 -0.036095000803470612
    endloop
  endfacet
  facet normal -0.80111568396014099 -0.083454181578218115 -0.59266268693936286
    outer loop
      vertex -0.0045369998551905155 -0.014063002049922946 -0.035806000232696533
      vertex -0.004889999981969595 -0.0086220069527626064 -0.036095000803470612
      vertex -0.0015269999857991934 -0.013379001498222354 -0.039971001446247101
    endloop
  endfacet
  facet normal 0.13647857177454861 -0.33401814533769281 0.93263362475923373
    outer loop
      vertex 0.003696999978274107 -0.010190003991127017 -0.028427999466657639
      vertex -0.00067899998975917697 -0.0099900006055831936 -0.027715999633073807
      vertex 0.0011830000439658761 -0.015143000960350039 -0.029834000393748283
    endloop
  endfacet
  facet normal 0.28432115821872755 -0.27478928997331648 0.91850548452642478
    outer loop
      vertex -0.00068200001260265708 -0.01501700419187546 -0.029218999668955803
      vertex 0.0011830000439658761 -0.015143000960350039 -0.029834000393748283
      vertex -0.00067899998975917697 -0.0099900006055831936 -0.027715999633073807
    endloop
  endfacet
  facet normal -0.99790624004442208 -0.064462101598638008 0.0052700605206244047
    outer loop
      vertex -0.004889999981969595 -0.0086220069527626064 -0.036095000803470612
      vertex -0.0045369998551905155 -0.014063002049922946 -0.035806000232696533
      vertex -0.0047860001213848591 -0.0098810060620307949 -0.031801998615264893
    endloop
  endfacet
  facet normal -0.98856281842936788 -0.13077418198117541 0.07511103345141068
    outer loop
      vertex -0.0041310000233352184 -0.014903002858161929 -0.031925000250339508
      vertex -0.0047860001213848591 -0.0098810060620307949 -0.031801998615264893
      vertex -0.0045369998551905155 -0.014063002049922946 -0.035806000232696533
    endloop
  endfacet
  facet normal -0.69288404466044062 -0.20616909727611032 0.69094573157617967
    outer loop
      vertex -0.00067899998975917697 -0.0099900006055831936 -0.027715999633073807
      vertex -0.0047860001213848591 -0.0098810060620307949 -0.031801998615264893
      vertex -0.00068200001260265708 -0.01501700419187546 -0.029218999668955803
    endloop
  endfacet
  facet normal -0.61623753759274891 -0.099508327903704355 0.78124860956000042
    outer loop
      vertex -0.0041310000233352184 -0.014903002858161929 -0.031925000250339508
      vertex -0.00068200001260265708 -0.01501700419187546 -0.029218999668955803
      vertex -0.0047860001213848591 -0.0098810060620307949 -0.031801998615264893
    endloop
  endfacet
  facet normal 0.86257242416785829 0.079581402135997389 -0.49963548062487806
    outer loop
      vertex 0.0044680000282824039 -0.0030480040907859829 -0.039248000830411911
      vertex 0.0060899998061358929 -0.0034010051488876369 -0.036504000425338745
      vertex 0.0053460001945495605 -0.008785003304481509 -0.038646001368761063
    endloop
  endfacet
  facet normal 0.96576748025634696 -0.030990954513497926 -0.25755142169603523
    outer loop
      vertex 0.0060169999487698078 -0.0089170052409172085 -0.036113999783992767
      vertex 0.0053460001945495605 -0.008785003304481509 -0.038646001368761063
      vertex 0.0060899998061358929 -0.0034010051488876369 -0.036504000425338745
    endloop
  endfacet
  facet normal 0.65675109403244369 0.021411600905338241 -0.75380338539559411
    outer loop
      vertex 0.0044680000282824039 -0.0030480040907859829 -0.039248000830411911
      vertex 0.0053460001945495605 -0.008785003304481509 -0.038646001368761063
      vertex 0.0026849999558180571 -0.0084190009832382229 -0.040954001247882843
    endloop
  endfacet
  facet normal 0.98736375441214486 -0.0018633413694748252 0.15845928319948524
    outer loop
      vertex 0.0060899998061358929 -0.0034010051488876369 -0.036504000425338745
      vertex 0.0053449999541044235 -0.0042610033154487637 -0.03187200054526329
      vertex 0.0060169999487698078 -0.0089170052409172085 -0.036113999783992767
    endloop
  endfacet
  facet normal 0.9914767210140204 0.026971804619212492 0.1274614978841451
    outer loop
      vertex 0.0060169999487698078 -0.0089170052409172085 -0.036113999783992767
      vertex 0.0053449999541044235 -0.0042610033154487637 -0.03187200054526329
      vertex 0.0055160000920295715 -0.0097530050873756435 -0.032039999961853027
    endloop
  endfacet
  facet normal 0.055878732188860109 0.28535741517885488 -0.95679084072299103
    outer loop
      vertex 0.0044680000282824039 -0.0030480040907859829 -0.039248000830411911
      vertex 0.0026849999558180571 -0.0084190009832382229 -0.040954001247882843
      vertex -0.0017699999734759331 -0.0030000074505805996 -0.039597999304533005
    endloop
  endfacet
  facet normal 0.010077401515122058 0.25052319106573456 -0.96805814738420781
    outer loop
      vertex -0.0017699999734759331 -0.0030000074505805996 -0.039597999304533005
      vertex 0.0026849999558180571 -0.0084190009832382229 -0.040954001247882843
      vertex -0.0023610000498592854 -0.0081310062408447292 -0.040931999683380127
    endloop
  endfacet
  facet normal 0.89401913420752066 -0.084276232926868255 0.44003102644528513
    outer loop
      vertex 0.003696999978274107 -0.010190003991127017 -0.028427999466657639
      vertex 0.0055160000920295715 -0.0097530050873756435 -0.032039999961853027
      vertex 0.0041049998253583908 -0.0044730021357536343 -0.028162000700831413
    endloop
  endfacet
  facet normal 0.94790113131739773 0.019788029872744917 0.31794949146201301
    outer loop
      vertex 0.0053449999541044235 -0.0042610033154487637 -0.03187200054526329
      vertex 0.0041049998253583908 -0.0044730021357536343 -0.028162000700831413
      vertex 0.0055160000920295715 -0.0097530050873756435 -0.032039999961853027
    endloop
  endfacet
  facet normal -0.87441467006141727 0.21393343940881782 -0.4354669542963005
    outer loop
      vertex -0.0023610000498592854 -0.0081310062408447292 -0.040931999683380127
      vertex -0.004889999981969595 -0.0086220069527626064 -0.036095000803470612
      vertex -0.0017699999734759331 -0.0030000074505805996 -0.039597999304533005
    endloop
  endfacet
  facet normal -0.86526813565782446 0.19152756444573121 -0.4632798781219829
    outer loop
      vertex -0.0042960001155734062 -0.0033140047192573574 -0.035009998828172684
      vertex -0.0017699999734759331 -0.0030000074505805996 -0.039597999304533005
      vertex -0.004889999981969595 -0.0086220069527626064 -0.036095000803470612
    endloop
  endfacet
  facet normal 0.13637140235923062 -0.055752234070759882 0.98908772564151048
    outer loop
      vertex 0.0041049998253583908 -0.0044730021357536343 -0.028162000700831413
      vertex -0.00039299999480135739 -0.0048130019307136562 -0.027560999616980553
      vertex 0.003696999978274107 -0.010190003991127017 -0.028427999466657639
    endloop
  endfacet
  facet normal 0.15876992678313567 -0.038309241009854195 0.9865721019786271
    outer loop
      vertex 0.003696999978274107 -0.010190003991127017 -0.028427999466657639
      vertex -0.00039299999480135739 -0.0048130019307136562 -0.027560999616980553
      vertex -0.00067899998975917697 -0.0099900006055831936 -0.027715999633073807
    endloop
  endfacet
  facet normal -0.99375067330807421 0.09829147502254057 0.052899765950731828
    outer loop
      vertex -0.0047860001213848591 -0.0098810060620307949 -0.031801998615264893
      vertex -0.0042559998109936714 -0.0048950030207633999 -0.031109999865293503
      vertex -0.004889999981969595 -0.0086220069527626064 -0.036095000803470612
    endloop
  endfacet
  facet normal -0.99360106466389597 0.10075807494911422 0.051036600898972835
    outer loop
      vertex -0.0042960001155734062 -0.0033140047192573574 -0.035009998828172684
      vertex -0.004889999981969595 -0.0086220069527626064 -0.036095000803470612
      vertex -0.0042559998109936714 -0.0048950030207633999 -0.031109999865293503
    endloop
  endfacet
  facet normal -0.70541104123704712 -0.023336061996300075 0.70841420871646144
    outer loop
      vertex -0.0047860001213848591 -0.0098810060620307949 -0.031801998615264893
      vertex -0.00067899998975917697 -0.0099900006055831936 -0.027715999633073807
      vertex -0.0042559998109936714 -0.0048950030207633999 -0.031109999865293503
    endloop
  endfacet
  facet normal -0.67664127901050575 0.01534009920876561 0.7361530145936318
    outer loop
      vertex -0.00039299999480135739 -0.0048130019307136562 -0.027560999616980553
      vertex -0.0042559998109936714 -0.0048950030207633999 -0.031109999865293503
      vertex -0.00067899998975917697 -0.0099900006055831936 -0.027715999633073807
    endloop
  endfacet
  facet normal -0.010879937739813146 0.94611212117558752 0.32365642449889342
    outer loop
      vertex 0.0044680000282824039 -0.0030480040907859829 -0.039248000830411911
      vertex -0.0017699999734759331 -0.0030000074505805996 -0.039597999304533005
      vertex 0.0015170000260695815 -0.0047250031232833889 -0.034444998949766159
    endloop
  endfacet
  facet normal -0.17524338591811775 0.95803758873487077 0.22683415585627451
    outer loop
      vertex 0.0060899998061358929 -0.0034010051488876369 -0.036504000425338745
      vertex 0.0044680000282824039 -0.0030480040907859829 -0.039248000830411911
      vertex 0.0015170000260695815 -0.0047250031232833889 -0.034444998949766159
    endloop
  endfacet
  facet normal -0.21444396108446145 0.9659360395993809 0.14484942166770695
    outer loop
      vertex 0.0053449999541044235 -0.0042610033154487637 -0.03187200054526329
      vertex 0.0060899998061358929 -0.0034010051488876369 -0.036504000425338745
      vertex 0.0015170000260695815 -0.0047250031232833889 -0.034444998949766159
    endloop
  endfacet
  facet normal -0.12923431031435392 0.99152267566984442 0.013463902483527307
    outer loop
      vertex 0.0041049998253583908 -0.0044730021357536343 -0.028162000700831413
      vertex 0.0053449999541044235 -0.0042610033154487637 -0.03187200054526329
      vertex 0.0015170000260695815 -0.0047250031232833889 -0.034444998949766159
    endloop
  endfacet
  facet normal 0.21493253392282644 0.95914354965097537 0.18397732747390305
    outer loop
      vertex -0.0017699999734759331 -0.0030000074505805996 -0.039597999304533005
      vertex -0.0042960001155734062 -0.0033140047192573574 -0.035009998828172684
      vertex 0.0015170000260695815 -0.0047250031232833889 -0.034444998949766159
    endloop
  endfacet
  facet normal -0.076497883150928245 0.99703368608471876 -0.00847954513789532
    outer loop
      vertex -0.00039299999480135739 -0.0048130019307136562 -0.027560999616980553
      vertex 0.0041049998253583908 -0.0044730021357536343 -0.028162000700831413
      vertex 0.0015170000260695815 -0.0047250031232833889 -0.034444998949766159
    endloop
  endfacet
  facet normal 0.18548453069000514 0.91132532379403119 0.36753454679310477
    outer loop
      vertex -0.0042960001155734062 -0.0033140047192573574 -0.035009998828172684
      vertex -0.0042559998109936714 -0.0048950030207633999 -0.031109999865293503
      vertex 0.0015170000260695815 -0.0047250031232833889 -0.034444998949766159
    endloop
  endfacet
  facet normal -0.026264570067344215 0.99963994442056747 0.0054912546856070799
    outer loop
      vertex -0.0042559998109936714 -0.0048950030207633999 -0.031109999865293503
      vertex -0.00039299999480135739 -0.0048130019307136562 -0.027560999616980553
      vertex 0.0015170000260695815 -0.0047250031232833889 -0.034444998949766159
    endloop
  endfacet
endsolid OBJECT
