solid OBJECT
  facet normal -0.092011161474206515 -0.1390073502923786 0.98600755713577559
    outer loop
      vertex -0.00071350008853278933 -0.03960499496907012 -0.001228999741375446
      vertex 0.0045164998193640638 -0.0062459889218212808 0.0039620004370808605
      vertex -0.0059664998077651101 -0.0067549976870419229 0.0029119994267821315
    endloop
  endfacet
  facet normal -0.053018542596358541 0.99754512047891453 0.045746767641722558
    outer loop
      vertex 0.0045164998193640638 -0.0062459889218212808 0.0039620004370808605
      vertex 0.0036984998043762896 -0.0060000005528332437 -0.0023500010594725606
      vertex -0.0059664998077651101 -0.0067549976870419229 0.0029119994267821315
    endloop
  endfacet
  facet normal -0.057850154716818446 0.99764359966755078 0.036886415407462708
    outer loop
      vertex 0.0036984998043762896 -0.0060000005528332437 -0.0023500010594725606
      vertex -0.0015255002179046708 -0.0061309966608883585 -0.006999999679625034
      vertex -0.0059664998077651101 -0.0067549976870419229 0.0029119994267821315
    endloop
  endfacet
  facet normal -0.015162860024195948 0.99831257986324207 0.056054264446912722
    outer loop
      vertex -0.006323499965002163 -0.006472993211448356 -0.0022070002034306523
      vertex -0.0059664998077651101 -0.0067549976870419229 0.0029119994267821315
      vertex -0.0015255002179046708 -0.0061309966608883585 -0.006999999679625034
    endloop
  endfacet
  facet normal 0.95815897072896672 -0.25291838223503665 -0.13402864894946476
    outer loop
      vertex 0.0036984998043762896 -0.0060000005528332437 -0.0023500010594725606
      vertex 0.0045164998193640638 -0.0062459889218212808 0.0039620004370808605
      vertex 0.0023394998754511032 -0.011530000285804434 -0.0016300011649727818
    endloop
  endfacet
  facet normal 0.93161937859658228 -0.36289705614519358 -0.019775238670378819
    outer loop
      vertex 0.0022974997884730253 -0.011927995400130911 0.0036949995681643489
      vertex 0.0023394998754511032 -0.011530000285804434 -0.0016300011649727818
      vertex 0.0045164998193640638 -0.0062459889218212808 0.0039620004370808605
    endloop
  endfacet
  facet normal 0.45448992295576573 -0.21807560550282137 0.86364456822019076
    outer loop
      vertex 0.0045164998193640638 -0.0062459889218212808 0.0039620004370808605
      vertex -0.00023950020455323039 -0.0062769982382656778 0.0064569987133145336
      vertex 0.0022974997884730253 -0.011927995400130911 0.0036949995681643489
    endloop
  endfacet
  facet normal 0.54187636618459833 -0.15999872727169254 0.82508812319776703
    outer loop
      vertex 0.0022974997884730253 -0.011927995400130911 0.0036949995681643489
      vertex -0.00023950020455323039 -0.0062769982382656778 0.0064569987133145336
      vertex -0.00042750023909412203 -0.011394995765388174 0.0055880002453923229
    endloop
  endfacet
  facet normal 0.66465145452695218 0.012500525581132259 -0.74704898156372734
    outer loop
      vertex -0.0015255002179046708 -0.0061309966608883585 -0.006999999679625034
      vertex 0.0036984998043762896 -0.0060000005528332437 -0.0023500010594725606
      vertex -0.00066750020392738162 -0.0118899974390866 -0.0063330013528466221
    endloop
  endfacet
  facet normal 0.82098183921700518 -0.26743516446952997 -0.5044474724696506
    outer loop
      vertex 0.0023394998754511032 -0.011530000285804434 -0.0016300011649727818
      vertex -0.00066750020392738162 -0.0118899974390866 -0.0063330013528466221
      vertex 0.0036984998043762896 -0.0060000005528332437 -0.0023500010594725606
    endloop
  endfacet
  facet normal -0.63944812100390247 -0.18178790463019262 -0.74703363931936995
    outer loop
      vertex -0.00066750020392738162 -0.0118899974390866 -0.0063330013528466221
      vertex -0.0055375000336071092 -0.01202299030274169 -0.0021320007964968678
      vertex -0.0015255002179046708 -0.0061309966608883585 -0.006999999679625034
    endloop
  endfacet
  facet normal -0.69868366616460398 -0.10850483169596119 -0.70715474694964731
    outer loop
      vertex -0.006323499965002163 -0.006472993211448356 -0.0022070002034306523
      vertex -0.0015255002179046708 -0.0061309966608883585 -0.006999999679625034
      vertex -0.0055375000336071092 -0.01202299030274169 -0.0021320007964968678
    endloop
  endfacet
  facet normal -0.98837479401273987 -0.13914741812727605 0.06126387670386893
    outer loop
      vertex -0.006323499965002163 -0.006472993211448356 -0.0022070002034306523
      vertex -0.0055375000336071092 -0.01202299030274169 -0.0021320007964968678
      vertex -0.0059664998077651101 -0.0067549976870419229 0.0029119994267821315
    endloop
  endfacet
  facet normal -0.98539874838535502 -0.15258310869304254 0.075549332373907527
    outer loop
      vertex -0.0052015002691050607 -0.012046996073424979 0.0022020000740885738
      vertex -0.0059664998077651101 -0.0067549976870419229 0.0029119994267821315
      vertex -0.0055375000336071092 -0.01202299030274169 -0.0021320007964968678
    endloop
  endfacet
  facet normal -0.51461655747525503 -0.12512178563292034 0.84824190979481029
    outer loop
      vertex -0.00023950020455323039 -0.0062769982382656778 0.0064569987133145336
      vertex -0.0059664998077651101 -0.0067549976870419229 0.0029119994267821315
      vertex -0.00042750023909412203 -0.011394995765388174 0.0055880002453923229
    endloop
  endfacet
  facet normal -0.55084938463433109 -0.18870435775653907 0.81299177167525571
    outer loop
      vertex -0.0052015002691050607 -0.012046996073424979 0.0022020000740885738
      vertex -0.00042750023909412203 -0.011394995765388174 0.0055880002453923229
      vertex -0.0059664998077651101 -0.0067549976870419229 0.0029119994267821315
    endloop
  endfacet
  facet normal -0.12227322645985089 -0.92476840708771924 0.3603507337907616
    outer loop
      vertex 0.0025644998424822841 -0.038824993686378165 0.0018850002214312557
      vertex 0.00018550000480808439 -0.038150000886619254 0.0028099991157650951
      vertex -0.00071350008853278933 -0.03960499496907012 -0.001228999741375446
    endloop
  endfacet
  facet normal -0.52081791507765962 -0.75960012652425601 0.38955917024053477
    outer loop
      vertex -0.0011035002642174798 -0.039253998117149039 -0.0010659996643662449
      vertex -0.00071350008853278933 -0.03960499496907012 -0.001228999741375446
      vertex 0.00018550000480808439 -0.038150000886619254 0.0028099991157650951
    endloop
  endfacet
  facet normal -0.63866946916533829 -0.28678987341940476 -0.71403982918332165
    outer loop
      vertex 0.0011334997727672023 -0.03585799367874877 -0.0043860007300972935
      vertex -0.00071350008853278933 -0.03960499496907012 -0.001228999741375446
      vertex -0.0034525002227028447 -0.034443992690742178 -0.00085200036317110029
    endloop
  endfacet
  facet normal -0.54408558407658458 -0.22980668679533992 -0.80694470932288198
    outer loop
      vertex -0.0011035002642174798 -0.039253998117149039 -0.0010659996643662449
      vertex -0.0034525002227028447 -0.034443992690742178 -0.00085200036317110029
      vertex -0.00071350008853278933 -0.03960499496907012 -0.001228999741375446
    endloop
  endfacet
  facet normal 0.896201187800576 -0.28549407156587614 -0.3395829296145132
    outer loop
      vertex 0.0035504998415844891 -0.034016999916732474 0.00044500043243169817
      vertex 0.0025644998424822841 -0.038824993686378165 0.0018850002214312557
      vertex 0.0011334997727672023 -0.03585799367874877 -0.0043860007300972935
    endloop
  endfacet
  facet normal 0.58855116125514795 -0.67058563267931481 -0.45157772291079618
    outer loop
      vertex -0.00071350008853278933 -0.03960499496907012 -0.001228999741375446
      vertex 0.0011334997727672023 -0.03585799367874877 -0.0043860007300972935
      vertex 0.0025644998424822841 -0.038824993686378165 0.0018850002214312557
    endloop
  endfacet
  facet normal 0.9758512953920897 -0.2182659044142829 -0.0086165104187254388
    outer loop
      vertex 0.0023394998754511032 -0.011530000285804434 -0.0016300011649727818
      vertex 0.0022974997884730253 -0.011927995400130911 0.0036949995681643489
      vertex 0.0011034997771630448 -0.017091992811858817 -0.00072000028938055006
    endloop
  endfacet
  facet normal 0.98383904722810234 -0.10117758997263826 -0.14772888829416014
    outer loop
      vertex 0.0016584998122552794 -0.017850998358428641 0.0034960001483559612
      vertex 0.0011034997771630448 -0.017091992811858817 -0.00072000028938055006
      vertex 0.0022974997884730253 -0.011927995400130911 0.0036949995681643489
    endloop
  endfacet
  facet normal 0.55110685415080229 -0.11681736709712798 0.82621724628120741
    outer loop
      vertex -0.00042750023909412203 -0.011394995765388174 0.0055880002453923229
      vertex -0.00046150003232560931 -0.016767996864020987 0.0048509999886155132
      vertex 0.0022974997884730253 -0.011927995400130911 0.0036949995681643489
    endloop
  endfacet
  facet normal 0.50605763648021607 -0.083437865804486866 0.85845430344896634
    outer loop
      vertex 0.0016584998122552794 -0.017850998358428641 0.0034960001483559612
      vertex 0.0022974997884730253 -0.011927995400130911 0.0036949995681643489
      vertex -0.00046150003232560931 -0.016767996864020987 0.0048509999886155132
    endloop
  endfacet
  facet normal 0.83658180090098544 -0.16558836394823775 -0.52221775546816651
    outer loop
      vertex -0.00066750020392738162 -0.0118899974390866 -0.0063330013528466221
      vertex 0.0023394998754511032 -0.011530000285804434 -0.0016300011649727818
      vertex -0.00087050011985503016 -0.017806995229423209 -0.0047820009514689442
    endloop
  endfacet
  facet normal 0.88572953597862347 -0.25977170938289201 -0.3847100831787264
    outer loop
      vertex 0.0011034997771630448 -0.017091992811858817 -0.00072000028938055006
      vertex -0.00087050011985503016 -0.017806995229423209 -0.0047820009514689442
      vertex 0.0023394998754511032 -0.011530000285804434 -0.0016300011649727818
    endloop
  endfacet
  facet normal -0.56518818439228857 -0.10859666860539906 0.81778302733130714
    outer loop
      vertex -0.00042750023909412203 -0.011394995765388174 0.0055880002453923229
      vertex -0.0052015002691050607 -0.012046996073424979 0.0022020000740885738
      vertex -0.00046150003232560931 -0.016767996864020987 0.0048509999886155132
    endloop
  endfacet
  facet normal -0.4551360016469691 0.042098103275179037 0.8894262025066737
    outer loop
      vertex -0.0040844999127884942 -0.017252999858558341 0.0030199993178248409
      vertex -0.00046150003232560931 -0.016767996864020987 0.0048509999886155132
      vertex -0.0052015002691050607 -0.012046996073424979 0.0022020000740885738
    endloop
  endfacet
  facet normal -0.64047790756972911 -0.17409271731323028 -0.74798380710654233
    outer loop
      vertex -0.00066750020392738162 -0.0118899974390866 -0.0063330013528466221
      vertex -0.00087050011985503016 -0.017806995229423209 -0.0047820009514689442
      vertex -0.0055375000336071092 -0.01202299030274169 -0.0021320007964968678
    endloop
  endfacet
  facet normal -0.56357125228186045 -0.077952321606295422 -0.82238122495448795
    outer loop
      vertex -0.0046995006375809747 -0.017553988413512869 -0.0021819997802376744
      vertex -0.0055375000336071092 -0.01202299030274169 -0.0021320007964968678
      vertex -0.00087050011985503016 -0.017806995229423209 -0.0047820009514689442
    endloop
  endfacet
  facet normal -0.97382433266749024 -0.18913447015784485 0.12607268261930768
    outer loop
      vertex -0.0040844999127884942 -0.017252999858558341 0.0030199993178248409
      vertex -0.0052015002691050607 -0.012046996073424979 0.0022020000740885738
      vertex -0.0046995006375809747 -0.017553988413512869 -0.0021819997802376744
    endloop
  endfacet
  facet normal -0.98578588675252554 -0.15003938819631402 0.075593435357924704
    outer loop
      vertex -0.0055375000336071092 -0.01202299030274169 -0.0021320007964968678
      vertex -0.0046995006375809747 -0.017553988413512869 -0.0021819997802376744
      vertex -0.0052015002691050607 -0.012046996073424979 0.0022020000740885738
    endloop
  endfacet
  facet normal 0.74686388010157945 -0.32664131716343098 -0.57922344092875966
    outer loop
      vertex 0.0035504998415844891 -0.034016999916732474 0.00044500043243169817
      vertex 0.0063234997107783708 -0.034625995473563834 0.0043640002384781841
      vertex 0.0025644998424822841 -0.038824993686378165 0.0018850002214312557
    endloop
  endfacet
  facet normal 0.67658289277496986 -0.71340415796446988 0.18245573875123625
    outer loop
      vertex 0.0025644998424822841 -0.038824993686378165 0.0018850002214312557
      vertex 0.0063234997107783708 -0.034625995473563834 0.0043640002384781841
      vertex 0.0024624997642958913 -0.038088995532691641 0.0051409989371895793
    endloop
  endfacet
  facet normal -0.19010004116800669 -0.95886866304248475 0.21079103724551468
    outer loop
      vertex 0.0025644998424822841 -0.038824993686378165 0.0018850002214312557
      vertex 0.0024624997642958913 -0.038088995532691641 0.0051409989371895793
      vertex 0.00018550000480808439 -0.038150000886619254 0.0028099991157650951
    endloop
  endfacet
  facet normal 0.013737064085041691 -0.99982437665957202 0.012747898164875811
    outer loop
      vertex 0.00095349979914225759 -0.038113999681174918 0.0048060003444552425
      vertex 0.00018550000480808439 -0.038150000886619254 0.0028099991157650951
      vertex 0.0024624997642958913 -0.038088995532691641 0.0051409989371895793
    endloop
  endfacet
  facet normal -0.64626002289223716 -0.21980984230370754 0.73077466844284122
    outer loop
      vertex -0.0019485004120369988 -0.033341992215812369 0.0023689992502331737
      vertex 0.00018550000480808439 -0.038150000886619254 0.0028099991157650951
      vertex 0.00071449984192349138 -0.032736990170180967 0.0049060001745820049
    endloop
  endfacet
  facet normal -0.93192577681517696 -0.048107514520427629 0.35944403396647984
    outer loop
      vertex 0.00095349979914225759 -0.038113999681174918 0.0048060003444552425
      vertex 0.00071449984192349138 -0.032736990170180967 0.0049060001745820049
      vertex 0.00018550000480808439 -0.038150000886619254 0.0028099991157650951
    endloop
  endfacet
  facet normal -0.81980675240719458 -0.4177822319591647 0.39163107048188522
    outer loop
      vertex -0.0011035002642174798 -0.039253998117149039 -0.0010659996643662449
      vertex 0.00018550000480808439 -0.038150000886619254 0.0028099991157650951
      vertex -0.0034525002227028447 -0.034443992690742178 -0.00085200036317110029
    endloop
  endfacet
  facet normal -0.81348458093624076 -0.31629366354435523 0.48805855691779326
    outer loop
      vertex -0.0019485004120369988 -0.033341992215812369 0.0023689992502331737
      vertex -0.0034525002227028447 -0.034443992690742178 -0.00085200036317110029
      vertex 0.00018550000480808439 -0.038150000886619254 0.0028099991157650951
    endloop
  endfacet
  facet normal -0.92792084373328243 -0.20673977601844129 0.31019602314852129
    outer loop
      vertex -0.0029155000918408471 -0.028066996054351492 0.0029920000359416011
      vertex -0.0041405003392001229 -0.028799999074638052 -0.0011610001549124714
      vertex -0.0019485004120369988 -0.033341992215812369 0.0023689992502331737
    endloop
  endfacet
  facet normal -0.89149652815118929 -0.084303684714198301 0.44511439994453639
    outer loop
      vertex -0.0041405003392001229 -0.028799999074638052 -0.0011610001549124714
      vertex -0.0034525002227028447 -0.034443992690742178 -0.00085200036317110029
      vertex -0.0019485004120369988 -0.033341992215812369 0.0023689992502331737
    endloop
  endfacet
  facet normal -0.5915232433107378 0.085351070672285034 -0.80175772360373321
    outer loop
      vertex 0.0011334997727672023 -0.03585799367874877 -0.0043860007300972935
      vertex -0.0034525002227028447 -0.034443992690742178 -0.00085200036317110029
      vertex 0.00013749963931240262 -0.029975998716056509 -0.0030250013098120686
    endloop
  endfacet
  facet normal -0.42053900219994933 -0.10062888394436306 -0.90167664677798043
    outer loop
      vertex -0.0041405003392001229 -0.028799999074638052 -0.0011610001549124714
      vertex 0.00013749963931240262 -0.029975998716056509 -0.0030250013098120686
      vertex -0.0034525002227028447 -0.034443992690742178 -0.00085200036317110029
    endloop
  endfacet
  facet normal 0.82158175637462683 0.25687856642649487 -0.50893695061672661
    outer loop
      vertex 0.0011334997727672023 -0.03585799367874877 -0.0043860007300972935
      vertex 0.00013749963931240262 -0.029975998716056509 -0.0030250013098120686
      vertex 0.0035504998415844891 -0.034016999916732474 0.00044500043243169817
    endloop
  endfacet
  facet normal 0.79053446348270395 0.16008110256805841 -0.5911254542368386
    outer loop
      vertex 0.0020934998649308834 -0.028405997471511527 1.599972695112261e-05
      vertex 0.0035504998415844891 -0.034016999916732474 0.00044500043243169817
      vertex 0.00013749963931240262 -0.029975998716056509 -0.0030250013098120686
    endloop
  endfacet
  facet normal 0.9510848648081045 0.23131010641873803 -0.20477601080571403
    outer loop
      vertex 0.0020934998649308834 -0.028405997471511527 1.599972695112261e-05
      vertex 0.0034274998363243792 -0.029916990117728873 0.0045049987509846691
      vertex 0.0035504998415844891 -0.034016999916732474 0.00044500043243169817
    endloop
  endfacet
  facet normal 0.7512049104288725 0.47568699425897271 -0.45761672395183922
    outer loop
      vertex 0.0063234997107783708 -0.034625995473563834 0.0043640002384781841
      vertex 0.0035504998415844891 -0.034016999916732474 0.00044500043243169817
      vertex 0.0034274998363243792 -0.029916990117728873 0.0045049987509846691
    endloop
  endfacet
  facet normal 0.98389951942822373 0.024018383878914674 -0.17710125043250136
    outer loop
      vertex 0.0019254997498492155 -0.024298000650108023 0.0041049994304776195
      vertex 0.0010764998044023675 -0.022832992987334884 -0.00041300097852945295
      vertex 0.0016584998122552794 -0.017850998358428641 0.0034960001483559612
    endloop
  endfacet
  facet normal 0.99110190153891786 -0.011751158023695051 -0.13258556124647577
    outer loop
      vertex 0.0011034997771630448 -0.017091992811858817 -0.00072000028938055006
      vertex 0.0016584998122552794 -0.017850998358428641 0.0034960001483559612
      vertex 0.0010764998044023675 -0.022832992987334884 -0.00041300097852945295
    endloop
  endfacet
  facet normal 0.51231005819430098 -0.0682348904866074 0.85608551207997474
    outer loop
      vertex -0.00046150003232560931 -0.016767996864020987 0.0048509999886155132
      vertex -0.00072450040512286006 -0.022104996757209457 0.0045829988792538646
      vertex 0.0016584998122552794 -0.017850998358428641 0.0034960001483559612
    endloop
  endfacet
  facet normal 0.25728311049186386 0.1014334229116698 0.96099774285481732
    outer loop
      vertex -0.00072450040512286006 -0.022104996757209457 0.0045829988792538646
      vertex 0.0019254997498492155 -0.024298000650108023 0.0041049994304776195
      vertex 0.0016584998122552794 -0.017850998358428641 0.0034960001483559612
    endloop
  endfacet
  facet normal 0.90096825470179465 -0.027392924903358994 -0.43301943568948625
    outer loop
      vertex 0.0011034997771630448 -0.017091992811858817 -0.00072000028938055006
      vertex 0.0010764998044023675 -0.022832992987334884 -0.00041300097852945295
      vertex -0.00087050011985503016 -0.017806995229423209 -0.0047820009514689442
    endloop
  endfacet
  facet normal 0.89328370353055564 -0.042906042221693308 -0.44744083021959952
    outer loop
      vertex -0.00087050011985503016 -0.017806995229423209 -0.0047820009514689442
      vertex 0.0010764998044023675 -0.022832992987334884 -0.00041300097852945295
      vertex -0.00082149997957549868 -0.023971993045509024 -0.0040930010601878163
    endloop
  endfacet
  facet normal -0.44850645013028201 -0.022765382852085993 0.89348962027274315
    outer loop
      vertex -0.00046150003232560931 -0.016767996864020987 0.0048509999886155132
      vertex -0.0040844999127884942 -0.017252999858558341 0.0030199993178248409
      vertex -0.00072450040512286006 -0.022104996757209457 0.0045829988792538646
    endloop
  endfacet
  facet normal -0.40106590144238297 0.01730171506180251 0.91588579711453599
    outer loop
      vertex -0.00072450040512286006 -0.022104996757209457 0.0045829988792538646
      vertex -0.0040844999127884942 -0.017252999858558341 0.0030199993178248409
      vertex -0.0033725000792046624 -0.022610995487868941 0.0034329999014735225
    endloop
  endfacet
  facet normal -0.59996268195514368 -0.093566075346379646 -0.79453770823382996
    outer loop
      vertex -0.00082149997957549868 -0.023971993045509024 -0.0040930010601878163
      vertex -0.0043485000603695947 -0.023162994103133841 -0.0015250001326203343
      vertex -0.00087050011985503016 -0.017806995229423209 -0.0047820009514689442
    endloop
  endfacet
  facet normal -0.56283450146523528 -0.13081937545786831 -0.81615171075308879
    outer loop
      vertex -0.0046995006375809747 -0.017553988413512869 -0.0021819997802376744
      vertex -0.00087050011985503016 -0.017806995229423209 -0.0047820009514689442
      vertex -0.0043485000603695947 -0.023162994103133841 -0.0015250001326203343
    endloop
  endfacet
  facet normal -0.99161189129256999 -0.047996077968579035 0.12000930608418149
    outer loop
      vertex -0.0046995006375809747 -0.017553988413512869 -0.0021819997802376744
      vertex -0.0043485000603695947 -0.023162994103133841 -0.0015250001326203343
      vertex -0.0040844999127884942 -0.017252999858558341 0.0030199993178248409
    endloop
  endfacet
  facet normal -0.97236099059340264 -0.1134844379997348 0.20404750991889434
    outer loop
      vertex -0.0033725000792046624 -0.022610995487868941 0.0034329999014735225
      vertex -0.0040844999127884942 -0.017252999858558341 0.0030199993178248409
      vertex -0.0043485000603695947 -0.023162994103133841 -0.0015250001326203343
    endloop
  endfacet
  facet normal 0.12378105374198491 0.083842764021453575 0.98876116512318946
    outer loop
      vertex 0.0063234997107783708 -0.034625995473563834 0.0043640002384781841
      vertex 0.00071449984192349138 -0.032736990170180967 0.0049060001745820049
      vertex 0.0024624997642958913 -0.038088995532691641 0.0051409989371895793
    endloop
  endfacet
  facet normal -0.21620216231902711 -0.027760324794343233 0.97595388691059037
    outer loop
      vertex 0.00095349979914225759 -0.038113999681174918 0.0048060003444552425
      vertex 0.0024624997642958913 -0.038088995532691641 0.0051409989371895793
      vertex 0.00071449984192349138 -0.032736990170180967 0.0049060001745820049
    endloop
  endfacet
  facet normal 0.10886216751759319 0.036526932632171993 0.99338553023277731
    outer loop
      vertex 4.8499660114423651e-05 -0.027406993822753592 0.0047830004021525386
      vertex 0.00071449984192349138 -0.032736990170180967 0.0049060001745820049
      vertex 0.0034274998363243792 -0.029916990117728873 0.0045049987509846691
    endloop
  endfacet
  facet normal 0.10843557259424623 0.036941794254314764 0.99341684626013349
    outer loop
      vertex 0.0063234997107783708 -0.034625995473563834 0.0043640002384781841
      vertex 0.0034274998363243792 -0.029916990117728873 0.0045049987509846691
      vertex 0.00071449984192349138 -0.032736990170180967 0.0049060001745820049
    endloop
  endfacet
  facet normal -0.65015226214289135 -0.20557370175757328 0.73146530278350841
    outer loop
      vertex -0.0019485004120369988 -0.033341992215812369 0.0023689992502331737
      vertex 0.00071449984192349138 -0.032736990170180967 0.0049060001745820049
      vertex -0.0029155000918408471 -0.028066996054351492 0.0029920000359416011
    endloop
  endfacet
  facet normal -0.50950364957335326 -0.043832957920835247 0.85935132679908266
    outer loop
      vertex 4.8499660114423651e-05 -0.027406993822753592 0.0047830004021525386
      vertex -0.0029155000918408471 -0.028066996054351492 0.0029920000359416011
      vertex 0.00071449984192349138 -0.032736990170180967 0.0049060001745820049
    endloop
  endfacet
  facet normal -0.49571856349473714 -0.11114279844691964 0.86134219922171551
    outer loop
      vertex -0.0029155000918408471 -0.028066996054351492 0.0029920000359416011
      vertex 4.8499660114423651e-05 -0.027406993822753592 0.0047830004021525386
      vertex -0.0033725000792046624 -0.022610995487868941 0.0034329999014735225
    endloop
  endfacet
  facet normal -0.39456107874099711 -0.022873899397540955 0.91858496605871554
    outer loop
      vertex -0.00072450040512286006 -0.022104996757209457 0.0045829988792538646
      vertex -0.0033725000792046624 -0.022610995487868941 0.0034329999014735225
      vertex 4.8499660114423651e-05 -0.027406993822753592 0.0047830004021525386
    endloop
  endfacet
  facet normal -0.97432332254225418 -0.097994951656337703 0.20270928099150914
    outer loop
      vertex -0.0033725000792046624 -0.022610995487868941 0.0034329999014735225
      vertex -0.0043485000603695947 -0.023162994103133841 -0.0015250001326203343
      vertex -0.0029155000918408471 -0.028066996054351492 0.0029920000359416011
    endloop
  endfacet
  facet normal -0.95819338616984806 -0.016912863883114929 0.285621059685086
    outer loop
      vertex -0.0041405003392001229 -0.028799999074638052 -0.0011610001549124714
      vertex -0.0029155000918408471 -0.028066996054351492 0.0029920000359416011
      vertex -0.0043485000603695947 -0.023162994103133841 -0.0015250001326203343
    endloop
  endfacet
  facet normal -0.44052225069656581 -0.22495954062778203 -0.86909916104076956
    outer loop
      vertex 0.00013749963931240262 -0.029975998716056509 -0.0030250013098120686
      vertex -0.0041405003392001229 -0.028799999074638052 -0.0011610001549124714
      vertex -0.00082149997957549868 -0.023971993045509024 -0.0040930010601878163
    endloop
  endfacet
  facet normal -0.59798971457437988 -0.073602263265666809 -0.7981171643971976
    outer loop
      vertex -0.0043485000603695947 -0.023162994103133841 -0.0015250001326203343
      vertex -0.00082149997957549868 -0.023971993045509024 -0.0040930010601878163
      vertex -0.0041405003392001229 -0.028799999074638052 -0.0011610001549124714
    endloop
  endfacet
  facet normal 0.86650834523200737 0.12084470502116144 -0.48431378765386868
    outer loop
      vertex 0.0010764998044023675 -0.022832992987334884 -0.00041300097852945295
      vertex 0.0020934998649308834 -0.028405997471511527 1.599972695112261e-05
      vertex -0.00082149997957549868 -0.023971993045509024 -0.0040930010601878163
    endloop
  endfacet
  facet normal 0.83233335611775916 0.034542282021687333 -0.553197989011603
    outer loop
      vertex 0.00013749963931240262 -0.029975998716056509 -0.0030250013098120686
      vertex -0.00082149997957549868 -0.023971993045509024 -0.0040930010601878163
      vertex 0.0020934998649308834 -0.028405997471511527 1.599972695112261e-05
    endloop
  endfacet
  facet normal 0.94972863821590991 0.2395178960843376 -0.20161024579094664
    outer loop
      vertex 0.0034274998363243792 -0.029916990117728873 0.0045049987509846691
      vertex 0.0020934998649308834 -0.028405997471511527 1.599972695112261e-05
      vertex 0.0019254997498492155 -0.024298000650108023 0.0041049994304776195
    endloop
  endfacet
  facet normal 0.97723697797588183 0.16840023381492616 -0.12903197327656518
    outer loop
      vertex 0.0010764998044023675 -0.022832992987334884 -0.00041300097852945295
      vertex 0.0019254997498492155 -0.024298000650108023 0.0041049994304776195
      vertex 0.0020934998649308834 -0.028405997471511527 1.599972695112261e-05
    endloop
  endfacet
  facet normal 0.16520761634479919 0.1139003864764863 0.97965970901235733
    outer loop
      vertex 0.0034274998363243792 -0.029916990117728873 0.0045049987509846691
      vertex 0.0019254997498492155 -0.024298000650108023 0.0041049994304776195
      vertex 4.8499660114423651e-05 -0.027406993822753592 0.0047830004021525386
    endloop
  endfacet
  facet normal 0.23336430932491592 0.070606718539672347 0.96982255615672519
    outer loop
      vertex -0.00072450040512286006 -0.022104996757209457 0.0045829988792538646
      vertex 4.8499660114423651e-05 -0.027406993822753592 0.0047830004021525386
      vertex 0.0019254997498492155 -0.024298000650108023 0.0041049994304776195
    endloop
  endfacet
endsolid OBJECT
