solid OBJECT
  facet normal 0.92216484805004273 0.35572828082891494 -0.15188608639156698
    outer loop
      vertex 0.0066825001221150161 -0.038691995052620769 -0.036283999681472778
      vertex 0.0085614997614175091 -0.044168000428006053 -0.037700999528169632
      vertex 0.0063725000899285079 -0.039094996957108379 -0.039110001176595688
    endloop
  endfacet
  facet normal 0.77955800739682568 0.45571637150440131 0.42966487155264788
    outer loop
      vertex 0.0091544998530298481 -0.044050996510311961 -0.038901001214981079
      vertex 0.0063725000899285079 -0.039094996957108379 -0.039110001176595688
      vertex 0.0085614997614175091 -0.044168000428006053 -0.037700999528169632
    endloop
  endfacet
  facet normal 0.82758561421983368 0.20368615984479971 -0.52308125508763881
    outer loop
      vertex 0.0055804998800158502 -0.033194993941113353 -0.035886999219655991
      vertex 0.0066825001221150161 -0.038691995052620769 -0.036283999681472778
      vertex 0.0040135000552982093 -0.034213994948193431 -0.038763001561164856
    endloop
  endfacet
  facet normal 0.88433040586511935 0.43874344583145403 -0.15957418964975251
    outer loop
      vertex 0.0063725000899285079 -0.039094996957108379 -0.039110001176595688
      vertex 0.0040135000552982093 -0.034213994948193431 -0.038763001561164856
      vertex 0.0066825001221150161 -0.038691995052620769 -0.036283999681472778
    endloop
  endfacet
  facet normal -0.0077253212225969672 -0.046460832177905906 -0.99889023945844235
    outer loop
      vertex 0.0091544998530298481 -0.044050996510311961 -0.038901001214981079
      vertex 0.0050974999275058509 -0.041763996092602611 -0.038975998759269714
      vertex 0.0063725000899285079 -0.039094996957108379 -0.039110001176595688
    endloop
  endfacet
  facet normal 0.053456269706671812 -0.075528038126666822 -0.99570976829886748
    outer loop
      vertex 0.0038134999293833972 -0.036647995321080089 -0.03943299874663353
      vertex 0.0063725000899285079 -0.039094996957108379 -0.039110001176595688
      vertex 0.0050974999275058509 -0.041763996092602611 -0.038975998759269714
    endloop
  endfacet
  facet normal 0.33089517648587297 0.22507341707891837 -0.91643348864104834
    outer loop
      vertex 0.0063725000899285079 -0.039094996957108379 -0.039110001176595688
      vertex 0.0038134999293833972 -0.036647995321080089 -0.03943299874663353
      vertex 0.0040135000552982093 -0.034213994948193431 -0.038763001561164856
    endloop
  endfacet
  facet normal 0.82488425925583786 0.086016156446241235 -0.55871923151271941
    outer loop
      vertex 0.003102499986998737 -0.031433997062966228 -0.039680000394582748
      vertex 0.0040135000552982093 -0.034213994948193431 -0.038763001561164856
      vertex 0.0038134999293833972 -0.036647995321080089 -0.03943299874663353
    endloop
  endfacet
  facet normal 0.83669282077950569 0.15086123649677599 0.52648457810148408
    outer loop
      vertex 0.0085614997614175091 -0.044168000428006053 -0.037700999528169632
      vertex 0.0066825001221150161 -0.038691995052620769 -0.036283999681472778
      vertex 0.006822499791160226 -0.043062997369095683 -0.035254001617431641
    endloop
  endfacet
  facet normal 0.58769999365587833 0.2033572833337404 0.78310569706266431
    outer loop
      vertex 0.006822499791160226 -0.043062997369095683 -0.035254001617431641
      vertex 0.0066825001221150161 -0.038691995052620769 -0.036283999681472778
      vertex 0.0047735000215470792 -0.038107996193692088 -0.035002999007701874
    endloop
  endfacet
  facet normal 0.56782448561606425 0.054515066067334882 0.82134247491927881
    outer loop
      vertex 0.0066825001221150161 -0.038691995052620769 -0.036283999681472778
      vertex 0.0055804998800158502 -0.033194993941113353 -0.035886999219655991
      vertex 0.0047735000215470792 -0.038107996193692088 -0.035002999007701874
    endloop
  endfacet
  facet normal 0.77291171813188864 -0.01281169036217876 0.63438421840748471
    outer loop
      vertex 0.0043894998915493489 -0.032554996518418193 -0.034423001110553741
      vertex 0.0047735000215470792 -0.038107996193692088 -0.035002999007701874
      vertex 0.0055804998800158502 -0.033194993941113353 -0.035886999219655991
    endloop
  endfacet
  facet normal 0.69516960994580868 -0.32540268383929333 0.64097761798519703
    outer loop
      vertex 0.0085614997614175091 -0.044168000428006053 -0.037700999528169632
      vertex 0.006822499791160226 -0.043062997369095683 -0.035254001617431641
      vertex 0.0049494999647140504 -0.047804993895813823 -0.0356299988925457
    endloop
  endfacet
  facet normal 0.7570422541162426 -0.57048876012918048 0.31848014074486442
    outer loop
      vertex 0.0091544998530298481 -0.044050996510311961 -0.038901001214981079
      vertex 0.0085614997614175091 -0.044168000428006053 -0.037700999528169632
      vertex 0.0049494999647140504 -0.047804993895813823 -0.0356299988925457
    endloop
  endfacet
  facet normal 0.64010743848010687 -0.76620780728860516 -0.056462936980145179
    outer loop
      vertex 0.0049494999647140504 -0.047804993895813823 -0.0356299988925457
      vertex 0.0052335000317543746 -0.047352996973320842 -0.038543999195098877
      vertex 0.0091544998530298481 -0.044050996510311961 -0.038901001214981079
    endloop
  endfacet
  facet normal -0.025350226093901904 -0.077653144922695969 -0.99665809339040767
    outer loop
      vertex 0.0052335000317543746 -0.047352996973320842 -0.038543999195098877
      vertex 0.0050974999275058509 -0.041763996092602611 -0.038975998759269714
      vertex 0.0091544998530298481 -0.044050996510311961 -0.038901001214981079
    endloop
  endfacet
  facet normal 0.87424538646573757 0.024127771868874912 -0.48488437267870016
    outer loop
      vertex 0.0040135000552982093 -0.034213994948193431 -0.038763001561164856
      vertex 0.0038614998292177917 -0.028203999010846022 -0.038738001137971878
      vertex 0.0055804998800158502 -0.033194993941113353 -0.035886999219655991
    endloop
  endfacet
  facet normal 0.95118432404796205 0.1876382652671934 -0.24503114718937299
    outer loop
      vertex 0.0043934999220073224 -0.027532999722287062 -0.036159001290798187
      vertex 0.0055804998800158502 -0.033194993941113353 -0.035886999219655991
      vertex 0.0038614998292177917 -0.028203999010846022 -0.038738001137971878
    endloop
  endfacet
  facet normal 0.79235762340555804 -0.0082907961840039072 -0.61000054043396634
    outer loop
      vertex 0.0030664999457076193 -0.026118998734280471 -0.039799001067876816
      vertex 0.0038614998292177917 -0.028203999010846022 -0.038738001137971878
      vertex 0.003102499986998737 -0.031433997062966228 -0.039680000394582748
    endloop
  endfacet
  facet normal 0.74114060758546763 0.021535610604881912 -0.67100433475777121
    outer loop
      vertex 0.0040135000552982093 -0.034213994948193431 -0.038763001561164856
      vertex 0.003102499986998737 -0.031433997062966228 -0.039680000394582748
      vertex 0.0038614998292177917 -0.028203999010846022 -0.038738001137971878
    endloop
  endfacet
  facet normal 0.96307519070076786 0.087275440045806243 0.2546942767741166
    outer loop
      vertex 0.0037474998924881221 -0.027098995951935653 -0.033865001052618027
      vertex 0.0043894998915493489 -0.032554996518418193 -0.034423001110553741
      vertex 0.0043934999220073224 -0.027532999722287062 -0.036159001290798187
    endloop
  endfacet
  facet normal 0.80083663611655309 0.1950911344776049 0.56621562279909288
    outer loop
      vertex 0.0055804998800158502 -0.033194993941113353 -0.035886999219655991
      vertex 0.0043934999220073224 -0.027532999722287062 -0.036159001290798187
      vertex 0.0043894998915493489 -0.032554996518418193 -0.034423001110553741
    endloop
  endfacet
  facet normal -0.38302414034828142 -0.043250415701268995 -0.92272526217294371
    outer loop
      vertex 0.0015504999418044464 -0.036767994372174144 -0.038488000631332397
      vertex 0.0038134999293833972 -0.036647995321080089 -0.03943299874663353
      vertex 0.0030354999424889685 -0.041939993707463145 -0.038862001150846481
    endloop
  endfacet
  facet normal -0.04637473379608742 -0.10041846852570897 -0.99386393195662992
    outer loop
      vertex 0.0030354999424889685 -0.041939993707463145 -0.038862001150846481
      vertex 0.0038134999293833972 -0.036647995321080089 -0.03943299874663353
      vertex 0.0050974999275058509 -0.041763996092602611 -0.038975998759269714
    endloop
  endfacet
  facet normal -0.429584843946063 -0.076089964471365873 -0.89981508053520809
    outer loop
      vertex 0.00046449992340058099 -0.031499994305893779 -0.038414999842643738
      vertex 0.003102499986998737 -0.031433997062966228 -0.039680000394582748
      vertex 0.0015504999418044464 -0.036767994372174144 -0.038488000631332397
    endloop
  endfacet
  facet normal -0.37927575174338324 -0.095319495746427965 -0.9203608519869465
    outer loop
      vertex 0.0038134999293833972 -0.036647995321080089 -0.03943299874663353
      vertex 0.0015504999418044464 -0.036767994372174144 -0.038488000631332397
      vertex 0.003102499986998737 -0.031433997062966228 -0.039680000394582748
    endloop
  endfacet
  facet normal -0.04838109415860916 -0.07814471974311836 -0.99576737871065313
    outer loop
      vertex 0.0050974999275058509 -0.041763996092602611 -0.038975998759269714
      vertex 0.0052335000317543746 -0.047352996973320842 -0.038543999195098877
      vertex 0.0030354999424889685 -0.041939993707463145 -0.038862001150846481
    endloop
  endfacet
  facet normal -0.24764739903956851 -0.12727944440352829 -0.96045338709448358
    outer loop
      vertex -2.0500044338405028e-05 -0.026156996695324782 -0.03899800032377243
      vertex 0.0030664999457076193 -0.026118998734280471 -0.039799001067876816
      vertex 0.00046449992340058099 -0.031499994305893779 -0.038414999842643738
    endloop
  endfacet
  facet normal -0.43180101299734325 -0.023112803951574876 -0.9016727141640497
    outer loop
      vertex 0.003102499986998737 -0.031433997062966228 -0.039680000394582748
      vertex 0.00046449992340058099 -0.031499994305893779 -0.038414999842643738
      vertex 0.0030664999457076193 -0.026118998734280471 -0.039799001067876816
    endloop
  endfacet
  facet normal 0.85662015639632672 0.50866586528241431 0.086376762801262538
    outer loop
      vertex 0.0074674998130649329 -0.044903000203892589 -0.030814999714493752
      vertex 0.006822499791160226 -0.043062997369095683 -0.035254001617431641
      vertex 0.0046054999064654113 -0.040105996040627361 -0.030680999159812927
    endloop
  endfacet
  facet normal 0.90825227905692696 0.36524037800823783 0.20415010129876862
    outer loop
      vertex 0.0047735000215470792 -0.038107996193692088 -0.035002999007701874
      vertex 0.0046054999064654113 -0.040105996040627361 -0.030680999159812927
      vertex 0.006822499791160226 -0.043062997369095683 -0.035254001617431641
    endloop
  endfacet
  facet normal 0.91670910145807893 0.34791419458824957 0.19646917444711565
    outer loop
      vertex 0.0046054999064654113 -0.040105996040627361 -0.030680999159812927
      vertex 0.0047735000215470792 -0.038107996193692088 -0.035002999007701874
      vertex 0.0025974999251775445 -0.034721997885033488 -0.030845999717712402
    endloop
  endfacet
  facet normal 0.89054326300465236 0.014092411853185155 0.45468021800512393
    outer loop
      vertex 0.0043894998915493489 -0.032554996518418193 -0.034423001110553741
      vertex 0.0025974999251775445 -0.034721997885033488 -0.030845999717712402
      vertex 0.0047735000215470792 -0.038107996193692088 -0.035002999007701874
    endloop
  endfacet
  facet normal 0.81244274310712594 -0.48734014812244669 -0.32005682183100004
    outer loop
      vertex 0.0074674998130649329 -0.044903000203892589 -0.030814999714493752
      vertex 0.0045374998543411494 -0.047995996979996562 -0.033543001860380173
      vertex 0.006822499791160226 -0.043062997369095683 -0.035254001617431641
    endloop
  endfacet
  facet normal 0.91599354490456386 -0.37342851289740431 0.14665255350113601
    outer loop
      vertex 0.0049494999647140504 -0.047804993895813823 -0.0356299988925457
      vertex 0.006822499791160226 -0.043062997369095683 -0.035254001617431641
      vertex 0.0045374998543411494 -0.047995996979996562 -0.033543001860380173
    endloop
  endfacet
  facet normal 0.9104237716101502 -0.08439039541421639 0.40497755153709625
    outer loop
      vertex 0.0025974999251775445 -0.034721997885033488 -0.030845999717712402
      vertex 0.0043894998915493489 -0.032554996518418193 -0.034423001110553741
      vertex 0.0028804999263957144 -0.028851998357102279 -0.030259000137448311
    endloop
  endfacet
  facet normal 0.95859329112630454 0.084998826344528197 0.27179790603993381
    outer loop
      vertex 0.0037474998924881221 -0.027098995951935653 -0.033865001052618027
      vertex 0.0028804999263957144 -0.028851998357102279 -0.030259000137448311
      vertex 0.0043894998915493489 -0.032554996518418193 -0.034423001110553741
    endloop
  endfacet
  facet normal -0.34114541451813235 -0.93811828989898249 -0.059614430386107795
    outer loop
      vertex 0.00063049990683794032 -0.046911997107788921 -0.033560998737812042
      vertex 0.0036014999449253083 -0.047732998935505748 -0.037643000483512878
      vertex 0.0038424999173730613 -0.048164998499676585 -0.032223999500274658
    endloop
  endfacet
  facet normal 0.069896148440883932 -0.99414844137655245 -0.082361428725473418
    outer loop
      vertex 0.0036014999449253083 -0.047732998935505748 -0.037643000483512878
      vertex 0.0049494999647140504 -0.047804993895813823 -0.0356299988925457
      vertex 0.0038424999173730613 -0.048164998499676585 -0.032223999500274658
    endloop
  endfacet
  facet normal 0.11015823220113516 -0.99151627143566523 -0.068997444565991994
    outer loop
      vertex 0.0045374998543411494 -0.047995996979996562 -0.033543001860380173
      vertex 0.0038424999173730613 -0.048164998499676585 -0.032223999500274658
      vertex 0.0049494999647140504 -0.047804993895813823 -0.0356299988925457
    endloop
  endfacet
  facet normal 0.15228224791084738 -0.97879826540302595 -0.13698201566354146
    outer loop
      vertex 0.0049494999647140504 -0.047804993895813823 -0.0356299988925457
      vertex 0.0036014999449253083 -0.047732998935505748 -0.037643000483512878
      vertex 0.0052335000317543746 -0.047352996973320842 -0.038543999195098877
    endloop
  endfacet
  facet normal -0.73198018502608253 -0.20803928409959946 -0.64878707215889286
    outer loop
      vertex 0.0014764999458566309 -0.042931993810459972 -0.036784999072551727
      vertex 0.0030354999424889685 -0.041939993707463145 -0.038862001150846481
      vertex 0.0036014999449253083 -0.047732998935505748 -0.037643000483512878
    endloop
  endfacet
  facet normal -0.42997187459248604 -0.22594622829833544 -0.87411240065404616
    outer loop
      vertex 0.0052335000317543746 -0.047352996973320842 -0.038543999195098877
      vertex 0.0036014999449253083 -0.047732998935505748 -0.037643000483512878
      vertex 0.0030354999424889685 -0.041939993707463145 -0.038862001150846481
    endloop
  endfacet
  facet normal 0.99985061938895403 0.012942649928174319 0.011455423185630063
    outer loop
      vertex 0.0043155000265687705 -0.021764000264927749 -0.035868998616933823
      vertex 0.0043934999220073224 -0.027532999722287062 -0.036159001290798187
      vertex 0.0043534998502582313 -0.02203899374417961 -0.038874998688697815
    endloop
  endfacet
  facet normal 0.98008026881453314 -0.082232786434772526 -0.18077730918344148
    outer loop
      vertex 0.0038614998292177917 -0.028203999010846022 -0.038738001137971878
      vertex 0.0043534998502582313 -0.02203899374417961 -0.038874998688697815
      vertex 0.0043934999220073224 -0.027532999722287062 -0.036159001290798187
    endloop
  endfacet
  facet normal 0.63295579621616116 -0.024416244882070608 -0.77380282179779114
    outer loop
      vertex 0.0030074999621137978 -0.020802994577214125 -0.040015000849962234
      vertex 0.0043534998502582313 -0.02203899374417961 -0.038874998688697815
      vertex 0.0030664999457076193 -0.026118998734280471 -0.039799001067876816
    endloop
  endfacet
  facet normal 0.72396843089217511 -0.073019725861073873 -0.68595760124565697
    outer loop
      vertex 0.0038614998292177917 -0.028203999010846022 -0.038738001137971878
      vertex 0.0030664999457076193 -0.026118998734280471 -0.039799001067876816
      vertex 0.0043534998502582313 -0.02203899374417961 -0.038874998688697815
    endloop
  endfacet
  facet normal 0.96290686121404256 -0.0011601858400575691 0.26983148555299641
    outer loop
      vertex 0.0036024999525398017 -0.021618997065350417 -0.033323999494314194
      vertex 0.0037474998924881221 -0.027098995951935653 -0.033865001052618027
      vertex 0.0043155000265687705 -0.021764000264927749 -0.035868998616933823
    endloop
  endfacet
  facet normal 0.96253136309983667 -0.0006175396154839332 0.27116967694414773
    outer loop
      vertex 0.0043155000265687705 -0.021764000264927749 -0.035868998616933823
      vertex 0.0037474998924881221 -0.027098995951935653 -0.033865001052618027
      vertex 0.0043934999220073224 -0.027532999722287062 -0.036159001290798187
    endloop
  endfacet
  facet normal -0.24913784431890504 -0.088916689264775806 -0.96437760078628965
    outer loop
      vertex -2.0500044338405028e-05 -0.026156996695324782 -0.03899800032377243
      vertex 7.8499894589185819e-05 -0.020761994032189254 -0.039521001279354095
      vertex 0.0030664999457076193 -0.026118998734280471 -0.039799001067876816
    endloop
  endfacet
  facet normal -0.1667333721654724 -0.041877564936326953 -0.98511230433962893
    outer loop
      vertex 0.0030074999621137978 -0.020802994577214125 -0.040015000849962234
      vertex 0.0030664999457076193 -0.026118998734280471 -0.039799001067876816
      vertex 7.8499894589185819e-05 -0.020761994032189254 -0.039521001279354095
    endloop
  endfacet
  facet normal 0.96712385592846639 0.038703811904314156 0.25134331548328559
    outer loop
      vertex 0.0028804999263957144 -0.028851998357102279 -0.030259000137448311
      vertex 0.0037474998924881221 -0.027098995951935653 -0.033865001052618027
      vertex 0.0025714999600313605 -0.023052995411679152 -0.029962999746203423
    endloop
  endfacet
  facet normal 0.95644375270856408 -0.0035094311783658268 0.29189558372398017
    outer loop
      vertex 0.0036024999525398017 -0.021618997065350417 -0.033323999494314194
      vertex 0.0025714999600313605 -0.023052995411679152 -0.029962999746203423
      vertex 0.0037474998924881221 -0.027098995951935653 -0.033865001052618027
    endloop
  endfacet
  facet normal -0.78275271433112548 -0.065598995826442283 -0.61886586588195203
    outer loop
      vertex 0.0014764999458566309 -0.042931993810459972 -0.036784999072551727
      vertex 0.00054549995809793483 -0.037539993731305003 -0.036178998649120331
      vertex 0.0030354999424889685 -0.041939993707463145 -0.038862001150846481
    endloop
  endfacet
  facet normal -0.86666477294553612 -0.21633147151710841 -0.44954740102296753
    outer loop
      vertex 0.0030354999424889685 -0.041939993707463145 -0.038862001150846481
      vertex 0.00054549995809793483 -0.037539993731305003 -0.036178998649120331
      vertex 0.0015504999418044464 -0.036767994372174144 -0.038488000631332397
    endloop
  endfacet
  facet normal -0.84919528867678562 -0.16812487055806724 -0.50060102835390141
    outer loop
      vertex 0.00046449992340058099 -0.031499994305893779 -0.038414999842643738
      vertex 0.0015504999418044464 -0.036767994372174144 -0.038488000631332397
      vertex -0.00088249997235834588 -0.032300998775288463 -0.035861000418663025
    endloop
  endfacet
  facet normal -0.86895004623056371 -0.20963954393225154 -0.44830467182015715
    outer loop
      vertex 0.00054549995809793483 -0.037539993731305003 -0.036178998649120331
      vertex -0.00088249997235834588 -0.032300998775288463 -0.035861000418663025
      vertex 0.0015504999418044464 -0.036767994372174144 -0.038488000631332397
    endloop
  endfacet
  facet normal -0.84858887656033199 -0.13290527219255632 -0.51208701135792944
    outer loop
      vertex -2.0500044338405028e-05 -0.026156996695324782 -0.03899800032377243
      vertex 0.00046449992340058099 -0.031499994305893779 -0.038414999842643738
      vertex -0.0018085000384598969 -0.026950997618958358 -0.035829000174999237
    endloop
  endfacet
  facet normal -0.85564908778126381 -0.14512775137602776 -0.49679228492361771
    outer loop
      vertex -0.00088249997235834588 -0.032300998775288463 -0.035861000418663025
      vertex -0.0018085000384598969 -0.026950997618958358 -0.035829000174999237
      vertex 0.00046449992340058099 -0.031499994305893779 -0.038414999842643738
    endloop
  endfacet
  facet normal -0.83822581376897087 -0.037358690930353933 -0.54404210622277838
    outer loop
      vertex 7.8499894589185819e-05 -0.020761994032189254 -0.039521001279354095
      vertex -2.0500044338405028e-05 -0.026156996695324782 -0.03899800032377243
      vertex -0.0022804999072104691 -0.021495995430275801 -0.035835999995470047
    endloop
  endfacet
  facet normal -0.86030890510210623 -0.075086145884819197 -0.50421290988845069
    outer loop
      vertex -0.0018085000384598969 -0.026950997618958358 -0.035829000174999237
      vertex -0.0022804999072104691 -0.021495995430275801 -0.035835999995470047
      vertex -2.0500044338405028e-05 -0.026156996695324782 -0.03899800032377243
    endloop
  endfacet
  facet normal -0.18695250469311203 -0.13870682911016791 0.97252721121168351
    outer loop
      vertex 0.0074674998130649329 -0.044903000203892589 -0.030814999714493752
      vertex 0.0046054999064654113 -0.040105996040627361 -0.030680999159812927
      vertex 0.00322049995418638 -0.043006998805329204 -0.031360998749732971
    endloop
  endfacet
  facet normal -0.2791213103435643 -0.090818134260976707 0.95595154720385644
    outer loop
      vertex 0.0024434999166987837 -0.037797999886795879 -0.031092999503016472
      vertex 0.00322049995418638 -0.043006998805329204 -0.031360998749732971
      vertex 0.0046054999064654113 -0.040105996040627361 -0.030680999159812927
    endloop
  endfacet
  facet normal -0.25315507081947181 -0.064834432600402322 0.96525074797576405
    outer loop
      vertex 0.0046054999064654113 -0.040105996040627361 -0.030680999159812927
      vertex 0.0025974999251775445 -0.034721997885033488 -0.030845999717712402
      vertex 0.0024434999166987837 -0.037797999886795879 -0.031092999503016472
    endloop
  endfacet
  facet normal -0.15773105576547339 -0.071190660301671094 0.9849125869501929
    outer loop
      vertex 0.0017364999389474179 -0.032592994479462505 -0.030829999595880508
      vertex 0.0024434999166987837 -0.037797999886795879 -0.031092999503016472
      vertex 0.0025974999251775445 -0.034721997885033488 -0.030845999717712402
    endloop
  endfacet
  facet normal 0.60387182415426199 -0.76611140652778242 0.22002757277356585
    outer loop
      vertex 0.0074674998130649329 -0.044903000203892589 -0.030814999714493752
      vertex 0.0038424999173730613 -0.048164998499676585 -0.032223999500274658
      vertex 0.0045374998543411494 -0.047995996979996562 -0.033543001860380173
    endloop
  endfacet
  facet normal -0.20637839005266806 -0.18562529039373335 0.96070349832063739
    outer loop
      vertex 0.0074674998130649329 -0.044903000203892589 -0.030814999714493752
      vertex 0.00322049995418638 -0.043006998805329204 -0.031360998749732971
      vertex 0.0038424999173730613 -0.048164998499676585 -0.032223999500274658
    endloop
  endfacet
  facet normal -0.21088874308844274 -0.084156366436385383 0.9738807134484192
    outer loop
      vertex 0.00089349993038922559 -0.027355996279045943 -0.030559999868273735
      vertex 0.0017364999389474179 -0.032592994479462505 -0.030829999595880508
      vertex 0.0028804999263957144 -0.028851998357102279 -0.030259000137448311
    endloop
  endfacet
  facet normal -0.1994164453207585 -0.087981535989317197 0.97595713566764475
    outer loop
      vertex 0.0025974999251775445 -0.034721997885033488 -0.030845999717712402
      vertex 0.0028804999263957144 -0.028851998357102279 -0.030259000137448311
      vertex 0.0017364999389474179 -0.032592994479462505 -0.030829999595880508
    endloop
  endfacet
  facet normal -0.12937636393272944 -0.086597093011836018 0.98780701553362404
    outer loop
      vertex 0.00028749997261911641 -0.022115995494648818 -0.030179999768733978
      vertex 0.00089349993038922559 -0.027355996279045943 -0.030559999868273735
      vertex 0.0025714999600313605 -0.023052995411679152 -0.029962999746203423
    endloop
  endfacet
  facet normal -0.1937365640118458 -0.060304797190251731 0.9791983839859657
    outer loop
      vertex 0.0028804999263957144 -0.028851998357102279 -0.030259000137448311
      vertex 0.0025714999600313605 -0.023052995411679152 -0.029962999746203423
      vertex 0.00089349993038922559 -0.027355996279045943 -0.030559999868273735
    endloop
  endfacet
  facet normal -0.80473303462237999 -0.26089132672477894 -0.53323583771839667
    outer loop
      vertex 0.0036014999449253083 -0.047732998935505748 -0.037643000483512878
      vertex 0.00063049990683794032 -0.046911997107788921 -0.033560998737812042
      vertex 0.0014764999458566309 -0.042931993810459972 -0.036784999072551727
    endloop
  endfacet
  facet normal -0.98531406367494789 0.09393404405398896 -0.14259239563182943
    outer loop
      vertex 0.0014764999458566309 -0.042931993810459972 -0.036784999072551727
      vertex 0.00063049990683794032 -0.046911997107788921 -0.033560998737812042
      vertex 0.0011084999376907946 -0.04185099652223289 -0.033530000597238541
    endloop
  endfacet
  facet normal -0.44191027871570104 -0.199616287411643 0.87456768941312002
    outer loop
      vertex 0.0038424999173730613 -0.048164998499676585 -0.032223999500274658
      vertex 0.00322049995418638 -0.043006998805329204 -0.031360998749732971
      vertex 0.00063049990683794032 -0.046911997107788921 -0.033560998737812042
    endloop
  endfacet
  facet normal -0.69848851443718674 0.061603816078973667 0.71296477125019297
    outer loop
      vertex 0.0011084999376907946 -0.04185099652223289 -0.033530000597238541
      vertex 0.00063049990683794032 -0.046911997107788921 -0.033560998737812042
      vertex 0.00322049995418638 -0.043006998805329204 -0.031360998749732971
    endloop
  endfacet
  facet normal -0.98885822267418821 -0.14623720995273992 -0.027822542566844643
    outer loop
      vertex 0.00036049994640052329 -0.036925998834893108 -0.032830998301506042
      vertex 0.00054549995809793483 -0.037539993731305003 -0.036178998649120331
      vertex 0.0011084999376907946 -0.04185099652223289 -0.033530000597238541
    endloop
  endfacet
  facet normal -0.98487126399919533 -0.16364493162705057 -0.056999383342323122
    outer loop
      vertex 0.0014764999458566309 -0.042931993810459972 -0.036784999072551727
      vertex 0.0011084999376907946 -0.04185099652223289 -0.033530000597238541
      vertex 0.00054549995809793483 -0.037539993731305003 -0.036178998649120331
    endloop
  endfacet
  facet normal 0.99003323937164678 -0.13856257065381603 0.025191247549294259
    outer loop
      vertex 0.0043534998502582313 -0.02203899374417961 -0.038874998688697815
      vertex 0.0051664999872446061 -0.016246994344517592 -0.038968000560998917
      vertex 0.0043155000265687705 -0.021764000264927749 -0.035868998616933823
    endloop
  endfacet
  facet normal 0.98903408578041629 -0.14740179675533882 0.0091808211938633425
    outer loop
      vertex 0.0043155000265687705 -0.021764000264927749 -0.035868998616933823
      vertex 0.0051664999872446061 -0.016246994344517592 -0.038968000560998917
      vertex 0.0051764998305588962 -0.016006996242329482 -0.036191999912261963
    endloop
  endfacet
  facet normal 0.62627976363113202 -0.11975092895409019 -0.77034626803844908
    outer loop
      vertex 0.0033004999812692405 -0.015545999018475417 -0.040594000369310379
      vertex 0.0051664999872446061 -0.016246994344517592 -0.038968000560998917
      vertex 0.0030074999621137978 -0.020802994577214125 -0.040015000849962234
    endloop
  endfacet
  facet normal 0.59065331715269664 -0.0957728597742947 -0.80122170356722688
    outer loop
      vertex 0.0030074999621137978 -0.020802994577214125 -0.040015000849962234
      vertex 0.0051664999872446061 -0.016246994344517592 -0.038968000560998917
      vertex 0.0043534998502582313 -0.02203899374417961 -0.038874998688697815
    endloop
  endfacet
  facet normal 0.95357720988457917 -0.12730173575691642 0.27291898589511371
    outer loop
      vertex 0.0051764998305588962 -0.016006996242329482 -0.036191999912261963
      vertex 0.0042304998449981214 -0.016071995107457045 -0.032917000353336334
      vertex 0.0043155000265687705 -0.021764000264927749 -0.035868998616933823
    endloop
  endfacet
  facet normal 0.95308135830613394 -0.12802912478022702 0.27430725046440829
    outer loop
      vertex 0.0042304998449981214 -0.016071995107457045 -0.032917000353336334
      vertex 0.0036024999525398017 -0.021618997065350417 -0.033323999494314194
      vertex 0.0043155000265687705 -0.021764000264927749 -0.035868998616933823
    endloop
  endfacet
  facet normal -0.20158991069104876 -0.096121323520941659 -0.974742119266505
    outer loop
      vertex 0.0033004999812692405 -0.015545999018475417 -0.040594000369310379
      vertex 0.0030074999621137978 -0.020802994577214125 -0.040015000849962234
      vertex 0.00020849995315074931 -0.015378994254395369 -0.039971001446247101
    endloop
  endfacet
  facet normal -0.16686425392907112 -0.078135496364718948 -0.98287901848016546
    outer loop
      vertex 7.8499894589185819e-05 -0.020761994032189254 -0.039521001279354095
      vertex 0.00020849995315074931 -0.015378994254395369 -0.039971001446247101
      vertex 0.0030074999621137978 -0.020802994577214125 -0.040015000849962234
    endloop
  endfacet
  facet normal 0.96131681429279348 -0.062299207290624423 0.26830727036164043
    outer loop
      vertex 0.0025714999600313605 -0.023052995411679152 -0.029962999746203423
      vertex 0.0036024999525398017 -0.021618997065350417 -0.033323999494314194
      vertex 0.0029184999829158188 -0.017142993716523055 -0.029834000393748283
    endloop
  endfacet
  facet normal 0.9278015948552939 -0.13067966043865184 0.34943815895178348
    outer loop
      vertex 0.0036024999525398017 -0.021618997065350417 -0.033323999494314194
      vertex 0.0042304998449981214 -0.016071995107457045 -0.032917000353336334
      vertex 0.0029184999829158188 -0.017142993716523055 -0.029834000393748283
    endloop
  endfacet
  facet normal -0.80781997280795448 -0.029702703255896072 -0.5886804234487909
    outer loop
      vertex 0.00020849995315074931 -0.015378994254395369 -0.039971001446247101
      vertex 7.8499894589185819e-05 -0.020761994032189254 -0.039521001279354095
      vertex -0.0028014999162405728 -0.016062994806095961 -0.035806000232696533
    endloop
  endfacet
  facet normal -0.83270160135633264 -0.076824336872954271 -0.54836672433931455
    outer loop
      vertex -0.0022804999072104691 -0.021495995430275801 -0.035835999995470047
      vertex -0.0028014999162405728 -0.016062994806095961 -0.035806000232696533
      vertex 7.8499894589185819e-05 -0.020761994032189254 -0.039521001279354095
    endloop
  endfacet
  facet normal -0.10098633908786597 -0.015783662070828479 0.99476260249833703
    outer loop
      vertex 0.0025714999600313605 -0.023052995411679152 -0.029962999746203423
      vertex 0.0029184999829158188 -0.017142993716523055 -0.029834000393748283
      vertex 0.00028749997261911641 -0.022115995494648818 -0.030179999768733978
    endloop
  endfacet
  facet normal 0.29214944245610835 -0.2193303210442813 0.93088286778906681
    outer loop
      vertex 0.0010534999263472856 -0.017016996948048476 -0.029218999668955803
      vertex 0.00028749997261911641 -0.022115995494648818 -0.030179999768733978
      vertex 0.0029184999829158188 -0.017142993716523055 -0.029834000393748283
    endloop
  endfacet
  facet normal -0.9720619889527492 -0.22974630718914235 0.048084550181709741
    outer loop
      vertex -0.00077350007370114316 -0.032006000487133861 -0.032248001545667648
      vertex -0.00088249997235834588 -0.032300998775288463 -0.035861000418663025
      vertex 0.00036049994640052329 -0.036925998834893108 -0.032830998301506042
    endloop
  endfacet
  facet normal -0.96486838553907528 -0.26268338648906309 -0.005141697176638543
    outer loop
      vertex 0.00054549995809793483 -0.037539993731305003 -0.036178998649120331
      vertex 0.00036049994640052329 -0.036925998834893108 -0.032830998301506042
      vertex -0.00088249997235834588 -0.032300998775288463 -0.035861000418663025
    endloop
  endfacet
  facet normal -0.98436715221520654 -0.17063925477984293 0.043629741781314187
    outer loop
      vertex -0.00088249997235834588 -0.032300998775288463 -0.035861000418663025
      vertex -0.00077350007370114316 -0.032006000487133861 -0.032248001545667648
      vertex -0.0018085000384598969 -0.026950997618958358 -0.035829000174999237
    endloop
  endfacet
  facet normal -0.98497418881597709 -0.16456816192112034 0.052375256068219356
    outer loop
      vertex -0.0016035001073032617 -0.02700900038890541 -0.032156001776456833
      vertex -0.0018085000384598969 -0.026950997618958358 -0.035829000174999237
      vertex -0.00077350007370114316 -0.032006000487133861 -0.032248001545667648
    endloop
  endfacet
  facet normal -0.99405933467009744 -0.085926319884467223 0.066803493219708493
    outer loop
      vertex -0.0022804999072104691 -0.021495995430275801 -0.035835999995470047
      vertex -0.0018085000384598969 -0.026950997618958358 -0.035829000174999237
      vertex -0.0019864999968558549 -0.021959995238110427 -0.032058000564575195
    endloop
  endfacet
  facet normal -0.99558093672018322 -0.076576356731531334 0.054356784572746841
    outer loop
      vertex -0.0019864999968558549 -0.021959995238110427 -0.032058000564575195
      vertex -0.0018085000384598969 -0.026950997618958358 -0.035829000174999237
      vertex -0.0016035001073032617 -0.02700900038890541 -0.032156001776456833
    endloop
  endfacet
  facet normal -0.99194829609799362 -0.095582082880893163 0.083082147904569539
    outer loop
      vertex -0.0028014999162405728 -0.016062994806095961 -0.035806000232696533
      vertex -0.0022804999072104691 -0.021495995430275801 -0.035835999995470047
      vertex -0.0023955000843852757 -0.016902995614334945 -0.031925000250339508
    endloop
  endfacet
  facet normal -0.99434279753006072 -0.082190067581232581 0.067284424580174654
    outer loop
      vertex -0.0019864999968558549 -0.021959995238110427 -0.032058000564575195
      vertex -0.0023955000843852757 -0.016902995614334945 -0.031925000250339508
      vertex -0.0022804999072104691 -0.021495995430275801 -0.035835999995470047
    endloop
  endfacet
  facet normal -0.74636612890635101 -0.14475327096919244 0.64960302659783509
    outer loop
      vertex 0.00322049995418638 -0.043006998805329204 -0.031360998749732971
      vertex 0.0024434999166987837 -0.037797999886795879 -0.031092999503016472
      vertex 0.0011084999376907946 -0.04185099652223289 -0.033530000597238541
    endloop
  endfacet
  facet normal -0.67604369692684785 -0.2032034071668615 0.70828899127493095
    outer loop
      vertex 0.00036049994640052329 -0.036925998834893108 -0.032830998301506042
      vertex 0.0011084999376907946 -0.04185099652223289 -0.033530000597238541
      vertex 0.0024434999166987837 -0.037797999886795879 -0.031092999503016472
    endloop
  endfacet
  facet normal -0.51816043600450334 -0.21744665593815049 0.82717997701887014
    outer loop
      vertex -0.00077350007370114316 -0.032006000487133861 -0.032248001545667648
      vertex 0.00036049994640052329 -0.036925998834893108 -0.032830998301506042
      vertex 0.0017364999389474179 -0.032592994479462505 -0.030829999595880508
    endloop
  endfacet
  facet normal -0.66637250344558763 -0.12763266927349351 0.73461390429652429
    outer loop
      vertex 0.0024434999166987837 -0.037797999886795879 -0.031092999503016472
      vertex 0.0017364999389474179 -0.032592994479462505 -0.030829999595880508
      vertex 0.00036049994640052329 -0.036925998834893108 -0.032830998301506042
    endloop
  endfacet
  facet normal -0.54593738303904904 -0.10598132147964721 0.83109586288099302
    outer loop
      vertex -0.0016035001073032617 -0.02700900038890541 -0.032156001776456833
      vertex -0.00077350007370114316 -0.032006000487133861 -0.032248001545667648
      vertex 0.00089349993038922559 -0.027355996279045943 -0.030559999868273735
    endloop
  endfacet
  facet normal -0.51012678712301218 -0.12598034464780661 0.85082290391242565
    outer loop
      vertex 0.0017364999389474179 -0.032592994479462505 -0.030829999595880508
      vertex 0.00089349993038922559 -0.027355996279045943 -0.030559999868273735
      vertex -0.00077350007370114316 -0.032006000487133861 -0.032248001545667648
    endloop
  endfacet
  facet normal -0.54655403141544101 -0.12327593500864588 0.82830050983400538
    outer loop
      vertex 0.00089349993038922559 -0.027355996279045943 -0.030559999868273735
      vertex 0.00028749997261911641 -0.022115995494648818 -0.030179999768733978
      vertex -0.0016035001073032617 -0.02700900038890541 -0.032156001776456833
    endloop
  endfacet
  facet normal -0.63807752885786884 -0.063296909169994073 0.76736599381009907
    outer loop
      vertex -0.0019864999968558549 -0.021959995238110427 -0.032058000564575195
      vertex -0.0016035001073032617 -0.02700900038890541 -0.032156001776456833
      vertex 0.00028749997261911641 -0.022115995494648818 -0.030179999768733978
    endloop
  endfacet
  facet normal -0.61745596499509037 -0.05512806899129525 0.7846712861455255
    outer loop
      vertex 0.0010534999263472856 -0.017016996948048476 -0.029218999668955803
      vertex -0.0023955000843852757 -0.016902995614334945 -0.031925000250339508
      vertex 0.00028749997261911641 -0.022115995494648818 -0.030179999768733978
    endloop
  endfacet
  facet normal -0.63805687924211718 -0.071767521503053433 0.7666373599747921
    outer loop
      vertex -0.0019864999968558549 -0.021959995238110427 -0.032058000564575195
      vertex 0.00028749997261911641 -0.022115995494648818 -0.030179999768733978
      vertex -0.0023955000843852757 -0.016902995614334945 -0.031925000250339508
    endloop
  endfacet
  facet normal 0.94291115279387427 -0.33208100334383384 0.025313339469131686
    outer loop
      vertex 0.0051664999872446061 -0.016246994344517592 -0.038968000560998917
      vertex 0.0070815001334995032 -0.010784996060654525 -0.038646001368761063
      vertex 0.0051764998305588962 -0.016006996242329482 -0.036191999912261963
    endloop
  endfacet
  facet normal 0.86502952288155521 -0.43392370202879382 -0.25186136138942694
    outer loop
      vertex 0.0077524998877197505 -0.010916997997090224 -0.036113999783992767
      vertex 0.0051764998305588962 -0.016006996242329482 -0.036191999912261963
      vertex 0.0070815001334995032 -0.010784996060654525 -0.038646001368761063
    endloop
  endfacet
  facet normal 0.63093549696242612 -0.17667284334386107 -0.75545159017475894
    outer loop
      vertex 0.0070815001334995032 -0.010784996060654525 -0.038646001368761063
      vertex 0.0051664999872446061 -0.016246994344517592 -0.038968000560998917
      vertex 0.0044204998947679998 -0.010418993739411238 -0.040954001247882843
    endloop
  endfacet
  facet normal 0.60468714890489017 -0.18646526264595684 -0.77432819771441208
    outer loop
      vertex 0.0033004999812692405 -0.015545999018475417 -0.040594000369310379
      vertex 0.0044204998947679998 -0.010418993739411238 -0.040954001247882843
      vertex 0.0051664999872446061 -0.016246994344517592 -0.038968000560998917
    endloop
  endfacet
  facet normal 0.8920089009264347 -0.45169786603474793 0.017004660763122421
    outer loop
      vertex 0.0077524998877197505 -0.010916997997090224 -0.036113999783992767
      vertex 0.0072515000309795142 -0.011752997843548659 -0.032039999961853027
      vertex 0.0051764998305588962 -0.016006996242329482 -0.036191999912261963
    endloop
  endfacet
  facet normal 0.77964604839646057 -0.58869422047452014 0.21352085144004357
    outer loop
      vertex 0.0072515000309795142 -0.011752997843548659 -0.032039999961853027
      vertex 0.0042304998449981214 -0.016071995107457045 -0.032917000353336334
      vertex 0.0051764998305588962 -0.016006996242329482 -0.036191999912261963
    endloop
  endfacet
  facet normal -0.014694696770326667 -0.18236174819912757 -0.98312169067750022
    outer loop
      vertex -0.00062550011090934266 -0.010130998997017745 -0.040931999683380127
      vertex 0.0044204998947679998 -0.010418993739411238 -0.040954001247882843
      vertex 0.00020849995315074931 -0.015378994254395369 -0.039971001446247101
    endloop
  endfacet
  facet normal -0.19877101476737244 -0.025370687219362795 -0.97971751638845683
    outer loop
      vertex 0.0033004999812692405 -0.015545999018475417 -0.040594000369310379
      vertex 0.00020849995315074931 -0.015378994254395369 -0.039971001446247101
      vertex 0.0044204998947679998 -0.010418993739411238 -0.040954001247882843
    endloop
  endfacet
  facet normal 0.74962995192658666 -0.58658796555653814 0.30654444023466665
    outer loop
      vertex 0.0072515000309795142 -0.011752997843548659 -0.032039999961853027
      vertex 0.0054324999172240497 -0.012189996747300032 -0.028427999466657639
      vertex 0.0042304998449981214 -0.016071995107457045 -0.032917000353336334
    endloop
  endfacet
  facet normal 0.8516831898638999 -0.48713799083831888 0.19321573948635318
    outer loop
      vertex 0.0029184999829158188 -0.017142993716523055 -0.029834000393748283
      vertex 0.0042304998449981214 -0.016071995107457045 -0.032917000353336334
      vertex 0.0054324999172240497 -0.012189996747300032 -0.028427999466657639
    endloop
  endfacet
  facet normal -0.85468980659603 -0.22177749778886421 -0.46938265410574237
    outer loop
      vertex -0.00062550011090934266 -0.010130998997017745 -0.040931999683380127
      vertex 0.00020849995315074931 -0.015378994254395369 -0.039971001446247101
      vertex -0.0031545000430196523 -0.010621999708935622 -0.036095000803470612
    endloop
  endfacet
  facet normal -0.80111568396014099 -0.083454181578218115 -0.59266268693936286
    outer loop
      vertex -0.0028014999162405728 -0.016062994806095961 -0.035806000232696533
      vertex -0.0031545000430196523 -0.010621999708935622 -0.036095000803470612
      vertex 0.00020849995315074931 -0.015378994254395369 -0.039971001446247101
    endloop
  endfacet
  facet normal 0.13647857177454861 -0.33401814533769281 0.93263362475923373
    outer loop
      vertex 0.0054324999172240497 -0.012189996747300032 -0.028427999466657639
      vertex 0.0010564999491907657 -0.011989993361756209 -0.027715999633073807
      vertex 0.0029184999829158188 -0.017142993716523055 -0.029834000393748283
    endloop
  endfacet
  facet normal 0.28432115821872755 -0.27478928997331648 0.91850548452642478
    outer loop
      vertex 0.0010534999263472856 -0.017016996948048476 -0.029218999668955803
      vertex 0.0029184999829158188 -0.017142993716523055 -0.029834000393748283
      vertex 0.0010564999491907657 -0.011989993361756209 -0.027715999633073807
    endloop
  endfacet
  facet normal -0.99790624004442208 -0.064462101598638008 0.0052700605206244047
    outer loop
      vertex -0.0031545000430196523 -0.010621999708935622 -0.036095000803470612
      vertex -0.0028014999162405728 -0.016062994806095961 -0.035806000232696533
      vertex -0.0030505001824349164 -0.011880998818203811 -0.031801998615264893
    endloop
  endfacet
  facet normal -0.98856281842936788 -0.13077418198117541 0.07511103345141068
    outer loop
      vertex -0.0023955000843852757 -0.016902995614334945 -0.031925000250339508
      vertex -0.0030505001824349164 -0.011880998818203811 -0.031801998615264893
      vertex -0.0028014999162405728 -0.016062994806095961 -0.035806000232696533
    endloop
  endfacet
  facet normal -0.69288404466044062 -0.20616909727611032 0.69094573157617967
    outer loop
      vertex 0.0010564999491907657 -0.011989993361756209 -0.027715999633073807
      vertex -0.0030505001824349164 -0.011880998818203811 -0.031801998615264893
      vertex 0.0010534999263472856 -0.017016996948048476 -0.029218999668955803
    endloop
  endfacet
  facet normal -0.61623753759274891 -0.099508327903704355 0.78124860956000042
    outer loop
      vertex -0.0023955000843852757 -0.016902995614334945 -0.031925000250339508
      vertex 0.0010534999263472856 -0.017016996948048476 -0.029218999668955803
      vertex -0.0030505001824349164 -0.011880998818203811 -0.031801998615264893
    endloop
  endfacet
  facet normal 0.86257242416785818 0.079581402135997334 -0.49963548062487823
    outer loop
      vertex 0.0062034999672323466 -0.0050479968469589976 -0.039248000830411911
      vertex 0.0078254997450858364 -0.0054009979050606517 -0.036504000425338745
      vertex 0.0070815001334995032 -0.010784996060654525 -0.038646001368761063
    endloop
  endfacet
  facet normal 0.96576748025634707 -0.030990954513498075 -0.25755142169603529
    outer loop
      vertex 0.0077524998877197505 -0.010916997997090224 -0.036113999783992767
      vertex 0.0070815001334995032 -0.010784996060654525 -0.038646001368761063
      vertex 0.0078254997450858364 -0.0054009979050606517 -0.036504000425338745
    endloop
  endfacet
  facet normal 0.65675109403244369 0.021411600905338238 -0.75380338539559422
    outer loop
      vertex 0.0062034999672323466 -0.0050479968469589976 -0.039248000830411911
      vertex 0.0070815001334995032 -0.010784996060654525 -0.038646001368761063
      vertex 0.0044204998947679998 -0.010418993739411238 -0.040954001247882843
    endloop
  endfacet
  facet normal 0.98736375441214486 -0.0018633413694749698 0.15845928319948538
    outer loop
      vertex 0.0078254997450858364 -0.0054009979050606517 -0.036504000425338745
      vertex 0.0070804998930543662 -0.0062609960716217784 -0.03187200054526329
      vertex 0.0077524998877197505 -0.010916997997090224 -0.036113999783992767
    endloop
  endfacet
  facet normal 0.99147672101402018 0.026971804619212485 0.12746149788414507
    outer loop
      vertex 0.0077524998877197505 -0.010916997997090224 -0.036113999783992767
      vertex 0.0070804998930543662 -0.0062609960716217784 -0.03187200054526329
      vertex 0.0072515000309795142 -0.011752997843548659 -0.032039999961853027
    endloop
  endfacet
  facet normal 0.055878732188860102 0.28535741517885488 -0.95679084072299103
    outer loop
      vertex 0.0062034999672323466 -0.0050479968469589976 -0.039248000830411911
      vertex 0.0044204998947679998 -0.010418993739411238 -0.040954001247882843
      vertex -3.4500034525990382e-05 -0.0050000002067536143 -0.039597999304533005
    endloop
  endfacet
  facet normal 0.010077401515122056 0.25052319106573451 -0.9680581473842077
    outer loop
      vertex -3.4500034525990382e-05 -0.0050000002067536143 -0.039597999304533005
      vertex 0.0044204998947679998 -0.010418993739411238 -0.040954001247882843
      vertex -0.00062550011090934266 -0.010130998997017745 -0.040931999683380127
    endloop
  endfacet
  facet normal 0.89401913420752066 -0.084276232926868241 0.44003102644528513
    outer loop
      vertex 0.0054324999172240497 -0.012189996747300032 -0.028427999466657639
      vertex 0.0072515000309795142 -0.011752997843548659 -0.032039999961853027
      vertex 0.0058404997643083335 -0.006472994891926649 -0.028162000700831413
    endloop
  endfacet
  facet normal 0.94790113131739773 0.019788029872744917 0.31794949146201301
    outer loop
      vertex 0.0070804998930543662 -0.0062609960716217784 -0.03187200054526329
      vertex 0.0058404997643083335 -0.006472994891926649 -0.028162000700831413
      vertex 0.0072515000309795142 -0.011752997843548659 -0.032039999961853027
    endloop
  endfacet
  facet normal -0.87441467006141738 0.21393343940881782 -0.43546695429630056
    outer loop
      vertex -0.00062550011090934266 -0.010130998997017745 -0.040931999683380127
      vertex -0.0031545000430196523 -0.010621999708935622 -0.036095000803470612
      vertex -3.4500034525990382e-05 -0.0050000002067536143 -0.039597999304533005
    endloop
  endfacet
  facet normal -0.86526813565782423 0.19152756444573105 -0.46327987812198285
    outer loop
      vertex -0.0025605001766234635 -0.0053139974754303721 -0.035009998828172684
      vertex -3.4500034525990382e-05 -0.0050000002067536143 -0.039597999304533005
      vertex -0.0031545000430196523 -0.010621999708935622 -0.036095000803470612
    endloop
  endfacet
  facet normal 0.13637140235923062 -0.055752234070759868 0.98908772564151048
    outer loop
      vertex 0.0058404997643083335 -0.006472994891926649 -0.028162000700831413
      vertex 0.0013424999441485853 -0.006812994686886671 -0.027560999616980553
      vertex 0.0054324999172240497 -0.012189996747300032 -0.028427999466657639
    endloop
  endfacet
  facet normal 0.15876992678313567 -0.038309241009854188 0.9865721019786271
    outer loop
      vertex 0.0054324999172240497 -0.012189996747300032 -0.028427999466657639
      vertex 0.0013424999441485853 -0.006812994686886671 -0.027560999616980553
      vertex 0.0010564999491907657 -0.011989993361756209 -0.027715999633073807
    endloop
  endfacet
  facet normal -0.99375067330807421 0.098291475022540556 0.052899765950731821
    outer loop
      vertex -0.0030505001824349164 -0.011880998818203811 -0.031801998615264893
      vertex -0.0025204998720437287 -0.0068949957769364146 -0.031109999865293503
      vertex -0.0031545000430196523 -0.010621999708935622 -0.036095000803470612
    endloop
  endfacet
  facet normal -0.99360106466389597 0.10075807494911421 0.051036600898972828
    outer loop
      vertex -0.0025605001766234635 -0.0053139974754303721 -0.035009998828172684
      vertex -0.0031545000430196523 -0.010621999708935622 -0.036095000803470612
      vertex -0.0025204998720437287 -0.0068949957769364146 -0.031109999865293503
    endloop
  endfacet
  facet normal -0.70541104123704712 -0.023336061996300062 0.70841420871646132
    outer loop
      vertex -0.0030505001824349164 -0.011880998818203811 -0.031801998615264893
      vertex 0.0010564999491907657 -0.011989993361756209 -0.027715999633073807
      vertex -0.0025204998720437287 -0.0068949957769364146 -0.031109999865293503
    endloop
  endfacet
  facet normal -0.67664127901050586 0.015340099208765608 0.73615301459363192
    outer loop
      vertex 0.0013424999441485853 -0.006812994686886671 -0.027560999616980553
      vertex -0.0025204998720437287 -0.0068949957769364146 -0.031109999865293503
      vertex 0.0010564999491907657 -0.011989993361756209 -0.027715999633073807
    endloop
  endfacet
  facet normal -0.010879937739813146 0.94611212117558752 0.32365642449889342
    outer loop
      vertex 0.0062034999672323466 -0.0050479968469589976 -0.039248000830411911
      vertex -3.4500034525990382e-05 -0.0050000002067536143 -0.039597999304533005
      vertex 0.0032524999650195242 -0.0067249958794564036 -0.034444998949766159
    endloop
  endfacet
  facet normal -0.17524338591811764 0.95803758873487044 0.22683415585627445
    outer loop
      vertex 0.0078254997450858364 -0.0054009979050606517 -0.036504000425338745
      vertex 0.0062034999672323466 -0.0050479968469589976 -0.039248000830411911
      vertex 0.0032524999650195242 -0.0067249958794564036 -0.034444998949766159
    endloop
  endfacet
  facet normal -0.21444396108446145 0.9659360395993809 0.14484942166770695
    outer loop
      vertex 0.0070804998930543662 -0.0062609960716217784 -0.03187200054526329
      vertex 0.0078254997450858364 -0.0054009979050606517 -0.036504000425338745
      vertex 0.0032524999650195242 -0.0067249958794564036 -0.034444998949766159
    endloop
  endfacet
  facet normal -0.12923431031435392 0.99152267566984442 0.013463902483527307
    outer loop
      vertex 0.0058404997643083335 -0.006472994891926649 -0.028162000700831413
      vertex 0.0070804998930543662 -0.0062609960716217784 -0.03187200054526329
      vertex 0.0032524999650195242 -0.0067249958794564036 -0.034444998949766159
    endloop
  endfacet
  facet normal 0.21493253392282644 0.95914354965097537 0.18397732747390305
    outer loop
      vertex -3.4500034525990382e-05 -0.0050000002067536143 -0.039597999304533005
      vertex -0.0025605001766234635 -0.0053139974754303721 -0.035009998828172684
      vertex 0.0032524999650195242 -0.0067249958794564036 -0.034444998949766159
    endloop
  endfacet
  facet normal -0.076497883150928245 0.99703368608471876 -0.00847954513789532
    outer loop
      vertex 0.0013424999441485853 -0.006812994686886671 -0.027560999616980553
      vertex 0.0058404997643083335 -0.006472994891926649 -0.028162000700831413
      vertex 0.0032524999650195242 -0.0067249958794564036 -0.034444998949766159
    endloop
  endfacet
  facet normal 0.18548453069000514 0.91132532379403119 0.36753454679310477
    outer loop
      vertex -0.0025605001766234635 -0.0053139974754303721 -0.035009998828172684
      vertex -0.0025204998720437287 -0.0068949957769364146 -0.031109999865293503
      vertex 0.0032524999650195242 -0.0067249958794564036 -0.034444998949766159
    endloop
  endfacet
  facet normal -0.026264570067344215 0.99963994442056747 0.0054912546856070799
    outer loop
      vertex -0.0025204998720437287 -0.0068949957769364146 -0.031109999865293503
      vertex 0.0013424999441485853 -0.006812994686886671 -0.027560999616980553
      vertex 0.0032524999650195242 -0.0067249958794564036 -0.034444998949766159
    endloop
  endfacet
endsolid OBJECT
