solid OBJECT
  facet normal -0.13211721803438617 0.88320259797426692 0.44999801291823521
    outer loop
      vertex 0.0043130000259261579 -0.013318995501846091 0.011393001139164083
      vertex 0.0075940000962000341 -0.010217989351600424 0.0062700005471707501
      vertex 0.0004060000784229488 -0.011120001342147605 0.0059300007522107281
    endloop
  endfacet
  facet normal -0.12833986406788428 0.98725718951257113 0.094085711172188266
    outer loop
      vertex 0.0055900000871624798 -0.010000000264495627 0.0012490002661944546
      vertex 0.0004060000784229488 -0.011120001342147605 0.0059300007522107281
      vertex 0.0075940000962000341 -0.010217989351600424 0.0062700005471707501
    endloop
  endfacet
  facet normal 0.86504922651553717 -0.10470075109512059 0.49063997842102947
    outer loop
      vertex 0.0075940000962000341 -0.010217989351600424 0.0062700005471707501
      vertex 0.0043130000259261579 -0.013318995501846091 0.011393001139164083
      vertex 0.0075240000870544464 -0.014085988070815817 0.0055680012553931393
    endloop
  endfacet
  facet normal 0.83620862031802723 -0.24088893593005226 0.49267399348078894
    outer loop
      vertex 0.0042180000010412187 -0.016280988719314354 0.010106000885367505
      vertex 0.0075240000870544464 -0.014085988070815817 0.0055680012553931393
      vertex 0.0043130000259261579 -0.013318995501846091 0.011393001139164083
    endloop
  endfacet
  facet normal -0.83319490941018692 -0.19256962419262358 0.51836587732147443
    outer loop
      vertex 0.0004060000784229488 -0.011120001342147605 0.0059300007522107281
      vertex 0.0006319999366533012 -0.015144998695701377 0.0047980005145074047
      vertex 0.0043130000259261579 -0.013318995501846091 0.011393001139164083
    endloop
  endfacet
  facet normal -0.83129022109759643 -0.1988660471184088 0.5190461093303832
    outer loop
      vertex 0.0042180000010412187 -0.016280988719314354 0.010106000885367505
      vertex 0.0043130000259261579 -0.013318995501846091 0.011393001139164083
      vertex 0.0006319999366533012 -0.015144998695701377 0.0047980005145074047
    endloop
  endfacet
  facet normal 0.91523981677107069 0.0073911210302861127 -0.40284171721257039
    outer loop
      vertex 0.0055160001057665796 -0.014407987263053671 0.001000000000000111
      vertex 0.0055900000871624798 -0.010000000264495627 0.0012490002661944546
      vertex 0.0075240000870544464 -0.014085988070815817 0.0055680012553931393
    endloop
  endfacet
  facet normal 0.92833926111847531 0.050050974341276581 -0.36834917705010817
    outer loop
      vertex 0.0075940000962000341 -0.010217989351600424 0.0062700005471707501
      vertex 0.0075240000870544464 -0.014085988070815817 0.0055680012553931393
      vertex 0.0055900000871624798 -0.010000000264495627 0.0012490002661944546
    endloop
  endfacet
  facet normal -0.67551396243103401 0.052884644644947659 -0.73544823129945813
    outer loop
      vertex 0.0055900000871624798 -0.010000000264495627 0.0012490002661944546
      vertex 0.0055160001057665796 -0.014407987263053671 0.001000000000000111
      vertex 0.0004060000784229488 -0.011120001342147605 0.0059300007522107281
    endloop
  endfacet
  facet normal -0.62063401298511356 0.17979839719386156 -0.76320767703981618
    outer loop
      vertex 0.0006319999366533012 -0.015144998695701377 0.0047980005145074047
      vertex 0.0004060000784229488 -0.011120001342147605 0.0059300007522107281
      vertex 0.0055160001057665796 -0.014407987263053671 0.001000000000000111
    endloop
  endfacet
  facet normal 0.83596619924007498 -0.21694811948094334 0.50407740197492079
    outer loop
      vertex 0.0075240000870544464 -0.014085988070815817 0.0055680012553931393
      vertex 0.0042180000010412187 -0.016280988719314354 0.010106000885367505
      vertex 0.0064520001024939121 -0.017837996151298302 0.0057310013324023404
    endloop
  endfacet
  facet normal 0.82820578067329187 -0.2377210368037426 0.50750753050599839
    outer loop
      vertex 0.0037860002040397377 -0.019446993734687584 0.0093280000835658239
      vertex 0.0064520001024939121 -0.017837996151298302 0.0057310013324023404
      vertex 0.0042180000010412187 -0.016280988719314354 0.010106000885367505
    endloop
  endfacet
  facet normal -0.83181327802422866 -0.19149069233721486 0.52097791244044267
    outer loop
      vertex 0.0006319999366533012 -0.015144998695701377 0.0047980005145074047
      vertex 0.0016290003105532379 -0.01904598858579995 0.0049560012519360699
      vertex 0.0042180000010412187 -0.016280988719314354 0.010106000885367505
    endloop
  endfacet
  facet normal -0.89622844217981013 0.013332531007039619 0.44339240300764871
    outer loop
      vertex 0.0037860002040397377 -0.019446993734687584 0.0093280000835658239
      vertex 0.0042180000010412187 -0.016280988719314354 0.010106000885367505
      vertex 0.0016290003105532379 -0.01904598858579995 0.0049560012519360699
    endloop
  endfacet
  facet normal 0.8565142687318269 -0.37954846266783587 -0.34975172900968798
    outer loop
      vertex 0.0055160001057665796 -0.014407987263053671 0.001000000000000111
      vertex 0.0075240000870544464 -0.014085988070815817 0.0055680012553931393
      vertex 0.0044330000083427877 -0.018353993561118859 0.0026300007700921215
    endloop
  endfacet
  facet normal 0.82867540306035115 -0.25833562679228467 -0.49654786304303239
    outer loop
      vertex 0.0064520001024939121 -0.017837996151298302 0.0057310013324023404
      vertex 0.0044330000083427877 -0.018353993561118859 0.0026300007700921215
      vertex 0.0075240000870544464 -0.014085988070815817 0.0055680012553931393
    endloop
  endfacet
  facet normal -0.58989356874798782 -0.16464472192836088 -0.79051735786818467
    outer loop
      vertex 0.0055160001057665796 -0.014407987263053671 0.001000000000000111
      vertex 0.0044330000083427877 -0.018353993561118859 0.0026300007700921215
      vertex 0.0006319999366533012 -0.015144998695701377 0.0047980005145074047
    endloop
  endfacet
  facet normal -0.60002133853397888 -0.18487563674519264 -0.77832858886331036
    outer loop
      vertex 0.0016290003105532379 -0.01904598858579995 0.0049560012519360699
      vertex 0.0006319999366533012 -0.015144998695701377 0.0047980005145074047
      vertex 0.0044330000083427877 -0.018353993561118859 0.0026300007700921215
    endloop
  endfacet
  facet normal 0.81339432391254318 -0.052621574410166495 0.57932775156508087
    outer loop
      vertex 0.0064520001024939121 -0.017837996151298302 0.0057310013324023404
      vertex 0.0037860002040397377 -0.019446993734687584 0.0093280000835658239
      vertex 0.0062840000747237355 -0.021777997281402367 0.0056089999377728619
    endloop
  endfacet
  facet normal 0.74932772431850803 -0.20275427277998825 0.63039564278086813
    outer loop
      vertex 0.0038030001006554813 -0.022312993671745079 0.0083860008269549535
      vertex 0.0062840000747237355 -0.021777997281402367 0.0056089999377728619
      vertex 0.0037860002040397377 -0.019446993734687584 0.0093280000835658239
    endloop
  endfacet
  facet normal -0.84622091835392377 -0.003708020423017475 0.53281930138160727
    outer loop
      vertex 0.0017730000100564212 -0.023169989254325646 0.0051560009121895947
      vertex 0.0038030001006554813 -0.022312993671745079 0.0083860008269549535
      vertex 0.0016290003105532379 -0.01904598858579995 0.0049560012519360699
    endloop
  endfacet
  facet normal -0.89246860598305111 -0.14562649533879923 0.42695750513371727
    outer loop
      vertex 0.0037860002040397377 -0.019446993734687584 0.0093280000835658239
      vertex 0.0016290003105532379 -0.01904598858579995 0.0049560012519360699
      vertex 0.0038030001006554813 -0.022312993671745079 0.0083860008269549535
    endloop
  endfacet
  facet normal 0.83931901574712608 -0.018964777707702534 -0.54330831671507929
    outer loop
      vertex 0.0064520001024939121 -0.017837996151298302 0.0057310013324023404
      vertex 0.0062840000747237355 -0.021777997281402367 0.0056089999377728619
      vertex 0.0044330000083427877 -0.018353993561118859 0.0026300007700921215
    endloop
  endfacet
  facet normal 0.780729924352487 -0.1126849757013801 -0.61462417904906674
    outer loop
      vertex 0.0041610000326763839 -0.022692988183349388 0.0030800009369851269
      vertex 0.0044330000083427877 -0.018353993561118859 0.0026300007700921215
      vertex 0.0062840000747237355 -0.021777997281402367 0.0056089999377728619
    endloop
  endfacet
  facet normal -0.6319657957954864 -0.040648527057121089 -0.77392953826085731
    outer loop
      vertex 0.0044330000083427877 -0.018353993561118859 0.0026300007700921215
      vertex 0.0041610000326763839 -0.022692988183349388 0.0030800009369851269
      vertex 0.0016290003105532379 -0.01904598858579995 0.0049560012519360699
    endloop
  endfacet
  facet normal -0.64813452000740213 -0.059449863339095986 -0.7592017898580965
    outer loop
      vertex 0.0016290003105532379 -0.01904598858579995 0.0049560012519360699
      vertex 0.0041610000326763839 -0.022692988183349388 0.0030800009369851269
      vertex 0.0017730000100564212 -0.023169989254325646 0.0051560009121895947
    endloop
  endfacet
  facet normal 0.73444640128512573 0.087449308214413407 0.67300899112281443
    outer loop
      vertex 0.0062840000747237355 -0.021777997281402367 0.0056089999377728619
      vertex 0.0038030001006554813 -0.022312993671745079 0.0083860008269549535
      vertex 0.006246000076411292 -0.025606999661773461 0.0061480010151864209
    endloop
  endfacet
  facet normal 0.85095116353625244 0.3991406681072614 0.34142179827771257
    outer loop
      vertex 0.0050290001227986068 -0.025309989716857689 0.0088340005129576848
      vertex 0.006246000076411292 -0.025606999661773461 0.0061480010151864209
      vertex 0.0038030001006554813 -0.022312993671745079 0.0083860008269549535
    endloop
  endfacet
  facet normal -0.7569039242659491 -0.029566058227415554 0.65285702694518
    outer loop
      vertex 0.002062999889953062 -0.027303988602012413 0.0053050013482571759
      vertex 0.0050290001227986068 -0.025309989716857689 0.0088340005129576848
      vertex 0.0017730000100564212 -0.023169989254325646 0.0051560009121895947
    endloop
  endfacet
  facet normal -0.79195168434581753 -0.24004623943939982 0.56141814416068259
    outer loop
      vertex 0.0038030001006554813 -0.022312993671745079 0.0083860008269549535
      vertex 0.0017730000100564212 -0.023169989254325646 0.0051560009121895947
      vertex 0.0050290001227986068 -0.025309989716857689 0.0088340005129576848
    endloop
  endfacet
  facet normal 0.86748174134211775 0.10986590138846779 -0.48518544099153132
    outer loop
      vertex 0.0047480000786017627 -0.027477989461272972 0.003046000212431065
      vertex 0.0041610000326763839 -0.022692988183349388 0.0030800009369851269
      vertex 0.006246000076411292 -0.025606999661773461 0.0061480010151864209
    endloop
  endfacet
  facet normal 0.77909872802809677 -0.094961308154130813 -0.61966726711894182
    outer loop
      vertex 0.0062840000747237355 -0.021777997281402367 0.0056089999377728619
      vertex 0.006246000076411292 -0.025606999661773461 0.0061480010151864209
      vertex 0.0041610000326763839 -0.022692988183349388 0.0030800009369851269
    endloop
  endfacet
  facet normal -0.6448350053269768 -0.073699411206780197 -0.76076028595920531
    outer loop
      vertex 0.0047480000786017627 -0.027477989461272972 0.003046000212431065
      vertex 0.002062999889953062 -0.027303988602012413 0.0053050013482571759
      vertex 0.0041610000326763839 -0.022692988183349388 0.0030800009369851269
    endloop
  endfacet
  facet normal -0.64603732136124126 -0.072705993632001226 -0.75983525707772703
    outer loop
      vertex 0.0017730000100564212 -0.023169989254325646 0.0051560009121895947
      vertex 0.0041610000326763839 -0.022692988183349388 0.0030800009369851269
      vertex 0.002062999889953062 -0.027303988602012413 0.0053050013482571759
    endloop
  endfacet
  facet normal 0.91304576333602205 0.2448153076482133 0.32620990051690901
    outer loop
      vertex 0.0071610000878572465 -0.029325986769050377 0.0063780004382134594
      vertex 0.006246000076411292 -0.025606999661773461 0.0061480010151864209
      vertex 0.0059510001002345235 -0.02831899609789254 0.009009001612663381
    endloop
  endfacet
  facet normal 0.88291202406692348 0.29192461302100059 0.36775858667145667
    outer loop
      vertex 0.0050290001227986068 -0.025309989716857689 0.0088340005129576848
      vertex 0.0059510001002345235 -0.02831899609789254 0.009009001612663381
      vertex 0.006246000076411292 -0.025606999661773461 0.0061480010151864209
    endloop
  endfacet
  facet normal -0.70194219643585631 -0.14150229152969729 0.69803599789312454
    outer loop
      vertex 0.0034910000532399864 -0.030909995105117577 0.0060100013613701977
      vertex 0.0059510001002345235 -0.02831899609789254 0.009009001612663381
      vertex 0.002062999889953062 -0.027303988602012413 0.0053050013482571759
    endloop
  endfacet
  facet normal -0.70269071700410046 -0.17520821789110988 0.68958526421297939
    outer loop
      vertex 0.0050290001227986068 -0.025309989716857689 0.0088340005129576848
      vertex 0.002062999889953062 -0.027303988602012413 0.0053050013482571759
      vertex 0.0059510001002345235 -0.02831899609789254 0.009009001612663381
    endloop
  endfacet
  facet normal 0.82355064052646887 0.057931560252605742 -0.56427677323733738
    outer loop
      vertex 0.005622000097995624 -0.031749988462775963 0.0038830002993346371
      vertex 0.0047480000786017627 -0.027477989461272972 0.003046000212431065
      vertex 0.0071610000878572465 -0.029325986769050377 0.0063780004382134594
    endloop
  endfacet
  facet normal 0.84100936443218588 0.1752625880741967 -0.51184594768241098
    outer loop
      vertex 0.0047480000786017627 -0.027477989461272972 0.003046000212431065
      vertex 0.006246000076411292 -0.025606999661773461 0.0061480010151864209
      vertex 0.0071610000878572465 -0.029325986769050377 0.0063780004382134594
    endloop
  endfacet
  facet normal -0.6102923045988653 -0.37780702114014736 -0.69627951120553189
    outer loop
      vertex 0.002062999889953062 -0.027303988602012413 0.0053050013482571759
      vertex 0.0047480000786017627 -0.027477989461272972 0.003046000212431065
      vertex 0.0034910000532399864 -0.030909995105117577 0.0060100013613701977
    endloop
  endfacet
  facet normal -0.7313967302503992 -0.27214736243218168 -0.62529563895827045
    outer loop
      vertex 0.005622000097995624 -0.031749988462775963 0.0038830002993346371
      vertex 0.0034910000532399864 -0.030909995105117577 0.0060100013613701977
      vertex 0.0047480000786017627 -0.027477989461272972 0.003046000212431065
    endloop
  endfacet
  facet normal 0.91371320631061215 0.23871451023441512 0.32885188036124136
    outer loop
      vertex 0.0059510001002345235 -0.02831899609789254 0.009009001612663381
      vertex 0.0067200000986340457 -0.031351993348449486 0.0090740004777909444
      vertex 0.0071610000878572465 -0.029325986769050377 0.0063780004382134594
    endloop
  endfacet
  facet normal 0.95875372366681577 -0.27924877748916888 -0.053022802885361715
    outer loop
      vertex 0.0061060001163277776 -0.033044988777488488 0.0068880001306534924
      vertex 0.0071610000878572465 -0.029325986769050377 0.0063780004382134594
      vertex 0.0067200000986340457 -0.031351993348449486 0.0090740004777909444
    endloop
  endfacet
  facet normal -0.70377707734178963 -0.13835151478706703 0.6968189748882937
    outer loop
      vertex 0.0034910000532399864 -0.030909995105117577 0.0060100013613701977
      vertex 0.0055780001122038812 -0.033633986975997704 0.0075770000219346203
      vertex 0.0059510001002345235 -0.02831899609789254 0.009009001612663381
    endloop
  endfacet
  facet normal -0.66059934927597985 -0.15173466216502451 0.73524491976063167
    outer loop
      vertex 0.0067200000986340457 -0.031351993348449486 0.0090740004777909444
      vertex 0.0059510001002345235 -0.02831899609789254 0.009009001612663381
      vertex 0.0055780001122038812 -0.033633986975997704 0.0075770000219346203
    endloop
  endfacet
  facet normal 0.91429169399344667 -0.29711790146184636 -0.27530283493909391
    outer loop
      vertex 0.005622000097995624 -0.031749988462775963 0.0038830002993346371
      vertex 0.0071610000878572465 -0.029325986769050377 0.0063780004382134594
      vertex 0.0061060001163277776 -0.033044988777488488 0.0068880001306534924
    endloop
  endfacet
  facet normal -0.56063113318228419 -0.78945237286042269 -0.24991535265324549
    outer loop
      vertex 0.005622000097995624 -0.031749988462775963 0.0038830002993346371
      vertex 0.0061060001163277776 -0.033044988777488488 0.0068880001306534924
      vertex 0.0034910000532399864 -0.030909995105117577 0.0060100013613701977
    endloop
  endfacet
  facet normal -0.26297166019820051 -0.62452327745691893 -0.73540232651730897
    outer loop
      vertex 0.0061060001163277776 -0.033044988777488488 0.0068880001306534924
      vertex 0.0055780001122038812 -0.033633986975997704 0.0075770000219346203
      vertex 0.0034910000532399864 -0.030909995105117577 0.0060100013613701977
    endloop
  endfacet
  facet normal 0.82756822398214214 -0.5318959476450682 0.17949243865354791
    outer loop
      vertex 0.0061060001163277776 -0.033044988777488488 0.0068880001306534924
      vertex 0.0067200000986340457 -0.031351993348449486 0.0090740004777909444
      vertex 0.0055780001122038812 -0.033633986975997704 0.0075770000219346203
    endloop
  endfacet
endsolid OBJECT
